<?xml version="1.0" standalone="no"?>
<!DOCTYPE svg PUBLIC "-//W3C//DTD SVG 20010904//EN"
 "http://www.w3.org/TR/2001/REC-SVG-20010904/DTD/svg10.dtd">
<svg version="1.0" xmlns="http://www.w3.org/2000/svg"
 width="3840.000000pt" height="2160.000000pt" viewBox="0 0 3840.000000 2160.000000"
 preserveAspectRatio="xMidYMid meet">

<g transform="translate(0.000000,2160.000000) scale(0.100000,-0.100000)"
fill="#000000" stroke="none">
<path d="M7000 15611 c0 -5 -9 -7 -21 -4 -31 8 -370 -21 -549 -48 -268 -40
-561 -110 -829 -199 -126 -42 -417 -157 -481 -189 -19 -10 -71 -36 -115 -57
-323 -156 -721 -420 -1010 -669 -200 -172 -455 -439 -631 -660 -130 -164 -349
-487 -397 -585 -4 -8 -25 -46 -47 -85 -59 -104 -169 -328 -217 -445 -8 -19
-18 -44 -23 -55 -35 -79 -132 -355 -156 -445 -67 -246 -67 -246 -98 -390 -33
-152 -69 -415 -86 -620 -21 -247 -5 -793 30 -1013 6 -40 15 -101 21 -137 21
-136 80 -404 119 -535 22 -75 92 -292 100 -310 4 -11 27 -69 51 -130 23 -60
56 -141 73 -180 35 -80 173 -353 205 -405 11 -19 24 -42 28 -50 3 -8 21 -39
40 -68 18 -29 33 -54 33 -56 0 -16 245 -364 334 -476 271 -337 626 -674 966
-916 499 -356 1041 -605 1635 -754 320 -79 550 -113 982 -141 191 -12 204 -12
608 17 39 3 77 7 85 9 8 2 44 7 80 10 36 4 76 9 90 11 14 2 56 9 93 14 38 6
88 14 110 19 23 5 69 15 102 21 288 57 654 173 925 292 78 35 362 175 440 218
236 130 516 325 760 529 135 112 406 382 536 531 286 329 566 770 738 1160 26
58 51 114 56 125 16 33 65 164 103 270 90 254 176 599 207 835 6 46 13 87 15
90 1 3 6 39 10 80 4 41 10 96 14 121 19 121 19 797 0 918 -4 25 -10 80 -14
121 -4 41 -9 77 -10 80 -2 3 -9 44 -15 90 -56 415 -216 925 -425 1356 -354
728 -910 1379 -1573 1840 -76 53 -310 204 -316 204 -2 0 -41 22 -87 48 -111
64 -455 232 -474 232 -3 0 -24 9 -48 20 -55 25 -137 57 -212 82 -33 10 -69 23
-80 28 -21 8 -154 49 -240 73 -242 69 -481 115 -755 147 -295 34 -680 51 -680
31z m1078 -1954 c159 -79 402 -254 499 -361 149 -164 254 -352 297 -531 37
-157 38 -172 33 -335 -5 -178 -24 -274 -72 -378 -14 -29 -25 -54 -25 -57 0 -2
-20 -33 -46 -69 -95 -137 -243 -236 -399 -269 -86 -18 -260 -14 -328 7 -196
62 -344 196 -410 371 -66 175 -61 333 16 488 45 90 114 172 237 280 95 83 173
169 196 213 7 13 20 38 30 56 28 54 30 60 48 135 40 162 5 294 -109 421 -31
34 -52 62 -46 62 7 0 42 -15 79 -33z m-2178 -235 c0 -5 -12 -19 -26 -33 -38
-35 -138 -176 -174 -245 -55 -106 -73 -184 -68 -304 7 -154 43 -250 164 -432
123 -185 340 -387 604 -562 272 -181 560 -335 1120 -598 571 -269 750 -375
926 -552 145 -145 253 -289 306 -406 84 -184 103 -243 142 -444 25 -122 22
-498 -4 -636 -30 -158 -34 -177 -69 -279 -79 -229 -217 -443 -405 -624 -72
-69 -154 -133 -162 -125 -2 3 16 27 41 54 100 110 182 244 220 359 66 203 7
430 -176 675 -91 123 -156 189 -309 317 -105 89 -424 313 -445 313 -3 0 -31
16 -61 35 -30 19 -56 35 -58 35 -2 0 -33 16 -68 36 -34 20 -164 87 -288 148
-226 114 -305 152 -545 266 -365 173 -575 287 -699 380 -67 49 -215 197 -283
283 -58 72 -134 190 -176 272 -48 95 -105 281 -134 435 -23 119 -22 482 0 600
29 154 59 267 96 365 25 65 109 223 163 305 97 148 368 414 368 362z m229
-3488 c155 -45 315 -173 378 -304 50 -105 55 -121 68 -215 15 -110 5 -197 -34
-293 -51 -126 -117 -205 -313 -375 -86 -74 -168 -197 -202 -301 -21 -63 -26
-98 -26 -179 0 -93 2 -105 34 -171 19 -39 58 -97 86 -128 28 -32 46 -58 40
-58 -14 0 -173 84 -215 114 -16 11 -40 26 -53 33 -41 22 -206 150 -262 205
-188 181 -315 414 -361 663 -19 100 -16 352 4 445 36 161 93 275 191 377 109
116 237 184 376 202 83 10 225 3 289 -15z"/>
<path d="M14938 12693 c-133 -20 -198 -33 -283 -59 -98 -30 -254 -93 -276
-111 -8 -7 -19 -13 -24 -13 -27 0 -185 -123 -266 -208 -190 -198 -269 -407
-269 -707 0 -272 64 -446 225 -611 106 -108 206 -172 400 -255 36 -16 179 -59
245 -74 153 -35 273 -54 490 -75 421 -41 621 -99 751 -218 72 -66 115 -140
134 -230 59 -282 -74 -510 -361 -618 -38 -14 -91 -30 -119 -35 -27 -6 -75 -15
-105 -21 -91 -19 -420 -15 -520 6 -194 40 -334 104 -438 201 -101 94 -138 165
-168 323 l-4 22 -298 -2 -297 -3 -1 -40 c-2 -98 39 -264 96 -390 63 -138 233
-325 385 -425 77 -50 254 -140 275 -140 6 0 18 -4 28 -9 47 -24 247 -75 365
-93 116 -17 486 -19 607 -3 225 31 342 63 524 141 154 66 251 130 362 239 210
207 294 416 294 735 0 282 -77 494 -240 661 -159 162 -398 272 -725 334 -44 9
-100 20 -125 25 -25 6 -83 15 -130 21 -47 5 -121 14 -165 19 -44 5 -123 16
-175 24 -271 43 -341 61 -470 124 -169 83 -244 218 -234 420 4 77 16 116 57
195 63 120 223 230 407 278 147 39 332 48 495 24 141 -20 206 -39 312 -91 167
-82 280 -227 295 -379 l3 -30 284 -3 c219 -2 286 1 292 10 9 15 4 71 -16 180
-70 376 -323 642 -745 784 -254 85 -607 116 -872 77z"/>
<path d="M24797 12663 c-1 -1 -36 -3 -78 -4 -135 -4 -329 -42 -489 -95 -104
-35 -283 -118 -371 -171 -217 -132 -431 -339 -561 -543 -59 -92 -151 -282
-183 -375 -77 -228 -106 -417 -106 -695 -1 -362 52 -608 191 -895 148 -305
351 -531 637 -711 237 -149 414 -210 793 -273 68 -11 385 -12 460 -1 30 5 75
11 100 14 94 12 295 64 395 103 375 146 671 415 843 763 58 117 68 140 94 220
74 222 113 501 106 775 l-3 150 -860 0 -860 0 0 -255 0 -255 568 -3 567 -2 0
-23 c0 -65 -51 -248 -96 -345 -13 -29 -24 -55 -24 -58 0 -3 -25 -43 -55 -89
-150 -227 -368 -359 -695 -422 -121 -23 -455 -24 -565 -1 -368 77 -644 280
-813 598 -192 363 -217 887 -61 1280 67 168 139 280 264 408 189 197 409 305
695 342 204 27 440 5 630 -57 242 -80 429 -238 559 -475 l30 -53 300 -3 c347
-3 319 -14 275 110 -97 275 -253 502 -469 678 -237 194 -593 329 -935 356 -72
6 -280 11 -283 7z"/>
<path d="M18434 12611 c-2 -2 -4 -587 -4 -1300 0 -1344 0 -1349 40 -1496 75
-277 240 -506 483 -668 135 -90 253 -144 432 -197 39 -11 172 -36 258 -49 85
-12 361 -13 431 -1 28 5 69 11 91 14 127 16 319 77 455 145 132 66 220 130
326 235 133 134 217 267 273 434 69 204 65 108 69 1565 1 724 -1 1318 -5 1318
-42 6 -572 3 -585 -3 -16 -8 -18 -90 -20 -1301 l-3 -1292 -23 -60 c-13 -33
-26 -69 -29 -80 -12 -39 -102 -170 -145 -211 -103 -97 -221 -159 -383 -200
-99 -26 -361 -26 -460 0 -183 47 -274 96 -386 206 -114 113 -151 180 -193 348
-14 56 -16 207 -16 1328 0 695 -3 1264 -7 1265 -24 4 -595 3 -599 0z"/>
<path d="M29622 12607 c-6 -7 -30 -53 -53 -102 -40 -88 -69 -150 -154 -330
-68 -146 -115 -244 -157 -335 -22 -47 -63 -132 -90 -190 -28 -58 -63 -132 -78
-165 -63 -138 -81 -176 -135 -290 -98 -207 -122 -258 -158 -335 -19 -41 -55
-118 -80 -170 -24 -52 -61 -131 -82 -175 -20 -44 -53 -114 -72 -155 -20 -41
-53 -112 -74 -157 -22 -46 -57 -122 -80 -170 -23 -49 -59 -126 -81 -173 -71
-152 -95 -203 -167 -354 -39 -81 -71 -149 -71 -151 0 -2 -25 -56 -56 -121 -31
-66 -69 -147 -85 -181 -30 -65 -38 -128 -16 -135 10 -4 598 -3 627 1 10 1 36
54 142 281 17 36 45 97 63 135 18 39 56 118 84 177 28 60 51 112 51 116 0 5
10 17 23 28 22 20 37 20 842 20 451 -1 825 -5 832 -9 11 -7 37 -58 143 -282
196 -415 221 -463 234 -467 10 -4 569 -3 612 1 30 2 12 95 -38 201 -25 52 -57
120 -71 150 -13 30 -48 103 -75 162 -28 59 -61 128 -73 155 -21 47 -50 110
-144 308 -26 55 -61 129 -77 165 -41 89 -80 173 -149 318 -33 68 -59 125 -59
127 0 2 -25 56 -56 121 -30 66 -69 148 -86 184 -17 36 -45 97 -63 135 -80 170
-207 442 -275 590 -15 33 -48 103 -73 155 -74 158 -137 292 -137 295 0 2 -24
54 -54 116 -122 258 -150 318 -188 404 -23 50 -45 96 -51 103 -14 17 -280 17
-295 -1z m168 -988 c0 -12 102 -250 185 -434 13 -27 40 -90 60 -139 20 -49 40
-96 45 -105 11 -20 31 -67 114 -261 36 -85 70 -162 75 -171 5 -9 26 -56 46
-105 20 -49 48 -113 61 -143 20 -43 22 -56 12 -62 -18 -12 -1229 -11 -1247 0
-11 7 -12 13 -5 23 6 7 17 29 24 48 8 19 29 69 48 110 19 41 40 89 47 105 15
35 90 208 135 310 51 115 103 233 115 260 7 17 24 56 39 88 14 32 26 60 26 63
0 3 16 39 35 80 19 41 35 76 35 79 0 2 17 41 38 87 21 46 44 99 52 118 7 19
18 41 23 48 12 15 37 16 37 1z"/>
<path d="M33096 12585 c-9 -24 -8 -3665 2 -3666 27 -5 595 -3 603 1 5 4 10
266 11 641 l3 634 397 3 397 2 54 -72 c29 -40 71 -98 93 -129 77 -111 757
-1064 766 -1074 5 -6 127 -10 318 -10 l310 0 0 49 c0 46 -6 57 -82 160 -82
111 -382 525 -621 855 -70 97 -147 204 -172 238 -25 34 -45 64 -45 67 0 2 42
25 93 50 133 66 207 118 312 218 175 167 274 349 335 616 19 84 17 380 -4 480
-89 426 -361 732 -776 872 -221 75 -189 72 -1136 77 -786 4 -852 3 -858 -12z
m1739 -559 c147 -52 240 -118 325 -229 86 -115 130 -254 130 -412 0 -312 -193
-571 -487 -656 -63 -18 -104 -19 -585 -19 l-518 0 0 668 c0 368 3 672 7 676 4
4 242 6 528 4 l520 -3 80 -29z"/>
</g>
</svg>
