<?xml version="1.0" encoding="UTF-8"?>
<svg version="1.1" xmlns="http://www.w3.org/2000/svg" width="600" height="180">
<path d="M0 0 C13.88912469 10.84129026 22.2957073 24.23269172 25.6875 41.5 C27.32104219 59.79567254 22.56824629 75.78069727 11 90 C3.65190455 98.72586335 -6.23267795 104.47002127 -17 108 C-18.00353516 108.33837891 -18.00353516 108.33837891 -19.02734375 108.68359375 C-33.96317596 112.84039926 -50.91238857 110.16205091 -64.3125 102.8125 C-78.96869686 93.55388102 -89.56093101 80.3100797 -93.60522461 63.2578125 C-95.73830648 51.05821997 -95.03188637 37.32568782 -90 26 C-89.59910156 25.07445312 -89.19820312 24.14890625 -88.78515625 23.1953125 C-81.540598 8.37021649 -69.02605535 -2.08434472 -53.5 -7.4375 C-35.48046278 -12.95722088 -15.70796726 -10.79173323 0 0 Z " fill="#1E4475" transform="translate(135,40)"/>
<path d="M0 0 C4.98151538 3.25749367 9.87407283 8.47353778 11.14453125 14.40234375 C11.7442464 20.88815201 11.16009614 25.62251104 8.14453125 31.40234375 C7.15453125 31.07234375 6.16453125 30.74234375 5.14453125 30.40234375 C5.47453125 29.41234375 5.80453125 28.42234375 6.14453125 27.40234375 C8.04194592 20.56890108 7.79818685 15.3271317 4.33984375 9.16015625 C1.7918173 5.41305854 -0.95855587 3.76455857 -5.10546875 2.08984375 C-11.07998018 0.99451666 -15.76083246 1.29574345 -21.16796875 4.15234375 C-24.40669159 6.86383264 -26.95914994 9.60970614 -28.85546875 13.40234375 C-28.9425865 16.46476696 -28.97095335 19.5042084 -28.953125 22.56640625 C-28.95171005 23.4736142 -28.9502951 24.38082214 -28.94883728 25.31552124 C-28.94322971 28.2194953 -28.93067593 31.1233929 -28.91796875 34.02734375 C-28.91295473 35.99348847 -28.90839165 37.9596344 -28.90429688 39.92578125 C-28.89325781 44.75133165 -28.8759881 49.57682472 -28.85546875 54.40234375 C-27.78120481 50.5317869 -27.8041237 47.10124462 -27.8984375 43.07421875 C-27.92083744 41.61980548 -27.94229156 40.16537739 -27.96289062 38.7109375 C-27.99984716 36.43529612 -28.04275732 34.16042329 -28.10229492 31.88525391 C-28.3552064 21.7312447 -28.40722934 14.37752394 -21.16796875 6.46484375 C-17.00098553 3.87030703 -13.73749047 3.11266009 -8.85546875 3.40234375 C-3.04949407 5.14413615 1.13071575 8.00843091 4.26171875 13.28515625 C5.77633202 16.91754737 5.61902569 20.53762092 5.14453125 24.40234375 C3.64453125 27.46484375 3.64453125 27.46484375 2.14453125 29.40234375 C2.675625 29.80324219 3.20671875 30.20414063 3.75390625 30.6171875 C9.88405144 35.55038828 13.40777347 40.16061916 14.51953125 48.0703125 C14.86974958 55.82983726 13.16340595 62.45668133 8.4140625 68.6640625 C3.21124465 74.28227499 -2.46312545 77.81106677 -10.10546875 78.83984375 C-13.37163771 78.32022596 -15.24739184 77.43084801 -17.85546875 75.40234375 C-20.96318996 70.45625225 -20.60615866 65.02255319 -19.85546875 59.40234375 C-17.21951411 51.61642792 -13.50020698 46.18655527 -6.85546875 41.40234375 C-7.13261719 41.95148438 -7.40976563 42.500625 -7.6953125 43.06640625 C-12.5329752 52.32924745 -12.5329752 52.32924745 -14.85546875 62.40234375 C-13.40951478 61.52022089 -11.97401777 60.62094656 -10.54296875 59.71484375 C-9.74246094 59.21597656 -8.94195312 58.71710938 -8.1171875 58.203125 C-5.46587292 56.09214742 -4.23059141 54.50518463 -2.85546875 51.40234375 C-2.49428384 47.82006159 -2.49428384 47.82006159 -2.66796875 44.08984375 C-2.69503906 42.83558594 -2.72210938 41.58132812 -2.75 40.2890625 C-2.78480469 39.33644531 -2.81960937 38.38382813 -2.85546875 37.40234375 C-16.56578337 46.73662644 -24.71569944 53.72075833 -28.609375 70.6875 C-29.08315037 73.25516372 -29.50805169 75.81486448 -29.85546875 78.40234375 C-31.17546875 78.40234375 -32.49546875 78.40234375 -33.85546875 78.40234375 C-33.97186589 70.36096395 -34.06043598 62.31994233 -34.11452961 54.27792549 C-34.14050606 50.54272606 -34.17568044 46.80810744 -34.23266602 43.07324219 C-34.28741945 39.46163184 -34.31697892 35.85057632 -34.32985497 32.23858261 C-34.33901806 30.86796217 -34.3569098 29.49736844 -34.38411903 28.12698746 C-34.56138782 18.81972849 -33.79084925 11.03331766 -27.44770813 3.7961731 C-19.32721474 -3.57212092 -9.62273514 -4.73553166 0 0 Z " fill="#ECEFF3" transform="translate(110.85546875,51.59765625)"/>
<path d="M0 0 C6.105 -0.0825 12.21 -0.165 18.5 -0.25 C20.41103516 -0.28641602 22.32207031 -0.32283203 24.29101562 -0.36035156 C25.82941571 -0.37204922 27.3678283 -0.38223849 28.90625 -0.390625 C29.68581055 -0.41108887 30.46537109 -0.43155273 31.26855469 -0.45263672 C36.96942809 -0.45621318 41.22423649 0.84158491 46 4 C49.55857068 7.65221728 51.9565235 11.12088987 52.03515625 16.328125 C51.55544747 24.14386806 48.72754212 28.68156803 43 34 C44.36125 34.7734375 44.36125 34.7734375 45.75 35.5625 C49.3359595 38.00129236 51.61548041 40.87772981 53 45 C53.83795363 50.94099709 53.50842581 55.97125634 50 61 C43.51312689 67.20483515 38.60507801 68.30339138 29.98046875 68.1953125 C29.21883423 68.19329834 28.45719971 68.19128418 27.67248535 68.18920898 C24.8440951 68.17879341 22.01579111 68.15087096 19.1875 68.125 C12.855625 68.08375 6.52375 68.0425 0 68 C0 45.56 0 23.12 0 0 Z M8 2 C8 11.9 8 21.8 8 32 C12.16625 32.0825 16.3325 32.165 20.625 32.25 C21.92775879 32.28641602 23.23051758 32.32283203 24.57275391 32.36035156 C33.09313626 32.44474209 33.09313626 32.44474209 40 28 C43.42016721 24.12381049 43.45783913 20.32985048 43.28125 15.36328125 C42.72656492 10.70238582 40.42607724 8.25593106 37.0625 5.25 C32.8594679 2.16205805 29.93087981 1.87249488 24.796875 1.90234375 C23.91354492 1.90484131 23.03021484 1.90733887 22.12011719 1.90991211 C21.00797852 1.91901611 19.89583984 1.92812012 18.75 1.9375 C13.42875 1.9684375 13.42875 1.9684375 8 2 Z M8 35 C8 45.23 8 55.46 8 66 C13.6925 66.0928125 13.6925 66.0928125 19.5 66.1875 C20.68013672 66.21481201 21.86027344 66.24212402 23.07617188 66.27026367 C29.45237428 66.3203132 34.24516039 65.8207383 40 63 C43.60858919 59.11382703 44.74595138 55.41178566 45.09375 50.23828125 C44.91391168 45.94464139 43.53100783 42.61026981 40.56640625 39.4921875 C36.15593467 35.64264871 32.93901861 34.873406 27.23828125 34.90234375 C26.23063721 34.90484131 25.22299316 34.90733887 24.18481445 34.90991211 C22.90695068 34.91901611 21.62908691 34.92812012 20.3125 34.9375 C16.249375 34.958125 12.18625 34.97875 8 35 Z " fill="#1D4474" transform="translate(181,56)"/>
<path d="M0 0 C0.99 0 1.98 0 3 0 C3 3.96 3 7.92 3 12 C4.876875 11.896875 6.75375 11.79375 8.6875 11.6875 C9.74324219 11.62949219 10.79898437 11.57148437 11.88671875 11.51171875 C15.31802433 10.94772749 17.25824947 10.12389126 20 8 C21.21143606 6.00306313 21.21143606 6.00306313 21.8125 3.8125 C22.204375 2.554375 22.59625 1.29625 23 0 C23.99 0 24.98 0 26 0 C26 3.96 26 7.92 26 12 C28.64 12 31.28 12 34 12 C34 12.99 34 13.98 34 15 C31.36 15 28.72 15 26 15 C26.33 27.21 26.66 39.42 27 52 C30.83619425 52.95904856 32.32431536 52.91892116 36 52 C35 55 35 55 32.375 56.6875 C28.55405565 58.1734228 26.06297663 58.52668216 22 58 C19.09282927 55.78136971 18.16018357 54.48055071 17 51 C16.91492921 48.2684044 16.88408435 45.56308557 16.90234375 42.83203125 C16.9037587 42.03721848 16.90517365 41.2424057 16.90663147 40.42350769 C16.91222622 37.88646675 16.92477772 35.34951425 16.9375 32.8125 C16.94251568 31.09179815 16.94707847 29.37109492 16.95117188 27.65039062 C16.96219393 23.4335597 16.97945494 19.21679484 17 15 C12.38 15 7.76 15 3 15 C3.11809221 20.09049582 3.24232913 25.18079005 3.37231445 30.27099609 C3.4156808 32.00337626 3.45735463 33.73579963 3.49731445 35.46826172 C3.55497594 37.95553627 3.61868198 40.44259293 3.68359375 42.9296875 C3.70030624 43.70682098 3.71701874 44.48395447 3.73423767 45.28463745 C3.76473429 49.27274216 3.76473429 49.27274216 5 53 C7.64 52.67 10.28 52.34 13 52 C12 55 12 55 9.375 56.6875 C5.55405565 58.1734228 3.06297663 58.52668216 -1 58 C-4.19693902 55.64436072 -5.34267034 53.83845614 -6 50 C-6.08332859 47.3083968 -6.11629936 44.6439167 -6.09765625 41.953125 C-6.0962413 41.18192322 -6.09482635 40.41072144 -6.09336853 39.6161499 C-6.08778534 37.16072662 -6.07523595 34.70539558 -6.0625 32.25 C-6.05748283 30.58203257 -6.0529203 28.91406371 -6.04882812 27.24609375 C-6.03782141 23.16402713 -6.02056836 19.08202919 -6 15 C-7.98 15 -9.96 15 -12 15 C-12 14.01 -12 13.02 -12 12 C-11.113125 11.773125 -10.22625 11.54625 -9.3125 11.3125 C-5.47308128 9.79122088 -3.59721509 8.19086426 -1 5 C-0.12761142 2.32209104 -0.12761142 2.32209104 0 0 Z " fill="#1D4375" transform="translate(299,66)"/>
<path d="M0 0 C4.98151538 3.25749367 9.87407283 8.47353778 11.14453125 14.40234375 C11.7442464 20.88815201 11.16009614 25.62251104 8.14453125 31.40234375 C7.15453125 31.07234375 6.16453125 30.74234375 5.14453125 30.40234375 C5.47453125 29.41234375 5.80453125 28.42234375 6.14453125 27.40234375 C8.04194592 20.56890108 7.79818685 15.3271317 4.33984375 9.16015625 C1.7918173 5.41305854 -0.95855587 3.76455857 -5.10546875 2.08984375 C-11.07998018 0.99451666 -15.76083246 1.29574345 -21.16796875 4.15234375 C-24.40669159 6.86383264 -26.95914994 9.60970614 -28.85546875 13.40234375 C-28.9425865 16.46476696 -28.97095335 19.5042084 -28.953125 22.56640625 C-28.95171005 23.4736142 -28.9502951 24.38082214 -28.94883728 25.31552124 C-28.94322971 28.2194953 -28.93067593 31.1233929 -28.91796875 34.02734375 C-28.91295473 35.99348847 -28.90839165 37.9596344 -28.90429688 39.92578125 C-28.89325781 44.75133165 -28.8759881 49.57682472 -28.85546875 54.40234375 C-27.78120481 50.5317869 -27.8041237 47.10124462 -27.8984375 43.07421875 C-27.92083744 41.61980548 -27.94229156 40.16537739 -27.96289062 38.7109375 C-27.99984716 36.43529612 -28.04275732 34.16042329 -28.10229492 31.88525391 C-28.3552064 21.7312447 -28.40722934 14.37752394 -21.16796875 6.46484375 C-17.00098553 3.87030703 -13.73749047 3.11266009 -8.85546875 3.40234375 C-3.04568676 5.14527835 1.12118832 8.0113056 4.265625 13.28125 C5.24520835 15.64531114 5.41199599 17.35249172 5.39453125 19.90234375 C5.40226562 21.0315625 5.40226562 21.0315625 5.41015625 22.18359375 C5.11703529 24.63201585 4.36269894 26.27538429 3.14453125 28.40234375 C2.15453125 28.07234375 1.16453125 27.74234375 0.14453125 27.40234375 C0.25152344 26.75007813 0.35851562 26.0978125 0.46875 25.42578125 C1.22958382 19.87905724 1.61184941 16.14101191 -1.85546875 11.40234375 C-5.52655553 8.16314953 -8.98963555 7.94074087 -13.703125 8.11328125 C-16.71247949 8.51744138 -18.54784616 9.44436095 -20.85546875 11.40234375 C-23.24775671 14.97542014 -23.19876434 18.63123283 -23.26953125 22.79296875 C-23.2888974 23.4975824 -23.30826355 24.20219604 -23.32821655 24.92816162 C-23.3877961 27.16943414 -23.43430998 29.41075864 -23.48046875 31.65234375 C-23.51866854 33.17580313 -23.55772144 34.69924137 -23.59765625 36.22265625 C-23.69347893 39.94902481 -23.77758982 43.6755521 -23.85546875 47.40234375 C-23.3965625 46.98082031 -22.93765625 46.55929688 -22.46484375 46.125 C-21.85125 45.57714844 -21.23765625 45.02929688 -20.60546875 44.46484375 C-20.0021875 43.91957031 -19.39890625 43.37429687 -18.77734375 42.8125 C-16.7707957 41.34021576 -15.28544426 40.82705186 -12.85546875 40.40234375 C-14.50892517 44.29282943 -16.27528849 46.93240387 -19.23046875 49.96484375 C-26.23692663 57.7267548 -28.4968533 68.28370029 -29.85546875 78.40234375 C-31.17546875 78.40234375 -32.49546875 78.40234375 -33.85546875 78.40234375 C-33.97186589 70.36096395 -34.06043598 62.31994233 -34.11452961 54.27792549 C-34.14050606 50.54272606 -34.17568044 46.80810744 -34.23266602 43.07324219 C-34.28741945 39.46163184 -34.31697892 35.85057632 -34.32985497 32.23858261 C-34.33901806 30.86796217 -34.3569098 29.49736844 -34.38411903 28.12698746 C-34.56138782 18.81972849 -33.79084925 11.03331766 -27.44770813 3.7961731 C-19.32721474 -3.57212092 -9.62273514 -4.73553166 0 0 Z " fill="#E1E6EC" transform="translate(110.85546875,51.59765625)"/>
<path d="M0 0 C6.0737153 4.04082907 6.0737153 4.04082907 6.96484375 7.828125 C6.74862753 13.99028716 6.74862753 13.99028716 4.15234375 16.765625 C1.96484375 17.828125 1.96484375 17.828125 -2.03515625 17.828125 C-1.98875 17.24804688 -1.94234375 16.66796875 -1.89453125 16.0703125 C-1.63385944 10.42862972 -2.1515789 7.23651011 -6.03515625 2.828125 C-10.35236432 -0.85419953 -15.52352126 -1.30651036 -21.03515625 -1.171875 C-26.52142003 -0.08816857 -31.34203681 2.59097663 -35.03515625 6.828125 C-41.66256768 16.7600629 -42.95034845 26.15942449 -42.03515625 37.828125 C-40.21797984 45.7163226 -35.66692006 53.74794946 -28.78515625 58.265625 C-22.95536419 61.14199817 -16.62286969 61.56516958 -10.41015625 59.765625 C-5.65679828 57.93482635 -1.92146749 55.06390153 1.96484375 51.828125 C2.95484375 51.044375 3.94484375 50.260625 4.96484375 49.453125 C5.62484375 48.916875 6.28484375 48.380625 6.96484375 47.828125 C6.96484375 50.798125 6.96484375 53.768125 6.96484375 56.828125 C5.072919 57.81482259 3.17612397 58.7921852 1.27734375 59.765625 C-0.30626953 60.58353516 -0.30626953 60.58353516 -1.921875 61.41796875 C-10.40082559 65.25849719 -21.08047757 65.15916493 -29.84765625 62.265625 C-39.43864943 58.2176617 -45.63900202 52.26122883 -50.03515625 42.828125 C-53.61116339 33.68944009 -52.80943163 23.75820298 -49.03515625 14.828125 C-44.12162176 5.35311613 -37.11359744 -0.13833139 -27.03125 -3.48046875 C-17.67211839 -5.64026835 -8.34741003 -4.80657007 0 0 Z " fill="#1D4374" transform="translate(483.03515625,60.171875)"/>
<path d="M0 0 C2.97 0 5.94 0 9 0 C9.01981934 1.16571533 9.03963867 2.33143066 9.06005859 3.5324707 C9.13608959 7.85446905 9.22481076 12.17612962 9.31738281 16.49780273 C9.35568294 18.36882868 9.390534 20.23992853 9.421875 22.11108398 C9.46750324 24.79958519 9.52550088 27.48757723 9.5859375 30.17578125 C9.59748871 31.01337479 9.60903992 31.85096832 9.62094116 32.71394348 C9.72046457 36.62373037 9.7847302 38.6770953 12 42 C19.54622997 44.20098374 26.19819537 41.40090232 33 38 C33.33 25.46 33.66 12.92 34 0 C36.64 0 39.28 0 42 0 C42 15.18 42 30.36 42 46 C39.36 46 36.72 46 34 46 C34 45.01 34 44.02 34 43 C33.29617188 43.2165625 32.59234375 43.433125 31.8671875 43.65625 C23.10256882 46.12773516 13.49001623 48.02126488 4.7109375 44.7890625 C1.43938018 42.63002323 1.06810137 41.72381229 0 38 C-0.25796631 35.0626199 -0.23308001 32.14595023 -0.1953125 29.19921875 C-0.1924826 28.36284378 -0.18965271 27.52646881 -0.18673706 26.66474915 C-0.1755832 24.00551774 -0.15048763 21.34662882 -0.125 18.6875 C-0.11496399 16.87956217 -0.10583923 15.07161904 -0.09765625 13.26367188 C-0.07565959 8.84231688 -0.04116294 4.42121642 0 0 Z " fill="#1D4374" transform="translate(243,78)"/>
<path d="M0 0 C4.71396958 3.07578157 8.16349385 7.15260105 10.625 12.1875 C12.37504851 21.1127474 11.38641594 28.44634638 6.5 36.125 C1.80703934 40.81796066 -3.76805982 43.4885685 -10.4375 43.6875 C-16.58278015 43.59804905 -20.89307454 41.93392416 -25.47265625 37.83203125 C-30.10412363 32.85917807 -32.39099108 27.66591507 -33.125 20.9375 C-32.30788858 13.17494151 -29.94518133 6.42244247 -23.75 1.375 C-16.11899914 -3.19832867 -8.0665185 -4.07758078 0 0 Z M-20.75 6.375 C-24.72318843 12.56643497 -24.64869756 20.29563715 -23.75 27.375 C-22.10597041 32.62324831 -19.89041877 36.30895636 -15.875 40.0625 C-11.80845258 41.77044992 -9.9364938 41.79541754 -5.75 40.375 C0.17489505 35.2907079 2.52719095 29.40470103 3.2109375 21.76953125 C3.331209 14.39688856 0.87086458 8.09280573 -3.75 2.375 C-10.61996184 -2.20497456 -15.96769266 0.62881676 -20.75 6.375 Z " fill="#1D4374" transform="translate(531.75,80.625)"/>
<path d="M0 0 C2.92563809 2.09627194 4.62384348 4.4013348 5.46875 7.9921875 C5.77199138 12.01013574 5.14830578 13.81656917 2.625 16.9375 C-2.55168831 21.00489796 -7.59144398 20.582596 -14 20 C-19.10905269 18.45965874 -23.46207599 15.75432257 -28 13 C-27.82892694 24.20492912 -27.82892694 24.20492912 -23 34 C-19.39165552 37.36842796 -15.80483257 38.25451757 -10.9375 38.4375 C-4.226966 38.1426432 -0.02541468 35.28638311 5 31 C5 33.125 5 33.125 4 36 C-2.27089715 41.99824945 -7.60263761 43.39430225 -16.12109375 43.26953125 C-22.75221527 42.64870712 -27.40547936 39.99985181 -31.9375 35.1875 C-36.11828564 29.9518402 -37.45786896 24.75973464 -37.25 18.04296875 C-36.458588 11.57564881 -33.64918059 6.54586547 -29 2 C-19.65717148 -3.82530942 -10.16399195 -4.54975991 0 0 Z M-24.9375 6 C-26.19669845 7.91852044 -26.19669845 7.91852044 -25.78515625 9.984375 C-24.53204676 13.20131279 -22.3548582 13.86477665 -19.32421875 15.23046875 C-15.46766154 16.50734567 -11.98639709 16.86233258 -8 16 C-4.7260029 14.14358251 -4.7260029 14.14358251 -3 11 C-2.85130517 6.76219739 -3.31679078 4.80742907 -6.0625 1.5625 C-13.64976619 -2.47327989 -19.30963794 0.190594 -24.9375 6 Z " fill="#1D4374" transform="translate(376,81)"/>
<path d="M0 0 C3.0849763 2.79116903 4.39034148 4.38051655 5.625 8.375 C5.56355677 12.08719494 5.16709513 15.70442814 4.625 19.375 C3.861875 19.21 3.09875 19.045 2.3125 18.875 C-2.5751466 18.21226826 -7.44858536 18.08965401 -12.375 18.375 C-12.705 18.705 -13.035 19.035 -13.375 19.375 C-12.1375 19.354375 -10.9 19.33375 -9.625 19.3125 C-6.7109175 19.30733319 -4.16546673 19.44484442 -1.375 20.375 C-1.699334 23.47478228 -2.00725903 25.00261388 -4.23046875 27.25390625 C-5.00003906 27.80949219 -5.76960938 28.36507812 -6.5625 28.9375 C-7.78066406 29.82888672 -7.78066406 29.82888672 -9.0234375 30.73828125 C-11.78344513 32.65928324 -14.55697218 34.54000514 -17.375 36.375 C-18.71323612 37.36842934 -20.04746326 38.36731752 -21.375 39.375 C-21.33069125 34.78446046 -21.26069892 30.19527611 -21.16748047 25.60546875 C-21.13935587 24.0460085 -21.11809911 22.48640796 -21.10400391 20.92675781 C-21.08245458 18.67700827 -21.03574943 16.42893026 -20.984375 14.1796875 C-20.98253204 13.14338699 -20.98253204 13.14338699 -20.98065186 12.08615112 C-20.83172246 7.09960233 -19.47592135 4.23608634 -16.375 0.375 C-11.33176182 -3.07353836 -5.29693974 -2.55037839 0 0 Z " fill="#214677" transform="translate(107.375,60.625)"/>
<path d="M0 0 C2.64 0 5.28 0 8 0 C8.33 0.99 8.66 1.98 9 3 C10.1240625 2.68289062 11.248125 2.36578125 12.40625 2.0390625 C17.09969251 0.86570187 21.67988822 0.56340828 26.5 0.375 C27.32242187 0.33632812 28.14484375 0.29765625 28.9921875 0.2578125 C30.9944701 0.16468308 32.99720262 0.08131015 35 0 C35 2.97 35 5.94 35 9 C33.64068359 8.67515625 33.64068359 8.67515625 32.25390625 8.34375 C20.64290149 5.48997274 20.64290149 5.48997274 9 7 C8.67 19.87 8.34 32.74 8 46 C5.36 46 2.72 46 0 46 C0 30.82 0 15.64 0 0 Z " fill="#1D4374" transform="translate(389,78)"/>
<path d="M0 0 C5.13271592 2.41539573 8.01744998 6.31852909 11 11 C13.0157881 17.04736429 13.12077772 24.42440908 10.5 30.3125 C7.28809338 35.76818535 2.54958842 39.85018561 -3.1875 42.4375 C-5.9290703 42.98581406 -8.21934581 43.30896158 -11 43 C-11.66 42.34 -12.32 41.68 -13 41 C-12.95703125 38.62109375 -12.95703125 38.62109375 -12 36 C-9.63671875 33.97265625 -9.63671875 33.97265625 -6.6875 32.0625 C-0.69357825 28.02838884 -0.69357825 28.02838884 3 22 C3.88728803 14.0355336 3.0053944 7.38826122 0 0 Z " fill="#244979" transform="translate(109,83)"/>
<path d="M0 0 C3.78346622 3.42313611 6.25221216 6.61636996 6.9375 11.6875 C7.04780839 15.8792188 6.71077439 18.67900778 4.625 22.375 C3.635 22.045 2.645 21.715 1.625 21.375 C1.73199219 20.72273438 1.83898437 20.07046875 1.94921875 19.3984375 C2.71005257 13.85171349 3.09231816 10.11366816 -0.375 5.375 C-4.04608678 2.13580578 -7.5091668 1.91339712 -12.22265625 2.0859375 C-15.23201074 2.49009763 -17.06737741 3.4170172 -19.375 5.375 C-21.72971805 8.93043738 -21.65586319 12.17909171 -21.71875 16.37109375 C-21.7333728 17.04165298 -21.74799561 17.71221222 -21.76306152 18.40309143 C-21.8094083 20.5395009 -21.84368805 22.67582052 -21.875 24.8125 C-21.91630403 27.62403337 -21.97003466 30.43493117 -22.03125 33.24609375 C-22.04994141 34.49318115 -22.06863281 35.74026855 -22.08789062 37.02514648 C-22.36272243 40.23175129 -23.00020085 42.48853921 -24.375 45.375 C-25.035 45.045 -25.695 44.715 -26.375 44.375 C-26.47458121 39.82184078 -26.54679985 35.26932848 -26.59472656 30.71533203 C-26.61472503 29.16932113 -26.64193331 27.62338473 -26.67675781 26.07763672 C-27.0285504 10.0503802 -27.0285504 10.0503802 -22.375 3.375 C-15.79153771 -3.43596386 -8.42056494 -4.05434608 0 0 Z " fill="#D7DEE7" transform="translate(109.375,57.625)"/>
<path d="M0 0 C4.51914084 3.36720298 7.40247378 7.01992135 9.1875 12.375 C9.46440465 17.91309295 8.93710184 22.12619447 7.1875 27.375 C7.8475 28.035 8.5075 28.695 9.1875 29.375 C6.1875 29.375 6.1875 29.375 4 27.375 C3.401875 26.715 2.80375 26.055 2.1875 25.375 C2.8475 25.045 3.5075 24.715 4.1875 24.375 C5.53471612 20.33335165 5.63346707 16.60425438 5.1875 12.375 C3.81752843 9.50353006 3.81752843 9.50353006 2.1875 7.375 C2.1875 6.715 2.1875 6.055 2.1875 5.375 C-4.22007339 1.92476818 -9.68466567 0.42059381 -16.8125 2.375 C-21.71674717 5.46285933 -24.16752532 8.88603933 -25.8125 14.375 C-26.0221221 17.19703751 -26.09740124 19.76934271 -26 22.57421875 C-25.98864014 23.331689 -25.97728027 24.08915924 -25.96557617 24.86958313 C-25.92921076 27.26776766 -25.87331687 29.66481888 -25.8125 32.0625 C-25.73261029 35.23304361 -25.6727393 38.40304656 -25.625 41.57421875 C-25.60010498 42.2971965 -25.57520996 43.02017426 -25.54956055 43.76506042 C-25.50189174 47.02565073 -25.60994625 49.04169571 -27.32421875 51.86254883 C-27.81535156 52.36165771 -28.30648437 52.8607666 -28.8125 53.375 C-28.9116017 47.36105117 -28.98407916 41.34758085 -29.03222656 35.33300781 C-29.0523042 33.2883272 -29.07957225 31.24370373 -29.11425781 29.19921875 C-29.16294519 26.25506463 -29.18550744 23.31167166 -29.203125 20.3671875 C-29.22377014 19.4575827 -29.24441528 18.54797791 -29.26568604 17.61080933 C-29.26803338 10.92566304 -27.92324029 7.6528133 -23.28515625 2.765625 C-16.04352955 -3.09186807 -8.5588733 -4.34498601 0 0 Z " fill="#2E517E" transform="translate(109.8125,54.625)"/>
<path d="M0 0 C2.45931605 1.50732274 2.86105399 2.63278554 3.875 5.3125 C4.0431427 8.92756814 2.86997685 10.95263032 1 14 C-1.88861709 15.44430855 -3.79647701 15.37688506 -7 15 C-9.9375 12.9375 -9.9375 12.9375 -12 10 C-12 6.48044581 -11.63108355 4.15079941 -9.9375 1.0625 C-6.75184835 -0.68447026 -3.53979653 -0.53946795 0 0 Z " fill="#204676" transform="translate(548,59)"/>
<path d="M0 0 C1.76674343 5.30023028 2.27181693 11.16539696 -0.05859375 16.359375 C-3.54471038 21.38542933 -7.40677355 23.68556147 -13 26 C-11.98525061 18.7452991 -9.91644371 13.188579 -6 7 C-6.33 7 -6.66 7 -7 7 C-7.99 7 -8.98 7 -10 7 C-3.24137931 0 -3.24137931 0 0 0 Z " fill="#274B7A" transform="translate(108,89)"/>
<path d="M0 0 C12.07719591 -0.58022116 12.07719591 -0.58022116 17 3 C22.61061199 8.4917431 26.00009105 12.89655592 26.3125 20.875 C26.23457555 25.6071395 25.17677154 28.82785454 23 33 C21.515 32.505 21.515 32.505 20 32 C20.33 31.01 20.66 30.02 21 29 C22.90339621 22.1450151 22.51453983 17.13595587 19.36328125 10.859375 C15.67312042 5.82637627 11.68815872 4.37161845 5.6875 3.25 C4.43324219 3.00765625 3.17898437 2.7653125 1.88671875 2.515625 C0.93410156 2.34546875 -0.01851563 2.1753125 -1 2 C-0.67 1.34 -0.34 0.68 0 0 Z " fill="#ECEFF4" transform="translate(96,50)"/>
<path d="M0 0 C3.78346622 3.42313611 6.25221216 6.61636996 6.9375 11.6875 C7.04780839 15.8792188 6.71077439 18.67900778 4.625 22.375 C3.635 22.045 2.645 21.715 1.625 21.375 C1.73199219 20.72273438 1.83898437 20.07046875 1.94921875 19.3984375 C2.71005257 13.85171349 3.09231816 10.11366816 -0.375 5.375 C-4.09660613 2.09122988 -7.44867808 2.07323941 -12.19140625 2.171875 C-14.34249156 2.37197596 -16.29815177 2.7910336 -18.375 3.375 C-18.375 2.055 -18.375 0.735 -18.375 -0.625 C-12.48534154 -3.96247313 -5.85632444 -2.81971177 0 0 Z " fill="#E6EAEF" transform="translate(109.375,57.625)"/>
<path d="M0 0 C0.33 0 0.66 0 1 0 C1.21730594 5.19555284 1.41411267 10.39132822 1.59204102 15.58837891 C1.65543104 17.35584203 1.72439784 19.12311438 1.79907227 20.89013672 C1.90550518 23.43166898 1.99179589 25.97321476 2.07421875 28.515625 C2.11157639 29.30430969 2.14893402 30.09299438 2.18742371 30.90557861 C2.28085123 34.32231691 2.2663175 36.55214756 0.49536133 39.53027344 C0.00189209 40.0152832 -0.49157715 40.50029297 -1 41 C-1.02464705 35.32169922 -1.04283462 29.64342931 -1.05493164 23.96508789 C-1.05997256 22.03181415 -1.06680519 20.09854424 -1.07543945 18.1652832 C-1.08751565 15.39273128 -1.09323057 12.62022959 -1.09765625 9.84765625 C-1.10281754 8.97786636 -1.10797882 8.10807648 -1.11329651 7.21192932 C-1.11349185 5.14094186 -1.06208168 3.07005676 -1 1 C-0.67 0.67 -0.34 0.34 0 0 Z " fill="#1E4475" transform="translate(82,67)"/>
<path d="M0 0 C0.66 0.66 1.32 1.32 2 2 C-1.00343613 3.74062776 -3.04507477 4.2103992 -6.5 4.0625 C-9.56015627 3.94198015 -12.05380329 4.13622869 -15 5 C-15 3.68 -15 2.36 -15 1 C-10.19735913 -1.72149649 -5.22927655 -1.14766423 0 0 Z " fill="#E7EBF0" transform="translate(106,56)"/>
<path d="M0 0 C0 0.33 0 0.66 0 1 C-2.64 1.33 -5.28 1.66 -8 2 C-8 2.66 -8 3.32 -8 4 C-8.79664062 4.38091797 -8.79664062 4.38091797 -9.609375 4.76953125 C-13.3324172 6.58349524 -16.79762215 8.3313518 -20 11 C-20 10.34 -20 9.68 -20 9 C-20.66 8.67 -21.32 8.34 -22 8 C-15.13779311 1.80727671 -9.26550269 -0.56727567 0 0 Z " fill="#E0E5EC" transform="translate(104,49)"/>
<path d="M0 0 C2.5 0.125 2.5 0.125 3.5 1.125 C3.625 4.125 3.625 4.125 3.5 7.125 C2.5 8.125 2.5 8.125 0.0625 8.3125 C-2.5 8.125 -2.5 8.125 -4.5 6.125 C-3.77607362 0.18880368 -3.77607362 0.18880368 0 0 Z " fill="#1E4374" transform="translate(555.5,115.875)"/>
<path d="M0 0 C1.65 0 3.3 0 5 0 C5.68707555 2.49064888 6 4.37886292 6 7 C5.34 7 4.68 7 4 7 C4 6.34 4 5.68 4 5 C3.01 5 2.02 5 1 5 C0.67 5.66 0.34 6.32 0 7 C0 4.69 0 2.38 0 0 Z " fill="#AFBDCE" transform="translate(541,63)"/>
<path d="M0 0 C0.99 0 1.98 0 3 0 C2.46939601 4.51013391 0.69113883 7.38378219 -2 11 C-2.33 11 -2.66 11 -3 11 C-2.53199289 6.94393835 -2.12046792 3.53411321 0 0 Z " fill="#ECEFF3" transform="translate(81,58)"/>
<path d="M0 0 C2.0625 0.4375 2.0625 0.4375 4 1 C4.33 2.32 4.66 3.64 5 5 C3.35 5.33 1.7 5.66 0 6 C-0.38218767 4.34385343 -0.71395102 2.67542976 -1 1 C-0.67 0.67 -0.34 0.34 0 0 Z " fill="#EFF1F5" transform="translate(123,118)"/>
<path d="M0 0 C0 3.44360632 -0.79591532 4.74795392 -2.5 7.6875 C-2.9640625 8.49574219 -3.428125 9.30398437 -3.90625 10.13671875 C-4.44765625 11.05904297 -4.44765625 11.05904297 -5 12 C-5.99 11.67 -6.98 11.34 -8 11 C-6.52670958 5.99081256 -3.72484762 3.48192278 0 0 Z " fill="#DDE2EA" transform="translate(103,93)"/>
<path d="M0 0 C0 0.33 0 0.66 0 1 C-1.65 1.33 -3.3 1.66 -5 2 C-4.67 2.66 -4.34 3.32 -4 4 C-6.31 4.66 -8.62 5.32 -11 6 C-11 4.68 -11 3.36 -11 2 C-7.17010894 0.19769832 -4.21878192 -0.19622241 0 0 Z " fill="#D2D9E3" transform="translate(102,55)"/>
<path d="M0 0 C0.99 0 1.98 0 3 0 C3 3.3 3 6.6 3 10 C2.01 9.34 1.02 8.68 0 8 C-0.40843923 5.28796348 -0.13336867 2.7562858 0 0 Z " fill="#E4E9EF" transform="translate(119,66)"/>
<path d="M0 0 C0.12375 0.598125 0.2475 1.19625 0.375 1.8125 C0.95475985 4.26231348 0.95475985 4.26231348 3 7 C0 7 0 7 -2.1875 5 C-2.785625 4.34 -3.38375 3.68 -4 3 C-2.68 2.01 -1.36 1.02 0 0 Z " fill="#3F5F89" transform="translate(116,77)"/>
<path d="M0 0 C1.2077558 3.62326739 0.54311128 4.64146369 -1 8 C-1.99 7.67 -2.98 7.34 -4 7 C-3.6875 4.625 -3.6875 4.625 -3 2 C-2.01 1.34 -1.02 0.68 0 0 Z " fill="#345682" transform="translate(85,61)"/>
</svg>
