<?xml version="1.0" encoding="UTF-8"?>
<svg version="1.1" xmlns="http://www.w3.org/2000/svg" width="800" height="200">
<path d="M0 0 C3.6406122 3.08600074 7.05190915 6.36834716 10.42822266 9.73974609 C11.09724609 10.39716797 11.76626953 11.05458984 12.45556641 11.73193359 C26.44708904 26.51662645 32.02097626 46.80442131 31.67431641 66.74755859 C30.24096821 89.99965155 20.88479472 108.10990227 3.90087891 124.12255859 C-11.09352149 137.11330196 -27.74400392 142.04056312 -47.19677734 142.17724609 C-48.31656982 142.18747803 -49.4363623 142.19770996 -50.59008789 142.20825195 C-61.45469932 142.09445722 -71.89636944 140.27466652 -81.57177734 135.17724609 C-82.23693359 134.8342749 -82.90208984 134.49130371 -83.58740234 134.13793945 C-102.91843 123.8106884 -116.05890915 107.60436045 -123.54443359 87.07177734 C-129.15107731 67.74841459 -127.09056699 44.71426405 -117.88427734 26.92724609 C-107.44328329 8.03996266 -90.92959245 -5.98954878 -70.27099609 -12.29541016 C-46.54268921 -18.48431385 -19.63751907 -15.74539817 0 0 Z M-86.57177734 29.73974609 C-97.43926659 42.79322455 -99.78912031 56.25120966 -98.57177734 72.73974609 C-96.26767149 86.07857577 -88.89416906 97.52762803 -78.10693359 105.57958984 C-65.29723175 114.27254389 -52.76930695 116.24720646 -37.57177734 114.73974609 C-33.25429582 113.90621929 -29.52692814 112.64584286 -25.57177734 110.73974609 C-24.71583984 110.32724609 -23.85990234 109.91474609 -22.97802734 109.48974609 C-9.85451679 102.36092555 -1.35030674 90.88326161 2.90478516 76.71630859 C6.20280347 64.26259765 4.42908986 51.21903761 -1.04443359 39.61865234 C-9.51698955 25.49772574 -20.92433667 17.06822208 -36.57177734 12.73974609 C-55.83387247 8.88732707 -73.27530494 15.69449624 -86.57177734 29.73974609 Z " fill="#000000" transform="translate(174.57177734375,38.26025390625)"/>
<path d="M0 0 C3 1 3 1 4.63476562 3.77783203 C5.23576245 5.01611653 5.82544898 6.25992794 6.40625 7.5078125 C6.88774506 8.51060745 6.88774506 8.51060745 7.37896729 9.53366089 C8.42897422 11.72630756 9.46445527 13.92549113 10.5 16.125 C11.22464388 17.64498073 11.95023587 19.1645098 12.67675781 20.68359375 C14.12661601 23.71909013 15.57089426 26.75713201 17.00976562 29.79785156 C19.13899782 34.29736589 21.28964948 38.7864543 23.44311523 43.27441406 C24.75327679 46.00683394 26.05891473 48.74137206 27.36328125 51.4765625 C30.21166809 57.44736362 33.07390518 63.41148086 35.9375 69.375 C36.43958984 70.42115479 36.94167969 71.46730957 37.45898438 72.54516602 C39.92332012 77.679067 42.39042326 82.81160444 44.86328125 87.94140625 C49.30179458 97.15701471 53.71812224 106.38207445 58.06640625 115.640625 C58.41772614 116.38852798 58.76904602 117.13643097 59.13101196 117.90699768 C60.8588775 121.58691993 62.58412266 125.26804281 64.30566406 128.95092773 C64.94950638 130.32552835 65.59370625 131.69996155 66.23828125 133.07421875 C66.54905609 133.73711411 66.85983093 134.40000946 67.18002319 135.08299255 C69.91634933 140.88750057 72.80547038 146.60864312 75.73901367 152.31567383 C77 155 77 155 77 157 C66.77 157 56.54 157 46 157 C45.06542969 154.87691406 44.13085938 152.75382813 43.16796875 150.56640625 C34.883708 131.79104072 26.41332392 113.11149703 17.73706055 94.51391602 C16.98215303 92.89474347 16.22735027 91.27552207 15.47265625 89.65625 C15.10788681 88.87422714 14.74311737 88.09220428 14.36729431 87.28648376 C11.11471216 80.29228466 7.9535542 73.25790134 4.82667542 66.20666504 C4.47064743 65.40821167 4.11461945 64.6097583 3.74780273 63.78710938 C3.27660255 62.72429749 3.27660255 62.72429749 2.79588318 61.64001465 C2.111928 60.00278307 2.111928 60.00278307 1 59 C-14.14362304 91.60195779 -29.14235615 124.2667534 -44 157 C-53.9 157 -63.8 157 -74 157 C-73.28456615 153.42283074 -72.86862549 151.3626456 -71.34863281 148.29663086 C-70.84028648 147.25980919 -70.84028648 147.25980919 -70.32167053 146.20204163 C-69.95255051 145.46376633 -69.58343048 144.72549103 -69.203125 143.96484375 C-68.62618141 142.79223244 -68.62618141 142.79223244 -68.0375824 141.59593201 C-67.21091907 139.91659063 -66.38176958 138.23847123 -65.55038452 136.5614624 C-63.34488388 132.11112431 -61.15874279 127.65130526 -58.97265625 123.19140625 C-58.31950188 121.8600061 -58.31950188 121.8600061 -57.65315247 120.50170898 C-54.22827832 113.50471286 -50.9261065 106.4603404 -47.6875 99.375 C-40.590267 83.89482039 -33.03905534 68.6373769 -25.54005432 53.34918213 C-24.84733681 51.93690338 -24.84733681 51.93690338 -24.140625 50.49609375 C-23.45908607 49.10677643 -23.45908607 49.10677643 -22.76377869 47.68939209 C-17.76653751 37.4957021 -12.84851535 27.26529987 -8 17 C-7.40131104 15.732771 -7.40131104 15.732771 -6.79052734 14.43994141 C-4.51996481 9.62992194 -2.25640305 4.81667701 0 0 Z " fill="#000000" transform="translate(664,24)"/>
<path d="M0 0 C9.9 0 19.8 0 30 0 C39.26409528 20.04163186 48.43788252 40.1160546 57.36328125 60.31103516 C61.77883655 70.29531227 66.27573237 80.23628211 70.90380859 90.12426758 C71.31711426 91.0139624 71.73041992 91.90365723 72.15625 92.8203125 C72.51525391 93.58617676 72.87425781 94.35204102 73.24414062 95.14111328 C74 97 74 97 74 99 C74.66 99 75.32 99 76 99 C76.17400833 98.44480179 76.34801666 97.88960358 76.52729797 97.31758118 C78.24732267 91.97661909 80.2705803 86.92433507 82.66796875 81.85546875 C83.02000366 81.09990189 83.37203857 80.34433502 83.73474121 79.56587219 C84.48976855 77.94583136 85.24680937 76.32672762 86.00570679 74.70849609 C88.03605162 70.37737341 90.04980254 66.03856459 92.0625 61.69921875 C92.47408859 60.81221283 92.88567719 59.92520691 93.30973816 59.01132202 C98.20128804 48.44379006 102.9134877 37.79747181 107.6081543 27.14135742 C111.6231893 18.03695458 115.76430053 9.00425972 120 0 C129.9 0 139.8 0 150 0 C149.11344673 4.43276635 148.01263747 7.45117746 146.10546875 11.484375 C145.80620483 12.12036118 145.50694092 12.75634735 145.1986084 13.41160583 C144.20072871 15.52721297 143.19436814 17.63865751 142.1875 19.75 C141.47676947 21.2503122 140.76624341 22.75072129 140.0559082 24.2512207 C133.09514153 38.92053367 125.95892912 53.50492704 118.82124329 68.0887146 C113.57594198 78.80626595 108.39868812 89.55379575 103.27294922 100.32910156 C100.88020653 105.34954747 98.47045477 110.36183735 96.0625 115.375 C95.06639502 117.44921336 94.07030131 119.52343213 93.07421875 121.59765625 C92.5745459 122.63809082 92.07487305 123.67852539 91.56005859 124.75048828 C89.92065868 128.16526338 88.2824654 131.58061535 86.64453125 134.99609375 C86.09724365 136.1370752 85.54995605 137.27805664 84.98608398 138.45361328 C83.93456816 140.64587798 82.88328782 142.83825564 81.83227539 145.03076172 C81.35910889 146.01705566 80.88594238 147.00334961 80.3984375 148.01953125 C79.98255371 148.88682861 79.56666992 149.75412598 79.13818359 150.64770508 C78.10927242 152.77416564 77.06217198 154.88999322 76 157 C75.34 157 74.68 157 74 157 C65.2169592 139.60079874 56.71468716 122.08223816 48.453125 104.4296875 C47.15680106 101.66119989 45.8599278 98.89297047 44.5625 96.125 C44.23219788 95.42027557 43.90189575 94.71555115 43.56158447 93.98947144 C36.48120956 78.89920138 29.16813733 63.9251 21.84197998 48.95303345 C21.43264221 48.1164621 21.02330444 47.27989075 20.6015625 46.41796875 C20.19979797 45.59694672 19.79803345 44.77592468 19.38409424 43.93002319 C16.08098643 37.17559229 12.80643619 30.40808957 9.5625 23.625 C9.15668701 22.77784424 8.75087402 21.93068848 8.33276367 21.05786133 C7.21297597 18.70930124 6.10473357 16.3556748 5 14 C4.31139893 12.54932129 4.31139893 12.54932129 3.60888672 11.06933594 C3.14885254 10.08481445 2.68881836 9.10029297 2.21484375 8.0859375 C1.79195068 7.18665527 1.36905762 6.28737305 0.93334961 5.36083984 C0 3 0 3 0 0 Z " fill="#000000" transform="translate(382,23)"/>
<path d="M0 0 C8.91 0 17.82 0 27 0 C27 42.9 27 85.8 27 130 C46.14 130 65.28 130 85 130 C85 138.91 85 147.82 85 157 C56.95 157 28.9 157 0 157 C0 105.19 0 53.38 0 0 Z " fill="#000000" transform="translate(231,23)"/>
<path d="M0 0 C8.91 0 17.82 0 27 0 C27 51.81 27 103.62 27 157 C18.09 157 9.18 157 0 157 C0 105.19 0 53.38 0 0 Z " fill="#000000" transform="translate(548,23)"/>
<path d="M0 0 C8.91 0 17.82 0 27 0 C27 51.81 27 103.62 27 157 C18.09 157 9.18 157 0 157 C0 105.19 0 53.38 0 0 Z " fill="#000000" transform="translate(339,23)"/>
</svg>
