<?xml version="1.0" encoding="UTF-8"?>
<svg version="1.1" xmlns="http://www.w3.org/2000/svg" width="5000" height="1271">
<path d="M0 0 C0.93376465 0.4434375 1.8675293 0.886875 2.82958984 1.34375 C27.33976197 13.08794682 50.6026661 27.19718565 72 44 C72.81984375 44.639375 73.6396875 45.27875 74.484375 45.9375 C90.14509268 58.30647448 104.8425879 71.65529897 118.9465332 85.76123047 C120.69138808 87.50388317 122.44413743 89.23833163 124.19726562 90.97265625 C130.93400876 97.67623304 137.08505598 104.55325482 143 112 C144.41363298 113.65724182 145.85034454 115.29072626 147.29248047 116.9230957 C170.11638507 142.86239219 189.27365154 172.83715415 206 203 C206.84884766 204.514729 206.84884766 204.514729 207.71484375 206.06005859 C246.3992348 275.29779524 271.54367812 352.57552145 298.6875 530.8125 C298.74843842 531.62282684 298.80937683 532.43315369 298.87216187 533.26803589 C299.28531586 538.84316275 299.65633994 544.42017817 300 550 C300.0494577 550.78435425 300.09891541 551.5687085 300.14987183 552.37683105 C301.16429111 568.94926538 301.20156512 585.52734398 301.1875 602.125 C301.18723312 602.83174236 301.18696625 603.53848473 301.18669128 604.26664352 C301.17629087 626.23654128 300.93106548 648.10153767 299 670 C298.93683594 670.73990173 298.87367188 671.47980347 298.80859375 672.24212646 C292.16580887 750.05266398 275.10305318 827.18589201 221 953 C220.42781738 954.14694336 219.85563477 955.29388672 219.26611328 956.47558594 C202.55359628 989.82518969 182.64831784 1021.36269198 160 1051 C159.5148291 1051.63679688 159.0296582 1052.27359375 158.52978516 1052.9296875 C149.1813868 1065.14931059 139.17167348 1076.78512461 128.71484375 1088.06640625 C126.88382881 1090.0449562 125.06252905 1092.02867752 123.25390625 1094.02734375 C115.27096545 1102.83800882 107.1313237 1111.48499539 98.0703125 1119.20703125 C95.6172589 1121.33146824 93.25296853 1123.54188637 90.875 1125.75 C85.07263519 1131.03944858 78.96955937 1135.86952371 72.74658203 1140.65185547 C71.07059873 1141.94550654 69.40683587 1143.25327307 67.74609375 1144.56640625 C55.79090452 1153.97310797 43.07255362 1162.23002968 30 1170 C29.4332959 1170.33821777 28.8665918 1170.67643555 28.28271484 1171.02490234 C-23.03843917 1201.43272147 -84.69061897 1221.40686799 -144.11132812 1206.46923828 C-184.6213193 1195.42198791 -215.16261025 1165.60023569 -237 1131 C-237.65355469 1129.97390625 -238.30710937 1128.9478125 -238.98046875 1127.890625 C-268.28392479 1079.31334943 -278.89075059 1019.88729861 -283 964 C-283.09498779 962.77490723 -283.18997559 961.54981445 -283.2878418 960.28759766 C-284.21983359 946.78572896 -284.20057944 933.27895073 -284.1875 919.75 C-284.18656342 918.50100922 -284.18562683 917.25201843 -284.18466187 915.96517944 C-284.15528238 897.90518885 -284.04291735 879.96478049 -282 862 C-281.92458984 861.33037231 -281.84917969 860.66074463 -281.77148438 859.9708252 C-272.01625747 774.08092989 -244.68566564 693.69091593 -187 582 C-186.41927734 581.01016113 -185.83855469 580.02032227 -185.24023438 579.00048828 C-172.79603022 557.85135614 -159.89700782 536.93967807 -145.49169922 517.06103516 C-143.89342414 514.8527474 -142.30745589 512.63594443 -140.72265625 510.41796875 C-134.31798873 501.47385756 -127.78140757 492.6621466 -121 484 C-120.08459343 482.82555356 -119.16923018 481.65107335 -118.25390625 480.4765625 C-106.96922292 466.02675871 -95.36725201 451.82183025 -83.03515625 438.25 C-81.22622457 436.25010625 -79.45108199 434.22730568 -77.6875 432.1875 C-68.16333647 421.29186841 -58.10766424 410.94630439 -47.86230469 400.73193359 C-45.73515216 398.61018991 -43.61346439 396.48308509 -41.4921875 394.35546875 C-40.11490417 392.9788456 -38.73731101 391.60253234 -37.359375 390.2265625 C-36.738349 389.60351227 -36.117323 388.98046204 -35.47747803 388.33853149 C-31.68850363 384.56941891 -27.78076824 380.98856961 -23.73312378 377.4984436 C-21.57033456 375.62851504 -19.47514917 373.68977414 -17.375 371.75 C-12.32870307 367.19677635 -7.03992784 363.02337991 -1.66796875 358.8671875 C0.71914751 357.01621163 3.06725973 355.13032708 5.38671875 353.1953125 C24.29268419 337.49933864 45.48042703 323.47997449 68.1875 313.9375 C68.87062256 313.6499585 69.55374512 313.36241699 70.25756836 313.06616211 C74.54892476 311.35036301 78.44369702 310.47867775 83 310 C82.87882813 310.65484375 82.75765625 311.3096875 82.6328125 311.984375 C82.08124312 314.98830671 81.53892113 317.99377328 81 321 C80.73123047 322.49273437 80.73123047 322.49273437 80.45703125 324.015625 C80.28558594 325.00046875 80.11414063 325.9853125 79.9375 327 C79.70353516 328.3303125 79.70353516 328.3303125 79.46484375 329.6875 C69.55791473 400.28477567 86.23679613 477.23084114 94.46109009 547.40078354 C100.81801256 601.64742767 106.77809367 655.87986742 110.73571777 710.36517334 C110.90718358 712.72344191 111.08064774 715.08156636 111.25646973 717.43951416 C113.75703673 751.0632317 114.28187658 784.60858363 114.30962753 818.31121445 C114.31245368 821.44858084 114.31797682 824.58593475 114.32363892 827.72329712 C114.35611965 852.5524759 113.91556683 877.23855001 112 902 C111.92447906 902.98478333 111.84895813 903.96956665 111.77114868 904.98419189 C111.34048676 910.43571005 110.82901221 915.87485949 110.25 921.3125 C110.12594788 922.49821594 110.12594788 922.49821594 109.99938965 923.70788574 C105.73889139 964.001047 97.95272649 1003.57494378 85 1042 C84.67563965 1042.97146973 84.3512793 1043.94293945 84.01708984 1044.94384766 C70.93154911 1083.72611053 51.96220748 1122.11088448 23.6171875 1152.07421875 C21.78563907 1153.83614184 21.78563907 1153.83614184 22 1156 C29.24820788 1149.82753479 36.49168391 1143.65712715 43.53125 1137.24609375 C45.24865148 1135.68358449 46.97884734 1134.13507024 48.71875 1132.59765625 C60.34326398 1122.20746567 71.17741933 1110.86615273 80.875 1098.65234375 C82.8409435 1096.19852824 84.86799131 1093.8088029 86.921875 1091.4284668 C93.67959513 1083.57570178 99.91848281 1075.38438999 106 1067 C106.54527344 1066.2486377 107.09054687 1065.49727539 107.65234375 1064.72314453 C121.88698969 1044.99435262 134.60903387 1024.34452966 146.33007812 1003.03417969 C147.46371858 1000.97440138 148.60325027 998.91785663 149.74804688 996.86425781 C191.44741875 921.95479987 218.60235114 838.61941524 248 658 C248.06058594 657.31401733 248.12117187 656.62803467 248.18359375 655.92126465 C252.03591334 612.16800988 251.73873088 566.74986312 248 523 C247.93683594 522.24076233 247.87367188 521.48152466 247.80859375 520.69927979 C241.06839055 439.89737687 224.32644176 359.62759116 145 183 C144.45778809 182.09749512 143.91557617 181.19499023 143.35693359 180.26513672 C132.88214783 162.83441397 121.42781811 146.0986683 109 130 C108.3807666 129.19369141 108.3807666 129.19369141 107.74902344 128.37109375 C97.8820782 115.54625597 87.37716502 103.34779515 76.37207031 91.48974609 C74.95196743 89.94784791 73.54859265 88.39205415 72.1484375 86.83203125 C67.62285298 81.80377639 63.07827385 76.98690359 57.8828125 72.6328125 C55.87201268 70.88900685 54.03903514 69.03650389 52.1875 67.125 C47.930254 62.81834689 43.31974209 59.06410247 38.58984375 55.29101562 C36.93161689 53.94447023 35.30865745 52.56277567 33.6875 51.171875 C-10.22087762 13.89128978 -64.90377715 -11.41375089 -122 -19 C-122.75385986 -19.103125 -123.50771973 -19.20625 -124.28442383 -19.3125 C-132.71387999 -20.31568679 -141.21050865 -20.24373137 -149.6875 -20.25 C-150.50880402 -20.25067474 -151.33010803 -20.25134949 -152.17630005 -20.25204468 C-173.41065799 -20.22441427 -193.44422666 -17.32685992 -214 -12 C-214.8146875 -11.79036621 -215.629375 -11.58073242 -216.46875 -11.36474609 C-262.20424585 0.69093757 -303.0971399 25.77280616 -339 56 C-339.4858255 56.4039801 -339.971651 56.80796021 -340.47219849 57.22418213 C-349.2830939 64.55954014 -357.57113979 72.28077519 -365.63452148 80.42871094 C-367.45559087 82.26827459 -369.28477504 84.09947141 -371.11523438 85.9296875 C-376.95180404 91.78363423 -382.68097649 97.66498323 -388 104 C-388.912087 105.05657129 -389.82482106 106.11258443 -390.73828125 107.16796875 C-396.56585453 114.00365031 -402.20403338 120.95001202 -407.59863281 128.13476562 C-408.58168716 129.44322124 -409.56833036 130.74898458 -410.55761719 132.05273438 C-429.48401339 157.02708117 -445.7947824 183.67885611 -460.55175781 211.29589844 C-461.93742619 213.88316462 -463.33869026 216.46143727 -464.7421875 219.0390625 C-484.25969392 255.20208752 -498.61235773 293.90320747 -511 333 C-511.37995117 334.19786133 -511.75990234 335.39572266 -512.15136719 336.62988281 C-538.28678837 419.95008731 -549.07132891 508.05506929 -449.5859375 1001.609375 C-431.44162886 1035.88165442 -409.8041885 1068.20195657 -385 1098 C-384.23558594 1098.95132812 -383.47117187 1099.90265625 -382.68359375 1100.8828125 C-375.62365372 1109.52569262 -367.8040495 1117.41241981 -359.9375 1125.3125 C-359.38305206 1125.87212433 -358.82860413 1126.43174866 -358.25735474 1127.0083313 C-349.1419478 1136.19069278 -339.68004438 1144.64263609 -329 1152 C-329.82242187 1151.01902344 -330.64484375 1150.03804687 -331.4921875 1149.02734375 C-389.70464565 1078.94624107 -407.72396202 983.85042499 -417.5625 845.75 C-417.58334656 845.02500305 -417.60419312 844.3000061 -417.62567139 843.55303955 C-418.05290277 828.3667561 -418.19236127 813.19203563 -418 798 C-417.99139954 797.29369446 -417.98279907 796.58738892 -417.97393799 795.85968018 C-416.79167021 703.29657654 -406.18959882 611.19775738 -391.59765625 519.87109375 C-391.39626038 518.60807434 -391.1948645 517.34505493 -390.98736572 516.04376221 C-390.0227992 510.00350989 -389.04946375 503.96495298 -388.05712891 497.92919922 C-377.54268895 433.30576344 -376.99910392 368.5571202 -388 304 C-383.43501382 304.57211985 -379.84650526 305.79168508 -375.703125 307.7734375 C-375.11655624 308.05282669 -374.52998749 308.33221588 -373.92564392 308.62007141 C-372.02888755 309.52865723 -370.138969 310.450343 -368.25 311.375 C-367.60205475 311.68990387 -366.9541095 312.00480774 -366.28652954 312.32925415 C-355.45122648 317.60781139 -345.04213905 323.32420362 -335 330 C-334.33291016 330.43876465 -333.66582031 330.8775293 -332.97851562 331.32958984 C-314.73107656 343.38750461 -297.66385868 357.00315941 -281.51171875 371.734375 C-280.17587431 372.93933577 -278.83454723 374.13915633 -277.45776367 375.29711914 C-270.59521187 381.11885213 -264.31220323 387.53738646 -257.96362305 393.90600586 C-255.94235732 395.9326298 -253.91580426 397.95385547 -251.88867188 399.97460938 C-245.71375818 406.14600514 -239.61687358 412.30892949 -234 419 C-232.95566593 420.19233449 -231.90876775 421.3824278 -230.859375 422.5703125 C-224.14729905 430.22709049 -217.69742174 438.02696075 -211.48046875 446.08984375 C-209.87365163 448.1630194 -208.25053809 450.22272434 -206.625 452.28125 C-199.20237031 461.70598249 -192.11324557 471.30015842 -185.28808594 481.16552734 C-184.10848175 482.84550193 -182.88816631 484.49669919 -181.6640625 486.14453125 C-181.01179688 487.02496094 -180.35953125 487.90539062 -179.6875 488.8125 C-179.13449219 489.54082031 -178.58148438 490.26914062 -178.01171875 491.01953125 C-177 493 -177 493 -177.30175781 494.88525391 C-178.03127543 497.09472301 -178.94455112 498.83445751 -180.16015625 500.81640625 C-180.61567871 501.56615723 -181.07120117 502.3159082 -181.54052734 503.08837891 C-182.04277832 503.90483887 -182.5450293 504.72129883 -183.0625 505.5625 C-184.1607867 507.37331569 -185.25840785 509.18453516 -186.35546875 510.99609375 C-186.94505371 511.96659668 -187.53463867 512.93709961 -188.14208984 513.93701172 C-198.71009583 531.35964025 -208.88147123 548.90855928 -218.38574219 566.93896484 C-219.90750559 569.82460754 -221.44088011 572.7037793 -222.9765625 575.58203125 C-262.97787501 650.95023482 -293.12301209 731.54785127 -301.95654297 1085.45410156 C-289.08412997 1126.85659951 -268.63865572 1177.63031601 -230.23828125 1201.5390625 C-229.49964844 1202.02117187 -228.76101563 1202.50328125 -228 1203 C-228 1203.33 -228 1203.66 -228 1204 C-237.7267448 1204.76122351 -245.92785091 1203.02056511 -255.07910156 1199.96777344 C-257.90666794 1199.03092346 -260.74253808 1198.12270659 -263.58102417 1197.21957397 C-303.70397472 1184.42576434 -340.9515648 1166.86705017 -374.08007812 1140.51855469 C-375.94012559 1139.04735743 -377.81733435 1137.60205335 -379.703125 1136.1640625 C-387.33286841 1130.31958339 -394.44385452 1124.07840633 -401.42529297 1117.47753906 C-403.4847322 1115.54517841 -405.5760444 1113.64940554 -407.66870117 1111.75317383 C-415.58959349 1104.56567389 -423.27107852 1097.18365181 -430.23046875 1089.05078125 C-432.23786023 1086.72433417 -434.30466638 1084.45807314 -436.375 1082.1875 C-441.1021291 1076.93601708 -445.60346283 1071.52989505 -450 1066 C-450.51723633 1065.34999023 -451.03447266 1064.69998047 -451.56738281 1064.03027344 C-460.09351409 1053.27779246 -468.24121929 1042.3184639 -476 1031 C-476.42200684 1030.38624512 -476.84401367 1029.77249023 -477.27880859 1029.14013672 C-490.31841518 1010.09972901 -501.93507893 990.24012585 -513 970 C-513.4547168 969.17322754 -513.90943359 968.34645508 -514.37792969 967.49462891 C-554.53477532 894.20298406 -579.81223942 811.51273244 -603.203125 621.87890625 C-603.21014543 620.17895481 -603.21723226 618.47900364 -603.22438049 616.77905273 C-603.24379249 611.37353133 -603.24881478 605.96805274 -603.25 600.5625 C-603.25044186 599.64181103 -603.25088371 598.72112206 -603.25133896 597.77253342 C-603.2580237 571.22338085 -603.12201247 544.8076981 -600.25646973 518.38415527 C-599.98272112 515.83937465 -599.72241647 513.29343828 -599.46386719 510.74707031 C-592.76717311 445.33911731 -579.56412036 381.13647392 -557.7220459 319.05548096 C-557.01895304 317.05395448 -556.32173944 315.05047135 -555.62597656 313.04638672 C-531.58391531 243.98620396 -496.12216954 178.10300464 -449.42382812 121.72802734 C-448.13936123 120.1691356 -446.87321063 118.59519561 -445.609375 117.01953125 C-440.21216397 110.29243189 -434.45717857 103.96999272 -428.56591797 97.67919922 C-426.98415801 95.98301198 -425.41415894 94.27668717 -423.84765625 92.56640625 C-416.60243362 84.65716118 -409.33314313 76.90641206 -401.1875 69.90625 C-398.64488601 67.69054352 -396.16889802 65.40901408 -393.6875 63.125 C-343.20259744 17.15387827 -279.36262428 -16.74710747 -212 -29 C-211.11538086 -29.16290527 -210.23076172 -29.32581055 -209.31933594 -29.49365234 C-138.98787011 -42.0788571 -64.33439632 -30.60987415 0 0 Z " fill="#252525" transform="translate(603,59)"/>
<path d="M0 0 C0.66 0 1.32 0 2 0 C2 411.51 2 823.02 2 1247 C-30.01 1247 -62.02 1247 -95 1247 C-99.29 1237.76 -103.58 1228.52 -108 1219 C-110.77085626 1213.26659302 -113.54231882 1207.5373943 -116.35543823 1201.82525635 C-122.18345012 1189.98524735 -127.93540617 1178.1204265 -133.4375 1166.125 C-139.19201958 1153.58194559 -145.24653714 1141.19485563 -151.32150269 1128.80474854 C-157.01791606 1117.18136307 -162.59335433 1105.5207941 -167.98828125 1093.75390625 C-172.82741199 1083.2548302 -177.91081333 1072.8795762 -183 1062.5 C-189.16208719 1049.93207015 -195.22262706 1037.33660288 -201.05859375 1024.61328125 C-205.71908681 1014.49977473 -210.6027045 1004.50044415 -215.5 994.5 C-222.05845317 981.10307847 -228.47103467 967.65641202 -234.71484375 954.109375 C-245.45570916 930.81275141 -256.56254548 907.69237016 -267.81483459 884.63926697 C-268.18015793 883.89076981 -268.54548126 883.14227264 -268.921875 882.37109375 C-269.28014877 881.63705826 -269.63842255 880.90302277 -270.0075531 880.14674377 C-272.90997332 874.19537446 -275.77798358 868.22808026 -278.625 862.25 C-283.04028407 852.97893385 -287.51447466 843.73721387 -292 834.5 C-296.52605195 825.17895412 -301.04134779 815.85354175 -305.5 806.5 C-309.93886208 797.18863772 -314.43244874 787.90445341 -318.9375 778.625 C-324.17216217 767.84240969 -329.38670668 757.05071978 -334.56665039 746.24169922 C-338.32305938 738.40482373 -342.0954156 730.57571801 -345.875 722.75 C-346.16681152 722.14575195 -346.45862305 721.54150391 -346.75927734 720.91894531 C-348.83911326 716.61243454 -350.91948996 712.30618513 -353 708 C-355.37537371 703.08351378 -357.75046846 698.16689303 -360.125 693.25 C-360.56368408 692.34169434 -360.56368408 692.34169434 -361.01123047 691.41503906 C-364.97864466 683.19948706 -368.9322281 674.97740649 -372.875 666.75 C-377.91940445 656.22440181 -383.01028235 645.72171188 -388.10784912 635.22180176 C-392.69617918 625.76942718 -397.25640494 616.3045455 -401.77758789 606.81982422 C-405.81482261 598.36192607 -409.9063463 589.930683 -414 581.5 C-418.52599718 572.17892638 -423.0412826 562.85351184 -427.5 553.5 C-432.58079853 542.84375209 -437.7317334 532.22204526 -442.88671875 521.6015625 C-447.26884671 512.57299799 -451.64023037 503.53938481 -456 494.5 C-461.0275642 484.076457 -466.07236482 473.66140913 -471.125 463.25 C-476.22727006 452.73624054 -481.30487786 442.21124922 -486.35205078 431.67089844 C-491.06875372 421.83270679 -495.8416548 412.02203179 -500.61349487 402.21051025 C-505.57328259 392.01139481 -510.50575339 381.79995809 -515.40234375 371.5703125 C-519.73445426 362.53040709 -524.11568489 353.51465931 -528.5 344.5 C-533.35787987 334.51163674 -538.20441738 324.51847786 -543 314.5 C-547.75580916 304.56578982 -552.55898802 294.65511398 -557.375 284.75 C-564.94501248 269.18024459 -572.48050425 253.59422395 -580 238 C-582.29112501 233.24973851 -584.58288232 228.49978257 -586.875 223.75 C-587.44033447 222.57808105 -588.00566895 221.40616211 -588.58813477 220.19873047 C-591.8144862 213.51307557 -595.051164 206.83252862 -598.296875 200.15625 C-599.02491356 198.65788305 -599.75294096 197.15951068 -600.48095703 195.66113281 C-601.87608665 192.7898686 -603.2731803 189.91957161 -604.67138672 187.04980469 C-605.31485047 185.72594637 -605.9582457 184.40205474 -606.6015625 183.078125 C-607.16182129 181.92731445 -607.72208008 180.77650391 -608.29931641 179.59082031 C-610.27132475 175.42712541 -612.12888821 171.21000153 -614 167 C-614.33 531.32 -614.66 895.64 -615 1271 C-641.4 1271 -667.8 1271 -695 1271 C-696.79708053 1269.20291947 -696.12415482 1266.75645579 -696.13180115 1264.36357666 C-696.12929228 1263.54399669 -696.1267834 1262.72441673 -696.1241985 1261.88000101 C-696.12547658 1261.01277205 -696.12675467 1260.14554309 -696.12807148 1259.25203447 C-696.13117088 1256.30203543 -696.12704906 1253.35208841 -696.12304783 1250.40209103 C-696.1237865 1248.27425666 -696.12496405 1246.14642242 -696.12654433 1244.01858851 C-696.12963506 1238.11523375 -696.12642037 1232.21189601 -696.12226619 1226.30854251 C-696.11885034 1219.9074731 -696.12119927 1213.50640552 -696.12284368 1207.10533577 C-696.12509982 1195.86810727 -696.12329531 1184.63088364 -696.11920547 1173.39365578 C-696.11483433 1161.33053405 -696.11263208 1149.26741484 -696.11310768 1137.2042923 C-696.11313637 1136.44366738 -696.11316507 1135.68304246 -696.11319463 1134.8993683 C-696.11335099 1131.02125179 -696.11354294 1127.14313529 -696.11374746 1123.26501879 C-696.11515667 1095.16166293 -696.11171821 1067.05830932 -696.10573006 1038.95495415 C-696.09981211 1011.1146894 -696.09595587 983.27442561 -696.09487724 955.43416023 C-696.09484283 954.57026445 -696.09480842 953.70636867 -696.09477296 952.81629423 C-696.09445978 944.92619689 -696.09417208 937.03609954 -696.09391499 929.1460022 C-696.09327551 909.53013794 -696.09231613 889.9142737 -696.09113979 870.29840946 C-696.09108648 869.40504353 -696.09103316 868.51167759 -696.09097823 867.59123996 C-696.08835529 824.11038682 -696.08204715 780.62953432 -696.07543945 737.14868164 C-696.07314784 722.05562338 -696.0708725 706.96256511 -696.06866455 691.86950684 C-696.0685276 690.93346242 -696.06839065 689.99741801 -696.06824955 689.03300862 C-696.0619081 645.53690275 -696.05818073 602.04079677 -696.05512976 558.54469056 C-696.05493169 555.72166886 -696.0547325 552.89864716 -696.05453308 550.07562546 C-696.05321332 531.36766538 -696.05193867 512.65970529 -696.05069422 493.95174521 C-696.04821757 456.7260103 -696.04547588 419.50027541 -696.04255217 382.27454054 C-696.04241293 380.50166417 -696.04227388 378.7287878 -696.04213501 376.95591143 C-696.03588013 297.12221863 -696.02654163 217.2885263 -696.01586914 137.45483398 C-696.01576921 136.70713781 -696.01566927 135.95944164 -696.01556631 135.189088 C-696.01056561 97.79272531 -696.00538907 60.39636264 -696 23 C-692.85449187 22.88207179 -689.70956459 22.81218617 -686.5625 22.75 C-685.68400391 22.71648438 -684.80550781 22.68296875 -683.90039062 22.6484375 C-677.36581045 22.55198613 -672.73238694 23.92055964 -667 27 C-665.85015625 27.59039063 -664.7003125 28.18078125 -663.515625 28.7890625 C-650.82819395 35.92194838 -640.0581881 44.656931 -629.48828125 54.61328125 C-627.99842992 56.00146293 -626.48833786 57.36323076 -624.96875 58.71875 C-617.85382372 65.08142225 -611.3113767 71.83848489 -605 79 C-604.22438721 79.87446777 -604.22438721 79.87446777 -603.43310547 80.76660156 C-580.58563482 106.57387379 -560.34973939 134.84846103 -542 164 C-541.49645996 164.79986328 -540.99291992 165.59972656 -540.47412109 166.42382812 C-526.99110957 187.90706395 -514.23697109 209.78476718 -502 232 C-501.45827148 232.98291016 -500.91654297 233.96582031 -500.35839844 234.97851562 C-485.66371745 261.73970505 -471.419386 288.87235316 -458.75415039 316.65649414 C-454.44147651 326.11540732 -449.93293169 335.46973011 -445.375 344.8125 C-444.63873471 346.32258211 -443.9024878 347.83267317 -443.16625977 349.34277344 C-442.09605309 351.53778902 -441.02582661 353.73279473 -439.95527649 355.92764282 C-437.0049271 361.98020974 -434.08661984 368.0477207 -431.1875 374.125 C-430.75719482 375.02694092 -430.32688965 375.92888184 -429.88354492 376.8581543 C-429.02639128 378.65537007 -428.16937542 380.45265156 -427.3125 382.25 C-424.94443555 387.21165885 -422.56631486 392.1684883 -420.1875 397.125 C-419.69411133 398.15302734 -419.20072266 399.18105469 -418.69238281 400.24023438 C-414.4875902 408.99549299 -410.26370587 417.74149046 -406.03793335 426.4866333 C-401.73127065 435.40017467 -397.44782006 444.32450009 -393.18334961 453.25830078 C-389.47735991 461.0160915 -385.74131486 468.75920948 -382 476.5 C-377.81532172 485.15811063 -373.64260262 493.82165063 -369.5 502.5 C-365.41694441 511.05188799 -361.30927017 519.59171621 -357.1875 528.125 C-356.89409729 528.73243042 -356.60069458 529.33986084 -356.29840088 529.96569824 C-354.50031491 533.68790483 -352.70166567 537.40983906 -350.90289307 541.13171387 C-348.22604142 546.670714 -345.55019361 552.2101989 -342.875 557.75 C-342.43744888 558.65603973 -342.43744888 558.65603973 -341.99105835 559.5803833 C-337.49276336 568.8961096 -333.0113041 578.2198262 -328.53857422 587.54785156 C-324.70563546 595.53831801 -320.85530743 603.52031244 -317 611.5 C-312.16454523 621.50838947 -307.34481527 631.52418207 -302.5390625 641.546875 C-298.40850066 650.15767588 -294.25735468 658.75846091 -290.10247803 667.35754395 C-286.09664289 675.64865935 -282.10401365 683.94597151 -278.125 692.25 C-273.4453614 702.01400269 -268.72803197 711.75937601 -264 721.5 C-258.78630504 732.24117996 -253.59302148 742.99163618 -248.43310547 753.75878906 C-244.67679651 761.59551048 -240.90456988 769.42447717 -237.125 777.25 C-236.68628571 778.15836609 -236.68628571 778.15836609 -236.2387085 779.08508301 C-234.75338281 782.16031895 -233.26785006 785.2354548 -231.78222656 788.31054688 C-228.56247268 794.9754154 -225.3452436 801.64150319 -222.12756348 808.30737305 C-221.25432912 810.11638141 -220.38107764 811.9253815 -219.5078125 813.734375 C-219.21946533 814.33169434 -218.93111816 814.92901367 -218.6340332 815.54443359 C-216.86445083 819.20996182 -215.09426706 822.87519899 -213.32363892 826.54022217 C-211.84056649 829.610055 -210.35772148 832.67999765 -208.875 835.75 C-208.58236267 836.35589966 -208.28972534 836.96179932 -207.98822021 837.58605957 C-204.02099165 845.80124658 -200.0676175 854.02297357 -196.125 862.25 C-191.10204571 872.73017953 -186.03460546 883.18843347 -180.95953369 893.64343262 C-176.14069034 903.57150334 -171.34707662 913.51114286 -166.58032227 923.46435547 C-162.39374718 932.19806518 -158.1675286 940.91228593 -153.9375 949.625 C-148.99938692 959.79631414 -144.085746 969.97827871 -139.22021484 980.18457031 C-135.20356091 988.59885759 -131.13455241 996.98743271 -127.0625 1005.375 C-121.82783783 1016.15759031 -116.61329332 1026.94928022 -111.43334961 1037.75830078 C-106.09787831 1048.88952329 -100.72756065 1060.00385861 -95.35772705 1071.11853027 C-92.15377668 1077.75128652 -88.95181257 1084.38500195 -85.74951172 1091.01855469 C-85.09329824 1092.37787927 -84.43708385 1093.73720341 -83.78086853 1095.0965271 C-82.18723515 1098.39767965 -80.59361414 1101.69883816 -79 1105 C-79.00056958 1103.65801479 -79.00056958 1103.65801479 -79.00115067 1102.28891876 C-79.03790201 1015.10185869 -79.07260144 927.91478028 -79.05273438 810.17565918 C-79.052426 808.7072302 -79.05211764 807.23880123 -79.05180928 805.77037225 C-79.0453013 774.94838274 -79.03714776 744.12639384 -79.02709301 713.30440528 C-79.02204402 697.82174458 -79.01731127 682.33908379 -79.01287752 666.85642289 C-79.01220687 664.52090643 -79.01152718 662.18538997 -79.01084712 659.84987351 C-79.00045343 623.8816811 -78.99684649 587.91350373 -79.01287842 551.9453125 C-79.01339536 550.78508837 -79.01339536 550.78508837 -79.01392275 549.60142538 C-79.01952049 537.13041144 -79.02568726 524.65939779 -79.03192954 512.18838417 C-79.04989823 476.27265566 -79.06366667 440.35694784 -79.04957581 404.44121552 C-79.04914433 403.33359264 -79.04914433 403.33359264 -79.04870413 402.20359355 C-79.04231419 385.9944634 -79.0337598 369.78533514 -79.02315534 353.57620722 C-79.01892676 347.0544213 -79.01500983 340.53263519 -79.01119995 334.010849 C-79.01056321 332.94017046 -79.01056321 332.94017046 -79.0099136 331.84786205 C-78.99638632 308.84101778 -79.00823885 285.83427228 -79.03337509 262.82744034 C-79.05927576 239.01182208 -79.05701894 215.19640151 -79.02184123 191.38078648 C-79.00243548 177.64279934 -79.00547799 163.9052374 -79.04021842 150.16727823 C-79.06121981 140.99969404 -79.0534118 131.83243172 -79.02183496 122.66487849 C-79.00465642 117.43510787 -79.00032945 112.20617224 -79.03102028 106.97644478 C-79.05867948 102.22141166 -79.04975198 97.46792511 -79.01125921 92.71298018 C-79.00387743 91.00084441 -79.00998717 89.28858564 -79.03102022 87.57656315 C-79.17655205 74.86448583 -79.17655205 74.86448583 -76.29516602 70.29834408 C-74.30066816 68.26519142 -72.31928135 66.64389898 -70 65 C-68.63638402 63.82336282 -67.28090999 62.63715545 -65.9375 61.4375 C-65.27621094 60.86902344 -64.61492188 60.30054688 -63.93359375 59.71484375 C-61.43568444 57.4995262 -59.11975011 55.1310183 -56.78125 52.75 C-54.28103815 50.29365151 -51.62319484 48.03690632 -48.96875 45.75 C-47.06976929 44.06201714 -45.27994012 42.31230266 -43.5 40.5 C-40.46167583 37.40643357 -37.2523468 34.57894493 -33.96875 31.75 C-32.06976929 30.06201714 -30.27994012 28.31230266 -28.5 26.5 C-25.46167583 23.40643357 -22.2523468 20.57894493 -18.96875 17.75 C-16.46777059 15.52690719 -14.14427156 13.15612024 -11.80078125 10.76953125 C-9.20427379 8.21808249 -6.46038441 5.85105695 -3.69921875 3.48046875 C-2.42270555 2.36828828 -1.19716986 1.19716986 0 0 Z " fill="#252525" transform="translate(3352,0)"/>
<path d="M0 0 C30.45439143 0.08239998 60.90873709 0.17462332 91.36305676 0.28005161 C94.98056299 0.29256644 98.59806949 0.30499984 102.21557617 0.31738281 C102.93558069 0.31984881 103.65558521 0.3223148 104.39740805 0.32485552 C115.96688192 0.36428765 127.53636521 0.39716365 139.1058661 0.42749982 C151.02883327 0.45891316 162.9517615 0.49764269 174.87468463 0.54279006 C181.5498487 0.56786627 188.22498256 0.58962595 194.90018272 0.60334396 C265.06175576 0.75312802 265.06175576 0.75312802 299.5625 4.75 C300.29774902 4.83236908 301.03299805 4.91473816 301.79052734 4.99960327 C377.32991226 13.51292063 449.82963835 35.84946937 508.92724609 85.29199219 C510.39321177 86.49998935 511.87728771 87.68616496 513.37353516 88.85644531 C521.32279515 95.14314396 528.44305251 102.13774676 535.58007812 109.31933594 C537.62150377 111.37148541 539.67341139 113.41271421 541.7265625 115.453125 C548.23766055 121.95796986 554.50395199 128.47580792 560.19335938 135.72192383 C562.00442236 138.00557636 563.90810948 140.16249608 565.875 142.3125 C571.23289804 148.2926736 576.1311699 154.62137179 581 161 C581.53399414 161.69883301 582.06798828 162.39766602 582.61816406 163.11767578 C602.1587967 188.83113831 618.96916258 216.44093189 634 245 C634.77512939 246.47218994 634.77512939 246.47218994 635.56591797 247.97412109 C650.69527604 276.94295352 662.67933825 307.02745703 673 338 C673.40557129 339.21010742 673.81114258 340.42021484 674.22900391 341.66699219 C696.81130288 409.72608679 707.4885416 481.54612718 711 553 C711.08677002 554.74700195 711.08677002 554.74700195 711.17529297 556.52929688 C715.33987443 645.55494918 710.93765336 736.12705197 646 956 C645.37593262 957.36995117 645.37593262 957.36995117 644.73925781 958.76757812 C624.85972994 1002.12102907 598.82759619 1042.56806236 568.42382812 1079.27197266 C567.13936123 1080.8308644 565.87321063 1082.40480439 564.609375 1083.98046875 C559.6583485 1090.15144243 554.42362309 1095.98630365 549.01953125 1101.7578125 C547.11357193 1103.79365494 545.24375325 1105.84781026 543.38671875 1107.9296875 C473.34109239 1186.37228576 372.15945965 1217.54972135 269.8612299 1223.78291416 C252.80656268 1224.74176065 235.8051432 1225.14316875 218.72485352 1225.11352539 C216.3963674 1225.11324241 214.0678812 1225.11340341 211.73939514 1225.1139679 C205.49714655 1225.11425154 199.25491768 1225.10842564 193.01267362 1225.10139394 C186.45977968 1225.09508752 179.90688515 1225.09455089 173.35398865 1225.09336853 C162.38092716 1225.09079288 151.40787248 1225.08440601 140.43481445 1225.07543945 C129.14542679 1225.06622415 117.85604107 1225.0591636 106.56665039 1225.05493164 C105.86776207 1225.05466892 105.16887376 1225.05440619 104.44880701 1225.05413551 C100.9417908 1225.05283023 97.43477457 1225.05156658 93.92775834 1225.05032361 C64.95183428 1225.04000021 35.97591723 1225.02234981 7 1225 C6.99893178 1224.1578991 6.99893178 1224.1578991 6.99784199 1223.29878607 C6.91959648 1161.63726249 6.84033472 1099.97574027 6.7563324 1038.31422424 C6.75506072 1037.38056188 6.75378904 1036.44689951 6.75247882 1035.48494435 C6.7247797 1015.15241329 6.69691543 994.81988246 6.66888306 974.48735186 C6.65512008 964.50401912 6.64139327 954.52068633 6.62768555 944.53735352 C6.62632146 943.54434062 6.62495738 942.55132773 6.62355196 941.52822353 C6.58404217 912.75520056 6.54624632 883.98217584 6.51004343 855.20914853 C6.33903414 717.27422763 6.33903414 717.27422763 5.01627463 355.2241531 C5.00005717 353.00781268 4.9839507 350.79147147 4.96787882 348.57512999 C4.71823397 314.17374553 4.42860611 279.77282774 4.09375042 245.37216216 C4.01799925 237.56405101 3.94569318 229.7559124 3.875 221.94775391 C3.25549172 133.73822079 3.25549172 133.73822079 0.9375 45.5625 C0.79916599 41.85098634 0.66255612 38.13943232 0.52967834 34.42771912 C0.44951029 32.19343698 0.36645723 29.95925467 0.27928162 27.72523499 C0.04798457 21.34240459 -0.02166176 14.97071106 -0.01048279 8.58457947 C-0.00972606 7.75605201 -0.00896934 6.92752456 -0.00818968 6.07389021 C-0.00623079 4.04925925 -0.00322325 2.02462934 0 0 Z M87 87 C87 434.16 87 781.32 87 1139 C188.46564528 1141.68942128 188.46564528 1141.68942128 292.6875 1135.25 C294.58072998 1134.99621582 294.58072998 1134.99621582 296.51220703 1134.73730469 C318.6730306 1131.62400621 339.8774583 1126.3293156 361 1119 C362.05348633 1118.6400293 363.10697266 1118.28005859 364.19238281 1117.90917969 C402.3777456 1104.81804743 436.76276857 1086.23215297 466.33203125 1058.48046875 C468.52975844 1056.43719384 470.76341064 1054.48851198 473.0625 1052.5625 C481.06573222 1045.6053334 487.94236335 1037.26319043 494.5703125 1029.01953125 C496.36164261 1026.7933284 498.16738303 1024.58511884 499.9921875 1022.38671875 C522.29193887 995.42903817 540.64275314 965.86243627 557 935 C557.48871582 934.08138184 557.97743164 933.16276367 558.48095703 932.21630859 C599.80088753 853.92809524 619.16293072 763.78516849 607 430 C606.84764893 429.35750305 606.69529785 428.7150061 606.53833008 428.05303955 C597.09818824 388.28650187 584.46168822 349.46775853 567.12255859 312.40527344 C565.95999701 309.91428676 564.81775959 307.41454398 563.67578125 304.9140625 C557.49868166 291.52301547 550.46962412 278.7100489 543 266 C542.4323291 265.03239746 541.8646582 264.06479492 541.27978516 263.06787109 C527.28740156 239.3468096 511.51838404 216.81978269 493.51953125 195.95703125 C491.24921771 193.29249272 489.09250406 190.5700683 486.9375 187.8125 C476.19063341 174.65818122 463.69986258 163.00222282 450 153 C448.55310797 151.92094484 447.10650858 150.84149721 445.66015625 149.76171875 C436.4242456 142.92206161 427.05387775 136.57091134 417 131 C416.16903809 130.5373877 415.33807617 130.07477539 414.48193359 129.59814453 C314.49551842 74.44498463 197.05966738 87 87 87 Z " fill="#252525" transform="translate(3459,22)"/>
<path d="M0 0 C0.91986694 -0.00705963 1.83973389 -0.01411926 2.78747559 -0.02139282 C41.29711412 -0.24981507 41.29711412 -0.24981507 59.0234375 3.203125 C60.09078125 3.40711914 61.158125 3.61111328 62.2578125 3.82128906 C109.46650397 13.07710271 153.37291182 32.59915996 192.0234375 61.203125 C192.61205566 61.63866699 193.20067383 62.07420898 193.80712891 62.52294922 C205.75859579 71.42749387 217.04924184 81.12767812 228.0234375 91.203125 C228.58289062 91.71214355 229.14234375 92.22116211 229.71875 92.74560547 C238.10434927 100.38408353 246.08545313 108.23018072 253.65332031 116.68017578 C254.98082236 118.15575628 256.3260906 119.61529318 257.671875 121.07421875 C263.37347211 127.25825869 268.79744254 133.61366049 274.0234375 140.203125 C274.53922363 140.85168457 275.05500977 141.50024414 275.58642578 142.16845703 C284.11509505 152.92349564 292.25028285 163.89088234 300.0234375 175.203125 C300.43480957 175.79561035 300.84618164 176.3880957 301.27001953 176.99853516 C313.70700372 194.94499661 324.70507268 213.9720292 335.0234375 233.203125 C335.50458008 234.09306152 335.98572266 234.98299805 336.48144531 235.89990234 C374.04946757 305.65048682 398.30034062 382.73491166 425.7109375 559.890625 C425.77187592 560.6445755 425.83281433 561.398526 425.89559937 562.17532349 C427.81810883 586.29152304 428.2648425 610.39633252 428.2734375 634.578125 C428.27432121 635.72276718 428.27432121 635.72276718 428.27522278 636.89053345 C428.2903361 664.75258775 427.41575765 692.43205859 425.0234375 720.203125 C424.95318359 721.03777283 424.88292969 721.87242065 424.81054688 722.73236084 C418.89179076 792.7496553 404.84541445 862.72220517 382.0234375 929.203125 C381.77936157 929.9154126 381.53528564 930.6277002 381.28381348 931.36157227 C367.67233319 970.95411432 351.32320092 1010.20303907 330.51855469 1046.58691406 C328.95505324 1049.32278629 327.41552996 1052.07144993 325.875 1054.8203125 C310.317381 1082.29102993 292.43494082 1109.09362286 272.0234375 1133.203125 C271.15439895 1134.24563637 270.28593902 1135.28863028 269.41796875 1136.33203125 C263.60855177 1143.28885977 257.60880542 1150.0356306 251.43701172 1156.671875 C249.98563198 1158.24407771 248.55189081 1159.83093193 247.12109375 1161.421875 C240.61154695 1168.62879649 233.79042834 1175.32244386 226.56542969 1181.80957031 C225.11370067 1183.12155088 223.68115124 1184.45466515 222.25 1185.7890625 C215.163599 1192.37671387 207.71711629 1198.35180583 200.0234375 1204.203125 C198.96358643 1205.01571777 198.96358643 1205.01571777 197.88232422 1205.84472656 C178.7753466 1220.44490889 158.5820352 1232.57133033 137.0234375 1243.203125 C136.19021973 1243.61546387 135.35700195 1244.02780273 134.49853516 1244.45263672 C101.09964401 1260.76528748 62.4139078 1271.2137234 25.08203125 1271.40625 C23.70633217 1271.41683945 23.70633217 1271.41683945 22.30284119 1271.42764282 C-16.39715832 1271.65777733 -16.39715832 1271.65777733 -34.9765625 1268.203125 C-36.01699707 1268.01508301 -37.05743164 1267.82704102 -38.12939453 1267.63330078 C-63.66581434 1262.86726074 -88.7112393 1254.79175685 -111.9765625 1243.203125 C-112.95431641 1242.71972656 -113.93207031 1242.23632812 -114.93945312 1241.73828125 C-139.7260545 1229.39883103 -163.12332725 1214.94522716 -184.05078125 1196.73046875 C-186.72637209 1194.41924409 -189.45691405 1192.21224274 -192.2265625 1190.015625 C-205.75647404 1179.00152424 -218.87879875 1166.50720985 -230.21484375 1153.2421875 C-232.17261989 1150.9762027 -234.19885198 1148.78169006 -236.2265625 1146.578125 C-240.77459015 1141.53758674 -244.94348345 1136.25434034 -249.09765625 1130.890625 C-250.99432482 1128.44531193 -252.92203525 1126.03161395 -254.88671875 1123.640625 C-262.30959491 1114.58704916 -268.99093469 1105.15266502 -275.49072266 1095.41796875 C-276.79729118 1093.47035297 -278.12117134 1091.5369471 -279.45703125 1089.609375 C-329.89554934 1016.33514144 -361.46526107 929.78575197 -403.29462051 639.14067459 C-403.28896443 636.40570263 -403.28615375 633.6707369 -403.28353882 630.9357605 C-403.24631957 604.13126092 -402.85234798 577.44373645 -400.2265625 550.74694824 C-399.96826643 548.11871004 -399.72015108 545.48962714 -399.47265625 542.86035156 C-395.46402776 500.9209637 -388.74781104 459.18940129 -378.9765625 418.203125 C-378.80638611 417.48672852 -378.63620972 416.77033203 -378.46087646 416.03222656 C-365.10798508 360.02151214 -345.86280146 306.11565735 -320.9765625 254.203125 C-320.53602539 253.28208984 -320.09548828 252.36105469 -319.64160156 251.41210938 C-299.2325398 209.0007726 -273.32833102 169.14766246 -242.9765625 133.203125 C-241.97003092 132.00001771 -240.96351971 130.79689337 -239.95703125 129.59375 C-226.7365382 113.88959373 -212.62894156 98.51445258 -196.9765625 85.203125 C-196.01878906 84.35621094 -195.06101562 83.50929688 -194.07421875 82.63671875 C-141.28821708 36.17267856 -71.58449826 0.36780353 0 0 Z M-169.60546875 171.83203125 C-170.9765625 173.203125 -170.9765625 173.203125 -173.4765625 175.140625 C-176.40219467 177.55427154 -178.7077074 180.2607604 -181.1640625 183.140625 C-182.82337999 185.02881387 -184.54197436 186.77305865 -186.3515625 188.515625 C-190.03220515 192.14730123 -193.26133105 196.07622534 -196.4921875 200.109375 C-198.16874046 202.19715793 -199.85684772 204.25456277 -201.5859375 206.296875 C-221.51562034 230.12546216 -237.02452627 257.57780978 -250.9765625 285.203125 C-251.41500488 286.06921387 -251.85344727 286.93530273 -252.30517578 287.82763672 C-294.42130649 371.71959851 -310.75697345 469.28526823 -317.9765625 575.203125 C-318.01786285 575.97537415 -318.05916321 576.74762329 -318.10171509 577.54327393 C-319.09656871 596.42694118 -319.17832544 615.29936571 -319.1640625 634.203125 C-319.16379562 634.99717239 -319.16352875 635.79121979 -319.16325378 636.60932922 C-319.15275908 661.52266875 -318.91714635 686.35274738 -316.9765625 711.203125 C-316.91104187 712.05708862 -316.84552124 712.91105225 -316.77801514 713.79089355 C-310.37526817 796.7168846 -295.90890222 880.05494853 -222.7265625 1035.390625 C-222.35623901 1035.94703674 -221.98591553 1036.50344849 -221.60437012 1037.07672119 C-213.67410099 1048.94478216 -205.12701059 1060.24941271 -195.9765625 1071.203125 C-195.16445312 1072.20214844 -194.35234375 1073.20117188 -193.515625 1074.23046875 C-187.06424895 1082.0620785 -180.06648268 1089.32666589 -172.9140625 1096.515625 C-172.00438721 1097.43448486 -171.09471191 1098.35334473 -170.1574707 1099.30004883 C-164.06961562 1105.36054277 -157.69342813 1110.85527691 -150.9765625 1116.203125 C-149.75621589 1117.21526516 -148.53835478 1118.23041809 -147.32421875 1119.25 C-132.16841086 1131.8022866 -115.42031077 1142.14288514 -97.9765625 1151.203125 C-96.97157715 1151.72616211 -96.97157715 1151.72616211 -95.94628906 1152.25976562 C-69.46742166 1165.830023 -40.47695068 1173.91948978 -10.9765625 1177.203125 C-9.82414062 1177.33460937 -8.67171875 1177.46609375 -7.484375 1177.6015625 C58.26467565 1183.79167668 123.80762274 1159.0200198 174.22265625 1117.58984375 C189.7359107 1104.68784514 205.19673274 1090.82887762 218.0234375 1075.203125 C218.46300781 1074.67734863 218.90257813 1074.15157227 219.35546875 1073.60986328 C237.68196912 1051.67844084 253.23420005 1028.21297165 267.0234375 1003.203125 C267.49281738 1002.35234375 267.96219727 1001.5015625 268.44580078 1000.625 C314.44508249 916.58568183 332.44952771 818.64897421 343.0234375 695.203125 C343.06473785 694.50576233 343.10603821 693.80839966 343.14859009 693.08990479 C344.25873733 674.30544526 344.22441069 655.51275765 344.2109375 636.703125 C344.21067062 635.86895428 344.21040375 635.03478355 344.21012878 634.17533493 C344.20051342 610.23441546 344.16050902 586.34276522 342.20703125 562.46624756 C342.00851609 560.01919183 341.820262 557.57146247 341.6328125 555.12353516 C334.8853219 468.02485559 318.77481269 379.85265461 256.0234375 249.203125 C255.58435059 248.501875 255.14526367 247.800625 254.69287109 247.078125 C248.48104587 237.20619275 241.96490621 227.5764594 235.0234375 218.203125 C234.42281494 217.39198242 234.42281494 217.39198242 233.81005859 216.56445312 C218.19941619 195.6161404 200.2841227 174.60540269 179.73828125 158.36328125 C176.93274731 156.13096432 174.23609314 153.79707016 171.5234375 151.453125 C127.69585232 114.93958703 70.35798343 92.68250654 13.2734375 92.828125 C12.42649323 92.82900116 11.57954895 92.82987732 10.7069397 92.83078003 C-56.3197908 93.0577816 -123.1502001 123.5231858 -169.60546875 171.83203125 Z " fill="#252525" transform="translate(2147.9765625,-0.203125)"/>
<path d="M0 0 C38.71794043 -0.04598645 77.43587668 -0.08112444 116.153839 -0.10213066 C120.74643959 -0.10463145 125.33904012 -0.10722016 129.93164062 -0.10986328 C131.30283888 -0.11065021 131.30283888 -0.11065021 132.7017381 -0.11145304 C147.41652213 -0.12010649 162.1312902 -0.13584788 176.84606482 -0.15430559 C191.99519357 -0.17314671 207.14431407 -0.1841464 222.29345405 -0.18817699 C230.78122368 -0.19065198 239.26896 -0.19655645 247.75671768 -0.21146011 C357.46363785 -0.39812772 357.46363785 -0.39812772 404 11 C404.75555176 11.18111328 405.51110352 11.36222656 406.28955078 11.54882812 C438.61388512 19.49971953 468.18338243 37.79993032 492.24609375 60.45703125 C494.18256485 62.24517691 496.10867443 63.93395884 498.14453125 65.59765625 C500.43772222 67.52694824 502.33859849 69.34137819 504.25 71.625 C506.97902303 74.83772295 509.8029436 77.9262167 512.6875 81 C523.52783085 92.92436393 532.59868476 106.27961306 541 120 C541.47405273 120.77375977 541.94810547 121.54751953 542.43652344 122.34472656 C556.70071151 145.88968897 567.40402374 170.88865052 576 197 C576.49838379 198.50554443 576.49838379 198.50554443 577.00683594 200.04150391 C606.41558652 289.90826426 606.51328045 392.80542257 552.5234375 556.04248047 C540.75547625 578.88816678 526.4333966 599.70849995 509.09765625 618.6796875 C507.28292559 620.6870432 505.54608313 622.73567609 503.8125 624.8125 C458.44061522 676.68105188 391.52506204 691.5645499 325.75 696.1875 C247.31225518 700.2338916 168.30470738 698 90 698 C90 879.5 90 1061 90 1248 C62.61 1248 35.22 1248 7 1248 C6.98969254 1238.84728363 6.97938507 1229.69456726 6.96876526 1220.26449585 C6.96173604 1214.04746499 6.95470308 1207.83043414 6.94764709 1201.61340332 C6.94673006 1200.80538277 6.94581303 1199.99736223 6.94486821 1199.16485621 C6.88375556 1145.33016776 6.82164166 1091.49548066 6.7563324 1037.66079712 C6.75506072 1036.61231406 6.75378904 1035.563831 6.75247882 1034.48357573 C6.72479291 1011.66182336 6.69692889 988.8400712 6.66888306 966.01831927 C6.65511762 954.81608659 6.64139128 943.61385385 6.62768555 932.41162109 C6.62563942 930.74005943 6.62563942 930.74005943 6.62355196 929.03472884 C6.57986913 893.3336595 6.53873473 857.63258781 6.49901587 821.93151386 C6.45796344 785.04448952 6.41415315 748.15746935 6.36717889 711.27045206 C6.36044666 705.98295058 6.35374392 700.69544907 6.34705925 695.40794754 C6.34574352 694.36794539 6.34442779 693.32794325 6.3430722 692.25642589 C6.3250164 677.93292117 6.30874211 663.60941547 6.29399965 649.28590697 C6.2075794 565.33569724 6.0340346 481.38773907 5.51147461 397.43896484 C5.50610716 396.57548296 5.5007397 395.71200107 5.4952096 394.82235306 C5.13307886 336.66936648 4.68362205 278.51716849 4.125 220.36572266 C4.0280349 210.2624438 3.93498981 200.15913435 3.84381866 190.05580163 C3.75178243 179.87024378 3.65666033 169.68471672 3.56030273 159.49919891 C3.52104272 155.34273875 3.48278654 151.18627161 3.44555664 147.02979279 C3.24451984 124.70457081 2.9466138 102.38358121 2.50219727 80.06176758 C2.4710091 78.4795495 2.4710091 78.4795495 2.43919086 76.86536741 C2.13053656 61.37842554 1.67612155 45.91046529 0.9375 30.4375 C0.79965818 27.44230693 0.66367209 24.4470431 0.52967834 21.45167542 C0.44875731 19.65284292 0.36555399 17.85411052 0.27928162 16.05552673 C0.2424678 15.256595 0.20565399 14.45766327 0.16772461 13.63452148 C0.13521103 12.95260239 0.10269745 12.27068329 0.06919861 11.56809998 C0.00421671 9.15649078 -0.00672917 6.7518572 -0.00432491 4.33949375 C-0.0037005 3.52735434 -0.00307609 2.71521493 -0.00243276 1.87846524 C-0.00162995 1.25857171 -0.00082714 0.63867818 0 0 Z M90 91 C90 260.95 90 430.9 90 606 C265.68155067 617.59334572 265.68155067 617.59334572 439.1875 549.1875 C478.87422729 509.03425745 499.15045572 451.60649026 508 397 C508.24556641 395.56527344 508.24556641 395.56527344 508.49609375 394.1015625 C520.56158468 321.30975769 504.7659638 234.61146446 461.81054688 174.12353516 C460.55656518 172.40275281 459.28547143 170.69734697 458 169 C457.32710937 168.10925781 456.65421875 167.21851563 455.9609375 166.30078125 C454.0217232 163.82289631 452.02665038 161.40687805 450 159 C449.56606934 158.47728516 449.13213867 157.95457031 448.68505859 157.41601562 C414.73522638 116.55975099 374.79247435 99.69606692 322.49609375 94.61328125 C245.43776075 87.89484646 166.85001904 91 90 91 Z " fill="#252525" transform="translate(1114,23)"/>
<path d="M0 0 C0.58668457 0.45600586 1.17336914 0.91201172 1.77783203 1.38183594 C11.28904886 8.80209257 11.28904886 8.80209257 13 13 C3.625 22.54789959 3.625 22.54789959 -1 26.5 C-5.0748335 29.98332542 -8.79292992 33.77818708 -12.55859375 37.58984375 C-15.27202727 40.26854532 -18.10777023 42.74608118 -21.00390625 45.22265625 C-24.06666727 47.94977223 -26.90223493 50.89404637 -29.78125 53.8125 C-32.40334908 56.39766811 -35.15872205 58.78130346 -37.95703125 61.171875 C-41.06852834 63.9561592 -43.93950078 66.96781435 -46.82421875 69.984375 C-49.06815867 72.06314161 -51.33013953 73.52245901 -54 75 C-54.78697266 74.23429687 -54.78697266 74.23429687 -55.58984375 73.453125 C-101.72572055 30.15756009 -166.49235406 14.31837366 -228.19042969 15.85205078 C-252.75150936 16.80590968 -277.18435553 21.80350646 -300 31 C-300.70608398 31.28037109 -301.41216797 31.56074219 -302.13964844 31.84960938 C-326.87397677 41.81372742 -348.41926461 56.9428355 -367 76 C-367.64195313 76.6084375 -368.28390625 77.216875 -368.9453125 77.84375 C-375.38397533 84.03563481 -380.77506078 90.79093251 -386 98 C-387.16982422 99.59328125 -387.16982422 99.59328125 -388.36328125 101.21875 C-409.1966326 130.50466116 -421.30683936 164.97455981 -427.75 200.0625 C-427.94883789 201.13661133 -428.14767578 202.21072266 -428.35253906 203.31738281 C-431.41099529 220.93891703 -432.38275024 238.57973127 -432.3125 256.4375 C-432.31100952 257.38512207 -432.30951904 258.33274414 -432.3079834 259.30908203 C-432.1575247 312.90830999 -421.92217182 364.89001057 -384 405 C-383.30390625 405.74894531 -382.6078125 406.49789063 -381.890625 407.26953125 C-354.60594643 435.69936969 -315.22832487 451.46168943 -278.5390625 463.5390625 C-276.96994858 464.0585965 -275.40094606 464.57846706 -273.83204651 465.09864807 C-269.71641249 466.46234779 -265.59945951 467.82201836 -261.4821434 469.18062973 C-257.43314162 470.51722925 -253.38513557 471.85683499 -249.3371582 473.1965332 C-248.5407149 473.46008197 -247.7442716 473.72363073 -246.92369366 473.99516582 C-240.39865289 476.15463353 -233.87445443 478.31663897 -227.35090351 480.48060322 C-223.23100585 481.84698413 -219.11035645 483.21100947 -214.98803711 484.57006836 C-197.21554827 490.43138614 -179.5109906 496.42259734 -161.96875 502.9453125 C-161.25873777 503.20891508 -160.54872555 503.47251766 -159.8171978 503.7441082 C-119.49917751 518.75369864 -79.17085252 536.51392097 -47.2265625 565.9609375 C-45.19282399 567.82341382 -43.11048702 569.60084557 -41 571.375 C-21.09603264 588.80592933 -6.0787145 612.73534556 6 636 C6.51723633 636.99338379 6.51723633 636.99338379 7.04492188 638.00683594 C34.84037346 692.21609385 43.48039936 755.73646014 43.3125 815.9375 C43.31027767 817.34616082 43.30810115 818.75482171 43.30596924 820.16348267 C43.26384445 840.25208547 42.94896418 860.09054933 40 880 C39.90054077 880.69003113 39.80108154 881.38006226 39.6986084 882.09100342 C33.63712189 924.14183611 23.43287171 965.12780646 6 1004 C5.59491211 1004.9089502 5.18982422 1005.81790039 4.77246094 1006.75439453 C-4.78337066 1027.97621275 -16.29900713 1048.17828554 -30 1067 C-30.47115234 1067.65371582 -30.94230469 1068.30743164 -31.42773438 1068.98095703 C-41.84081639 1083.38062285 -53.25491023 1096.62255705 -66 1109 C-68.37661571 1111.36207984 -70.74083837 1113.73203666 -73.0703125 1116.140625 C-78.69451697 1121.91452313 -84.65038578 1127.04110228 -91 1132 C-91.5760498 1132.45246094 -92.15209961 1132.90492187 -92.74560547 1133.37109375 C-157.26489338 1183.7976063 -238.73780461 1203.45190157 -319.50390625 1194.03515625 C-386.56514388 1185.26152155 -449.6835351 1153.80244252 -499.41796875 1108.3359375 C-500.83672909 1107.0523994 -502.26179872 1105.77531336 -503.71362305 1104.52929688 C-509.54395698 1099.52072736 -515.00196815 1094.18161294 -520.4375 1088.75 C-521.32759766 1087.87214844 -522.21769531 1086.99429687 -523.13476562 1086.08984375 C-529.19773246 1080.04016319 -534.65654646 1073.6866775 -540 1067 C-541.47121127 1065.24419947 -542.95860927 1063.50384449 -544.45019531 1061.76538086 C-553.46447823 1051.2560544 -553.46447823 1051.2560544 -556 1047 C-555.76127395 1044.571681 -555.37580714 1043.381677 -553.65576172 1041.63476562 C-553.08615723 1041.22935547 -552.51655273 1040.82394531 -551.9296875 1040.40625 C-551.28813721 1039.93944824 -550.64658691 1039.47264648 -549.9855957 1038.99169922 C-548.94085083 1038.25330811 -548.94085083 1038.25330811 -547.875 1037.5 C-546.40598692 1036.43183671 -544.93857591 1035.36146717 -543.47265625 1034.2890625 C-542.72516113 1033.74411133 -541.97766602 1033.19916016 -541.20751953 1032.63769531 C-537.83778213 1030.13778396 -534.57309182 1027.51479156 -531.3125 1024.875 C-525.7686663 1020.40340083 -520.16879075 1016.02335529 -514.51171875 1011.6953125 C-510.32254746 1008.48746522 -506.16233473 1005.24254182 -502 1002 C-494.68778304 996.30558493 -487.354688 990.63946041 -480 985 C-475.71547308 986.51276008 -473.85205644 989.69527605 -471.4375 993.3125 C-466.85294086 999.95774758 -461.86300934 1006.0545476 -456.56835938 1012.14453125 C-455.37554049 1013.55571175 -454.20965995 1014.98971227 -453.05664062 1016.43359375 C-447.75951756 1023.06091483 -442.11596522 1029.19668495 -436.09863281 1035.16210938 C-434.62587477 1036.62413161 -433.16414955 1038.09657488 -431.703125 1039.5703125 C-392.58568459 1078.75161143 -340.92922971 1102.02732691 -285.36450195 1102.38012695 C-283.7846671 1102.3805587 -282.20483033 1102.37880556 -280.625 1102.375 C-279.80494476 1102.37478851 -278.98488953 1102.37457703 -278.13998413 1102.37435913 C-224.13264868 1102.23647029 -171.84457045 1082.25659693 -132.33984375 1045.1875 C-130.27675416 1043.2587351 -128.16484758 1041.43702534 -126 1039.625 C-73.96677851 994.02996616 -48.22622087 917.35855142 -43.35961914 850.42167664 C-39.37334438 788.76151254 -46.46242215 713.97714404 -88 665 C-90.24660333 662.56145386 -92.57579009 660.2600707 -95 658 C-95.763125 657.21625 -96.52625 656.4325 -97.3125 655.625 C-118.65343114 634.78036959 -144.23679286 623.10982144 -172 613 C-172.68739258 612.74945862 -173.37478516 612.49891724 -174.08300781 612.24078369 C-197.89306438 603.59784831 -222.06318875 596.1662812 -246.3125 588.875 C-280.47525917 578.59989688 -314.19428975 568.11146017 -347 554 C-347.87624023 553.62423828 -348.75248047 553.24847656 -349.65527344 552.86132812 C-375.25069109 541.7385418 -399.19065742 526.58080381 -420 508 C-420.85464844 507.25492188 -421.70929688 506.50984375 -422.58984375 505.7421875 C-432.95076806 496.60886086 -442.57159648 486.96129162 -451 476 C-451.41040527 475.47132324 -451.82081055 474.94264648 -452.24365234 474.39794922 C-510.37728166 399.09294348 -524.84671427 298.05807616 -513.734375 205.69873047 C-506.29921992 147.96385182 -487.79116125 90.26545053 -453 43 C-452.58685547 42.43667969 -452.17371094 41.87335938 -451.74804688 41.29296875 C-439.81219049 25.13889371 -426.45763733 8.87229305 -411 -4 C-410.0203125 -4.86753906 -409.040625 -5.73507813 -408.03125 -6.62890625 C-368.16860618 -41.87260121 -318.36601565 -63.68042578 -266 -72 C-265.10571289 -72.15098145 -264.21142578 -72.30196289 -263.29003906 -72.45751953 C-166.7759175 -88.1592729 -75.72857639 -59.22537062 0 0 Z " fill="#252525" transform="translate(4957,75)"/>
<path d="M0 0 C27.06 0 54.12 0 82 0 C83.12564625 9.00517001 83.12564625 9.00517001 83.14526367 12.45532227 C83.15467484 13.62752571 83.15467484 13.62752571 83.16427612 14.82341003 C83.16549469 15.64609879 83.16671326 16.46878754 83.16796875 17.31640625 C83.17224884 18.19722366 83.17652893 19.07804108 83.18093872 19.98554993 C83.19093102 22.84458506 83.19098468 25.70345065 83.1875 28.5625 C83.18656342 29.54696106 83.18562683 30.53142212 83.18466187 31.54571533 C83.00423977 119.24862722 64.80217191 213.88157706 9 284 C8.18917969 285.03511719 7.37835938 286.07023437 6.54296875 287.13671875 C-6.92460207 303.70077042 -22.42881528 318.85707134 -40 331 C-40.66354492 331.46519043 -41.32708984 331.93038086 -42.01074219 332.40966797 C-50.61984262 338.39343137 -59.60328066 343.55044716 -68.875 348.4375 C-69.81359863 348.93386963 -70.75219727 349.43023926 -71.71923828 349.94165039 C-77.98371289 353.17096002 -84.32307876 355.74874342 -91 358 C-90.35667287 354.76364725 -89.1917504 352.38185266 -87.48046875 349.5703125 C-86.95888184 348.7040625 -86.43729492 347.8378125 -85.89990234 346.9453125 C-85.33480957 346.01460938 -84.7697168 345.08390625 -84.1875 344.125 C-63.59103754 309.70460626 -46.3908324 273.83404601 -33 236 C-32.60071289 234.87464844 -32.20142578 233.74929688 -31.79003906 232.58984375 C-14.7488176 184.11348855 -3.73328141 133.28373119 0 82 C0.13245117 80.21589722 0.13245117 80.21589722 0.26757812 78.39575195 C1.02419904 67.45912534 1.15439222 56.55018939 1.13037109 45.59008789 C1.1250255 42.7012808 1.13034549 39.81263046 1.13671875 36.92382812 C1.13605741 35.01562467 1.13477511 33.10742131 1.1328125 31.19921875 C1.13584885 29.9575721 1.13584885 29.9575721 1.13894653 28.69084167 C1.10311976 19.0918426 0.48113091 9.62261827 0 0 Z " fill="#252525" transform="translate(4297,23)"/>
<path d="M0 0 C3.01751492 2.58797342 4.41072018 5.53241195 6.1171875 9.08984375 C6.41020248 9.69680084 6.70321747 10.30375793 7.00511169 10.92910767 C7.96817303 12.92888765 8.92175886 14.93302262 9.875 16.9375 C10.55198567 18.3496919 11.22931808 19.76171763 11.90698242 21.17358398 C16.64476065 31.06557674 21.28402393 41.00268699 25.88134766 50.96069336 C30.06950953 60.02580148 34.32318689 69.05863597 38.60263062 78.08099365 C39.74589984 80.49135561 40.8882851 82.90213488 42.03051758 85.31298828 C45.56122409 92.76265543 49.09795485 100.20935833 52.64996338 107.64889526 C54.22640194 110.95281294 55.79866176 114.25870918 57.37023926 117.56494141 C58.11588354 119.13083468 58.86348405 120.69579813 59.61315918 122.25976562 C60.65328855 124.42998024 61.68669987 126.603278 62.71875 128.77734375 C63.17528961 129.72328651 63.17528961 129.72328651 63.64105225 130.68833923 C65.54232358 134.71569393 67.1839804 138.61170017 68 143 C66.92333984 145.15893555 66.92333984 145.15893555 65.0859375 146.94921875 C64.4269043 147.61872559 63.76787109 148.28823242 63.08886719 148.97802734 C62.39954102 149.64527832 61.71021484 150.3125293 61 151 C59.77869142 152.29332122 58.56244228 153.59144085 57.3515625 154.89453125 C56.10972099 156.20084983 54.86752623 157.50683269 53.625 158.8125 C48.52359604 164.20949231 43.67120934 169.67910122 39.04296875 175.48828125 C36.92190349 178.0960154 34.70399595 180.58051377 32.4375 183.0625 C24.76195572 191.51614928 17.91678689 200.65084559 10.9230957 209.66796875 C7.97587068 213.46776479 5.01873642 217.25646796 2 221 C-1.76381862 219.49278852 -3.58463482 217.35083069 -6.0625 214.1875 C-6.84753906 213.20136719 -7.63257813 212.21523438 -8.44140625 211.19921875 C-8.85664551 210.67634277 -9.27188477 210.1534668 -9.69970703 209.61474609 C-11.91376731 206.86525403 -14.20921106 204.18558703 -16.5 201.5 C-19.92417548 197.4755399 -23.29984157 193.41970788 -26.625 189.3125 C-30.20283215 184.91342167 -33.9455852 180.70449622 -37.765625 176.515625 C-40.01181566 173.98669705 -42.13531218 171.38950086 -44.25 168.75 C-48.3963491 163.61086309 -52.82764519 158.79722694 -57.39550781 154.03417969 C-60.99338736 150.24170063 -64.04369001 146.31402273 -67 142 C-59.56268968 125.90253848 -52.05178767 109.84180489 -44.46853638 93.81262207 C-39.61637201 83.55523323 -34.78931743 73.28688004 -30 63 C-25.06570487 52.40728124 -20.10735468 41.82612455 -15.12304688 31.25683594 C-14.38688823 29.69553947 -13.65119438 28.13402374 -12.91601562 26.57226562 C-8.71878189 17.65799286 -4.45986864 8.78670142 0 0 Z " fill="#252525" transform="translate(451,294)"/>
</svg>
