<?xml version="1.0" encoding="UTF-8"?>
<svg version="1.1" xmlns="http://www.w3.org/2000/svg" width="1024" height="325">
<path d="M0 0 C115 0 115 0 131 8 C132.40440596 8.55304222 133.81838253 9.08429164 135.25 9.5625 C138.29703484 10.66298249 140.46374241 11.95463097 143 14 C144.051875 14.5775 145.10375 15.155 146.1875 15.75 C162.55940788 24.98096933 176.89171408 39.97854643 185.0625 56.875 C185.58118652 57.93859741 185.58118652 57.93859741 186.11035156 59.02368164 C186.78449089 60.41126917 187.4556987 61.80028594 188.12353516 63.19091797 C188.81503828 64.61822665 189.53356603 66.032442 190.26171875 67.44140625 C202.08704551 91.32576189 200.43254842 122.88663279 192.17285156 147.4609375 C189.14982925 155.5777351 185.19761329 163.05553046 180 170 C176.45685718 174.69697676 176.45685718 174.69697676 174 180 C173.34 180.33 172.68 180.66 172 181 C172 181.66 172 182.32 172 183 C170.948125 183.556875 169.89625 184.11375 168.8125 184.6875 C165.30746137 186.68635737 162.78886681 189.06811438 160 192 C158.02242582 193.71389762 156.04429816 195.37124843 154 197 C153.34515625 197.53238281 152.6903125 198.06476563 152.015625 198.61328125 C145.53613091 203.71649182 145.53613091 203.71649182 141 204 C141 204.99 141 205.98 141 207 C141.99 207.33 142.98 207.66 144 208 C145.53515625 210.03125 145.53515625 210.03125 147.0625 212.5 C148.98393567 215.84055125 148.98393567 215.84055125 152 218 C152.309375 218.99 152.61875 219.98 152.9375 221 C153.288125 221.99 153.63875 222.98 154 224 C154.99 224.33 155.98 224.66 157 225 C157.9695236 226.37070578 158.92936838 227.75030794 159.81640625 229.17578125 C161.64955896 232.00113543 163.75299696 234.61521394 165.828125 237.265625 C167 239 167 239 167 241 C167.99 241.33 168.98 241.66 170 242 C171.04106974 243.64132616 172.02967983 245.31588108 173 247 C175.55052922 250.51692996 178.22609342 253.94221789 180.88085938 257.38085938 C181.40873047 258.07373047 181.93660156 258.76660156 182.48046875 259.48046875 C182.96410889 260.10848389 183.44774902 260.73649902 183.94604492 261.38354492 C185 263 185 263 185 265 C185.66 265 186.32 265 187 265 C188.3726682 266.97321053 189.70427617 268.97543152 191 271 C191.66 271.66 192.32 272.32 193 273 C193 273.99 193 274.98 193 276 C193.66 276 194.32 276 195 276 C199 280.47058824 199 280.47058824 199 283 C194.28636535 283.22365774 189.57585703 283.38630177 184.8581543 283.49438477 C183.25636985 283.53945767 181.65495191 283.60074152 180.05444336 283.67895508 C166.76312616 284.31187494 166.76312616 284.31187494 162.34814453 281.02685547 C158 275.55908289 158 275.55908289 158 272 C157.34 272 156.68 272 156 272 C154.6273318 270.02678947 153.29572383 268.02456848 152 266 C151.34 265.34 150.68 264.68 150 264 C150 263.01 150 262.02 150 261 C149.01 260.67 148.02 260.34 147 260 C145.19110199 257.7403223 143.51902787 255.49865407 141.875 253.125 C141.41996094 252.48691406 140.96492187 251.84882813 140.49609375 251.19140625 C138.59556898 248.49006689 137.04990308 246.14970925 136 243 C135.01 242.67 134.02 242.34 133 242 C131.95949565 240.35831536 130.96636064 238.68639405 130 237 C128.52805363 235.14406762 127.02644149 233.31137724 125.5 231.5 C122.65373391 228.1224309 120.2251982 224.81180402 118 221 C117.01904252 219.98131338 116.02297922 218.97648017 115 218 C114.67 217.34 114.34 216.68 114 216 C112.83210938 216.2165625 112.83210938 216.2165625 111.640625 216.4375 C100.98581656 218.20511799 90.79729163 218.1479081 80 218 C80 209.42 80 200.84 80 192 C89.875 190.625 89.875 190.625 92.92138672 190.20556641 C108.44666792 188.01443756 121.8806821 184.32903568 134.92578125 175.3203125 C137 174 137 174 139 174 C139 173.34 139 172.68 139 172 C139.556875 171.773125 140.11375 171.54625 140.6875 171.3125 C144.66580458 169.05454335 147.40234879 165.76840869 150.1875 162.1875 C150.785625 161.465625 151.38375 160.74375 152 160 C152.66 160 153.32 160 154 160 C154.99 157.03 154.99 157.03 156 154 C156.66 154 157.32 154 158 154 C158.38865234 152.97326172 158.38865234 152.97326172 158.78515625 151.92578125 C159.9073828 149.22305556 161.18591445 146.64725369 162.51342773 144.04125977 C170.73579809 127.54655484 171.89754455 109.98532178 168.25 92 C168.01494751 90.83440552 168.01494751 90.83440552 167.77514648 89.64526367 C166.728898 84.98351732 165.19778753 80.97565782 162.93017578 76.76928711 C162 75 162 75 160.625 71.5625 C157.99303953 65.79243282 154.63273493 60.37399175 150 56 C145.30516432 51.42253521 145.30516432 51.42253521 143.375 48.75 C142.02627166 46.70287125 142.02627166 46.70287125 139 46 C137.99705451 45.00295419 136.99766629 44.00232828 136 43 C104.60362166 20.53372927 63.49318838 28 27 28 C27 112.15 27 196.3 27 283 C18.09 283 9.18 283 0 283 C0 189.61 0 96.22 0 0 Z " fill="#252324" transform="translate(0,42)"/>
<path d="M0 0 C22 0 22 0 29 4 C30.82908813 4.68590805 32.65936428 5.36914902 34.5 6.0234375 C43.87573756 9.68583498 52.9780384 14.35204049 61.90234375 18.98828125 C66.34204869 21.26527844 70.84661093 23.18154801 75.4921875 25 C78.6306283 26.25146549 81.70932649 27.61532352 84.7890625 29.00390625 C86.25914516 29.66622264 87.73313469 30.31993687 89.2109375 30.96484375 C95.92036072 33.89580231 102.43495742 37.17262056 108.94921875 40.51171875 C114.42830288 43.29686139 119.894788 45.84801874 125.625 48.0703125 C130.770663 50.08456874 135.80883526 52.23396193 140.5625 55.0625 C143.66443099 56.8108611 146.56550244 58.0314177 149.89453125 59.22265625 C155.06940617 61.13323159 160.06024251 63.38488661 164.8125 66.1875 C168.0044785 68.19145571 168.0044785 68.19145571 172 69 C172 46.23 172 23.46 172 0 C180.91 0 189.82 0 199 0 C199 94.05 199 188.1 199 285 C190.09 285 181.18 285 172 285 C172 223.95 172 162.9 172 100 C169.03 99.01 169.03 99.01 166 98 C165.2575 97.54625 164.515 97.0925 163.75 96.625 C160.48087464 94.69324411 157.12085654 93.40265836 153.58984375 92.0234375 C147.79355925 89.73289974 142.16673513 87.08111003 136.5300293 84.42626953 C135.88074463 84.12060059 135.23145996 83.81493164 134.5625 83.5 C133.91385986 83.19433105 133.26521973 82.88866211 132.59692383 82.57373047 C128.93873831 80.86291889 125.26921967 79.26839706 121.5 77.8125 C118.05139099 76.47956724 114.99787265 74.90013004 111.8359375 73 C108.86107145 71.37964743 105.71247622 70.22801588 102.55859375 69.00390625 C97.66341789 67.08320366 92.81765524 65.09904735 88.3125 62.375 C86.00068871 60.88927146 86.00068871 60.88927146 83.1875 60.0625 C79.96455191 58.98818397 77.13809451 57.61289983 74.125 56.06640625 C71.26289633 54.6300932 68.3416443 53.34974003 65.41015625 52.0625 C61.87015817 50.50191738 58.35208852 48.89401169 54.83203125 47.2890625 C52.93537744 46.42575801 51.03691574 45.566415 49.13671875 44.7109375 C44.31912159 42.5386876 39.54533511 40.32412721 34.8515625 37.89453125 C32.6191456 36.81600072 30.30196942 35.92078777 28 35 C27.67 117.5 27.34 200 27 285 C18.09 285 9.18 285 0 285 C0 190.95 0 96.9 0 0 Z " fill="#272626" transform="translate(418,40)"/>
<path d="M0 0 C0.70844858 0.00223072 1.41689715 0.00446144 2.14681387 0.00675976 C3.26797228 0.00441978 3.26797228 0.00441978 4.41178036 0.00203252 C6.9353349 -0.00198027 9.45883009 0.00121323 11.98238516 0.00434887 C13.78384324 0.00299496 15.58530105 0.00121508 17.38675833 -0.00096118 C22.29364142 -0.00553665 27.20050359 -0.00374549 32.10738707 -0.0005821 C37.23055597 0.00194092 42.35372302 -0.00039587 47.47689199 -0.00196826 C56.0820792 -0.00379013 64.68725784 -0.0013832 73.29244375 0.00337231 C83.25639279 0.00881496 93.22032137 0.00705232 103.18426991 0.00154591 C111.72266567 -0.00298474 120.26105525 -0.00363601 128.79945183 -0.00101542 C133.90626533 0.00054762 139.01306921 0.00074037 144.11988211 -0.00255191 C148.91980531 -0.00542992 153.719702 -0.00345623 158.51962233 0.00234234 C160.28656549 0.00367032 162.05351087 0.00327519 163.82045317 0.00107968 C166.22199531 -0.00163036 168.62345113 0.00174748 171.0249877 0.00675976 C171.73343627 0.00452904 172.44188485 0.00229832 173.17180157 0 C177.97175092 0.01959354 177.97175092 0.01959354 179.08590078 1.13374341 C179.18549699 2.97533363 179.21670489 4.82071308 179.21871328 6.66499341 C179.22000235 7.78518872 179.22129141 8.90538403 179.22261953 10.05952466 C179.21875235 11.23901684 179.21488516 12.41850903 179.21090078 13.63374341 C179.21476797 14.81323559 179.21863516 15.99272778 179.22261953 17.20796216 C179.22068594 18.88825512 179.22068594 18.88825512 179.21871328 20.60249341 C179.21758535 21.63825512 179.21645742 22.67401684 179.21529531 23.74116528 C179.08590078 26.13374341 179.08590078 26.13374341 178.08590078 27.13374341 C176.06095456 27.23050754 174.03257537 27.25561327 172.00531912 27.25399792 C171.0423609 27.25527956 171.0423609 27.25527956 170.05994898 27.25658709 C167.89336024 27.25824362 165.72684771 27.25271773 163.56026602 27.2472688 C162.01334017 27.24698694 160.4664142 27.24714464 158.91948843 27.2477113 C154.70686046 27.24799932 150.49426072 27.24210189 146.28163934 27.23513734 C141.88404291 27.22890453 137.4864459 27.22830006 133.08884573 27.22711194 C124.75549566 27.22399841 116.42215863 27.21578473 108.08881432 27.20576245 C96.83210928 27.19251693 85.57540069 27.18710158 74.31868982 27.18126023 C56.57441703 27.17184485 38.83017178 27.15192608 21.08590078 27.13374341 C21.08590078 55.18374341 21.08590078 83.23374341 21.08590078 112.13374341 C42.43247094 112.09413032 42.43247094 112.09413032 63.77901602 112.04365551 C66.44250845 112.04073666 69.10600133 112.03818803 71.76949453 112.03608716 C72.46599615 112.03347378 73.16249777 112.03086041 73.8801055 112.02816784 C75.92191858 112.02088732 77.96375247 112.02040501 80.00557852 112.02021801 C81.73432463 112.0168871 81.73432463 112.0168871 83.4979949 112.01348889 C86.08590078 112.13374341 86.08590078 112.13374341 87.08590078 113.13374341 C87.08590078 122.04374341 87.08590078 130.95374341 87.08590078 140.13374341 C65.63590078 140.46374341 44.18590078 140.79374341 22.08590078 141.13374341 C21.75590078 180.07374341 21.42590078 219.01374341 21.08590078 259.13374341 C71.57590078 259.13374341 122.06590078 259.13374341 174.08590078 259.13374341 C174.08590078 267.71374341 174.08590078 276.29374341 174.08590078 285.13374341 C114.68590078 285.13374341 55.28590078 285.13374341 -5.91409922 285.13374341 C-5.95443057 213.90409969 -5.95443057 213.90409969 -5.96292734 184.22944653 C-5.96488536 177.43655914 -5.96690588 170.64367177 -5.96903086 163.85078442 C-5.96929461 162.99935063 -5.96955835 162.14791685 -5.9698301 161.27068204 C-5.97418505 147.50650593 -5.98207196 133.74233397 -5.99125201 119.97816033 C-6.00058786 105.86317087 -6.00615468 91.74818359 -6.00818771 77.63319117 C-6.00956308 68.91630722 -6.01391444 60.19943501 -6.02201568 51.48255467 C-6.02728229 45.51337648 -6.02890371 39.54420442 -6.02760059 33.57502408 C-6.02695708 30.12586328 -6.02797623 26.67672307 -6.03330469 23.22756588 C-6.03823427 19.49693919 -6.03710023 15.76636394 -6.03435373 12.0357362 C-6.03726657 10.93361973 -6.04017942 9.83150325 -6.04318053 8.69598931 C-6.04118948 7.70471392 -6.03919843 6.71343853 -6.03714705 5.69212449 C-6.03752677 4.82977962 -6.03790649 3.96743475 -6.03829771 3.07895821 C-5.78775906 -0.84501435 -3.35413245 0.01369167 0 0 Z " fill="#201E1F" transform="translate(652.9140992164612,39.8662565946579)"/>
<path d="M0 0 C60.39 0 120.78 0 183 0 C183 8.91 183 17.82 183 27 C131.52 27 80.04 27 27 27 C27 55.05 27 83.1 27 112 C48.12 112 69.24 112 91 112 C91 121.24 91 130.48 91 140 C69.88 140 48.76 140 27 140 C27 179.27 27 218.54 27 259 C77.16 259 127.32 259 179 259 C179 267.58 179 276.16 179 285 C119.93 285 60.86 285 0 285 C0 190.95 0 96.9 0 0 Z " fill="#282526" transform="translate(841,40)"/>
<path d="M0 0 C60.39 0 120.78 0 183 0 C183 8.91 183 17.82 183 27 C131.19 27 79.38 27 26 27 C26 55.05 26 83.1 26 112 C47.01746879 111.96038712 47.01746879 111.96038712 68.03491211 111.90991211 C70.65738891 111.90699325 73.27986616 111.90444462 75.90234375 111.90234375 C76.93096275 111.89842369 76.93096275 111.89842369 77.98036194 111.89442444 C79.99072139 111.88714366 82.00110198 111.8866616 84.01147461 111.88647461 C85.14620712 111.884254 86.28093964 111.88203339 87.45005798 111.87974548 C90 112 90 112 91 113 C91 121.91 91 130.82 91 140 C69.55 140 48.1 140 26 140 C26 179.27 26 218.54 26 259 C36.96089844 258.98839844 47.92179687 258.97679687 59.21484375 258.96484375 C66.13737003 258.95973735 73.05989494 258.95488235 79.98242188 258.95117188 C90.98267073 258.94522855 101.98291196 258.93822596 112.9831543 258.92456055 C120.99307036 258.91461468 129.00298025 258.90814681 137.01290232 258.90591151 C141.25677253 258.90460423 145.5006251 258.90151734 149.74448967 258.89426994 C153.7342907 258.88751126 157.7240667 258.88538273 161.71387291 258.88689232 C163.18249395 258.88661592 164.65111579 258.8846099 166.1197319 258.88079453 C168.11622776 258.87585972 170.11273687 258.87760187 172.10923767 258.87974548 C173.22921615 258.87882369 174.34919462 258.8779019 175.50311184 258.87695217 C178 259 178 259 179 260 C179 268.25 179 276.5 179 285 C119.93 285 60.86 285 0 285 C0 190.95 0 96.9 0 0 Z " fill="#262425" transform="translate(225,40)"/>
<path d="M0 0 C0.70844858 0.00223072 1.41689715 0.00446144 2.14681387 0.00675976 C3.26797228 0.00441978 3.26797228 0.00441978 4.41178036 0.00203252 C6.9353349 -0.00198027 9.45883009 0.00121323 11.98238516 0.00434887 C13.78384324 0.00299496 15.58530105 0.00121508 17.38675833 -0.00096118 C22.29364142 -0.00553665 27.20050359 -0.00374549 32.10738707 -0.0005821 C37.23055597 0.00194092 42.35372302 -0.00039587 47.47689199 -0.00196826 C56.0820792 -0.00379013 64.68725784 -0.0013832 73.29244375 0.00337231 C83.25639279 0.00881496 93.22032137 0.00705232 103.18426991 0.00154591 C111.72266567 -0.00298474 120.26105525 -0.00363601 128.79945183 -0.00101542 C133.90626533 0.00054762 139.01306921 0.00074037 144.11988211 -0.00255191 C148.91980531 -0.00542992 153.719702 -0.00345623 158.51962233 0.00234234 C160.28656549 0.00367032 162.05351087 0.00327519 163.82045317 0.00107968 C166.22199531 -0.00163036 168.62345113 0.00174748 171.0249877 0.00675976 C171.73343627 0.00452904 172.44188485 0.00229832 173.17180157 0 C177.97175092 0.01959354 177.97175092 0.01959354 179.08590078 1.13374341 C179.18549699 2.97533363 179.21670489 4.82071308 179.21871328 6.66499341 C179.22000235 7.78518872 179.22129141 8.90538403 179.22261953 10.05952466 C179.21875235 11.23901684 179.21488516 12.41850903 179.21090078 13.63374341 C179.21476797 14.81323559 179.21863516 15.99272778 179.22261953 17.20796216 C179.22068594 18.88825512 179.22068594 18.88825512 179.21871328 20.60249341 C179.21758535 21.63825512 179.21645742 22.67401684 179.21529531 23.74116528 C179.08590078 26.13374341 179.08590078 26.13374341 178.08590078 27.13374341 C176.06095456 27.23050754 174.03257537 27.25561327 172.00531912 27.25399792 C171.0423609 27.25527956 171.0423609 27.25527956 170.05994898 27.25658709 C167.89336024 27.25824362 165.72684771 27.25271773 163.56026602 27.2472688 C162.01334017 27.24698694 160.4664142 27.24714464 158.91948843 27.2477113 C154.70686046 27.24799932 150.49426072 27.24210189 146.28163934 27.23513734 C141.88404291 27.22890453 137.4864459 27.22830006 133.08884573 27.22711194 C124.75549566 27.22399841 116.42215863 27.21578473 108.08881432 27.20576245 C98.60408824 27.19460198 89.11936156 27.18909103 79.63463056 27.18406701 C60.11837989 27.17360213 40.60214138 27.15600227 21.08590078 27.13374341 C21.08590078 26.80374341 21.08590078 26.47374341 21.08590078 26.13374341 C72.56590078 26.13374341 124.04590078 26.13374341 177.08590078 26.13374341 C177.08590078 18.21374341 177.08590078 10.29374341 177.08590078 2.13374341 C117.02590078 2.13374341 56.96590078 2.13374341 -4.91409922 2.13374341 C-4.91409922 95.52374341 -4.91409922 188.91374341 -4.91409922 285.13374341 C-5.24409922 285.13374341 -5.57409922 285.13374341 -5.91409922 285.13374341 C-5.93696435 248.97084509 -5.95459681 212.80794803 -5.96516455 176.64504397 C-5.96641532 172.38029078 -5.96770964 168.1155376 -5.96903086 163.85078442 C-5.96929317 163.00171214 -5.96955548 162.15263985 -5.96982574 161.2778381 C-5.97418269 147.51127664 -5.98207037 133.74471933 -5.99125201 119.97816033 C-6.00058786 105.86317087 -6.00615468 91.74818359 -6.00818771 77.63319117 C-6.00956308 68.91630722 -6.01391444 60.19943501 -6.02201568 51.48255467 C-6.02728229 45.51337648 -6.02890371 39.54420442 -6.02760059 33.57502408 C-6.02695708 30.12586328 -6.02797623 26.67672307 -6.03330469 23.22756588 C-6.03823427 19.49693919 -6.03710023 15.76636394 -6.03435373 12.0357362 C-6.03726657 10.93361973 -6.04017942 9.83150325 -6.04318053 8.69598931 C-6.04118948 7.70471392 -6.03919843 6.71343853 -6.03714705 5.69212449 C-6.03752677 4.82977962 -6.03790649 3.96743475 -6.03829771 3.07895821 C-5.78775906 -0.84501435 -3.35413245 0.01369167 0 0 Z " fill="#A6A4A5" transform="translate(652.9140992164612,39.8662565946579)"/>
<path d="M0 0 C1.68319336 0.04060547 1.68319336 0.04060547 3.40039062 0.08203125 C6.16472459 0.15260999 8.92512415 0.25115512 11.6875 0.375 C9.01324516 5.24495881 7.13966783 7.95822004 2.6875 11.375 C1.60046299 12.5400807 0.54061574 13.73077659 -0.5 14.9375 C-1.10328125 15.61941406 -1.7065625 16.30132812 -2.328125 17.00390625 C-4.40297716 19.42017371 -4.40297716 19.42017371 -6.421875 22.33984375 C-12.19290008 29.8634788 -12.19290008 29.8634788 -16.32568359 30.86083984 C-21.03644546 31.32065734 -25.62739465 30.95046579 -30.3125 30.375 C-28.93473181 25.65327359 -26.90351512 21.64937928 -24.3125 17.5 C-23.95671875 16.90703125 -23.6009375 16.3140625 -23.234375 15.703125 C-22.31980003 14.22205957 -21.32226463 12.79287784 -20.3125 11.375 C-19.6525 11.375 -18.9925 11.375 -18.3125 11.375 C-18.250625 10.67375 -18.18875 9.9725 -18.125 9.25 C-15.28903227 -0.78496272 -9.18471148 -0.41870689 0 0 Z " fill="#302F2F" transform="translate(738.3125,-0.375)"/>
<path d="M0 0 C0.33 0 0.66 0 1 0 C1 27.72 1 55.44 1 84 C22.34657015 83.96038691 22.34657015 83.96038691 43.69311523 83.90991211 C46.35660767 83.90699326 49.02010055 83.90444463 51.68359375 83.90234375 C52.72834618 83.89842369 52.72834618 83.89842369 53.79420471 83.89442444 C55.83601779 83.88714392 57.87785168 83.88666161 59.91967773 83.88647461 C61.64842384 83.88314369 61.64842384 83.88314369 63.41209412 83.87974548 C66 84 66 84 67 85 C67.08758003 86.99964982 67.10696576 89.0023611 67.09765625 91.00390625 C67.09282227 92.82631836 67.09282227 92.82631836 67.08789062 94.68554688 C67.07532227 96.60463867 67.07532227 96.60463867 67.0625 98.5625 C67.05798828 99.84576172 67.05347656 101.12902344 67.04882812 102.45117188 C67.03699545 105.63416022 67.02051068 108.81705762 67 112 C66.34 112 65.68 112 65 112 C65 103.42 65 94.84 65 86 C43.55 86 22.1 86 0 86 C0 57.62 0 29.24 0 0 Z " fill="#676667" transform="translate(673,68)"/>
<path d="M0 0 C0.66 0 1.32 0 2 0 C2 8.25 2 16.5 2 25 C7.61 25 13.22 25 19 25 C19 24.01 19 23.02 19 22 C22.96 22.33 26.92 22.66 31 23 C31 23.33 31 23.66 31 24 C20.71287222 26.64256493 10.5458937 26.14155562 0 26 C0 17.42 0 8.84 0 0 Z " fill="#4D4C4D" transform="translate(80,234)"/>
<path d="M0 0 C6.88928682 12.9550066 3.95615139 34.41250386 0 48 C-0.33 48 -0.66 48 -1 48 C-1.02749766 46.62511713 -1.0466164 45.25006609 -1.0625 43.875 C-1.07410156 43.10929687 -1.08570313 42.34359375 -1.09765625 41.5546875 C-1 39 -1 39 -0.5 36.328125 C0.06085286 32.59494815 0.12577046 28.95855691 0.09765625 25.1953125 C0.09553383 24.1093428 0.09553383 24.1093428 0.09336853 23.00143433 C0.08781075 20.70924593 0.07526633 18.41715843 0.0625 16.125 C0.05747953 14.56250142 0.05291759 13.00000129 0.04882812 11.4375 C0.03785519 7.62496165 0.0206201 3.81249788 0 0 Z " fill="#7F7F7F" transform="translate(195,129)"/>
<path d="M0 0 C0.33 1.32 0.66 2.64 1 4 C0.01 4 -0.98 4 -2 4 C-2.144375 4.78375 -2.28875 5.5675 -2.4375 6.375 C-3 9 -3 9 -4 11 C-4.99 11.33 -5.98 11.66 -7 12 C-7.99 13.485 -7.99 13.485 -9 15 C-9.66 14.67 -10.32 14.34 -11 14 C-9.71937515 12.2925002 -8.38232443 10.62626404 -7 9 C-6.34 9 -5.68 9 -5 9 C-4.34 7.02 -3.68 5.04 -3 3 C-2.34 3 -1.68 3 -1 3 C-0.67 2.01 -0.34 1.02 0 0 Z " fill="#6E6D6E" transform="translate(159,193)"/>
<path d="M0 0 C3.96 0.33 7.92 0.66 12 1 C12 1.33 12 1.66 12 2 C0.47835991 4.29612756 0.47835991 4.29612756 -5 4 C-5 3.67 -5 3.34 -5 3 C-3.35 3 -1.7 3 0 3 C0 2.01 0 1.02 0 0 Z " fill="#5D5B5C" transform="translate(99,256)"/>
<path d="M0 0 C1.66165091 3.32330183 0.05698342 6.61643812 -1 10 C-1.92046565 12.38159315 -2.93526288 14.6769372 -4 17 C-4.33 17 -4.66 17 -5 17 C-4.46246904 10.81839396 -2.45417612 5.673142 0 0 Z " fill="#767475" transform="translate(193,179)"/>
<path d="M0 0 C0.66 0.33 1.32 0.66 2 1 C-0.64 4.3 -3.28 7.6 -6 11 C-7.32 10.34 -8.64 9.68 -10 9 C-9.01 8.67 -8.02 8.34 -7 8 C-7 7.34 -7 6.68 -7 6 C-6.401875 5.7525 -5.80375 5.505 -5.1875 5.25 C-2.71352479 3.83629988 -1.56629745 2.34944617 0 0 Z " fill="#696868" transform="translate(146,208)"/>
<path d="M0 0 C0.66 0.33 1.32 0.66 2 1 C1.88512252 2.58409994 1.75765492 4.16728963 1.625 5.75 C1.52058594 7.07257813 1.52058594 7.07257813 1.4140625 8.421875 C1.00149945 10.99066382 0.28839043 12.75841015 -1 15 C-1.10251672 9.87416389 -1.03590199 5.05002222 0 0 Z " fill="#6C6C6C" transform="translate(195,162)"/>
<path d="M0 0 C5.28137429 0.51525603 8.57221156 2.25477117 13 5 C11.3125 5.6875 11.3125 5.6875 9 6 C6.5 4.625 6.5 4.625 4 3 C1.80869466 2.30420546 1.80869466 2.30420546 0 2 C0 1.34 0 0.68 0 0 Z " fill="#727171" transform="translate(508,73)"/>
<path d="M0 0 C9.59453303 2.89066059 9.59453303 2.89066059 13 6 C8.36233145 6.42160623 5.0966411 5.12710211 1 3 C0.67 2.01 0.34 1.02 0 0 Z " fill="#7C7C7C" transform="translate(457,49)"/>
<path d="M0 0 C0.66 0.33 1.32 0.66 2 1 C1 4 1 4 -1.3125 5.25 C-4.16597407 6.04631835 -5.24802325 5.8214856 -8 5 C-6.71475739 4.13619741 -5.42157581 3.28419631 -4.125 2.4375 C-3.04605469 1.72400391 -3.04605469 1.72400391 -1.9453125 0.99609375 C-1.30335938 0.66738281 -0.66140625 0.33867187 0 0 Z " fill="#636162" transform="translate(134,218)"/>
<path d="M0 0 C1.48199902 0.44909061 2.96055236 0.90956564 4.4375 1.375 C5.26121094 1.63023438 6.08492187 1.88546875 6.93359375 2.1484375 C9 3 9 3 10 5 C7.36 5 4.72 5 2 5 C1.34 3.35 0.68 1.7 0 0 Z M0 5 C0.99 5.495 0.99 5.495 2 6 C1.01 6.495 1.01 6.495 0 7 C0 6.34 0 5.68 0 5 Z " fill="#5C5A5B" transform="translate(557,95)"/>
<path d="M0 0 C0.99 0.33 1.98 0.66 3 1 C3 1.99 3 2.98 3 4 C3.66 4 4.32 4 5 4 C5 6.31 5 8.62 5 11 C3.33167423 8.49751135 2.37618326 6.58850813 1.375 3.8125 C1.11460937 3.09707031 0.85421875 2.38164063 0.5859375 1.64453125 C0.39257812 1.10183594 0.19921875 0.55914062 0 0 Z " fill="#6E6D6D" transform="translate(163,117)"/>
<path d="M0 0 C4.56454251 0.54339792 7.9728176 1.79463821 12 4 C9.5332355 4.88336837 8.36140628 5.1312406 5.859375 4.22265625 C5.16328125 3.83980469 4.4671875 3.45695312 3.75 3.0625 C3.04359375 2.68222656 2.3371875 2.30195312 1.609375 1.91015625 C1.07828125 1.60980469 0.5471875 1.30945313 0 1 C0 0.67 0 0.34 0 0 Z " fill="#777576" transform="translate(536,86)"/>
<path d="M0 0 C0.33 0.66 0.66 1.32 1 2 C-0.5224249 5.57769851 -2.02930459 8.45368965 -5 11 C-4.46884894 6.48521602 -2.63379708 3.65333143 0 0 Z " fill="#767475" transform="translate(187,196)"/>
<path d="M0 0 C1.27875 0.28875 2.5575 0.5775 3.875 0.875 C4.95394531 1.11863281 4.95394531 1.11863281 6.0546875 1.3671875 C8 2 8 2 10 4 C2.25 3.125 2.25 3.125 0 2 C0 1.34 0 0.68 0 0 Z " fill="#7E7C7D" transform="translate(117,45)"/>
<path d="M0 0 C-3.51187196 2.40814077 -5.72656908 3.36629408 -10 3 C-9 1 -9 1 -6.125 -0.1875 C-3 -1 -3 -1 0 0 Z " fill="#7B7B7B" transform="translate(124,226)"/>
<path d="M0 0 C1.65 1.32 3.3 2.64 5 4 C4.67 4.99 4.34 5.98 4 7 C2.35 5.68 0.7 4.36 -1 3 C-0.67 2.01 -0.34 1.02 0 0 Z " fill="#5C5A5B" transform="translate(188,311)"/>
<path d="M0 0 C0.66 0.33 1.32 0.66 2 1 C-1.28804981 3.91227269 -3.59885603 5.49701212 -8 6 C-5.54080489 3.3651481 -3.42227589 1.25483449 0 0 Z " fill="#817F80" transform="translate(149,240)"/>
</svg>
