<?xml version="1.0" encoding="UTF-8"?>
<svg version="1.1" xmlns="http://www.w3.org/2000/svg" width="3696" height="1224">
<path d="M0 0 C203.43221831 0 203.43221831 0 244.25 38.9375 C268.79611343 64.38164197 272.69724006 99.40071526 272.17739868 133.08326721 C271.59340392 159.96013009 260.52769686 184.69650848 242.25 204.1875 C226.43836243 219.2101337 198.50517651 236 176 236 C176.71542969 236.92296875 177.43085937 237.8459375 178.16796875 238.796875 C190.72153484 255.16321095 201.46528666 272.64903845 212.27148438 290.19482422 C238.37070549 337.67043205 238.37070549 337.67043205 280.7265625 367.57421875 C286.7002494 368.69300203 291.95062574 367.75617178 298 367 C298 380.2 298 393.4 298 407 C282.17831892 412.27389369 265.89484882 410.76387749 250.9375 403.4375 C233.84170895 394.65319082 221.3880374 381.19498939 210 366 C209.58105469 365.44183594 209.16210938 364.88367188 208.73046875 364.30859375 C197.06553201 348.64425013 187.2289609 331.80883621 177.4453125 314.93359375 C161.26656736 286.920608 161.26656736 286.920608 142 261 C141.2575 259.989375 140.515 258.97875 139.75 257.9375 C133.6451182 250.6944199 125.71530082 246.26823781 117 243 C93.24 242.67 69.48 242.34 45 242 C45 296.78 45 351.56 45 408 C30.15 408 15.3 408 0 408 C0 273.36 0 138.72 0 0 Z M45 41 C45 93.8 45 146.6 45 201 C58.57125 201.04125 72.1425 201.0825 86.125 201.125 C90.36230957 201.14320801 94.59961914 201.16141602 98.96533203 201.18017578 C131.39555636 201.57884945 131.39555636 201.57884945 163.375 196.8125 C164.72621948 196.49321533 164.72621948 196.49321533 166.10473633 196.16748047 C186.77375031 191.00527178 205.52721204 180.33745819 217 162 C224.01808173 149.26289455 226.56468767 136.6508411 226.4375 122.1875 C226.42505249 120.34937744 226.42505249 120.34937744 226.41235352 118.47412109 C226.03458749 98.16079498 219.49548096 80.6834627 205 66 C184.1969186 47.08538276 153.91472953 40.76572024 126.51123047 40.88647461 C125.60801622 40.88635407 124.70480198 40.88623354 123.77421761 40.88610935 C120.88851468 40.88684792 118.00287867 40.89442734 115.1171875 40.90234375 C113.3203942 40.90381645 111.52360046 40.90483514 109.72680664 40.90539551 C103.10953116 40.9106104 96.4922649 40.92457163 89.875 40.9375 C75.06625 40.958125 60.2575 40.97875 45 41 Z " fill="#243E8B" transform="translate(1115,407)"/>
<path d="M0 0 C21.12 0 42.24 0 64 0 C66.784375 8.085 69.56875 16.17 72.4375 24.5 C78.73536403 42.75707696 85.08939499 60.99170709 91.5625 79.1875 C97.45911747 95.76315743 103.26302135 112.36841675 109 129 C114.75855935 145.6937709 120.58322425 162.36164222 126.5 179 C132.80562003 196.73181317 138.99821323 214.50019664 145.13525391 232.29101562 C150.51698386 247.88714394 155.97207341 263.45511132 161.5 279 C167.79998922 296.71597897 173.99044919 314.46739415 180.11813354 332.24368286 C184.32289139 344.43915078 188.55847975 356.62230491 192.87890625 368.77734375 C193.27475922 369.89130524 193.67061218 371.00526672 194.07846069 372.15298462 C195.974256 377.4836325 197.87542154 382.81230245 199.78320312 388.13867188 C200.46098277 390.03904636 201.13871957 391.93943612 201.81640625 393.83984375 C202.28065758 395.12821388 202.28065758 395.12821388 202.75428772 396.44261169 C203.03719162 397.23748489 203.32009552 398.03235809 203.61157227 398.85131836 C203.85706314 399.53608749 204.10255402 400.22085663 204.35548401 400.92637634 C205.07398854 403.23804591 205.52525047 405.62625237 206 408 C188.51 408 171.02 408 153 408 C150.64875 400.925625 148.2975 393.85125 145.875 386.5625 C140.5134451 370.46022035 135.11598166 354.37113318 129.625 338.3125 C129.19640686 337.0586853 129.19640686 337.0586853 128.75915527 335.77954102 C125.82685887 327.20590194 122.87843137 318.63801941 119.90625 310.078125 C119.66643402 309.38651779 119.42661804 308.69491058 119.17953491 307.98234558 C118.07119777 304.78600483 116.95990707 301.59081937 115.84228516 298.39770508 C115.46378418 297.30868896 115.0852832 296.21967285 114.6953125 295.09765625 C114.36547363 294.15414307 114.03563477 293.21062988 113.69580078 292.23852539 C113 290 113 290 113 288 C58.88 288 4.76 288 -51 288 C-51.66 290.97 -52.32 293.94 -53 297 C-53.69727133 299.31354224 -54.43263645 301.61599033 -55.20800781 303.90454102 C-55.42014671 304.53481233 -55.63228561 305.16508364 -55.85085297 305.81445408 C-56.54710778 307.87915845 -57.25000539 309.94153059 -57.953125 312.00390625 C-58.45114633 313.47553502 -58.94879836 314.94728882 -59.44610596 316.41915894 C-60.76917557 320.33066192 -62.09832819 324.24007104 -63.4289856 328.14899826 C-64.52457254 331.36964943 -65.61666588 334.59148101 -66.70890808 337.81326771 C-74.65978517 361.26109967 -82.74971749 384.65545064 -91 408 C-107.83 408 -124.66 408 -142 408 C-140.08983743 400.99607057 -138.15000861 394.25636655 -135.69140625 387.46484375 C-135.37300278 386.57358292 -135.0545993 385.68232208 -134.72654724 384.76405334 C-134.03699279 382.83407226 -133.34578418 380.90468153 -132.65307617 378.97583008 C-130.73875213 373.64254987 -128.83943186 368.30394244 -126.94140625 362.96484375 C-126.54007477 361.83605804 -126.13874329 360.70727234 -125.72525024 359.54428101 C-121.06011721 346.39391677 -116.53131802 333.19692889 -112 320 C-105.58692083 301.33190458 -99.08969479 282.69770417 -92.46826172 264.10253906 C-86.53757038 247.43838794 -80.74767739 230.72808587 -75 214 C-68.58586825 195.33226008 -62.08969908 176.6977162 -55.46826172 158.10253906 C-49.10049332 140.21028183 -42.90040535 122.26258282 -36.72930908 104.30166626 C-30.18077107 85.24851796 -23.51793724 66.23913096 -16.765625 47.25732422 C-12.36260021 34.87616455 -8.01989508 22.47672838 -3.77685547 10.03979492 C-3.41736816 8.98767822 -3.05788086 7.93556152 -2.6875 6.8515625 C-2.38199219 5.95260254 -2.07648438 5.05364258 -1.76171875 4.12744141 C-1 2 -1 2 0 0 Z M29 47 C28.79527573 47.59355789 28.59055145 48.18711578 28.37962341 48.79866028 C19.46942722 74.6300477 10.55539052 100.4598023 1.54025269 126.25479126 C-4.0517446 142.2569859 -9.6008914 158.27382203 -15.13891602 174.29476929 C-19.22284756 186.10870113 -23.31499731 197.91957758 -27.44140625 209.71875 C-27.96871841 211.22707397 -27.96871841 211.22707397 -28.50668335 212.76586914 C-30.16661524 217.51278147 -31.82872798 222.25891408 -33.49414062 227.00390625 C-34.08077875 228.67967014 -34.66737012 230.35545041 -35.25390625 232.03125 C-35.51965958 232.78595581 -35.7854129 233.54066162 -36.05921936 234.3182373 C-37.18330626 237.5343224 -38.17266279 240.69065115 -39 244 C6.87 244 52.74 244 100 244 C92.06185044 220.12101293 92.06185044 220.12101293 83.86523438 196.3359375 C82.28005731 191.82730747 80.70310391 187.31579706 79.125 182.8046875 C78.79282471 181.85567566 78.46064941 180.90666382 78.1184082 179.92889404 C74.04935535 168.29618143 70.02629214 156.64756459 66 145 C60.04962437 127.79010471 54.07459792 110.58909189 48.06930542 93.39828491 C42.67182159 77.94623048 37.31656785 62.48008929 32 47 C31.01 47 30.02 47 29 47 Z " fill="#243E8B" transform="translate(1865,407)"/>
<path d="M0 0 C1.11696762 0.00222061 2.23393524 0.00444122 3.38475037 0.00672913 C4.64598221 0.00680466 5.90721405 0.00688019 7.20666504 0.00695801 C8.59341979 0.01206542 9.98017414 0.01728142 11.3669281 0.02259827 C12.77797394 0.0244625 14.18902042 0.02588638 15.60006714 0.02688599 C19.3204272 0.03071072 23.04074845 0.04054062 26.76109314 0.05158997 C30.55482966 0.06180504 34.34857243 0.06638381 38.14231873 0.07142639 C45.59090416 0.08216294 53.03945758 0.09923882 60.48802185 0.12025452 C63.90705373 8.07956968 66.97107386 16.09014422 69.75364685 24.29212952 C70.33919342 26.00085236 70.33919342 26.00085236 70.93656921 27.74409485 C71.98823346 30.81367585 73.03671451 33.88432296 74.08418274 36.95533752 C76.10103155 42.86213936 78.131138 48.76441036 80.15989685 54.66712952 C80.38663086 55.32716476 80.61336487 55.98720001 80.8469696 56.66723633 C85.14675899 69.18040446 89.54638835 81.65677461 93.98802185 94.12025452 C100.70753318 112.98672816 107.26095241 131.90735016 113.76878357 150.84779358 C119.42442876 167.30254425 125.15131932 183.72887125 130.98802185 200.12025452 C137.70623167 218.9872006 144.26094638 237.90733262 150.76878357 256.84779358 C156.75415072 274.26184995 162.83151221 291.63962836 169.00868225 308.98649597 C176.04624691 328.76000287 182.89480399 348.59703838 189.71458435 368.44642639 C190.31951218 370.20655563 190.31951218 370.20655563 190.93666077 372.00224304 C191.71770676 374.27544379 192.49814069 376.54885494 193.27790833 378.82249451 C194.95923754 383.71677887 196.65235758 388.60538921 198.40061951 393.47621155 C198.82864616 394.67051537 198.82864616 394.67051537 199.26531982 395.88894653 C199.78221196 397.32465783 200.3031807 398.75891162 200.82925415 400.19128418 C201.83961581 402.99392841 202.48802185 405.11179567 202.48802185 408.12025452 C185.32802185 408.12025452 168.16802185 408.12025452 150.48802185 408.12025452 C142.65815421 386.7259683 135.37209134 365.1657834 128.12345886 343.56916809 C125.611366 336.08561903 123.09560953 328.6033031 120.57818031 321.1215477 C119.7106482 318.5414332 118.84491842 315.96071938 117.97940063 313.37992859 C117.44286711 311.78374681 116.90627452 310.18758489 116.36961365 308.59144592 C116.13631348 307.89415878 115.90301331 307.19687164 115.66264343 306.47845459 C113.70060297 300.65167479 111.59128679 294.9042331 109.48802185 289.12025452 C55.69802185 289.12025452 1.90802185 289.12025452 -53.51197815 289.12025452 C-62.93574021 317.10363042 -62.93574021 317.10363042 -72.35719299 345.08778381 C-83.59247295 378.44827049 -83.59247295 378.44827049 -88.77795792 393.56234169 C-89.40832237 395.40061557 -90.03616052 397.23975513 -90.66392517 399.07891846 C-91.03095551 400.14419266 -91.39798584 401.20946686 -91.77613831 402.30702209 C-92.09039764 403.22195938 -92.40465698 404.13689667 -92.72843933 405.07955933 C-93.51197815 407.12025452 -93.51197815 407.12025452 -94.51197815 408.12025452 C-96.07744863 408.21352167 -97.64710587 408.23771034 -99.21534729 408.23377991 C-100.21630936 408.23370438 -101.21727142 408.23362885 -102.24856567 408.23355103 C-103.33709335 408.22838974 -104.42562103 408.22322845 -105.5471344 408.21791077 C-106.6555217 408.21649582 -107.763909 408.21508087 -108.90588379 408.21362305 C-112.46210884 408.20800485 -116.01827198 408.19544926 -119.57447815 408.18275452 C-121.97877412 408.17774186 -124.38307107 408.17317855 -126.78736877 408.16908264 C-132.69559319 408.15802951 -138.60378125 408.14127368 -144.51197815 408.12025452 C-143.91158365 402.30572838 -142.32637415 397.24288263 -140.3283844 391.76478577 C-140.00168259 390.85145981 -139.67498077 389.93813385 -139.33837891 388.99713135 C-138.62894011 387.01544081 -137.91659626 385.03478839 -137.20167542 383.05506897 C-135.25067704 377.65084151 -133.3220431 372.23862759 -131.3908844 366.82728577 C-130.78634933 365.13576889 -130.78634933 365.13576889 -130.16960144 363.41007996 C-125.86365328 351.34334031 -121.6849486 339.23347464 -117.51197815 327.12025452 C-111.41391452 309.43608399 -105.22728502 291.78603624 -98.95973206 274.16127014 C-93.39568133 258.50866939 -87.92915897 242.82425397 -82.51197815 227.12025452 C-76.4119559 209.43674915 -70.22729217 191.78605636 -63.95973206 174.16127014 C-58.39568133 158.50866939 -52.92915897 142.82425397 -47.51197815 127.12025452 C-41.41740079 109.45253348 -35.24167652 91.81630458 -28.97584534 74.20860291 C-24.75861261 62.35448041 -20.58637779 50.48619408 -16.48072815 38.59291077 C-16.06391785 37.38565338 -15.64710754 36.178396 -15.21766663 34.93455505 C-13.18505484 29.04310569 -11.15733359 23.1500138 -9.13502502 17.25502014 C-8.40653992 15.13847318 -7.67802586 13.02193618 -6.94947815 10.90541077 C-6.61492615 9.92564774 -6.28037415 8.9458847 -5.9356842 7.93643188 C-5.62957214 7.04842392 -5.32346008 6.16041595 -5.0080719 5.24549866 C-4.60866394 4.0803347 -4.60866394 4.0803347 -4.20118713 2.89163208 C-3.15010266 0.1901765 -3.00854747 0.1440265 0 0 Z M26.48802185 47.12025452 C19.12715619 67.97142104 11.83748173 88.84642523 4.61302185 109.74525452 C-1.2253733 126.63436579 -7.08182121 143.51685743 -12.97547913 160.38676453 C-16.67752812 170.98406164 -20.37005831 181.58457524 -24.0471344 192.19056702 C-24.43017227 193.2953389 -24.81321014 194.40011078 -25.20785522 195.5383606 C-27.07016241 200.91057932 -28.9314387 206.2831531 -30.79151917 211.65614319 C-31.47169655 213.61946835 -32.15195132 215.58276671 -32.83229065 217.54603577 C-33.31480537 218.93972633 -33.31480537 218.93972633 -33.80706787 220.36157227 C-35.22160035 224.43901877 -36.64569751 228.51199268 -38.11256409 232.57093811 C-38.35062775 233.22974472 -38.58869141 233.88855133 -38.83396912 234.56732178 C-39.45078315 236.2661935 -40.07269324 237.9632127 -40.69508362 239.66004944 C-41.61702003 242.00455751 -41.61702003 242.00455751 -41.51197815 244.12025452 C4.02802185 244.12025452 49.56802185 244.12025452 96.48802185 244.12025452 C94.89233798 236.78626446 94.89233798 236.78626446 92.75486755 229.73207092 C92.42244049 228.76868301 92.09001343 227.8052951 91.74751282 226.81271362 C91.38988861 225.79271774 91.0322644 224.77272186 90.6638031 223.72181702 C90.28587616 222.63120468 89.90794922 221.54059235 89.51856995 220.41693115 C88.28397857 216.85803238 87.04231348 213.30164663 85.80052185 209.74525452 C84.93364356 207.25085403 84.06719323 204.75630477 83.20115662 202.26161194 C80.63653303 194.87891371 78.06290217 187.49938229 75.48802185 180.12025452 C74.79684819 178.13770228 74.1057608 176.15511996 73.41477966 174.17250061 C70.98830719 167.21091499 68.56082176 160.24968678 66.12840271 153.29017639 C61.96072644 141.36310755 57.82099169 129.42655224 53.69358826 117.48548889 C52.15499306 113.03423958 50.61434827 108.58370955 49.07151794 104.13392639 C48.321027 101.96921377 47.5705387 99.80450024 46.8200531 97.63978577 C46.27058014 96.05509995 46.27058014 96.05509995 45.71000671 94.43840027 C43.62769877 88.42771441 41.55926078 82.41253321 39.5052948 76.3921051 C38.30606053 72.88218522 37.09793009 69.37537277 35.88774109 65.86921692 C35.33412272 64.25808537 34.78469145 62.64550833 34.2396698 61.03144836 C33.50100745 58.84500087 32.74833211 56.66389637 31.9919281 54.48353577 C31.57757507 53.26964172 31.16322205 52.05574768 30.73631287 50.80506897 C30.32437683 49.9190802 29.9124408 49.03309143 29.48802185 48.12025452 C28.49802185 47.79025452 27.50802185 47.46025452 26.48802185 47.12025452 Z " fill="#243E8B" transform="translate(552.5119781494141,406.87974548339844)"/>
<path d="M0 0 C21.12 0 42.24 0 64 0 C66.949375 8.58 69.89875 17.16 72.9375 26 C79.37506166 44.69690909 85.86616114 63.37169683 92.5 82 C99.21835639 100.86689344 105.7729251 119.78707976 112.28076172 138.72753906 C117.93640691 155.18228973 123.66329747 171.60861674 129.5 188 C136.21820982 206.86694609 142.77292453 225.7870781 149.28076172 244.72753906 C155.26740492 262.14530801 161.34575393 279.5269102 167.52468872 296.87731934 C174.44658092 316.32390322 181.18156808 335.83324325 187.875 355.359375 C188.66518666 357.66151941 189.45554909 359.9636035 190.24609375 362.265625 C190.82047684 363.94090271 190.82047684 363.94090271 191.40646362 365.65002441 C193.49724073 371.72387703 195.63117466 377.77960379 197.82080078 383.81835938 C198.05392629 384.46306561 198.28705179 385.10777184 198.52724171 385.77201462 C199.6536794 388.88615034 200.78659767 391.99743561 201.93101501 395.1050415 C202.332845 396.21216492 202.73467499 397.31928833 203.14868164 398.45996094 C203.50676407 399.43543884 203.8648465 400.41091675 204.23377991 401.41595459 C205 404 205 404 205 408 C187.84 408 170.68 408 153 408 C144.58609066 384.04039149 136.29089654 360.06123769 128.31005859 335.95483398 C125.53026479 327.56331135 122.73924057 319.1778643 119.8359375 310.828125 C119.474786 309.7889241 119.474786 309.7889241 119.1063385 308.72872925 C118.00922359 305.57756152 116.90478848 302.42928693 115.79174805 299.28369141 C115.23161011 297.68533447 115.23161011 297.68533447 114.66015625 296.0546875 C114.17494507 294.68546143 114.17494507 294.68546143 113.67993164 293.28857422 C113 291 113 291 113 288 C58.88 288 4.76 288 -51 288 C-51.66 290.97 -52.32 293.94 -53 297 C-53.69727133 299.31354224 -54.43263645 301.61599033 -55.20800781 303.90454102 C-55.42014671 304.53481233 -55.63228561 305.16508364 -55.85085297 305.81445408 C-56.54710778 307.87915845 -57.25000539 309.94153059 -57.953125 312.00390625 C-58.45114633 313.47553502 -58.94879836 314.94728882 -59.44610596 316.41915894 C-60.76917557 320.33066192 -62.09832819 324.24007104 -63.4289856 328.14899826 C-64.52457254 331.36964943 -65.61666588 334.59148101 -66.70890808 337.81326771 C-74.65978517 361.26109967 -82.74971749 384.65545064 -91 408 C-107.83 408 -124.66 408 -142 408 C-140.08983743 400.99607057 -138.15000861 394.25636655 -135.69140625 387.46484375 C-135.37300278 386.57358292 -135.0545993 385.68232208 -134.72654724 384.76405334 C-134.03699279 382.83407226 -133.34578418 380.90468153 -132.65307617 378.97583008 C-130.73875213 373.64254987 -128.83943186 368.30394244 -126.94140625 362.96484375 C-126.54007477 361.83605804 -126.13874329 360.70727234 -125.72525024 359.54428101 C-121.06011721 346.39391677 -116.53131802 333.19692889 -112 320 C-105.58692083 301.33190458 -99.08969479 282.69770417 -92.46826172 264.10253906 C-86.53757038 247.43838794 -80.74767739 230.72808587 -75 214 C-68.58586825 195.33226008 -62.08969908 176.6977162 -55.46826172 158.10253906 C-49.10049332 140.21028183 -42.90040535 122.26258282 -36.72930908 104.30166626 C-30.18077107 85.24851796 -23.51793724 66.23913096 -16.765625 47.25732422 C-12.36260021 34.87616455 -8.01989508 22.47672838 -3.77685547 10.03979492 C-3.41736816 8.98767822 -3.05788086 7.93556152 -2.6875 6.8515625 C-2.38199219 5.95260254 -2.07648437 5.05364258 -1.76171875 4.12744141 C-1 2 -1 2 0 0 Z M29 47 C28.79527573 47.59355789 28.59055145 48.18711578 28.37962341 48.79866028 C19.46942722 74.6300477 10.55539052 100.4598023 1.54025269 126.25479126 C-4.0517446 142.2569859 -9.6008914 158.27382203 -15.13891602 174.29476929 C-19.22284756 186.10870113 -23.31499731 197.91957758 -27.44140625 209.71875 C-27.96871841 211.22707397 -27.96871841 211.22707397 -28.50668335 212.76586914 C-30.16661524 217.51278147 -31.82872798 222.25891408 -33.49414062 227.00390625 C-34.08077875 228.67967014 -34.66737012 230.35545041 -35.25390625 232.03125 C-35.51965958 232.78595581 -35.7854129 233.54066162 -36.05921936 234.3182373 C-37.18330626 237.5343224 -38.17266279 240.69065115 -39 244 C6.87 244 52.74 244 100 244 C92.06185044 220.12101293 92.06185044 220.12101293 83.86523438 196.3359375 C82.28005731 191.82730747 80.70310391 187.31579706 79.125 182.8046875 C78.79282471 181.85567566 78.46064941 180.90666382 78.1184082 179.92889404 C74.04935535 168.29618143 70.02629214 156.64756459 66 145 C60.04962437 127.79010471 54.07459792 110.58909189 48.06930542 93.39828491 C42.67182159 77.94623048 37.31656785 62.48008929 32 47 C31.01 47 30.02 47 29 47 Z " fill="#243E8B" transform="translate(3083,407)"/>
<path d="M0 0 C101.64 0 203.28 0 308 0 C308 14.52 308 29.04 308 44 C265.43 44 222.86 44 179 44 C179 164.12 179 284.24 179 408 C162.5 408 146 408 129 408 C129 287.88 129 167.76 129 44 C86.43 44 43.86 44 0 44 C0 29.48 0 14.96 0 0 Z " fill="#243E8B" transform="translate(2352,407)"/>
</svg>
