<?xml version="1.0" encoding="UTF-8"?>
<svg version="1.1" xmlns="http://www.w3.org/2000/svg" width="1351" height="705">
<path d="M0 0 C30.69 0 61.38 0 93 0 C93.33 42.57 93.66 85.14 94 129 C95.32 125.04 96.64 121.08 98 117 C104.21719532 102.83861065 112.94251319 93.11913138 127.375 87.1875 C150.02432935 79.17190498 174.98686724 82.05442717 196.44921875 92.15234375 C215.35586007 101.95212119 227.13157914 119.28098527 234 139 C245.24070308 175.69874142 244.36160708 218.05256117 226.75 252.625 C216.87104427 270.36854738 201.49946087 283.15658308 182 289 C161.16886325 294.44830701 138.28044712 294.24618763 119.09375 283.875 C105.04736604 275.36204002 98.24017942 261.01327984 94.1875 245.5 C93.36181135 242.1060091 93 239.53338764 93 236 C86.67016612 240.91557599 80.67004844 246.07402269 74.77734375 251.50390625 C72.12390352 253.88864367 69.4068144 256.14228104 66.625 258.375 C62.4218511 261.76386365 58.43800786 265.31242927 54.5 269 C49.65964009 273.53144641 44.69042162 277.81599193 39.50390625 281.953125 C36.48202756 284.42342833 33.65058354 287.06628339 30.8515625 289.78515625 C28.4603641 291.3540649 26.80237343 291.22630851 24 291 C24.26554687 290.30777344 24.53109375 289.61554688 24.8046875 288.90234375 C32.3869749 267.8988542 31.15078964 244.28867316 31.16113281 222.24829102 C31.16577258 219.91555708 31.17079875 217.5828239 31.17617798 215.25009155 C31.1891741 208.97223091 31.19571912 202.69438088 31.20018864 196.41650891 C31.20313421 192.49163438 31.20724123 188.56676267 31.21169281 184.64188957 C31.22376681 173.75265544 31.23416581 162.86342377 31.2375679 151.97418308 C31.23778747 151.28124607 31.23800703 150.58830907 31.23823325 149.87437397 C31.23845153 149.17994348 31.23866981 148.48551298 31.2388947 147.77003914 C31.23933815 146.36321294 31.23978471 144.95638674 31.24023438 143.54956055 C31.2404558 142.8517508 31.24067723 142.15394106 31.24090537 141.43498557 C31.24486989 130.07967352 31.2623896 118.72442497 31.2855939 107.36913753 C31.30928054 95.68309132 31.32150974 83.99708029 31.32293582 72.31100982 C31.3239853 65.76011869 31.32992632 59.20931797 31.34775543 52.65844917 C31.36415798 46.5146458 31.36642993 40.37100168 31.35761642 34.2271843 C31.35684242 31.96923205 31.36123623 29.71127147 31.37107468 27.45334053 C31.38368188 24.38105921 31.37797941 21.3093521 31.36749268 18.23707581 C31.37554908 17.33593774 31.38360548 16.43479967 31.39190602 15.50635439 C31.38531618 14.68591707 31.37872633 13.86547976 31.3719368 13.0201807 C31.37253389 12.31112742 31.37313097 11.60207415 31.37374616 10.87153441 C30.88361256 8.41718973 29.94105 7.53413654 28 6 C22.39754429 4.52427428 16.39115586 4.66442613 10.625 4.4375 C9.60277344 4.39431641 8.58054688 4.35113281 7.52734375 4.30664062 C5.01834712 4.20112208 2.50926057 4.09900787 0 4 C0 2.68 0 1.36 0 0 Z M115 101 C94.58295934 123.45516907 93.76811506 158.00797902 93.75 186.6875 C93.74932526 187.64575684 93.74865051 188.60401367 93.74795532 189.59130859 C93.76434155 204.24641454 94.12915595 218.57796455 97 233 C97.16628906 233.84304688 97.33257812 234.68609375 97.50390625 235.5546875 C100.44146056 249.69846753 105.61901952 267.82063032 118.08984375 276.4453125 C126.16952544 281.2793101 133.70643876 283.14033532 143 281 C154.38270815 276.99880562 160.96788675 269.3699572 166.19824219 258.76269531 C183.75194615 220.23573467 181.83445355 161.83346415 168.625 122.375 C164.41107226 111.46233608 158.44207105 100.81695409 147.5 95.5625 C135.95527987 91.12222303 124.63503921 93.11535253 115 101 Z " fill="#5E2A2C" transform="translate(130,127)"/>
<path d="M0 0 C39.93 0 79.86 0 121 0 C121 1.65 121 3.3 121 5 C120.03175293 5.03758423 120.03175293 5.03758423 119.04394531 5.07592773 C116.11244106 5.19214433 113.18123783 5.31475442 110.25 5.4375 C109.23421875 5.47681641 108.2184375 5.51613281 107.171875 5.55664062 C105.70234375 5.61948242 105.70234375 5.61948242 104.203125 5.68359375 C103.30239258 5.72025146 102.40166016 5.75690918 101.47363281 5.79467773 C99.20403661 5.98306407 97.18437113 6.37366501 95 7 C95.54541604 12.28073517 96.87760751 16.71469501 99 21.58984375 C99.46092796 22.67624397 99.46092796 22.67624397 99.9311676 23.78459167 C100.94636611 26.17228083 101.97319482 28.55478199 103 30.9375 C103.72207738 32.63035364 104.44333468 34.3235573 105.16381836 36.01708984 C106.67360391 39.56230705 108.18806079 43.10547174 109.70654297 46.64697266 C112.98904047 54.30370395 116.24670848 61.97098149 119.50515747 69.63796997 C120.56047796 72.12024386 121.61695914 74.60202133 122.67358398 77.08374023 C129.8781624 94.01589104 136.95136262 111.00244798 144 128 C146.84812742 120.73542565 149.15011924 113.32041151 151.44921875 105.8671875 C151.65608622 105.19799412 151.86295368 104.52880074 152.07608986 103.83932877 C153.16817693 100.30601123 154.25731963 96.77180216 155.34399414 93.23681641 C156.46299299 89.59874432 157.59212689 85.96390063 158.72355938 82.32967949 C159.59651559 79.51920691 160.46194314 76.7064567 161.32535744 73.8930397 C161.73838723 72.55181642 162.15422121 71.2114532 162.57297325 69.87200546 C163.15776171 67.99900469 163.73085083 66.12236341 164.3034668 64.24560547 C164.63195114 63.18163544 164.96043549 62.11766541 165.2988739 61.02145386 C166.68630109 55.04243348 165.91741279 51.06736488 163.4375 45.51953125 C163.17023605 44.91286621 162.90297211 44.30620117 162.62760925 43.68115234 C161.7614852 41.72044467 160.88065221 39.76671886 160 37.8125 C159.40276648 36.46435489 158.80682499 35.11563669 158.2121582 33.76635742 C157.03056954 31.08714217 155.84467079 28.40991541 154.65478516 25.734375 C152.45463809 20.77926804 150.30671061 15.80272217 148.1875 10.8125 C147.85685547 10.04848877 147.52621094 9.28447754 147.18554688 8.49731445 C145.91427035 5.50237334 145 3.28903334 145 0 C167.44 0 189.88 0 213 0 C231.42903903 42.95958422 249.7588759 85.96033458 268 129 C270.89944253 122.04508594 273.36794306 115.03411186 275.6015625 107.83984375 C276.0853688 106.29497032 276.0853688 106.29497032 276.57894897 104.71888733 C277.25477714 102.55725924 277.92863086 100.39501293 278.60058594 98.23217773 C279.62379756 94.94136722 280.65520963 91.65320678 281.6875 88.36523438 C282.34684621 86.25275768 283.00571655 84.14013239 283.6640625 82.02734375 C283.9692984 81.05522446 284.2745343 80.08310516 284.58901978 79.08152771 C290.98317967 58.42341231 291.64028128 37.50714545 282.6875 17.4375 C279.92587626 12.36185515 276.44323673 8.38266426 270.99609375 6.1953125 C268.89204867 5.54481127 268.89204867 5.54481127 266 5 C266 3.35 266 1.7 266 0 C291.41 0 316.82 0 343 0 C343 1.65 343 3.3 343 5 C341.98292969 5.27650391 341.98292969 5.27650391 340.9453125 5.55859375 C322.89543106 11.1835568 313.84370568 28.08325495 305.4375 43.8125 C304.93178467 44.73998047 304.42606934 45.66746094 303.9050293 46.62304688 C293.7607381 66.19153476 287.87552433 88.13817683 281.18524551 109.0549469 C280.3366105 111.70553229 279.4844554 114.35498118 278.63241863 117.00447464 C271.49271233 139.20986369 264.45658615 161.44820729 257.47290039 183.703125 C257.11025085 184.85697693 256.74760132 186.01082886 256.3739624 187.199646 C255.69682452 189.35465881 255.02108662 191.5101122 254.34698486 193.66607666 C254.05048035 194.609328 253.75397583 195.55257935 253.44848633 196.52441406 C253.19126297 197.34556702 252.93403961 198.16671997 252.66902161 199.01275635 C252 201 252 201 251 203 C244.4 203 237.8 203 231 203 C225.3401506 191.12906758 220.13842854 179.09494154 215.01168823 166.98535156 C212.75654415 161.65890515 210.49415668 156.33553844 208.23211098 151.01202011 C207.44084146 149.1496329 206.64987836 147.28711575 205.8589325 145.42459106 C199.91700494 131.43607378 193.92845633 117.46757253 187.9375 103.5 C186.92325502 101.13484848 185.9090134 98.76969552 184.89477539 96.40454102 C183.05498789 92.11461717 181.21489222 87.82482573 179.37451172 83.53515625 C176.58119148 77.02421556 173.79005865 70.51233895 171 64 C168.12206624 71.33152183 165.81377043 78.82116387 163.4921875 86.34375 C163.04943348 87.77260963 162.60650724 89.2014159 162.16342163 90.63017273 C160.97657866 94.45972786 159.79294906 98.29026923 158.61000061 102.1210289 C157.87428628 104.50231008 157.13747174 106.88324795 156.40026855 109.2640686 C151.16679895 126.16621485 145.95978639 143.07598745 140.8359375 160.01171875 C140.63712353 160.66855274 140.43830956 161.32538673 140.23347092 162.00212479 C138.18287987 168.77773949 136.13904217 175.55533996 134.10498047 182.3359375 C133.4502185 184.50912157 132.79543469 186.68229906 132.140625 188.85546875 C131.70307388 190.32387459 131.70307388 190.32387459 131.25668335 191.82194519 C130.98667511 192.71625748 130.71666687 193.61056976 130.43847656 194.53198242 C130.20727112 195.30378342 129.97606567 196.07558441 129.737854 196.87077332 C129 199 129 199 127 203 C120.4 203 113.8 203 107 203 C106.39752441 201.58412598 105.79504883 200.16825195 105.17431641 198.70947266 C102.32520123 192.01436874 99.47535538 185.319576 96.625 178.625 C96.36384399 178.01162781 96.10268799 177.39825562 95.83361816 176.76629639 C88.55645533 159.67531173 81.26296306 142.59148034 73.93624878 125.52166748 C67.8297035 111.29291515 61.75994643 97.04868819 55.69845581 82.8006897 C51.88375699 73.83629 48.06362114 64.87420708 44.24194336 55.91278076 C43.09752825 53.228737 41.95398334 50.54432405 40.81054688 47.85986328 C39.28954005 44.29090198 37.76296782 40.7243853 36.23062134 37.16027832 C35.47661143 35.40362005 34.7277866 33.64473885 33.97924805 31.88574219 C28.20232715 17.06671187 28.20232715 17.06671187 16.8046875 6.94921875 C13.38818478 5.79293719 10.28475244 5.57671509 6.6875 5.375 C5.43324219 5.30023438 4.17898438 5.22546875 2.88671875 5.1484375 C1.93410156 5.09945312 0.98148438 5.05046875 0 5 C0 3.35 0 1.7 0 0 Z " fill="#5E2A2C" transform="translate(578,213)"/>
<path d="M0 0 C1.06476563 -0.020625 2.12953125 -0.04125 3.2265625 -0.0625 C18.93731739 -0.1387658 33.18060093 4.71507617 44.62109375 15.71484375 C57.45749721 30.15301679 59.00266883 48.22353789 59.08032227 66.65234375 C59.08991532 68.10178396 59.09992621 69.55122145 59.11032104 71.00065613 C59.13722163 74.91532934 59.158311 78.83001442 59.17832303 82.74472809 C59.2002748 86.84334953 59.22761829 90.94193499 59.25437927 95.04052734 C59.30418242 102.79279642 59.34916688 110.54508561 59.39240164 118.2973938 C59.44188017 127.12693931 59.49675875 135.95644871 59.55208123 144.78595924 C59.66571112 162.94060592 59.7725911 181.09528673 59.875 199.25 C63.92405275 199.95098422 67.82132496 200.41816636 71.9296875 200.56640625 C73.03828125 200.60830078 74.146875 200.65019531 75.2890625 200.69335938 C76.43117188 200.73267578 77.57328125 200.77199219 78.75 200.8125 C79.9153125 200.85568359 81.080625 200.89886719 82.28125 200.94335938 C85.14572625 201.04901629 88.01028321 201.15111799 90.875 201.25 C90.875 202.9 90.875 204.55 90.875 206.25 C51.935 206.25 12.995 206.25 -27.125 206.25 C-27.125 204.6 -27.125 202.95 -27.125 201.25 C-25.87203125 201.20101562 -24.6190625 201.15203125 -23.328125 201.1015625 C-21.67706179 201.02651417 -20.02602119 200.95096723 -18.375 200.875 C-17.1375 200.82859375 -17.1375 200.82859375 -15.875 200.78125 C-15.07578125 200.74257813 -14.2765625 200.70390625 -13.453125 200.6640625 C-12.7199707 200.6326416 -11.98681641 200.6012207 -11.23144531 200.56884766 C-8.87187359 200.21168485 -7.22587058 199.35204598 -5.125 198.25 C-5.03124166 179.22957325 -4.96086731 160.2091939 -4.91775131 141.18858337 C-4.89719289 132.35546101 -4.86920208 123.52248287 -4.82324219 114.68945312 C-4.78316726 106.98373211 -4.75751846 99.27811563 -4.74864602 91.57229328 C-4.74346593 87.49828956 -4.73143413 83.42458469 -4.70207977 79.35067749 C-4.67458264 75.50272113 -4.66662277 71.65518182 -4.67256927 67.80713654 C-4.67148413 66.40768402 -4.66373678 65.00821502 -4.6481781 63.60884857 C-4.50507833 50.05367795 -6.26007295 35.12666861 -15.125 24.25 C-20.00875344 20.09361409 -25.06338472 18.6032633 -31.375 17.875 C-43.36199889 19.07369989 -52.81103639 25.65724508 -60.3671875 34.77734375 C-71.68476025 50.69739608 -75.27831312 67.80241978 -75.27026367 87.11035156 C-75.27362228 88.27552307 -75.2769809 89.44069458 -75.28044128 90.64117432 C-75.28990432 94.47433551 -75.29189159 98.30745287 -75.29296875 102.140625 C-75.2953702 104.13507718 -75.29777349 106.12952938 -75.30042917 108.12398124 C-75.30854616 114.38376416 -75.31101567 120.64353273 -75.31030273 126.90332031 C-75.30970045 133.35634536 -75.32028849 139.80928722 -75.3360464 146.26229119 C-75.34911732 151.81321615 -75.35448692 157.36411385 -75.35384732 162.91505408 C-75.3535925 166.22610069 -75.35735646 169.5370563 -75.36702538 172.84809113 C-75.37678864 176.53454084 -75.37396239 180.22077359 -75.36791992 183.90722656 C-75.37353943 185.00236572 -75.37915894 186.09750488 -75.38494873 187.22583008 C-75.38075424 188.22946594 -75.37655975 189.23310181 -75.37223816 190.26715088 C-75.37278293 191.13799442 -75.37332769 192.00883797 -75.37388897 192.90607071 C-75.09894242 195.49539912 -74.57197969 197.08817186 -73.125 199.25 C-70.46581834 200.13639389 -68.64435359 200.42989025 -65.89453125 200.56640625 C-65.09208984 200.60830078 -64.28964844 200.65019531 -63.46289062 200.69335938 C-62.62951172 200.73267578 -61.79613281 200.77199219 -60.9375 200.8125 C-60.09251953 200.85568359 -59.24753906 200.89886719 -58.37695312 200.94335938 C-56.29315567 201.04931518 -54.20909897 201.1501502 -52.125 201.25 C-52.125 202.9 -52.125 204.55 -52.125 206.25 C-91.065 206.25 -130.005 206.25 -170.125 206.25 C-170.125 204.6 -170.125 202.95 -170.125 201.25 C-169.39385986 201.23018066 -168.66271973 201.21036133 -167.90942383 201.18994141 C-164.58509731 201.09447086 -161.26138014 200.98488034 -157.9375 200.875 C-156.21176758 200.82859375 -156.21176758 200.82859375 -154.45117188 200.78125 C-153.33935547 200.74257813 -152.22753906 200.70390625 -151.08203125 200.6640625 C-150.06085205 200.6326416 -149.03967285 200.6012207 -147.98754883 200.56884766 C-144.77387128 200.2108892 -141.49132241 199.61632241 -139.125 197.25 C-139.02291636 194.86391829 -138.98612181 192.50662936 -138.99128723 190.11988831 C-138.98902167 189.36498783 -138.98675612 188.61008735 -138.98442191 187.83231109 C-138.97805321 185.28345585 -138.9789131 182.73465338 -138.97973633 180.18579102 C-138.97674663 178.36625092 -138.97334454 176.54671146 -138.96955872 174.72717285 C-138.96069538 169.77064091 -138.95837963 164.8141262 -138.95774293 159.8575871 C-138.9567958 155.72710802 -138.95311979 151.596633 -138.94957083 147.46615547 C-138.94141744 137.7254004 -138.93898741 127.98465458 -138.93969727 118.24389648 C-138.94029833 108.17884134 -138.92974275 98.11383974 -138.9139536 88.04879814 C-138.90090046 79.42206397 -138.89551243 70.79534734 -138.89615268 62.16860336 C-138.89640832 57.00976332 -138.89352097 51.85097083 -138.88297462 46.69214058 C-138.87333096 41.84212666 -138.87318865 36.99220613 -138.88049126 32.14218903 C-138.88154176 30.35792594 -138.87914684 28.57365716 -138.8731308 26.78940392 C-138.86547328 24.361856 -138.87001379 21.93463563 -138.87776184 19.50709534 C-138.87261828 18.7937777 -138.86747471 18.08046007 -138.86217529 17.34552675 C-138.78346075 13.35227139 -138.78346075 13.35227139 -141.125 10.25 C-144.69422376 9.29684847 -148.18181516 9.07140264 -151.86328125 8.93359375 C-152.92998047 8.89169922 -153.99667969 8.84980469 -155.09570312 8.80664062 C-156.19849609 8.76732422 -157.30128906 8.72800781 -158.4375 8.6875 C-159.55962891 8.64431641 -160.68175781 8.60113281 -161.83789062 8.55664062 C-164.60014569 8.45085213 -167.3624863 8.34876328 -170.125 8.25 C-170.125 6.6 -170.125 4.95 -170.125 3.25 C-139.105 3.25 -108.085 3.25 -76.125 3.25 C-75.795 18.43 -75.465 33.61 -75.125 49.25 C-71.66 42.32 -71.66 42.32 -68.125 35.25 C-54.37344784 16.64495884 -37.728239 5.82041808 -15.34375 0.6015625 C-10.23288435 0.04333688 -5.13763442 0.02434898 0 0 Z " fill="#5E2A2C" transform="translate(1100.125,209.75)"/>
<path d="M0 0 C2.16263861 11.8096174 4.05959687 23.64442384 5.78979492 35.52490234 C6.19325279 38.28941842 6.60330196 41.05290869 7.01367188 43.81640625 C7.27383106 45.59108818 7.53361119 47.36582574 7.79296875 49.140625 C7.97571602 50.3671579 7.97571602 50.3671579 8.16215515 51.61846924 C8.71443213 55.44696519 9.15042874 59.1190359 9 63 C8.18023682 63.10022461 7.36047363 63.20044922 6.51586914 63.30371094 C-35.39151985 67.35571703 -35.39151985 67.35571703 -69.7734375 89.078125 C-79.45480635 101.74151885 -79.59663774 115.00380604 -79.49609375 130.23046875 C-79.496249 132.15765945 -79.49774227 134.08485046 -79.50050354 136.01203918 C-79.50187886 140.02192224 -79.48946319 144.03144376 -79.46655273 148.04125977 C-79.43795854 153.18739521 -79.44097386 158.33294059 -79.45364285 163.47912121 C-79.4605791 167.44500307 -79.45283788 171.41074741 -79.44038582 175.37661171 C-79.4358661 177.27568345 -79.43553905 179.17476991 -79.43945122 181.073843 C-79.44234861 183.71384745 -79.4259355 186.35302042 -79.40405273 188.99291992 C-79.40855438 189.77882004 -79.41305603 190.56472015 -79.41769409 191.37443542 C-79.41997966 193.7642584 -79.41997966 193.7642584 -79 197 C-74.18918697 200.20720868 -69.63908041 200.14692101 -63.94921875 200.31640625 C-63.29041214 200.33718735 -62.63160553 200.35796844 -61.95283508 200.37937927 C-59.86448815 200.44435489 -57.77602388 200.50351575 -55.6875 200.5625 C-54.2649622 200.60573479 -52.84243594 200.6493506 -51.41992188 200.69335938 C-47.94673703 200.79998216 -44.47342274 200.90139348 -41 201 C-41 202.65 -41 204.3 -41 206 C-85.22 206 -129.44 206 -175 206 C-175 204.35 -175 202.7 -175 201 C-174.27409668 200.97494385 -173.54819336 200.9498877 -172.80029297 200.92407227 C-169.49170554 200.80758759 -166.18336624 200.68509986 -162.875 200.5625 C-161.73289062 200.52318359 -160.59078125 200.48386719 -159.4140625 200.44335938 C-157.75117188 200.38051758 -157.75117188 200.38051758 -156.0546875 200.31640625 C-155.03874512 200.27974854 -154.02280273 200.24309082 -152.97607422 200.20532227 C-149.96435357 199.99754072 -146.97780456 199.49630076 -144 199 C-144 136.63 -144 74.26 -144 10 C-148.45125883 9.36410588 -152.49713007 8.85145994 -156.93359375 8.68359375 C-157.99384766 8.64169922 -159.05410156 8.59980469 -160.14648438 8.55664062 C-161.23251953 8.51732422 -162.31855469 8.47800781 -163.4375 8.4375 C-164.55060547 8.39431641 -165.66371094 8.35113281 -166.81054688 8.30664062 C-169.54025844 8.20120112 -172.27005143 8.09907971 -175 8 C-175 6.35 -175 4.7 -175 3 C-143.65 3 -112.3 3 -80 3 C-79.67 31.71 -79.34 60.42 -79 90 C-76.36 83.07 -73.72 76.14 -71 69 C-68.41091345 63.58645539 -65.80933349 58.28815715 -63 53 C-62.51015625 52.030625 -62.0203125 51.06125 -61.515625 50.0625 C-49.91078159 27.63516217 -27.78923277 -0.52432515 0 0 Z " fill="#5E2A2C" transform="translate(561,210)"/>
<path d="M0 0 C6.3916565 6.08011349 10.28547836 13.33237373 10.92578125 22.16015625 C11.14402371 33.2675488 9.84488084 41.53116418 2.5 50.25 C-4.27968497 57.22908747 -11.559339 61.07649559 -21.3125 61.875 C-32.61768018 61.99337885 -42.04555761 58.70592222 -50.3125 50.875 C-57.06209845 42.91902536 -59.94471874 33.98438762 -59.59375 23.6015625 C-58.51773529 13.17019764 -54.04572715 4.66831785 -45.9375 -2 C-31.7589368 -12.29435177 -13.28565514 -11.10735718 0 0 Z " fill="#5E2A2C" transform="translate(1256.3125,354.125)"/>
<path d="M0 0 C3 3.29032258 3 3.29032258 3 6 C4.051875 4.88625 4.051875 4.88625 5.125 3.75 C11.2802953 -2.13767376 17.05894271 -5 25.58984375 -5 C32.25767764 -4.51871274 36.85116128 -3.14883872 41.6875 1.6875 C47.23271652 8.98432199 47.41755526 16.33641631 47.29296875 25.15625 C47.28872391 26.29912476 47.28447906 27.44199951 47.28010559 28.61950684 C47.26339974 32.24658409 47.22576156 35.8730925 47.1875 39.5 C47.17244275 41.96874194 47.15875617 44.43749264 47.14648438 46.90625 C47.11352257 52.93771702 47.06179547 58.96876227 47 65 C43.7 65 40.4 65 37 65 C36.9906543 63.55753906 36.98130859 62.11507812 36.97167969 60.62890625 C36.93166985 55.25376017 36.86587962 49.87917981 36.79248047 44.50439453 C36.76433468 42.18252861 36.74308851 39.86056801 36.72900391 37.53857422 C36.70748645 34.19189201 36.66078876 30.84634051 36.609375 27.5 C36.60814636 26.4694751 36.60691772 25.4389502 36.60565186 24.37719727 C36.48392578 18.32496202 35.92606401 12.86265706 32 8 C27.47623937 5.28593784 23.14075182 5.50381984 18 6 C14.57035603 7.01619081 12.77029695 7.8334088 10.78515625 10.83984375 C8.26060085 15.66434997 6.90448489 20.03417973 6.79467773 25.49316406 C6.77473251 26.37377502 6.75478729 27.25438599 6.73423767 28.16168213 C6.70916893 29.57438385 6.70916893 29.57438385 6.68359375 31.015625 C6.66281265 31.98659119 6.64203156 32.95755737 6.62062073 33.95794678 C6.55531138 37.05522685 6.49632677 40.15259068 6.4375 43.25 C6.39429708 45.35157111 6.35068222 47.4531338 6.30664062 49.5546875 C6.19964902 54.70303948 6.0983291 59.85147558 6 65 C2.7 65 -0.6 65 -4 65 C-4.01458252 63.48647949 -4.02916504 61.97295898 -4.04418945 60.41357422 C-4.10223807 54.78882428 -4.17947146 49.1644719 -4.26245117 43.54003906 C-4.29566947 41.1074876 -4.32371099 38.67485963 -4.34643555 36.2421875 C-4.38003758 32.74185642 -4.43235834 29.24222445 -4.48828125 25.7421875 C-4.49467117 24.65759247 -4.5010611 23.57299744 -4.50764465 22.45553589 C-4.61486322 16.9272474 -4.80842514 12.73693274 -8 8 C-12.33912244 4.8326237 -17.88532636 5.42840367 -23 6 C-28.32243037 8.22574361 -30.07526882 11.40474571 -32.23828125 16.48828125 C-34.09126794 22.59838608 -34.18690816 28.88465407 -34.31640625 35.21484375 C-34.33718735 36.07058487 -34.35796844 36.92632599 -34.37937927 37.80799866 C-34.44429954 40.51775776 -34.50348978 43.2276064 -34.5625 45.9375 C-34.60574005 47.78451414 -34.64935601 49.63151952 -34.69335938 51.47851562 C-34.79992119 55.98558741 -34.90134737 60.49274844 -35 65 C-37.97 65 -40.94 65 -44 65 C-44.33 42.56 -44.66 20.12 -45 -3 C-41.7 -3 -38.4 -3 -35 -3 C-34.67 -0.36 -34.34 2.28 -34 5 C-33.29875 4.071875 -32.5975 3.14375 -31.875 2.1875 C-23.90903648 -7.35365405 -9.48458386 -6.91584239 0 0 Z " fill="#5C2A2D" transform="translate(495,501)"/>
<path d="M0 0 C6.54542975 5.8468456 10.55780364 14.16115961 11.12426758 22.921875 C11.61770172 36.38972444 10.70741846 48.02108108 2 59 C-5.14662165 65.40549051 -12.09140417 67.28436068 -21.5 66.9375 C-27.76672502 66.34726195 -32.51554776 64.48445224 -37 60 C-37.33 70.56 -37.66 81.12 -38 92 C-41.3 92 -44.6 92 -48 92 C-48.33 60.65 -48.66 29.3 -49 -3 C-45.7 -3 -42.4 -3 -39 -3 C-38.67 -0.69 -38.34 1.62 -38 4 C-37.48050781 3.59007812 -36.96101562 3.18015625 -36.42578125 2.7578125 C-25.76964711 -5.47557765 -11.70807395 -8.46583809 0 0 Z M-33.4375 10.0625 C-40.06607595 19.07586106 -39.76197636 29.90853675 -38.75390625 40.61328125 C-37.78520505 46.39552861 -35.34638265 51.02589852 -31 55 C-25.03233264 58.50300933 -18.60954239 58.6439407 -12 57 C-6.23767479 54.11883739 -3.14755679 50.40819442 -1.08984375 44.296875 C2.13874866 32.58384208 2.01483622 22.47590192 -3.8125 11.625 C-7.32746263 7.40704484 -10.41016374 5.39745907 -15.75 4.0625 C-22.31758279 3.57181853 -28.81963714 5.2154628 -33.4375 10.0625 Z " fill="#5B2A2D" transform="translate(263,501)"/>
<path d="M0 0 C4.83267418 4.29847112 6.70752312 9.32211816 7.20928955 15.63180542 C7.32656445 18.77493599 7.38107426 21.91345164 7.4140625 25.05859375 C7.43342865 26.20288345 7.4527948 27.34717316 7.4727478 28.52613831 C7.5322908 32.16318422 7.57882812 35.80026221 7.625 39.4375 C7.663203 41.91082072 7.70225608 44.38412846 7.7421875 46.85742188 C7.83797172 52.90484193 7.92209623 58.95232424 8 65 C4.7 65 1.4 65 -2 65 C-2.66 63.02 -3.32 61.04 -4 59 C-4.78375 59.763125 -5.5675 60.52625 -6.375 61.3125 C-12.37525253 66.22179752 -19.0174704 67.29971727 -26.625 67 C-33.92308326 66.20915941 -38.31948191 63.75105804 -43.375 58.5625 C-46.92090831 52.97087535 -47.82583032 47.49939183 -47 41 C-45.36761305 34.36089603 -42.30052154 30.83664792 -36.609375 27.19140625 C-29.13191957 23.77729861 -22.08164612 23.74350889 -14 23.875 C-12.93910156 23.88402344 -11.87820313 23.89304687 -10.78515625 23.90234375 C-8.18986362 23.92572476 -5.59505535 23.95849444 -3 24 C-3.43549507 15.19472522 -3.43549507 15.19472522 -7.4375 7.75 C-12.62063262 4.21029967 -17.93473481 4.54814643 -24 5 C-27.56233497 6.03631563 -29.26307323 6.82877156 -31.24609375 9.98046875 C-32.25092005 11.94492155 -33.13482516 13.97016671 -34 16 C-37.3 16 -40.6 16 -44 16 C-42.09090909 5.5 -42.09090909 5.5 -38 1 C-27.08145319 -5.9225838 -10.95181945 -8.32656491 0 0 Z M-34.9375 37.875 C-37.07535409 42.15070818 -37.36857018 45.57999532 -36 50.125 C-34.49361147 53.65116509 -32.65099556 55.68491226 -29.08984375 57.37890625 C-23.61900392 59.0048194 -18.59101395 58.46947953 -13.1875 56.875 C-8.36275546 54.03691497 -5.78080927 50.93343248 -3.6875 45.75 C-3.10707979 42.58407159 -2.92827438 39.95502357 -2.95703125 36.765625 C-2.96323486 35.87133789 -2.96943848 34.97705078 -2.97583008 34.05566406 C-2.98380615 33.37729492 -2.99178223 32.69892578 -3 32 C-6.49971199 31.8826206 -9.99890955 31.81236039 -13.5 31.75 C-14.48226562 31.71648438 -15.46453125 31.68296875 -16.4765625 31.6484375 C-23.84755623 31.55015758 -29.42835422 32.5435686 -34.9375 37.875 Z " fill="#5B2A2D" transform="translate(1036,501)"/>
<path d="M0 0 C4.80945103 4.97130755 6.09381844 9.59347037 6.20532227 16.41113281 C6.2352401 18.03236053 6.2352401 18.03236053 6.26576233 19.68634033 C6.28247482 20.84687927 6.29918732 22.00741821 6.31640625 23.203125 C6.33718735 24.39605164 6.35796844 25.58897827 6.37937927 26.8180542 C6.44476239 30.62864423 6.50370776 34.43930314 6.5625 38.25 C6.60569589 40.83334046 6.64931052 43.41667395 6.69335938 46 C6.80043237 52.33326274 6.90173174 58.66659477 7 65 C3.7 65 0.4 65 -3 65 C-3 62.69 -3 60.38 -3 58 C-3.66 58 -4.32 58 -5 58 C-5.26167969 58.61488281 -5.52335938 59.22976563 -5.79296875 59.86328125 C-7.84646881 63.49844155 -11.19400676 64.75674797 -15 66 C-23.76496171 67.65250233 -32.03643134 67.57561426 -39.84375 62.89453125 C-43.48382215 60.1377119 -45.26896965 57.15149685 -47 53 C-47.3984375 49.5625 -47.3984375 49.5625 -47.375 46 C-47.38273438 44.824375 -47.39046875 43.64875 -47.3984375 42.4375 C-46.80375714 37.30692433 -44.8682744 33.2649349 -41 29.8125 C-30.60687703 21.68153521 -16.43202299 23.67920544 -4 24 C-4.13262531 15.36544229 -4.13262531 15.36544229 -8 8 C-13.1808065 4.24391529 -18.84144521 4.19352259 -25 5 C-29.19140823 6.87116439 -31.05921911 8.64366983 -32.875 12.75 C-33.24625 13.8225 -33.6175 14.895 -34 16 C-37.3 16 -40.6 16 -44 16 C-43.50901749 8.88075365 -41.96895778 4.74057641 -36.5625 -0.25 C-26.48397615 -7.13289434 -10.06150667 -7.00113173 0 0 Z M-36 39 C-37.5991006 42.1982012 -37.36195151 45.5212438 -37 49 C-35.12530646 53.5825842 -32.4331235 55.86260117 -28 58 C-21.79773667 58.93887472 -16.14638709 58.49382866 -10.65625 55.34375 C-7.00008537 52.37742776 -5.4667901 48.40037029 -4 44 C-3.931009 41.93854893 -3.91532273 39.87498599 -3.9375 37.8125 C-3.94652344 36.72582031 -3.95554687 35.63914062 -3.96484375 34.51953125 C-3.97644531 33.68808594 -3.98804688 32.85664062 -4 32 C-7.35399849 31.9121046 -10.7076964 31.85931121 -14.0625 31.8125 C-15.00544922 31.78736328 -15.94839844 31.76222656 -16.91992188 31.73632812 C-24.76699353 31.65430299 -30.69306451 32.6725 -36 39 Z " fill="#5B2A2D" transform="translate(698,501)"/>
<path d="M0 0 C6.19008171 5.38931138 8.90637172 11.12795767 11 19 C11 23.62 11 28.24 11 33 C-4.84 33 -20.68 33 -37 33 C-34.83307738 45.63703065 -34.83307738 45.63703065 -26.875 54.4375 C-21.84468966 57.17136431 -17.6343132 57.70160486 -11.9765625 56.609375 C-7.51952996 55.27738827 -5.60498806 53.75952326 -3.125 49.8125 C-1.71875 47.67578125 -1.71875 47.67578125 0 46 C3.43134201 45.31269806 6.55007184 45.50910113 10 46 C8.87047974 53.42256171 4.39062254 58.00403202 -1 63 C-8.0239048 67.45747804 -17.85858357 67.84352985 -25.9375 66.3125 C-34.25865785 63.9934888 -39.99195144 58.02811637 -44.33203125 50.7734375 C-48.98156746 40.42287985 -48.93910571 25.39479235 -45.375 14.6875 C-41.76837082 6.73021675 -37.05618275 0.67943522 -29 -3 C-19.73786718 -6.46247956 -8.09004234 -6.0107442 0 0 Z M-31.5390625 9.73046875 C-35.05211155 14.87677744 -35.52798686 18.37594088 -37 25 C-24.46 25 -11.92 25 1 25 C-0.14292133 15.85662932 -1.44790734 11.90865637 -8.28125 6.19921875 C-15.42020928 1.21817216 -25.98239037 3.48273841 -31.5390625 9.73046875 Z " fill="#5C2A2C" transform="translate(603,501)"/>
<path d="M0 0 C6.19008171 5.38931138 8.90637172 11.12795767 11 19 C11 23.62 11 28.24 11 33 C-4.84 33 -20.68 33 -37 33 C-34.83307738 45.63703065 -34.83307738 45.63703065 -26.875 54.4375 C-21.84468966 57.17136431 -17.6343132 57.70160486 -11.9765625 56.609375 C-7.51952996 55.27738827 -5.60498806 53.75952326 -3.125 49.8125 C-1.71875 47.67578125 -1.71875 47.67578125 0 46 C3.43134201 45.31269806 6.55007184 45.50910113 10 46 C8.87047974 53.42256171 4.39062254 58.00403202 -1 63 C-8.0239048 67.45747804 -17.85858357 67.84352985 -25.9375 66.3125 C-33.89845255 64.09387388 -40.0423677 58.2269429 -44.07421875 51.1015625 C-48.73689733 40.6844562 -49.04578929 24.80107894 -45.03125 14.1328125 C-40.89477306 5.57782611 -35.86668928 -0.31303463 -26.84375 -3.84375 C-18.01037139 -6.27612962 -7.48621968 -5.5621157 0 0 Z M-31.5390625 9.73046875 C-35.05211155 14.87677744 -35.52798686 18.37594088 -37 25 C-24.46 25 -11.92 25 1 25 C0.02620161 16.23581449 -0.72992679 12.71668706 -7.0625 7.1875 C-14.57968911 1.58959322 -25.25609293 2.66611464 -31.5390625 9.73046875 Z " fill="#5C2A2D" transform="translate(1144,501)"/>
<path d="M0 0 C7.8221089 7.85097277 10.07562881 17.51831395 10.1796875 28.3125 C10.00569244 38.67623408 7.54041195 47.15309106 0.7421875 55.125 C-7.06288367 62.27199655 -14.75004531 64.22274667 -25.2578125 64.125 C-33.79430894 62.72557435 -40.38720292 58.86604421 -45.87109375 52.1875 C-52.52237127 42.29489569 -53.4585681 30.45905792 -51.796875 18.92578125 C-49.66211567 9.11844576 -45.4600231 1.99077369 -37.13671875 -3.7265625 C-25.32669964 -10.94516046 -10.35873208 -8.60240726 0 0 Z M-35.5703125 7.3125 C-41.27519415 14.73814759 -42.80350213 23.49735136 -42.04296875 32.734375 C-40.85669125 40.01021033 -38.06172403 46.32108847 -32.8203125 51.5625 C-26.59589461 55.35787676 -21.28225633 55.69490017 -14.2578125 54.125 C-8.56591719 51.22535522 -4.40873633 47.39362367 -2.28125 41.3515625 C0.30627141 31.75113258 1.13515103 22.1214394 -3.328125 12.91796875 C-6.38417345 7.73806273 -9.56222762 4.2720574 -15.1953125 1.875 C-22.93940511 -0.02151248 -30.07373442 1.33855162 -35.5703125 7.3125 Z " fill="#5B2A2D" transform="translate(376.2578125,503.875)"/>
<path d="M0 0 C5.24272271 4.51118001 7.89443223 9.20932927 9 16 C9.08263667 17.71758657 9.11787873 19.43790288 9.11352539 21.1574707 C9.11344986 22.15813065 9.11337433 23.15879059 9.11329651 24.18977356 C9.10813522 25.2576561 9.10297394 26.32553864 9.09765625 27.42578125 C9.0962413 28.52850876 9.09482635 29.63123627 9.09336853 30.76737976 C9.08778004 34.28244767 9.07522959 37.79745141 9.0625 41.3125 C9.05748352 43.69856679 9.05292087 46.08463457 9.04882812 48.47070312 C9.03781437 54.31382673 9.02055758 60.15690249 9 66 C5.7 66 2.4 66 -1 66 C-1.01458252 64.58259521 -1.02916504 63.16519043 -1.04418945 61.70483398 C-1.10231444 56.42854019 -1.17954705 51.15266681 -1.26245117 45.87670898 C-1.29563367 43.59650514 -1.32368624 41.31622047 -1.34643555 39.03588867 C-1.38010382 35.75144118 -1.43242726 32.46772986 -1.48828125 29.18359375 C-1.49467117 28.16978134 -1.5010611 27.15596893 -1.50764465 26.11143494 C-1.65109738 19.15071178 -2.49705531 14.14886589 -6.9375 8.5625 C-12.3083904 5.8222498 -18.42920274 5.98340292 -24.1953125 7.625 C-29.17174646 10.03781646 -31.19768718 14.03879481 -33 19 C-33.8212843 21.85274113 -34.14427715 24.43631849 -34.20532227 27.40136719 C-34.22526749 28.2619574 -34.24521271 29.12254761 -34.26576233 30.00921631 C-34.29083107 31.38910736 -34.29083107 31.38910736 -34.31640625 32.796875 C-34.33718735 33.74564514 -34.35796844 34.69441528 -34.37937927 35.67193604 C-34.44467934 38.69788482 -34.50366888 41.7239192 -34.5625 44.75 C-34.6057038 46.80339421 -34.64931869 48.85677982 -34.69335938 50.91015625 C-34.80034073 55.9400168 -34.90166323 60.96996332 -35 66 C-38.3 66 -41.6 66 -45 66 C-45 43.56 -45 21.12 -45 -2 C-42.03 -2 -39.06 -2 -36 -2 C-35.34 0.31 -34.68 2.62 -34 5 C-33.54109375 4.59007812 -33.0821875 4.18015625 -32.609375 3.7578125 C-31.99578125 3.21898437 -31.3821875 2.68015625 -30.75 2.125 C-29.84507812 1.32449219 -29.84507812 1.32449219 -28.921875 0.5078125 C-20.94689436 -5.74898125 -8.32387338 -5.54924892 0 0 Z " fill="#5E2A2C" transform="translate(865,500)"/>
<path d="M0 0 C6.61389186 6.78794165 6.27711266 14.23825131 6.1953125 23.1796875 C6.1924826 24.3475882 6.18965271 25.51548889 6.18673706 26.71878052 C6.17556973 30.43762591 6.15047104 34.15622777 6.125 37.875 C6.11496576 40.40103818 6.10584069 42.92708015 6.09765625 45.453125 C6.07564165 51.63549933 6.04219815 57.81773226 6 64 C3.03 64 0.06 64 -3 64 C-3.029729 62.07136108 -3.029729 62.07136108 -3.06005859 60.10375977 C-3.13654196 55.30083734 -3.22519138 50.4982011 -3.31738281 45.69555664 C-3.35549688 43.62302327 -3.39037933 41.55042771 -3.421875 39.4777832 C-3.46790941 36.48626585 -3.52583813 33.49517023 -3.5859375 30.50390625 C-3.59748871 29.58791153 -3.60903992 28.67191681 -3.62094116 27.72816467 C-3.81029262 17.12565661 -3.81029262 17.12565661 -8.5 8 C-13.36345959 4.10923233 -17.94856451 4.52923769 -24 5 C-28.75677308 6.64324888 -31.43634384 8.66830511 -34 13 C-37.81671717 23.43550823 -37.54899339 34.30299561 -37.6875 45.25 C-37.72074175 47.07424221 -37.7552375 48.89846202 -37.79101562 50.72265625 C-37.87512537 55.14831216 -37.94229907 59.57392424 -38 64 C-41.3 64 -44.6 64 -48 64 C-48 41.56 -48 19.12 -48 -4 C-44.7 -4 -41.4 -4 -38 -4 C-37.67 -1.36 -37.34 1.28 -37 4 C-36.505 3.2575 -36.01 2.515 -35.5 1.75 C-26.34591078 -8.31949814 -10.20683824 -8.56602264 0 0 Z " fill="#5B2A2C" transform="translate(769,502)"/>
<path d="M0 0 C4.40570976 4.04442149 7.08507079 8.36159731 9 14 C9 15.32 9 16.64 9 18 C5.7 18 2.4 18 -1 18 C-1.721875 16.576875 -2.44375 15.15375 -3.1875 13.6875 C-5.33448218 9.87795224 -6.75342044 7.54421075 -11 6 C-17.18779565 4.50352735 -22.4597432 4.66614744 -28 8 C-34.58384429 14.43753664 -36.63383693 21.69063542 -37.25 30.625 C-37.15162594 37.90468039 -35.53042733 45.26399676 -31 51 C-31 51.66 -31 52.32 -31 53 C-24.28950095 56.61334564 -18.47056667 58.02130839 -11 56 C-5.98951864 53.13019071 -3.16486216 49.34848299 -1 44 C2.3 44 5.6 44 9 44 C8.64750046 50.87374101 4.91442062 56.11619305 0.140625 60.83984375 C-6.35826282 66.15593399 -13.68695883 67.72921414 -22 67 C-31.01129354 65.02787985 -37.27002736 61.75702306 -42.6796875 54.15234375 C-48.8137163 44.15278793 -49.46946168 31.71677305 -47.31640625 20.41015625 C-44.81308795 11.50831483 -40.87247078 4.18431002 -33 -1 C-22.73077332 -6.04125673 -9.65724552 -7.15111469 0 0 Z " fill="#5C2A2D" transform="translate(971,501)"/>
<path d="M0 0 C0 3.63 0 7.26 0 11 C-1.32 11.226875 -2.64 11.45375 -4 11.6875 C-9.71637697 12.99281443 -14.9614537 14.98342282 -18.3515625 20 C-20.52853452 24.25997403 -22.10152697 28.28518098 -22.20532227 33.10424805 C-22.22526749 33.92487228 -22.24521271 34.74549652 -22.26576233 35.59098816 C-22.29083107 36.9129998 -22.29083107 36.9129998 -22.31640625 38.26171875 C-22.33718735 39.16751175 -22.35796844 40.07330475 -22.37937927 41.00654602 C-22.44476558 43.90012016 -22.50370904 46.79378507 -22.5625 49.6875 C-22.6056956 51.64909793 -22.64931023 53.61068668 -22.69335938 55.57226562 C-22.80043582 60.38141739 -22.90173414 65.19066046 -23 70 C-26.3 70 -29.6 70 -33 70 C-33 47.56 -33 25.12 -33 2 C-29.7 2 -26.4 2 -23 2 C-22.67 4.97 -22.34 7.94 -22 11 C-20.989375 9.906875 -19.97875 8.81375 -18.9375 7.6875 C-13.61505333 2.37578407 -7.62985497 0 0 0 Z " fill="#5E2A2C" transform="translate(1093,496)"/>
<path d="M0 0 C0 3.63 0 7.26 0 11 C-1.52625 11.2475 -3.0525 11.495 -4.625 11.75 C-11.82011033 13.22149647 -15.86354202 16.30083654 -20.01953125 22.21875 C-21.80347314 25.45969622 -22.12826677 28.65493825 -22.20532227 32.30957031 C-22.22526749 33.15013977 -22.24521271 33.99070923 -22.26576233 34.85675049 C-22.29083107 36.20383087 -22.29083107 36.20383087 -22.31640625 37.578125 C-22.33718735 38.5046991 -22.35796844 39.43127319 -22.37937927 40.38592529 C-22.44466961 43.34054272 -22.50366431 46.29524768 -22.5625 49.25 C-22.60570473 51.25521732 -22.64931965 53.26042585 -22.69335938 55.265625 C-22.80032999 60.17699404 -22.90165518 65.08845097 -23 70 C-26.3 70 -29.6 70 -33 70 C-33.33 47.56 -33.66 25.12 -34 2 C-30.7 2 -27.4 2 -24 2 C-24 5.3 -24 8.6 -24 12 C-23.34 11.278125 -22.68 10.55625 -22 9.8125 C-15.89554083 3.75962781 -8.72944483 0 0 0 Z " fill="#5D2A2C" transform="translate(321,496)"/>
<path d="M0 0 C2.97 0 5.94 0 9 0 C9 32.67 9 65.34 9 99 C6.03 99 3.06 99 0 99 C0 66.33 0 33.66 0 0 Z " fill="#5B2A2C" transform="translate(628,467)"/>
<path d="M0 0 C3.3 0 6.6 0 10 0 C10 22.44 10 44.88 10 68 C6.7 68 3.4 68 0 68 C0 45.56 0 23.12 0 0 Z " fill="#5A2A2B" transform="translate(793,498)"/>
<path d="M0 0 C11.55 0 23.1 0 35 0 C35 2.97 35 5.94 35 9 C23.45 9 11.9 9 0 9 C0 6.03 0 3.06 0 0 Z " fill="#5B2B2D" transform="translate(399,527)"/>
<path d="M0 0 C3.3 0 6.6 0 10 0 C10 4.95 10 9.9 10 15 C6.7 15 3.4 15 0 15 C0 10.05 0 5.1 0 0 Z " fill="#582B2C" transform="translate(793,467)"/>
<path d="M0 0 C22.44 0 44.88 0 68 0 C68 0.33 68 0.66 68 1 C67.19011627 1.00586624 66.38023254 1.01173248 65.54580688 1.01777649 C57.923257 1.07561674 50.30103726 1.14764261 42.67878151 1.23571491 C38.75983347 1.28049348 34.84099119 1.3197326 30.921875 1.34643555 C27.1415598 1.37239455 23.36164996 1.41274306 19.58158493 1.46318626 C18.13750617 1.47990542 16.69335722 1.49138818 15.2491951 1.49761391 C13.2306338 1.50719941 11.21219819 1.53692328 9.19384766 1.56762695 C7.46843246 1.58428154 7.46843246 1.58428154 5.7081604 1.60127258 C4.367621 1.79864265 4.367621 1.79864265 3 2 C2.01 3.485 2.01 3.485 1 5 C0.67 3.35 0.34 1.7 0 0 Z " fill="#4D3031" transform="translate(723,213)"/>
<path d="M0 0 C0 3.63 0 7.26 0 11 C-1.98 11 -3.96 11 -6 11 C-5.01 10.34 -4.02 9.68 -3 9 C-2.26656572 5.93443402 -2.26656572 5.93443402 -2 3 C-4.97 2.505 -4.97 2.505 -8 2 C-8 1.67 -8 1.34 -8 1 C-2.25 0 -2.25 0 0 0 Z " fill="#4D3131" transform="translate(1093,496)"/>
<path d="M0 0 C0.66 0.33 1.32 0.66 2 1 C-0.97 3.64 -3.94 6.28 -7 9 C-7.66 8.34 -8.32 7.68 -9 7 C-6.03 4.69 -3.06 2.38 0 0 Z " fill="#552D30" transform="translate(1055,222)"/>
<path d="M0 0 C0.66 0.33 1.32 0.66 2 1 C0.8803014 2.00593243 -0.2459412 3.0045849 -1.375 4 C-2.00148438 4.556875 -2.62796875 5.11375 -3.2734375 5.6875 C-5 7 -5 7 -7 7 C-5.55609075 3.19333016 -3.65047197 1.73397418 0 0 Z " fill="#542E30" transform="translate(741,498)"/>
<path d="M0 0 C0.66 0.33 1.32 0.66 2 1 C1.0479279 2.00596297 0.08812654 3.00461563 -0.875 4 C-1.40867187 4.556875 -1.94234375 5.11375 -2.4921875 5.6875 C-4 7 -4 7 -6 7 C-4.60667426 3.63279613 -3.0210714 2.0140476 0 0 Z " fill="#522D30" transform="translate(507,499)"/>
</svg>
