<?xml version="1.0" encoding="UTF-8"?>
<svg version="1.1" xmlns="http://www.w3.org/2000/svg" width="400" height="400">
<path d="M0 0 C3.37695951 3.2221822 5.54550939 6.39027034 7.5 10.625 C7.5 11.615 7.5 12.605 7.5 13.625 C3.54 15.605 3.54 15.605 -0.5 17.625 C-1.00789063 16.87734375 -1.51578125 16.1296875 -2.0390625 15.359375 C-8.20735007 6.53112412 -8.20735007 6.53112412 -17.5 1.625 C-25.09542904 0.99118171 -32.33617612 0.62920667 -38.5 5.625 C-48.42435852 15.66265028 -48.76186646 28.91262052 -48.74658203 42.22753906 C-48.60891549 53.62934609 -46.72537055 63.47174636 -39.5 72.625 C-34.3669344 77.35483115 -29.62393605 78.95422207 -22.78125 78.83203125 C-19.35808658 78.52136745 -17.28669187 77.63401041 -14.5 75.625 C-8.77206613 68.35493009 -9.26978646 59.59644599 -8.9375 50.75 C-8.87272461 49.14511719 -8.87272461 49.14511719 -8.80664062 47.5078125 C-8.70107257 44.88034097 -8.60008205 42.25268622 -8.5 39.625 C-2.89 39.625 2.72 39.625 8.5 39.625 C8.5 61.075 8.5 82.525 8.5 104.625 C103.54 104.625 198.58 104.625 296.5 104.625 C296.5 110.895 296.5 117.165 296.5 123.625 C201.46 123.625 106.42 123.625 8.5 123.625 C8.5 133.525 8.5 143.425 8.5 153.625 C-0.5 151.625 -0.5 151.625 -8.5 148.625 C-8.5 140.375 -8.5 132.125 -8.5 123.625 C-14.77 123.625 -21.04 123.625 -27.5 123.625 C-27.5 117.355 -27.5 111.085 -27.5 104.625 C-21.23 104.625 -14.96 104.625 -8.5 104.625 C-8.995 94.23 -8.995 94.23 -9.5 83.625 C-11.48 84.945 -13.46 86.265 -15.5 87.625 C-23.88570832 91.17845804 -34.72572895 90.91349537 -43.375 88.125 C-55.61082155 82.88895024 -63.63466151 72.90221166 -69.45703125 61.27734375 C-74.32085739 48.90828777 -74.78476375 32.54786334 -69.7578125 20.19140625 C-63.35843176 7.13428468 -54.86406076 -2.62249524 -40.875 -7.6875 C-26.30431535 -10.65560243 -11.93928867 -9.7986029 0 0 Z " fill="#B99B51" transform="translate(86.5,124.375)"/>
<path d="M0 0 C8.20689507 6.71473233 12.93514236 13.94988366 14.12890625 24.64453125 C14.74290457 42.6089337 5.8291229 55.8693214 -5.79443359 68.70117188 C-12.05891451 75.36703349 -19.19796852 81.14201167 -26.30664062 86.87402344 C-29.24565214 89.24649026 -32.17153628 91.63422782 -35.09375 94.02734375 C-36.06505859 94.82261475 -37.03636719 95.61788574 -38.03710938 96.43725586 C-38.76736328 97.03546143 -39.49761719 97.63366699 -40.25 98.25 C-35.28787447 98.3247135 -30.32608359 98.3788656 -25.36352539 98.41479492 C-23.67889698 98.42978874 -21.99430697 98.45019073 -20.30981445 98.47631836 C-7.4130882 98.92221729 -7.4130882 98.92221729 4.75 95.25 C5.94921182 93.30259893 5.94921182 93.30259893 6.75 91.25 C7.03101563 90.61578125 7.31203125 89.9815625 7.6015625 89.328125 C7.85679687 88.72484375 8.11203125 88.1215625 8.375 87.5 C8.82875 86.4275 9.2825 85.355 9.75 84.25 C11.07 84.25 12.39 84.25 13.75 84.25 C13.15013305 87.18843456 12.54519364 90.12568236 11.9375 93.0625 C11.77185547 93.87654297 11.60621094 94.69058594 11.43554688 95.52929688 C10.11638831 101.87619185 8.46407066 107.96507423 6.75 114.25 C-15.69 114.25 -38.13 114.25 -61.25 114.25 C-62.50151326 111.74697348 -62.33375047 110.13918798 -62.27172852 107.34130859 C-62.25163223 106.32040131 -62.23153595 105.29949402 -62.21083069 104.24765015 C-62.18379562 103.14240997 -62.15676056 102.0371698 -62.12890625 100.8984375 C-62.09348976 99.20468491 -62.09348976 99.20468491 -62.05735779 97.47671509 C-61.98059782 93.85935272 -61.89662645 90.24219783 -61.8125 86.625 C-61.75929167 84.17709359 -61.7065512 81.72917696 -61.65429688 79.28125 C-61.52496601 73.27070411 -61.38970928 67.26031312 -61.25 61.25 C-61.91 61.25 -62.57 61.25 -63.25 61.25 C-63.3624707 61.8551796 -63.47494141 62.46035919 -63.59082031 63.08387756 C-64.77593576 69.25493133 -66.26878503 75.27001014 -68 81.30859375 C-68.2587793 82.21956314 -68.51755859 83.13053253 -68.78417969 84.06910706 C-69.3267905 85.97461641 -69.87140853 87.87955525 -70.41796875 89.78393555 C-71.25425726 92.70235669 -72.08056793 95.62348456 -72.90625 98.54492188 C-73.43690266 100.40381646 -73.96813196 102.26254655 -74.5 104.12109375 C-74.74588867 104.99293808 -74.99177734 105.86478241 -75.24511719 106.76304626 C-75.47875977 107.57141434 -75.71240234 108.37978241 -75.953125 109.21264648 C-76.15583008 109.92194809 -76.35853516 110.63124969 -76.56738281 111.36204529 C-77.25 113.25 -77.25 113.25 -79.25 116.25 C-82.375 116.4375 -82.375 116.4375 -85.25 116.25 C-88.46929229 110.252079 -90.61404411 104.37774806 -92.484375 97.84375 C-92.73590332 96.9868457 -92.98743164 96.12994141 -93.24658203 95.24707031 C-94.17270337 92.08380287 -95.08560058 88.91667576 -96 85.75 C-98.0625 78.655 -100.125 71.56 -102.25 64.25 C-102.58 80.75 -102.91 97.25 -103.25 114.25 C-105.89 114.25 -108.53 114.25 -111.25 114.25 C-111.32613173 106.38466601 -111.37863448 98.51942724 -111.41479492 90.65380859 C-111.42817551 87.97850279 -111.45033385 85.30367851 -111.47631836 82.62841797 C-111.51275084 78.78086249 -111.52973828 74.93363414 -111.54296875 71.0859375 C-111.55845261 69.89197357 -111.57393646 68.69800964 -111.58988953 67.46786499 C-111.59127452 60.61782723 -111.28076826 55.7470403 -106.625 50.375 C-102.95603433 48.63706889 -99.23977659 48.7091324 -95.25 49.25 C-90.55879689 51.01469235 -89.50296867 53.98894303 -87.45898438 58.33984375 C-85.43790272 63.20480605 -83.94849732 68.19000262 -82.5 73.25 C-81.90238578 75.29206051 -81.30349338 77.33374752 -80.703125 79.375 C-80.44692383 80.26445312 -80.19072266 81.15390625 -79.92675781 82.0703125 C-79.30960837 84.26568743 -79.30960837 84.26568743 -78.25 86.25 C-78.02860352 85.4029248 -77.80720703 84.55584961 -77.57910156 83.68310547 C-76.74559777 80.51605124 -75.90205675 77.35202146 -75.05175781 74.18945312 C-74.68707476 72.82495759 -74.32632459 71.4594042 -73.96972656 70.09277344 C-73.45389231 68.11877084 -72.92362829 66.14911438 -72.390625 64.1796875 C-72.07641602 62.99616699 -71.76220703 61.81264648 -71.43847656 60.59326172 C-69.68048308 55.64791194 -67.64111367 52.17740912 -63.25 49.25 C-58.53652052 48.56295045 -54.5023506 48.59773406 -50.25 50.8125 C-46.04183358 55.94120283 -45.9365871 62.23386958 -45.8359375 68.58984375 C-45.81657135 69.35680069 -45.7972052 70.12375763 -45.7772522 70.91395569 C-45.71797442 73.33836106 -45.67128089 75.76281528 -45.625 78.1875 C-45.58677238 79.84181638 -45.54771794 81.49611387 -45.5078125 83.15039062 C-45.41231637 87.18343844 -45.32809693 91.21657927 -45.25 95.25 C-15.2913292 63.10552735 -15.2913292 63.10552735 -3.25 22.25 C-3.90570434 14.49083201 -7.11205651 8.15833786 -12.8125 2.875 C-18.92704296 -1.20136197 -23.95514268 -1.48978656 -31.25 -0.75 C-36.69201856 0.73742569 -40.27677554 3.58764631 -43.28515625 8.328125 C-46.31458173 14.36244619 -47.37679184 21.17818402 -45.5625 27.734375 C-43.11846539 34.61840581 -40.38566505 38.12914613 -33.8125 41.5 C-30.65001024 42.42560676 -27.51867332 42.8654502 -24.25 43.25 C-24.49609375 45.13671875 -24.49609375 45.13671875 -25.25 47.25 C-29.75849996 49.98272317 -35.12411516 50.84702824 -40.2734375 49.8828125 C-47.07374457 47.70563909 -51.90531224 43.50605565 -55.25 37.25 C-58.26865416 29.77523732 -58.40451461 21.64215448 -55.6875 14.0625 C-51.11246212 4.07340345 -44.29445414 -0.65571615 -34.25 -4.75 C-22.81872579 -8.62340696 -10.18110656 -5.4821343 0 0 Z " fill="#B99B51" transform="translate(307.25,106.75)"/>
<path d="M0 0 C4.95 0 9.9 0 15 0 C15.33 36.96 15.66 73.92 16 112 C20.62 112 25.24 112 30 112 C30.11174561 111.04875244 30.22349121 110.09750488 30.33862305 109.11743164 C31.02405038 104.34559877 32.29938519 99.76182335 33.58203125 95.12109375 C33.83748215 94.19079849 34.09293304 93.26050323 34.35612488 92.30201721 C34.89591522 90.34399489 35.43814088 88.3866425 35.98266602 86.42993164 C36.81002273 83.4464332 37.62104092 80.45879135 38.43164062 77.47070312 C38.95993779 75.56222298 39.48920237 73.65401032 40.01953125 71.74609375 C40.25823441 70.85844833 40.49693756 69.97080292 40.74287415 69.05625916 C42.32004088 63.47402627 44.0221136 58.33976788 48.75 54.625 C53.32303517 53.35471245 57.3748128 53.37208676 61.75 55.0625 C67.82473721 60.29352371 69.53532239 68.28542318 71.671875 75.69921875 C71.99915588 76.81182571 72.32643677 77.92443268 72.66363525 79.070755 C73.35018146 81.41188741 74.03237388 83.7543005 74.71044922 86.09790039 C75.75043726 89.68900986 76.80576607 93.27534568 77.86328125 96.86132812 C78.52955521 99.14035934 79.19495047 101.41964767 79.859375 103.69921875 C80.17493347 104.77217697 80.49049194 105.84513519 80.81561279 106.9506073 C81.24671356 108.44785088 81.24671356 108.44785088 81.68652344 109.9753418 C81.94093201 110.85135544 82.19534058 111.72736908 82.4574585 112.62992859 C83 115 83 115 83 119 C78.05 119 73.1 119 68 119 C66.02 113.06 64.04 107.12 62 101 C55.07 101 48.14 101 41 101 C39.35 106.94 37.7 112.88 36 119 C31.67499784 119.11509468 27.35534564 119.21451085 23.0300293 119.2746582 C21.56044475 119.29973644 20.09098413 119.33380856 18.62182617 119.37719727 C16.50408319 119.43815499 14.38799424 119.46627316 12.26953125 119.48828125 C10.99698486 119.51446533 9.72443848 119.54064941 8.41333008 119.56762695 C3.87504778 118.81292369 2.72718602 117.70420188 0 114 C-0.72235001 110.32231342 -0.63172768 106.70454762 -0.56762695 102.9675293 C-0.56835709 101.85489212 -0.56908722 100.74225494 -0.56983948 99.59590149 C-0.56635853 95.92150984 -0.52747034 92.24838872 -0.48828125 88.57421875 C-0.47895501 86.02546379 -0.47183801 83.47669987 -0.46684265 80.92793274 C-0.44970842 74.90713056 -0.4103105 68.88687302 -0.3600952 62.86628896 C-0.30415638 56.01026152 -0.27670397 49.15421203 -0.25161803 42.29801309 C-0.19939258 28.19841595 -0.1104686 14.09925026 0 0 Z M51 65 C48.85757357 70.54769072 46.97985706 76.10520227 45.3125 81.8125 C45.08755859 82.56208984 44.86261719 83.31167969 44.63085938 84.08398438 C43.73026146 87.14711225 43 89.78993343 43 93 C48.61 93 54.22 93 60 93 C58.97273694 86.27609632 57.49355642 79.86734148 55.5 73.375 C55.28641846 72.66408203 55.07283691 71.95316406 54.8527832 71.22070312 C54.2972233 69.45968305 53.65527544 67.72639875 53 66 C52.34 65.67 51.68 65.34 51 65 Z " fill="#B99B51" transform="translate(106,102)"/>
<path d="M0 0 C1.32 0 2.64 0 4 0 C4.00586624 1.25787827 4.01173248 2.51575653 4.01777649 3.81175232 C4.0750706 15.68500278 4.14786741 27.55807128 4.23571491 39.43113613 C4.2803799 45.53472502 4.31964477 51.63824776 4.34643555 57.74194336 C4.37250682 63.63594674 4.41293682 69.52969502 4.46318626 75.42354012 C4.47982903 77.66847617 4.49135939 79.91345633 4.49761391 82.15844536 C4.50728297 85.31089693 4.53537666 88.46269964 4.56762695 91.61499023 C4.56619186 92.53640808 4.56475677 93.45782593 4.5632782 94.40716553 C4.64742328 100.24997719 5.33737438 105.71641987 8 111 C12.18046363 114.01382262 17.0274319 114.88545887 22 116 C22 116.99 22 117.98 22 119 C4.84 119 -12.32 119 -30 119 C-30 118.01 -30 117.02 -30 116 C-29.18015625 115.84144531 -28.3603125 115.68289062 -27.515625 115.51953125 C-20.83572222 114.19917007 -20.83572222 114.19917007 -15.3125 110.5 C-12.83899452 105.78856098 -12.83069706 101.59696703 -12.79467773 96.39770508 C-12.78477814 95.51944565 -12.77487854 94.64118622 -12.76467896 93.73631287 C-12.73306881 90.8307465 -12.70830839 87.92516378 -12.68359375 85.01953125 C-12.66302381 83.00599236 -12.64202732 80.99245778 -12.62062073 78.97892761 C-12.56540423 73.67712903 -12.51599305 68.37529151 -12.46777344 63.07342529 C-12.41755537 57.66414928 -12.36187089 52.25492987 -12.30664062 46.84570312 C-12.1990642 36.2305171 -12.09761804 25.61528194 -12 15 C-13.05960937 15.01160156 -14.11921875 15.02320312 -15.2109375 15.03515625 C-16.59895658 15.04453476 -17.98697755 15.05363489 -19.375 15.0625 C-20.07367188 15.07087891 -20.77234375 15.07925781 -21.4921875 15.08789062 C-26.7734375 15.11328125 -26.7734375 15.11328125 -29 14 C-29 13.01 -29 12.02 -29 11 C-27.45892578 10.77957031 -27.45892578 10.77957031 -25.88671875 10.5546875 C-16.34342851 9.05799494 -7.10600759 7.10600759 0 0 Z " fill="#B99B51" transform="translate(360,102)"/>
<path d="M0 0 C2.4375 1.875 2.4375 1.875 4 4 C4 4.66 4 5.32 4 6 C5.8871875 6.1546875 5.8871875 6.1546875 7.8125 6.3125 C10.60499657 6.64858808 11.74433121 6.80025876 14 8.5625 C14.33 9.036875 14.66 9.51125 15 10 C15.33 8.68 15.66 7.36 16 6 C17.65 6 19.3 6 21 6 C21.495 13.425 21.495 13.425 22 21 C23.65 21.33 25.3 21.66 27 22 C28.98216903 20.01783097 28.41050924 16.16679941 28.5625 13.4375 C28.706875 10.983125 28.85125 8.52875 29 6 C34.94 6 40.88 6 47 6 C47 6.99 47 7.98 47 9 C45.35 9 43.7 9 42 9 C42 14.61 42 20.22 42 26 C40.35 25.67 38.7 25.34 37 25 C37 19.72 37 14.44 37 9 C35.35 9 33.7 9 32 9 C32.04640625 9.97582031 32.0928125 10.95164062 32.140625 11.95703125 C32.19476563 13.86548828 32.19476563 13.86548828 32.25 15.8125 C32.29640625 17.07707031 32.3428125 18.34164063 32.390625 19.64453125 C32 23 32 23 30.203125 24.92578125 C26.98091624 26.49689368 24.53284408 26.37851901 21 26 C17.76282761 24.25017709 16.39521847 22.37177797 15 19 C14.54625 19.7425 14.0925 20.485 13.625 21.25 C9.47725738 25.59525417 4.33415867 27.69064507 -1.65234375 28.24609375 C-3.76981607 28.24943889 -5.88691814 28.13632786 -8 28 C-11.96956521 21.33680125 -14.25375513 15.81911804 -13 8 C-10.4175858 1.11356214 -7.34163976 -0.77280418 0 0 Z M-7.8125 5.4375 C-9.86116391 9.85830107 -9.79081854 14.5093761 -8.3203125 19.140625 C-7.61566829 20.79150572 -6.81631304 22.40138697 -6 24 C0.28452659 23.75159974 5.17698037 23.46129316 10 19 C11.42779274 15.89064982 11.42779274 15.89064982 12 13 C10.28484306 11.39957197 10.28484306 11.39957197 8 10 C7.175 10.061875 6.35 10.12375 5.5 10.1875 C4.675 10.125625 3.85 10.06375 3 10 C1.66666667 8 0.33333333 6 -1 4 C-4.13769491 3.23470856 -5.28674036 3.43431132 -7.8125 5.4375 Z " fill="#522848" transform="translate(207,260)"/>
<path d="M0 0 C1.65 0 3.3 0 5 0 C5.33 5.28 5.66 10.56 6 16 C7.98 16 9.96 16 12 16 C12.33 10.72 12.66 5.44 13 0 C20.59 0 28.18 0 36 0 C36.66 1.98 37.32 3.96 38 6 C38.66 6 39.32 6 40 6 C40.66 4.02 41.32 2.04 42 0 C43.32 0.33 44.64 0.66 46 1 C45.47599609 1.92619141 45.47599609 1.92619141 44.94140625 2.87109375 C41.78368734 8.74820798 40.32252665 13.3344493 40 20 C38.35 20 36.7 20 35 20 C35.03480469 19.41992188 35.06960938 18.83984375 35.10546875 18.2421875 C35.28905451 12.94442696 34.74103358 9.68259903 32 5 C32 4.34 32 3.68 32 3 C30.02 3 28.04 3 26 3 C26 8.61 26 14.22 26 20 C24.35 20 22.7 20 21 20 C21 14.39 21 8.78 21 3 C19.68 3 18.36 3 17 3 C17.05220703 4.10408203 17.05220703 4.10408203 17.10546875 5.23046875 C17.37509588 14.94988494 17.37509588 14.94988494 14 19 C12.43058802 20.56941198 10.85865006 20.2449847 8.6875 20.3125 C7.90761719 20.34988281 7.12773437 20.38726562 6.32421875 20.42578125 C4 20 4 20 1.72265625 18.49609375 C-0.68840786 15.00251105 -0.43731627 11.82773111 -0.25 7.75 C-0.23195313 7.00492187 -0.21390625 6.25984375 -0.1953125 5.4921875 C-0.14835649 3.66090299 -0.07661652 1.83028351 0 0 Z " fill="#B89A50" transform="translate(308,266)"/>
<path d="M0 0 C3.63 0 7.26 0 11 0 C11 0.99 11 1.98 11 3 C9.02 3 7.04 3 5 3 C5 4.65 5 6.3 5 8 C6.98 8 8.96 8 11 8 C11 8.99 11 9.98 11 11 C9.02 11 7.04 11 5 11 C5 12.98 5 14.96 5 17 C7.31 17 9.62 17 12 17 C12.10957031 16.443125 12.21914063 15.88625 12.33203125 15.3125 C13.44275248 9.96658969 14.97225526 5.06936184 17 0 C18.65 0 20.3 0 22 0 C23.00577013 2.76886123 24.00480147 5.53984104 25 8.3125 C25.28617187 9.09818359 25.57234375 9.88386719 25.8671875 10.69335938 C26.13789063 11.45068359 26.40859375 12.20800781 26.6875 12.98828125 C26.93886719 13.68477783 27.19023437 14.38127441 27.44921875 15.09887695 C28 17 28 17 28 20 C26.35 20 24.7 20 23 20 C22.67 18.02 22.34 16.04 22 14 C19.05272465 14.10169161 19.05272465 14.10169161 16 15 C15.01 17.475 15.01 17.475 14 20 C9.38 20 4.76 20 0 20 C0 13.4 0 6.8 0 0 Z M18 6 C17.67 7.65 17.34 9.3 17 11 C17.99 11 18.98 11 20 11 C19.67 9.35 19.34 7.7 19 6 C18.67 6 18.34 6 18 6 Z " fill="#B89A50" transform="translate(280,266)"/>
<path d="M0 0 C1.65 0 3.3 0 5 0 C5.33 4.95 5.66 9.9 6 15 C7.65 15.33 9.3 15.66 11 16 C12.98216903 14.01783097 12.41050924 10.16679941 12.5625 7.4375 C12.706875 4.983125 12.85125 2.52875 13 0 C18.94 0 24.88 0 31 0 C31 0.99 31 1.98 31 3 C29.35 3 27.7 3 26 3 C26 8.61 26 14.22 26 20 C24.35 19.67 22.7 19.34 21 19 C21 13.72 21 8.44 21 3 C19.35 3 17.7 3 16 3 C16.04640625 3.97582031 16.0928125 4.95164062 16.140625 5.95703125 C16.19476563 7.86548828 16.19476563 7.86548828 16.25 9.8125 C16.29640625 11.07707031 16.3428125 12.34164063 16.390625 13.64453125 C16 17 16 17 14.203125 18.92578125 C10.98091624 20.49689368 8.53284408 20.37851901 5 20 C1.8149643 18.23984869 1.16703028 17.50109084 0 14 C-0.06970052 11.60509014 -0.08448003 9.20832309 -0.0625 6.8125 C-0.05347656 5.54019531 -0.04445312 4.26789063 -0.03515625 2.95703125 C-0.02355469 1.98121094 -0.01195312 1.00539063 0 0 Z " fill="#B99B50" transform="translate(223,266)"/>
<path d="M0 0 C10.46024891 -0.36918526 10.46024891 -0.36918526 12.87890625 1.28515625 C14.7320233 4.11971509 13.59049357 6.81133473 13 10 C13.33 10.33 13.66 10.66 14 11 C14.4632783 16.32770051 14.4632783 16.32770051 12.83984375 18.68359375 C9.18342348 21.29975857 4.29722191 20.15166666 0 20 C0 13.4 0 6.8 0 0 Z M5 3 C5 4.65 5 6.3 5 8 C6.32 7.67 7.64 7.34 9 7 C8.67 5.68 8.34 4.36 8 3 C7.01 3 6.02 3 5 3 Z M5 11 C5 12.98 5 14.96 5 17 C6.32 16.67 7.64 16.34 9 16 C8.67 14.35 8.34 12.7 8 11 C7.01 11 6.02 11 5 11 Z " fill="#B89A50" transform="translate(264,266)"/>
<path d="M0 0 C1.79133978 -0.05391993 3.58313899 -0.09275571 5.375 -0.125 C6.37273437 -0.14820313 7.37046875 -0.17140625 8.3984375 -0.1953125 C11 0 11 0 13 2 C13.03265454 3.99192667 13.05624855 5.98566513 12.984375 7.9765625 C12.90601682 10.14510596 12.90601682 10.14510596 13.8125 12.6875 C14 15 14 15 12.0625 17.8125 C7.95883569 20.74368879 5.94510512 20.49451051 1 20 C0 19 0 19 -0.11352539 17.14233398 C-0.10828857 16.35157471 -0.10305176 15.56081543 -0.09765625 14.74609375 C-0.09443359 13.89208984 -0.09121094 13.03808594 -0.08789062 12.15820312 C-0.07951172 11.26037109 -0.07113281 10.36253906 -0.0625 9.4375 C-0.05798828 8.53580078 -0.05347656 7.63410156 -0.04882812 6.70507812 C-0.03700225 4.46998686 -0.0205222 2.23502563 0 0 Z M5 3 C5 4.65 5 6.3 5 8 C5.99 8 6.98 8 8 8 C8 6.35 8 4.7 8 3 C7.01 3 6.02 3 5 3 Z M5 11 C5 12.98 5 14.96 5 17 C6.32 16.34 7.64 15.68 9 15 C8.67 13.68 8.34 12.36 8 11 C7.01 11 6.02 11 5 11 Z " fill="#B89A50" transform="translate(180,266)"/>
<path d="M0 0 C1.32 0 2.64 0 4 0 C5.00816056 2.58041096 6.0067111 5.16386944 7 7.75 C7.28617188 8.47960937 7.57234375 9.20921875 7.8671875 9.9609375 C8.13789063 10.66992188 8.40859375 11.37890625 8.6875 12.109375 C8.93886719 12.75874023 9.19023437 13.40810547 9.44921875 14.07714844 C10 16 10 16 10 20 C8.35 19.67 6.7 19.34 5 19 C4.67 17.35 4.34 15.7 4 14 C2.02 14 0.04 14 -2 14 C-2.66 15.98 -3.32 17.96 -4 20 C-4.99 19.67 -5.98 19.34 -7 19 C-6.02567877 16.01922628 -5.04473557 13.04067422 -4.0625 10.0625 C-3.78470703 9.21236328 -3.50691406 8.36222656 -3.22070312 7.48632812 C-2.95322266 6.67744141 -2.68574219 5.86855469 -2.41015625 5.03515625 C-2.16402588 4.2862915 -1.91789551 3.53742676 -1.66430664 2.76586914 C-1 1 -1 1 0 0 Z M0 8 C0 8.99 0 9.98 0 11 C0.99 10.67 1.98 10.34 3 10 C2.67 9.34 2.34 8.68 2 8 C1.34 8 0.68 8 0 8 Z " fill="#B6994F" transform="translate(169,266)"/>
<path d="M0 0 C1.32 0 2.64 0 4 0 C5.00816056 2.58041096 6.0067111 5.16386944 7 7.75 C7.28617188 8.47960937 7.57234375 9.20921875 7.8671875 9.9609375 C8.13789063 10.66992188 8.40859375 11.37890625 8.6875 12.109375 C8.93886719 12.75874023 9.19023437 13.40810547 9.44921875 14.07714844 C10 16 10 16 10 20 C8.35 19.67 6.7 19.34 5 19 C4.67 17.35 4.34 15.7 4 14 C2.02 14 0.04 14 -2 14 C-2.66 15.98 -3.32 17.96 -4 20 C-4.99 19.67 -5.98 19.34 -7 19 C-6.02567877 16.01922628 -5.04473557 13.04067422 -4.0625 10.0625 C-3.78470703 9.21236328 -3.50691406 8.36222656 -3.22070312 7.48632812 C-2.95322266 6.67744141 -2.68574219 5.86855469 -2.41015625 5.03515625 C-2.16402588 4.2862915 -1.91789551 3.53742676 -1.66430664 2.76586914 C-1 1 -1 1 0 0 Z M0 8 C-0.33 8.99 -0.66 9.98 -1 11 C0.32 10.67 1.64 10.34 3 10 C2.67 9.34 2.34 8.68 2 8 C1.34 8 0.68 8 0 8 Z " fill="#B7994F" transform="translate(122,266)"/>
<path d="M0 0 C1.65 0 3.3 0 5 0 C5 5.28 5 10.56 5 16 C6.98 16 8.96 16 11 16 C11 17.32 11 18.64 11 20 C9.35425434 20.02688151 7.70838587 20.04634123 6.0625 20.0625 C5.14597656 20.07410156 4.22945312 20.08570313 3.28515625 20.09765625 C1 20 1 20 0 19 C-0.08651611 17.58429877 -0.10704904 16.164405 -0.09765625 14.74609375 C-0.09443359 13.89208984 -0.09121094 13.03808594 -0.08789062 12.15820312 C-0.07951172 11.26037109 -0.07113281 10.36253906 -0.0625 9.4375 C-0.05798828 8.53580078 -0.05347656 7.63410156 -0.04882812 6.70507812 C-0.03700225 4.46998686 -0.0205222 2.23502563 0 0 Z " fill="#B99B51" transform="translate(133,266)"/>
<path d="M0 0 C1.65 0 3.3 0 5 0 C5 5.28 5 10.56 5 16 C6.65 16 8.3 16 10 16 C10 17.32 10 18.64 10 20 C6.7 20 3.4 20 0 20 C0 13.4 0 6.8 0 0 Z " fill="#B89B51" transform="translate(145,266)"/>
<path d="M0 0 C3.67420866 0.30618405 4.78135513 0.75771784 7.3125 3.5625 C8.1478125 4.7690625 8.1478125 4.7690625 9 6 C8.34 7.65 7.68 9.3 7 11 C0.84765625 11.09765625 0.84765625 11.09765625 -1 11 C-2 10 -2 10 -2.1875 6.625 C-2 3 -2 3 0 0 Z " fill="#532A49" transform="translate(215,253)"/>
</svg>
