<?xml version="1.0" encoding="UTF-8"?>
<svg version="1.1" xmlns="http://www.w3.org/2000/svg" width="1100" height="1100">
<path d="M0 0 C1.6415049 3.2830098 0.51888624 6.42545033 0 10 C-3.96 10.66 -7.92 11.32 -12 12 C-14.07652815 47.22681675 -13.57629798 82.75967874 -12 118 C-7.98331946 119.70656894 -4.34363544 120.48898407 0 121 C0.33 124.3 0.66 127.6 1 131 C-16.49 131 -33.98 131 -52 131 C-52 127.7 -52 124.4 -52 121 C-49.4609375 120.77213542 -46.921875 120.54427083 -44.3828125 120.31640625 C-41.98889139 120.13010715 -41.98889139 120.13010715 -40 119 C-39.07550763 113.66769148 -38.85834558 108.43165653 -38.88647461 103.0234375 C-38.88632858 102.27124435 -38.88618256 101.51905121 -38.8860321 100.74406433 C-38.88672205 98.28767897 -38.89447091 95.83137192 -38.90234375 93.375 C-38.9042112 91.66007529 -38.90563356 89.94515004 -38.90663147 88.23022461 C-38.91043092 83.73893739 -38.92023897 79.24768302 -38.93133545 74.75640869 C-38.94160514 70.16443323 -38.94614095 65.57245241 -38.95117188 60.98046875 C-38.96186378 51.98696481 -38.97890896 42.99348515 -39 34 C-49.57133637 58.87997814 -60.034798 83.79799685 -70.21044922 108.84277344 C-70.57041489 109.72759399 -70.93038055 110.61241455 -71.30125427 111.52404785 C-71.96482281 113.15588149 -72.62711152 114.78823653 -73.28773499 116.42126465 C-79.36058852 131.36058852 -79.36058852 131.36058852 -81 133 C-82.66617115 133.04063832 -84.33388095 133.042721 -86 133 C-89.6718223 125.14807 -92.95962528 117.19237515 -96.125 109.125 C-103.37678991 90.76816384 -111.12059087 72.61664292 -118.84321594 54.4541626 C-121.59296997 47.98221761 -124.30161928 41.49351899 -127 35 C-127.02319135 45.06630782 -127.04094973 55.13260926 -127.05181217 65.19893837 C-127.05702613 69.87335785 -127.06409678 74.54775902 -127.07543945 79.22216797 C-127.08632117 83.73496047 -127.09228805 88.24773539 -127.09487724 92.76054001 C-127.09672196 94.48047538 -127.10032423 96.20040981 -127.10573006 97.92033768 C-127.11301062 100.33314326 -127.11398798 102.74587657 -127.11352539 105.15869141 C-127.11712067 105.86647736 -127.12071594 106.57426331 -127.12442017 107.30349731 C-127.11594841 111.39898544 -126.68380509 114.89716945 -126 119 C-122.04 119.66 -118.08 120.32 -114 121 C-114 124.3 -114 127.6 -114 131 C-126.87 131 -139.74 131 -153 131 C-153 127.7 -153 124.4 -153 121 C-150.75390625 120.83723958 -148.5078125 120.67447917 -146.26171875 120.51171875 C-143.51484482 119.89023259 -142.72430848 119.2023642 -141 117 C-140.49632725 114.6977884 -140.49632725 114.6977884 -140.49267578 112.07519531 C-140.45778046 111.0541571 -140.42288513 110.0331189 -140.38693237 108.98114014 C-140.35395554 107.29664764 -140.35395554 107.29664764 -140.3203125 105.578125 C-140.27077927 103.79961151 -140.27077927 103.79961151 -140.22024536 101.98516846 C-139.86058245 87.47360267 -139.84837901 72.9556112 -139.86962891 58.44042969 C-139.87542573 54.47912729 -139.87196388 50.51789122 -139.86605644 46.55659103 C-139.86244046 43.45956929 -139.86359249 40.3625633 -139.86618423 37.26554108 C-139.86684549 35.80321494 -139.86605352 34.34088732 -139.86370468 32.87856293 C-139.86114989 30.84970632 -139.86573762 28.82084456 -139.87060547 26.79199219 C-139.87140106 25.64543152 -139.87219666 24.49887085 -139.87301636 23.31756592 C-139.74429599 17.22962451 -139.74429599 17.22962451 -142 12 C-143.84599688 11.60545777 -145.70225822 11.25823134 -147.5625 10.9375 C-149.08037109 10.67259766 -149.08037109 10.67259766 -150.62890625 10.40234375 C-151.41136719 10.26957031 -152.19382812 10.13679688 -153 10 C-153 7.03 -153 4.06 -153 1 C-139.47 1 -125.94 1 -112 1 C-110.700625 4.444375 -109.40125 7.88875 -108.0625 11.4375 C-98.08699334 37.56316882 -87.15308535 63.35743624 -76 89 C-72.77679179 84.16518769 -70.73604384 78.75971544 -68.4375 73.4375 C-68.16043213 72.7980545 -67.88336426 72.15860901 -67.59790039 71.49978638 C-62.21430823 59.05432937 -57.08192275 46.5086595 -52 33.9375 C-51.63760223 33.04134979 -51.27520447 32.14519958 -50.90182495 31.22189331 C-49.8492767 28.61615345 -48.79900065 26.00951362 -47.75 23.40234375 C-47.44518204 22.64586548 -47.14036407 21.88938721 -46.8263092 21.10998535 C-44.14739746 14.4314398 -41.58406677 7.71857361 -39 1 C-26.13 0.67 -13.26 0.34 0 0 Z " fill="#040404" transform="translate(223,500)"/>
<path d="M0 0 C10.18887001 -0.06989244 20.37768182 -0.12300879 30.56674385 -0.15543652 C35.29930286 -0.17100992 40.03169636 -0.19209366 44.76416016 -0.22631836 C49.34184238 -0.25921183 53.91936665 -0.2769154 58.49715805 -0.28463173 C60.23283241 -0.29012196 61.96849934 -0.30084087 63.70410538 -0.31719017 C80.45641399 -0.4685414 96.42636135 0.69208198 109.3125 12.75 C123.42083515 27.9835398 124.62940635 46.3915712 124.13623047 66.13085938 C123.22874794 85.2432871 113.86701546 102.41444217 100.11328125 115.33203125 C95.84704584 119.12497497 91.22640478 121.73748711 86 124 C85.11699219 124.38671875 84.23398437 124.7734375 83.32421875 125.171875 C72.01131647 129.6904872 60.31661877 130.3007941 48.26171875 130.1953125 C46.39154839 130.19106766 46.39154839 130.19106766 44.4835968 130.18673706 C40.55146153 130.17565658 36.61956493 130.15057519 32.6875 130.125 C30.00065684 130.11380887 27.31380733 130.10569356 24.62695312 130.09765625 C18.08455575 130.07575714 11.54229493 130.04240283 5 130 C4.78491211 126.62719727 4.78491211 126.62719727 5 123 C6.13566406 122.32839844 7.27132812 121.65679688 8.44140625 120.96484375 C11.22969297 119.21628098 11.89858271 118.42772283 12.67138672 115.16845703 C12.92885592 111.29226642 12.97052404 107.44414184 12.9375 103.5625 C12.94950856 102.07362385 12.96439704 100.58476857 12.98193359 99.09594727 C13.01281069 95.83873286 13.02000159 92.58253841 13.01025391 89.32519531 C12.99648908 84.67181856 13.02050626 80.01939042 13.05354309 75.36613464 C13.1985103 54.55815094 13.18025881 33.78098539 12 13 C7.98331946 11.29343106 4.34363544 10.51101593 0 10 C0 6.7 0 3.4 0 0 Z M39 13 C37.25438304 24.42159193 37.85239277 36.39495609 37.8671875 47.91796875 C37.86651214 49.79266879 37.86554018 51.66736874 37.86428833 53.54206848 C37.86282629 57.43731535 37.86492003 61.33253905 37.86962891 65.2277832 C37.87536924 70.2188024 37.87201079 75.20976832 37.86605644 80.20078564 C37.86244747 84.05689396 37.86359022 87.91298958 37.86618423 91.76909828 C37.86685031 93.61070067 37.86603624 95.45230422 37.86370468 97.29390526 C37.86116791 99.85636861 37.86503129 102.41874436 37.87060547 104.98120117 C37.86858124 105.73806717 37.86655701 106.49493317 37.86447144 107.2747345 C37.87810982 110.65564071 37.93939843 113.76841894 39 117 C50.79465649 119.84620089 66.48550013 119.17668424 77.16796875 113.171875 C88.70686606 105.79091723 93.94237713 94.06887193 97 81 C100.23863088 63.5461705 99.96416908 42.39911976 90.40625 26.92578125 C84.42871264 18.73987592 77.47885214 14.49560263 67.63964844 12.39916992 C62.63059025 11.64169581 57.61695923 11.75412023 52.5625 11.8125 C51.47517578 11.81314453 50.38785156 11.81378906 49.26757812 11.81445312 C43.96526019 11.60468783 43.96526019 11.60468783 39 13 Z " fill="#040404" transform="translate(746,501)"/>
<path d="M0 0 C29.42994205 -3.6301785 29.42994205 -3.6301785 38.01855469 1.96728516 C43.03479238 7.21208775 46.24339049 13.47962842 49.421875 19.95166016 C51.78219554 24.51090556 54.77732252 28.48476637 57.875 32.5625 C58.93961294 34.02095078 60.00092082 35.481821 61.05859375 36.9453125 C61.5572998 37.63141602 62.05600586 38.31751953 62.56982422 39.02441406 C64.30831017 41.42588698 66.0278975 43.84034674 67.74438477 46.25756836 C82.73912751 68.55741543 82.73912751 68.55741543 100 89 C100.02323137 80.0113035 100.04096994 71.02261744 100.05181217 62.0338974 C100.05701745 57.85950149 100.06407209 53.68512622 100.07543945 49.51074219 C100.08635233 45.47774555 100.09229456 41.44476869 100.09487724 37.41175842 C100.09671641 35.87768747 100.1003077 34.34361753 100.10573006 32.80955505 C100.1634205 21.86587596 100.1634205 21.86587596 99 11 C95.04 10.34 91.08 9.68 87 9 C86.505 4.545 86.505 4.545 86 0 C99.53 0 113.06 0 127 0 C127 2.97 127 5.94 127 9 C122.71 9.66 118.42 10.32 114 11 C113.84106785 21.86994429 113.68639978 32.73994022 113.53643799 43.61001205 C113.51223022 45.36390167 113.48793882 47.11779013 113.46356201 48.8716774 C113.1386295 72.28917452 112.87188328 95.69985505 113.03710938 119.12011719 C113.04133911 119.94431656 113.04556885 120.76851593 113.04992676 121.61769104 C113.05801834 123.11815966 113.07029555 124.6186146 113.08776855 126.1190033 C113.09608593 127.74624396 113.05390236 129.37363107 113 131 C112.67 131.33 112.34 131.66 112 132 C110.24731943 131.96177039 108.49610679 131.84390261 106.75 131.6875 C105.79609375 131.60886719 104.8421875 131.53023437 103.859375 131.44921875 C97.63792077 130.47180449 94.86428253 128.16561172 91.1875 123.1875 C90.72448486 122.5793042 90.26146973 121.9711084 89.78442383 121.34448242 C88.75020257 119.98405397 87.72076054 118.61998327 86.6953125 117.25292969 C84.88481738 114.84693186 83.05384195 112.45759694 81.21875 110.0703125 C72.9181939 99.25671603 64.77239782 88.33595076 56.71777344 77.33837891 C54.98850353 74.98435003 53.24970256 72.63767129 51.5078125 70.29296875 C45.40889804 62.07519366 39.41478039 53.79796636 33.5625 45.40234375 C32.92634766 44.49158081 32.29019531 43.58081787 31.63476562 42.64245605 C30.08888525 40.42897039 28.54397792 38.21481289 27 36 C26.97682138 45.95319468 26.95905673 55.90638293 26.94818783 65.85959911 C26.9429711 70.48136028 26.93589537 75.10310298 26.92456055 79.72485352 C26.91368873 84.18577061 26.90771404 88.64666994 26.90512276 93.10759926 C26.90327626 94.80882357 26.89967053 96.51004692 26.89426994 98.21126366 C26.88700255 100.59553498 26.88601147 102.97973304 26.88647461 105.36401367 C26.88287933 106.06604416 26.87928406 106.76807465 26.87557983 107.49137878 C26.88340658 111.21931936 27.25851086 114.29255431 28 118 C31.96 118.66 35.92 119.32 40 120 C40 123.3 40 126.6 40 130 C26.8 130 13.6 130 0 130 C0 126.7 0 123.4 0 120 C2.5390625 119.77213542 5.078125 119.54427083 7.6171875 119.31640625 C10.01110861 119.13010715 10.01110861 119.13010715 12 118 C12.9668764 115.19650807 13.12388504 112.59465065 13.12025452 109.64666748 C13.12162918 108.78292511 13.12300385 107.91918274 13.12442017 107.02926636 C13.12082489 106.08987213 13.11722961 105.15047791 13.11352539 104.18261719 C13.11367142 103.18716888 13.11381744 102.19172058 13.1139679 101.16610718 C13.11327132 97.87634094 13.1054908 94.58663135 13.09765625 91.296875 C13.09579117 89.01572704 13.09436769 86.73457868 13.09336853 84.45343018 C13.08955048 78.4496144 13.07972624 72.44582282 13.06866455 66.4420166 C13.05843515 60.3155144 13.05386763 54.18900828 13.04882812 48.0625 C13.03810336 36.04165604 13.02103545 24.02083003 13 12 C8.71 11.01 4.42 10.02 0 9 C0 6.03 0 3.06 0 0 Z " fill="#020202" transform="translate(358,501)"/>
<path d="M0 0 C7.86543237 7.5871396 13.21160583 16.824281 16.125 27.3125 C16.34929687 28.09109375 16.57359375 28.8696875 16.8046875 29.671875 C21.59631905 50.28245456 18.40374748 73.91030905 8.125 92.3125 C-0.64622103 105.78195144 -13.2367304 115.00790932 -28.9140625 118.78125 C-47.53056365 122.1214138 -67.36447667 120.16975185 -83.27734375 109.33984375 C-95.14002161 100.08160344 -101.90777377 86.92038299 -104.875 72.3125 C-105.14957031 71.02666016 -105.14957031 71.02666016 -105.4296875 69.71484375 C-107.78707785 51.7035543 -106.70947458 32.44083233 -97.875 16.3125 C-97.37097656 15.38695312 -96.86695313 14.46140625 -96.34765625 13.5078125 C-88.83717835 0.74883592 -77.37521298 -8.02962102 -62.984375 -11.78515625 C-41.35823865 -16.68686737 -17.56947401 -14.41597867 0 0 Z M-67.875 6.3125 C-78.2168501 18.64316743 -80.26836314 34.44193175 -80.1875 50 C-80.18186035 51.14049805 -80.1762207 52.28099609 -80.17041016 53.45605469 C-79.92032838 70.93206626 -76.93189187 88.3062548 -64.2421875 101.31640625 C-57.32325975 107.15068361 -49.16390102 108.6723975 -40.30078125 108.5234375 C-31.34893012 107.74501566 -23.98594451 104.1942466 -18.1875 97.30859375 C-9.30014598 84.8885165 -7.48167338 70.02872584 -7.5625 55.125 C-7.56741455 54.04001221 -7.5723291 52.95502441 -7.57739258 51.8371582 C-7.80225068 36.25968077 -9.70846034 18.24693924 -20.875 6.3125 C-28.65826364 -0.99056229 -38.20576113 -2.23042841 -48.5390625 -1.97265625 C-55.94136439 -1.33990679 -62.46796351 1.11342645 -67.875 6.3125 Z " fill="#050505" transform="translate(716.875,512.6875)"/>
<path d="M0 0 C11.1784617 -0.0231348 22.35691775 -0.04092092 33.53539848 -0.05181217 C38.72559325 -0.0570385 43.91577167 -0.06413164 49.10595703 -0.07543945 C54.11150397 -0.08627718 59.11703516 -0.09227873 64.12259293 -0.09487724 C66.03562798 -0.09672989 67.94866214 -0.10034744 69.86169052 -0.10573006 C72.53395219 -0.11295221 75.20614816 -0.11399044 77.87841797 -0.11352539 C79.07387741 -0.1189183 79.07387741 -0.1189183 80.29348755 -0.12442017 C85.77189568 -0.11405216 85.77189568 -0.11405216 88 1 C87.69304703 5.08377023 87.37847937 9.16691906 87.0625 13.25 C86.97548828 14.40886719 86.88847656 15.56773437 86.79882812 16.76171875 C86.71181641 17.87675781 86.62480469 18.99179687 86.53515625 20.140625 C86.456604 21.16704102 86.37805176 22.19345703 86.29711914 23.25097656 C86.04329799 25.59939573 85.64710829 27.73393582 85 30 C82.36 30 79.72 30 77 30 C77 25.05 77 20.1 77 15 C64.28822486 12.42546326 51.95425245 12.86145185 39 13 C38.67 27.19 38.34 41.38 38 56 C43.259375 56.0309375 43.259375 56.0309375 48.625 56.0625 C49.71893066 56.071604 50.81286133 56.08070801 51.93994141 56.09008789 C53.25744385 56.09383423 53.25744385 56.09383423 54.6015625 56.09765625 C55.93695068 56.10551147 55.93695068 56.10551147 57.29931641 56.11352539 C60.56851751 56.0314856 60.56851751 56.0314856 66 55 C66.66 50.71 67.32 46.42 68 42 C70.97 42 73.94 42 77 42 C77 55.86 77 69.72 77 84 C74.03 84 71.06 84 68 84 C67.01 77.07 67.01 77.07 66 70 C62.88856433 68.96285478 60.50531904 68.79968139 57.23828125 68.68359375 C56.23063721 68.64548584 55.22299316 68.60737793 54.18481445 68.56811523 C52.90695068 68.52501221 51.62908691 68.48190918 50.3125 68.4375 C46.249375 68.293125 42.18625 68.14875 38 68 C38.33 84.17 38.66 100.34 39 117 C58.51730935 116.30083898 58.51730935 116.30083898 78 115 C78.07347656 114.07380859 78.07347656 114.07380859 78.1484375 113.12890625 C78.66608422 107.26521841 79.61582123 101.72127225 81 96 C83.64 96 86.28 96 89 96 C88.86027432 100.18772701 88.71212919 104.37511607 88.5625 108.5625 C88.52318359 109.74392578 88.48386719 110.92535156 88.44335938 112.14257812 C88.2362496 117.83013123 87.98031568 123.38995814 87 129 C82.044636 129.8103122 77.25348972 130.13987926 72.22875977 130.11352539 C71.11531944 130.11374443 71.11531944 130.11374443 69.97938538 130.1139679 C67.55002824 130.11327674 65.12074983 130.10552203 62.69140625 130.09765625 C60.99747255 130.09578923 59.30353831 130.09436667 57.60960388 130.09336853 C53.16926562 130.08956568 48.7289605 130.07975462 44.28863525 130.06866455 C39.75037077 130.05840227 35.21210089 130.05386062 30.67382812 130.04882812 C21.78253759 130.0381302 12.89127156 130.0210808 4 130 C4.3125 126.640625 4.3125 126.640625 5 123 C8 120.75 8 120.75 11 119 C12.43628542 114.69114375 12.37748722 110.46837873 12.5546875 105.94921875 C12.59673309 104.89981613 12.63877869 103.85041351 12.68209839 102.76921082 C13.16632689 89.27576124 13.15127568 75.77822977 13.13037109 62.27807617 C13.1246171 58.5291469 13.12800825 54.7802884 13.13394356 51.03136158 C13.13758582 48.08592714 13.13639486 45.14050906 13.13381577 42.19507408 C13.13315959 40.81306639 13.13392772 39.4310571 13.13629532 38.04905128 C13.14801853 29.3089251 12.77038635 20.70720184 12 12 C6.06 10.515 6.06 10.515 0 9 C0 6.03 0 3.06 0 0 Z " fill="#000000" transform="translate(881,501)"/>
<path d="M0 0 C4.29 0 8.58 0 13 0 C16.54782162 8.34723587 19.79749891 16.7434842 22.84375 25.28515625 C23.29445977 26.54146749 23.74548725 27.79766479 24.19680786 29.05375671 C25.14570083 31.69597539 26.09296636 34.33876873 27.03887939 36.98205566 C29.49400795 43.84134151 31.96222371 50.69592533 34.4296875 57.55078125 C34.67226665 58.22492947 34.91484581 58.89907768 35.16477585 59.59365463 C39.26875943 70.99743452 43.41068174 82.38648369 47.625 93.75 C47.88031494 94.44167267 48.13562988 95.13334534 48.39868164 95.84597778 C50.83458666 102.43968967 53.31030324 108.97568965 56.31396484 115.33691406 C57 117 57 117 57 119 C57.62648438 119.06058594 58.25296875 119.12117187 58.8984375 119.18359375 C60.12433594 119.30927734 60.12433594 119.30927734 61.375 119.4375 C62.59316406 119.55931641 62.59316406 119.55931641 63.8359375 119.68359375 C66 120 66 120 68 121 C68 124.3 68 127.6 68 131 C50.51 131 33.02 131 15 131 C15 127.7 15 124.4 15 121 C20.94 120.01 20.94 120.01 27 119 C25.74522056 112.49796107 23.87183265 106.37675863 21.67700195 100.14233398 C20.6859986 97.28482375 20 95.05008171 20 92 C6.47 92 -7.06 92 -21 92 C-21.66 94.97 -22.32 97.94 -23 101 C-23.50486717 102.87936199 -24.02304677 104.75527206 -24.5625 106.625 C-25.71331883 110.7574858 -26.52661097 114.73949874 -27 119 C-26.21753906 119.06058594 -25.43507813 119.12117187 -24.62890625 119.18359375 C-23.11103516 119.30927734 -23.11103516 119.30927734 -21.5625 119.4375 C-20.04849609 119.55931641 -20.04849609 119.55931641 -18.50390625 119.68359375 C-16 120 -16 120 -15 121 C-15 124.3 -15 127.6 -15 131 C-27.54 131 -40.08 131 -53 131 C-53 127.7 -53 124.4 -53 121 C-48.05 120.01 -48.05 120.01 -43 119 C-42.59652344 117.7521875 -42.19304687 116.504375 -41.77734375 115.21875 C-40.26601056 110.68738495 -38.57333706 106.24452694 -36.84130859 101.79370117 C-29.54424294 82.99936885 -22.96180753 63.95234618 -16.34594727 44.91015625 C-11.10763398 29.85703924 -5.67131262 14.89552073 0 0 Z M-1 36 C-3.13843426 41.96234666 -5.27442725 47.92556366 -7.40869141 53.8894043 C-8.13566232 55.91988124 -8.86320056 57.95015515 -9.59130859 59.98022461 C-10.63526775 62.89123725 -11.67721212 65.80296406 -12.71875 68.71484375 C-13.04685669 69.6283812 -13.37496338 70.54191864 -13.7130127 71.48313904 C-14.01332397 72.32393509 -14.31363525 73.16473114 -14.62304688 74.03100586 C-14.88952026 74.77491074 -15.15599365 75.51881561 -15.43054199 76.28526306 C-16.05252851 77.8570355 -16.05252851 77.8570355 -16 79 C-5.77 79 4.46 79 15 79 C10.24338327 64.56325097 5.36626025 50.22058967 0 36 C-0.33 36 -0.66 36 -1 36 Z " fill="#020202" transform="translate(285,500)"/>
<path d="M0 0 C0.99 0.99 0.99 0.99 2 2 C1.79296875 4.984375 1.79296875 4.984375 1.1875 8.75 C0.19097982 15.26350997 -0.38941131 21.68630639 -0.75390625 28.26953125 C-1 31 -1 31 -2 33 C-4.64 33 -7.28 33 -10 33 C-10.06316406 31.84242188 -10.12632812 30.68484375 -10.19140625 29.4921875 C-10.45415952 19.90857123 -10.45415952 19.90857123 -15.1875 12.125 C-17.03471632 10.90317768 -17.03471632 10.90317768 -19 10 C-19.91072266 9.52240234 -19.91072266 9.52240234 -20.83984375 9.03515625 C-30.27103957 4.55688603 -43.51417843 4.46422949 -53.5625 7.125 C-62.11400848 10.23199969 -69.288573 16.68980918 -73.41015625 24.76171875 C-81.82353627 43.91871524 -81.17067038 65.43900963 -73.9375 84.8515625 C-69.51683896 94.7673508 -62.02475196 102.77724489 -52 107 C-50.93265625 107.47566406 -50.93265625 107.47566406 -49.84375 107.9609375 C-36.21705266 113.04761562 -20.18480653 110.52978647 -7.2421875 104.7734375 C-5.73545419 104.06125166 -4.24112279 103.32128516 -2.76953125 102.5390625 C-1.89361328 102.27222656 -1.89361328 102.27222656 -1 102 C0.485 102.99 0.485 102.99 2 104 C0.18933969 110.41961384 -1.1295291 114.67184198 -7.05859375 118.23828125 C-23.91178816 127.3794539 -44.0276635 127.68143333 -62.3203125 123.18359375 C-78.37838308 118.27582026 -91.01960787 107.76994623 -99 93 C-108.17281053 71.92354222 -108.8758072 49.26179019 -100.78515625 27.7734375 C-94.32171696 13.27285197 -81.9523396 2.62546585 -67.61328125 -3.67578125 C-46.17551205 -11.53243396 -20.67298562 -9.32130155 0 0 Z " fill="#060606" transform="translate(600,507)"/>
<path d="M0 0 C11.1784617 -0.0231348 22.35691775 -0.04092092 33.53539848 -0.05181217 C38.72559325 -0.0570385 43.91577167 -0.06413164 49.10595703 -0.07543945 C54.11150397 -0.08627718 59.11703516 -0.09227873 64.12259293 -0.09487724 C66.03562798 -0.09672989 67.94866214 -0.10034744 69.86169052 -0.10573006 C72.53395219 -0.11295221 75.20614816 -0.11399044 77.87841797 -0.11352539 C79.07387741 -0.1189183 79.07387741 -0.1189183 80.29348755 -0.12442017 C85.77189568 -0.11405216 85.77189568 -0.11405216 88 1 C87.69304703 5.08377023 87.37847937 9.16691906 87.0625 13.25 C86.97548828 14.40886719 86.88847656 15.56773437 86.79882812 16.76171875 C86.71181641 17.87675781 86.62480469 18.99179687 86.53515625 20.140625 C86.456604 21.16704102 86.37805176 22.19345703 86.29711914 23.25097656 C86.04329799 25.59939573 85.64710829 27.73393582 85 30 C82.36 30 79.72 30 77 30 C77 25.05 77 20.1 77 15 C64.28822486 12.42546326 51.95425245 12.86145185 39 13 C38.67 24.88 38.34 36.76 38 49 C37.67 49 37.34 49 37 49 C36.97535072 43.74894558 36.95716432 38.49792455 36.94506836 33.24682617 C36.94002782 31.45905979 36.93319546 29.67129755 36.92456055 27.88354492 C36.9124827 25.31948832 36.90676906 22.75548603 36.90234375 20.19140625 C36.89718246 19.3872377 36.89202118 18.58306915 36.88670349 17.75453186 C36.88650785 15.83598285 36.93798017 13.91754632 37 12 C39.29725072 9.70274928 44.90210651 10.82846654 47.95703125 10.81445312 C48.95404053 10.81457397 48.95404053 10.81457397 49.97119141 10.81469727 C51.96390909 10.81253909 53.95658786 10.79411465 55.94921875 10.77539062 C71.50359911 10.75179955 71.50359911 10.75179955 78 14 C78 18.95 78 23.9 78 29 C79.98 29 81.96 29 84 29 C83.97679687 28.3915625 83.95359375 27.783125 83.9296875 27.15625 C83.74950005 18.40428818 84.877498 10.98001597 86 2 C57.95 2 29.9 2 1 2 C1 3.98 1 5.96 1 8 C1.68707031 8.04898437 2.37414062 8.09796875 3.08203125 8.1484375 C3.98308594 8.22320312 4.88414062 8.29796875 5.8125 8.375 C7.15248047 8.47941406 7.15248047 8.47941406 8.51953125 8.5859375 C11 9 11 9 14 11 C15.34363161 15.03089484 15.13902218 18.9150214 15.12939453 23.11791992 C15.13114685 24.051604 15.13289917 24.98528809 15.13470459 25.94726562 C15.13911443 29.04168545 15.13618695 32.13604832 15.1328125 35.23046875 C15.13348607 37.3817801 15.13445655 39.53309138 15.13571167 41.68440247 C15.1371877 46.1995211 15.13503816 50.71461998 15.13037109 55.22973633 C15.12469097 61.00540598 15.1279425 66.78102898 15.13394356 72.55669689 C15.13756633 77.00318245 15.1364024 81.44965706 15.13381577 85.89614296 C15.13315035 88.0247123 15.1339614 90.15328265 15.13629532 92.28185081 C15.13884808 95.26629623 15.1349436 98.2506675 15.12939453 101.23510742 C15.13141876 102.10865372 15.13344299 102.98220001 15.13552856 103.88221741 C15.08744713 117.91255287 15.08744713 117.91255287 11.5625 121.4375 C9 123 9 123 7 124 C6.67 125.32 6.34 126.64 6 128 C32.4 128 58.8 128 86 128 C86 123.38 86 118.76 86 114 C86.10721847 111.62294372 86.24039742 109.24629562 86.4375 106.875 C86.55931641 105.32425781 86.55931641 105.32425781 86.68359375 103.7421875 C86.95341212 101.40376162 87.35677261 99.25940378 88 97 C86.02 97 84.04 97 82 97 C81.96261719 97.68964844 81.92523437 98.37929688 81.88671875 99.08984375 C81.43921852 105.48646465 80.34350199 111.03070248 78 117 C72.63473221 117.75711054 67.42288894 118.13896544 62 118.09765625 C61.03900391 118.09614563 61.03900391 118.09614563 60.05859375 118.09460449 C57.70571049 118.08944221 55.35285311 118.07548205 53 118.0625 C47.72 118.041875 42.44 118.02125 37 118 C37 101.17 37 84.34 37 67 C41.723125 66.938125 46.44625 66.87625 51.3125 66.8125 C52.79919189 66.78518799 54.28588379 66.75787598 55.81762695 66.72973633 C56.98769287 66.72224365 58.15775879 66.71475098 59.36328125 66.70703125 C60.56251221 66.6913208 61.76174316 66.67561035 62.99731445 66.65942383 C66 67 66 67 67.89648438 68.32226562 C69.66979961 71.0183325 69.28151705 73.52225919 69.1875 76.6875 C69.14689453 78.45673828 69.14689453 78.45673828 69.10546875 80.26171875 C69.07066406 81.16535156 69.03585937 82.06898438 69 83 C70.98 83 72.96 83 75 83 C75 69.8 75 56.6 75 43 C73.02 43 71.04 43 69 43 C69.02320313 43.67546875 69.04640625 44.3509375 69.0703125 45.046875 C69.08835937 45.93890625 69.10640625 46.8309375 69.125 47.75 C69.14820313 48.63171875 69.17140625 49.5134375 69.1953125 50.421875 C68.98870725 53.14906426 68.47305841 54.71315408 67 57 C64.18175808 58.40912096 61.82748718 58.11183553 58.6796875 58.09765625 C57.42285156 58.09443359 56.16601562 58.09121094 54.87109375 58.08789062 C53.55238281 58.07951172 52.23367188 58.07113281 50.875 58.0625 C49.53515789 58.05748489 48.195314 58.05292201 46.85546875 58.04882812 C43.57026794 58.03701086 40.28515603 58.02053617 37 58 C37 55.69 37 53.38 37 51 C37.33 51 37.66 51 38 51 C38 52.65 38 54.3 38 56 C41.54164915 56.0292067 45.08326697 56.04686814 48.625 56.0625 C50.12353516 56.07506836 50.12353516 56.07506836 51.65234375 56.08789062 C52.62558594 56.09111328 53.59882812 56.09433594 54.6015625 56.09765625 C55.93695068 56.10551147 55.93695068 56.10551147 57.29931641 56.11352539 C60.56851751 56.0314856 60.56851751 56.0314856 66 55 C66.66 50.71 67.32 46.42 68 42 C70.97 42 73.94 42 77 42 C77 55.86 77 69.72 77 84 C74.03 84 71.06 84 68 84 C67.01 77.07 67.01 77.07 66 70 C62.88856433 68.96285478 60.50531904 68.79968139 57.23828125 68.68359375 C56.23063721 68.64548584 55.22299316 68.60737793 54.18481445 68.56811523 C52.90695068 68.52501221 51.62908691 68.48190918 50.3125 68.4375 C46.249375 68.293125 42.18625 68.14875 38 68 C38.33 84.17 38.66 100.34 39 117 C58.51730935 116.30083898 58.51730935 116.30083898 78 115 C78.07347656 114.07380859 78.07347656 114.07380859 78.1484375 113.12890625 C78.66608422 107.26521841 79.61582123 101.72127225 81 96 C83.64 96 86.28 96 89 96 C88.86027432 100.18772701 88.71212919 104.37511607 88.5625 108.5625 C88.52318359 109.74392578 88.48386719 110.92535156 88.44335938 112.14257812 C88.2362496 117.83013123 87.98031568 123.38995814 87 129 C82.044636 129.8103122 77.25348972 130.13987926 72.22875977 130.11352539 C71.11531944 130.11374443 71.11531944 130.11374443 69.97938538 130.1139679 C67.55002824 130.11327674 65.12074983 130.10552203 62.69140625 130.09765625 C60.99747255 130.09578923 59.30353831 130.09436667 57.60960388 130.09336853 C53.16926562 130.08956568 48.7289605 130.07975462 44.28863525 130.06866455 C39.75037077 130.05840227 35.21210089 130.05386062 30.67382812 130.04882812 C21.78253759 130.0381302 12.89127156 130.0210808 4 130 C4.3125 126.640625 4.3125 126.640625 5 123 C8 120.75 8 120.75 11 119 C12.43628542 114.69114375 12.37748722 110.46837873 12.5546875 105.94921875 C12.59673309 104.89981613 12.63877869 103.85041351 12.68209839 102.76921082 C13.16632689 89.27576124 13.15127568 75.77822977 13.13037109 62.27807617 C13.1246171 58.5291469 13.12800825 54.7802884 13.13394356 51.03136158 C13.13758582 48.08592714 13.13639486 45.14050906 13.13381577 42.19507408 C13.13315959 40.81306639 13.13392772 39.4310571 13.13629532 38.04905128 C13.14801853 29.3089251 12.77038635 20.70720184 12 12 C6.06 10.515 6.06 10.515 0 9 C0 6.03 0 3.06 0 0 Z " fill="#252323" transform="translate(881,501)"/>
<path d="M0 0 C5.51118969 4.07434381 10.78466964 9.72717999 12.1875 16.6171875 C13.16845614 25.64418836 12.6811541 33.16816499 7.1875 40.6171875 C1.89277842 46.57798279 -3.73356672 50.12988444 -11.703125 50.89453125 C-20.25873787 51.16323768 -26.25875251 49.8773857 -33 44.5546875 C-39.35591594 38.53725229 -42.07656374 32.36514255 -42.4375 23.6171875 C-42.07537207 14.8403501 -39.35663302 8.67420861 -32.9375 2.6796875 C-23.24456777 -4.93105929 -10.95537382 -6.37862226 0 0 Z M-32.75 8.4921875 C-36.90546708 14.78834974 -38.88546953 20.13078645 -37.8125 27.6171875 C-36.00613061 34.73514308 -33.11242731 39.72151816 -26.8125 43.6171875 C-21.4241722 46.50928997 -15.87416997 47.67747961 -9.8125 46.6171875 C-1.62788654 43.75868071 2.80675245 39.88611415 7 32.3671875 C9.31864295 25.04515712 8.9761156 18.55286155 5.515625 11.65625 C1.85798522 6.04069716 -3.4477844 2.55896514 -9.8125 0.6171875 C-18.50715614 -0.70463522 -26.77604206 1.8385577 -32.75 8.4921875 Z " fill="#1E1C1C" transform="translate(1018.8125,471.3828125)"/>
<path d="M0 0 C15 0 15 0 20 3 C22.30098294 5.83787896 23.01561135 7.26626656 22.9375 10.9375 C21.85426517 14.47606712 20.09441075 16.97005768 18 20 C18.5775 20.84304688 19.155 21.68609375 19.75 22.5546875 C20.50024193 23.66129435 21.25022874 24.76807419 22 25.875 C22.7425 26.96554687 23.485 28.05609375 24.25 29.1796875 C26 32 26 32 26 34 C20.99940723 34.96502667 20.99940723 34.96502667 18 34 C14.96681631 30.54727315 11 25.77479909 11 21 C9.68 20.67 8.36 20.34 7 20 C7 24.62 7 29.24 7 34 C4.69 34 2.38 34 0 34 C0 22.78 0 11.56 0 0 Z M7 6 C7 8.64 7 11.28 7 14 C9.33294775 14.04241723 11.66702567 14.04092937 14 14 C15.29633621 12.93354885 15.29633621 12.93354885 15.0625 10.4375 C15.041875 9.633125 15.02125 8.82875 15 8 C11.91190305 6.23537317 10.76687864 6 7 6 Z " fill="#1F1D1D" transform="translate(991,478)"/>
<path d="M0 0 C1.6415049 3.2830098 0.51888624 6.42545033 0 10 C-3.96 10.66 -7.92 11.32 -12 12 C-14.07652815 47.22681675 -13.57629798 82.75967874 -12 118 C-7.98331946 119.70656894 -4.34363544 120.48898407 0 121 C0.495 125.95 0.495 125.95 1 131 C-16.49 131 -33.98 131 -52 131 C-52 127.7 -52 124.4 -52 121 C-49.4609375 120.77213542 -46.921875 120.54427083 -44.3828125 120.31640625 C-41.98889139 120.13010715 -41.98889139 120.13010715 -40 119 C-39.07550763 113.66769148 -38.85834558 108.43165653 -38.88647461 103.0234375 C-38.88632858 102.27124435 -38.88618256 101.51905121 -38.8860321 100.74406433 C-38.88672205 98.28767897 -38.89447091 95.83137192 -38.90234375 93.375 C-38.9042112 91.66007529 -38.90563356 89.94515004 -38.90663147 88.23022461 C-38.91043092 83.73893739 -38.92023897 79.24768302 -38.93133545 74.75640869 C-38.94160514 70.16443323 -38.94614095 65.57245241 -38.95117188 60.98046875 C-38.96186378 51.98696248 -38.97943948 42.99348913 -39 34 C-40.98 38.62 -42.96 43.24 -45 48 C-46.17189558 44.48431326 -45.83725505 44.0008148 -44.34765625 40.76953125 C-43.98349609 39.96708984 -43.61933594 39.16464844 -43.24414062 38.33789062 C-42.65922852 37.08782227 -42.65922852 37.08782227 -42.0625 35.8125 C-41.67642578 34.96751953 -41.29035156 34.12253906 -40.89257812 33.25195312 C-39.93699299 31.16382265 -38.97256217 29.08026396 -38 27 C-37.67 27 -37.34 27 -37 27 C-36.95363592 38.37013329 -36.91811004 49.74024404 -36.89637566 61.11045265 C-36.88594365 66.39023811 -36.87179498 71.66995883 -36.84912109 76.94970703 C-36.82737209 82.04605113 -36.81542699 87.14233301 -36.81024551 92.23871994 C-36.80655347 94.18194941 -36.79934384 96.12517551 -36.78853989 98.06837845 C-36.77399771 100.79256775 -36.77202321 103.51650072 -36.77294922 106.24072266 C-36.76575867 107.04201599 -36.75856812 107.84330933 -36.75115967 108.66888428 C-36.76759116 113.14348661 -37.15913453 116.83199412 -39 121 C-41.29629994 122.14814997 -43.07698086 122.30769809 -45.625 122.5625 C-46.44226563 122.64628906 -47.25953125 122.73007812 -48.1015625 122.81640625 C-48.72804687 122.87699219 -49.35453125 122.93757812 -50 123 C-50.33 124.98 -50.66 126.96 -51 129 C-34.5 129 -18 129 -1 129 C-1 126.69 -1 124.38 -1 122 C-2.03060547 122.05220703 -2.03060547 122.05220703 -3.08203125 122.10546875 C-3.98308594 122.13253906 -4.88414062 122.15960937 -5.8125 122.1875 C-7.15248047 122.23970703 -7.15248047 122.23970703 -8.51953125 122.29296875 C-11 122 -11 122 -12.76171875 120.86328125 C-15.98363614 116.01515949 -15.14816564 109.1135509 -15.14526367 103.49389648 C-15.14862228 102.55495544 -15.1519809 101.6160144 -15.15544128 100.64862061 C-15.16491259 97.55609807 -15.16689219 94.46362987 -15.16796875 91.37109375 C-15.17118298 89.21688312 -15.17454718 87.0626727 -15.17805481 84.90846252 C-15.18403578 80.39868666 -15.18589567 75.88892994 -15.18530273 71.37915039 C-15.18520094 65.59987393 -15.19887564 59.82071985 -15.21607494 54.04147243 C-15.22718841 49.59511246 -15.22922217 45.14878219 -15.22869301 40.70240974 C-15.22987324 38.5713566 -15.23429744 36.44030269 -15.24202538 34.30926323 C-15.25181595 31.33165743 -15.24895129 28.35431903 -15.24291992 25.37670898 C-15.24853943 24.49709 -15.25415894 23.61747101 -15.25994873 22.7111969 C-15.23768013 18.38766669 -15.11957853 14.89426448 -13 11 C-9.49246082 8.16698758 -5.28304683 8.85723177 -1 9 C-1 7.02 -1 5.04 -1 3 C-13.21 3 -25.42 3 -38 3 C-38.99 5.97 -39.98 8.94 -41 12 C-41.70918291 13.86190162 -42.43412735 15.71803593 -43.1875 17.5625 C-43.53167969 18.40941406 -43.87585938 19.25632812 -44.23046875 20.12890625 C-44.48441406 20.74636719 -44.73835937 21.36382813 -45 22 C-46 19 -46 19 -39 1 C-26.13 0.67 -13.26 0.34 0 0 Z " fill="#252424" transform="translate(223,500)"/>
<path d="M0 0 C2.60739098 3.91108648 2.27309437 7.19920602 2.24291992 11.73486328 C2.24481827 12.62792679 2.24671661 13.5209903 2.24867249 14.44111633 C2.25238422 17.40093703 2.24166528 20.36051349 2.23046875 23.3203125 C2.22927641 25.37954683 2.2288239 27.4387817 2.2290802 29.49801636 C2.22751432 33.82065218 2.21922055 38.14320531 2.20581055 42.46582031 C2.18888452 47.99029347 2.18499443 53.51467517 2.18575573 59.03917122 C2.18548281 63.29612085 2.17998106 67.55305072 2.17275429 71.80999374 C2.16958404 73.84562913 2.16760408 75.88126674 2.16686058 77.91690445 C2.16467587 80.77423091 2.15588433 83.63146349 2.14526367 86.48876953 C2.14594345 87.73759163 2.14594345 87.73759163 2.14663696 89.01164246 C2.07259058 102.73679916 2.07259058 102.73679916 -0.20703125 107.546875 C-2.74126505 109.60076383 -4.47247519 109.40129528 -7.6875 109.25 C-8.68136719 109.21390625 -9.67523438 109.1778125 -10.69921875 109.140625 C-11.45847656 109.09421875 -12.21773438 109.0478125 -13 109 C-13 111.31 -13 113.62 -13 116 C-0.79 116 11.42 116 24 116 C24 113.69 24 111.38 24 109 C22.96939453 109.05220703 22.96939453 109.05220703 21.91796875 109.10546875 C21.01691406 109.13253906 20.11585938 109.15960937 19.1875 109.1875 C17.84751953 109.23970703 17.84751953 109.23970703 16.48046875 109.29296875 C14 109 14 109 12.38755798 107.86233521 C7.12159591 100.79453215 9.87240134 83.2345459 9.90234375 74.4453125 C9.90421435 72.806224 9.90563521 71.16713492 9.90663147 69.52804565 C9.91040614 65.26371654 9.92019177 60.99942279 9.93133545 56.73510742 C9.94165966 52.36377439 9.94615241 47.99243552 9.95117188 43.62109375 C9.96181984 35.08071314 9.97883364 26.540361 10 18 C10.66 18 11.32 18 12 18 C13.24284081 21.8333084 13.12636964 25.64469866 13.09765625 29.62670898 C13.09619598 30.3897937 13.09473572 31.15287842 13.0932312 31.93908691 C13.08943131 33.59292182 13.08332117 35.24675267 13.07516479 36.90057182 C13.06238697 39.51925851 13.05588179 42.13789446 13.05102539 44.75660706 C13.0376621 51.26057551 13.01346235 57.76449567 12.98962402 64.26843262 C12.96988626 69.7652821 12.95424794 75.26211361 12.94406128 80.75898933 C12.93758698 83.33646498 12.92507843 85.91386649 12.91235352 88.49131775 C12.90871998 90.07551001 12.90536837 91.65970295 12.90234375 93.24389648 C12.89717743 93.95834427 12.89201111 94.67279205 12.88668823 95.40888977 C12.88629027 99.16748503 13.25267241 102.26336207 14 106 C17.96 106.66 21.92 107.32 26 108 C26 111.3 26 114.6 26 118 C12.8 118 -0.4 118 -14 118 C-14 114.7 -14 111.4 -14 108 C-11.4609375 107.77213542 -8.921875 107.54427083 -6.3828125 107.31640625 C-3.98889139 107.13010715 -3.98889139 107.13010715 -2 106 C-1.03957269 103.20446531 -0.86711918 100.58582523 -0.84178162 97.64666748 C-0.8319928 96.78292511 -0.82220398 95.91918274 -0.81211853 95.02926636 C-0.80636307 94.08987213 -0.8006076 93.15047791 -0.79467773 92.18261719 C-0.78477814 91.18716888 -0.77487854 90.19172058 -0.76467896 89.16610718 C-0.73309605 85.8763873 -0.70831911 82.58665298 -0.68359375 79.296875 C-0.66302146 77.01572291 -0.64202491 74.73457461 -0.62062073 72.45343018 C-0.5654285 66.44965687 -0.5160066 60.44584932 -0.46777344 54.4420166 C-0.41753766 48.31548007 -0.36186242 42.18899326 -0.30664062 36.0625 C-0.19909387 24.04170914 -0.09764111 12.02087511 0 0 Z " fill="#242222" transform="translate(372,513)"/>
<path d="M0 0 C13.53 0 27.06 0 41 0 C43.50119474 5.62768818 45.79276946 10.9064209 47.75 16.6875 C48.17796875 17.92886719 48.6059375 19.17023437 49.046875 20.44921875 C49.95311197 23.82532286 50.19197864 26.52838617 50 30 C46.09971775 32.60018816 42.52565431 32.15085514 38 32 C38 34.31 38 36.62 38 39 C54.17 39 70.34 39 87 39 C87 36.69 87 34.38 87 32 C85.700625 31.87625 84.40125 31.7525 83.0625 31.625 C80.84765625 31.4140625 80.84765625 31.4140625 79 31 C78.505 30.01 78.505 30.01 78 29 C79.45880109 29.14107747 80.91703551 29.28802415 82.375 29.4375 C83.59316406 29.55931641 83.59316406 29.55931641 84.8359375 29.68359375 C87 30 87 30 89 31 C89 34.3 89 37.6 89 41 C71.51 41 54.02 41 36 41 C36 37.7 36 34.4 36 31 C39.96 30.34 43.92 29.68 48 29 C46.74522056 22.49796107 44.87183265 16.37675863 42.67700195 10.14233398 C41.6859986 7.28482375 41 5.05008171 41 2 C27.47 2 13.94 2 0 2 C-0.66 4.97 -1.32 7.94 -2 11 C-2.50486717 12.87936199 -3.02304677 14.75527206 -3.5625 16.625 C-4.71331883 20.7574858 -5.52661097 24.73949874 -6 29 C-4.82630859 29.09087891 -4.82630859 29.09087891 -3.62890625 29.18359375 C-2.61699219 29.26738281 -1.60507812 29.35117187 -0.5625 29.4375 C0.95150391 29.55931641 0.95150391 29.55931641 2.49609375 29.68359375 C5 30 5 30 6 31 C6 34.3 6 37.6 6 41 C-6.54 41 -19.08 41 -32 41 C-32 37.7 -32 34.4 -32 31 C-28.7 30.34 -25.4 29.68 -22 29 C-21.62875 27.824375 -21.2575 26.64875 -20.875 25.4375 C-18.57445174 18.50251395 -15.75380261 11.76419476 -13 5 C-11.82124267 8.40267305 -12.15136556 10.15803988 -13.546875 13.44140625 C-14.0728125 14.68760742 -14.0728125 14.68760742 -14.609375 15.95898438 C-14.98578125 16.81814453 -15.3621875 17.67730469 -15.75 18.5625 C-16.1109375 19.42552734 -16.471875 20.28855469 -16.84375 21.17773438 C-19.95586452 28.43369703 -19.95586452 28.43369703 -23 31 C-25.67318858 31.66957496 -28.23825037 31.77362708 -31 32 C-31 34.31 -31 36.62 -31 39 C-19.12 39 -7.24 39 5 39 C5 36.69 5 34.38 5 32 C4.22914063 31.95101562 3.45828125 31.90203125 2.6640625 31.8515625 C1.66117187 31.77679687 0.65828125 31.70203125 -0.375 31.625 C-1.87160156 31.52058594 -1.87160156 31.52058594 -3.3984375 31.4140625 C-6 31 -6 31 -8 29 C-7.83128214 19.21436412 -4.3488339 8.69766781 0 0 Z " fill="#242323" transform="translate(264,590)"/>
<path d="M0 0 C13.53 0 27.06 0 41 0 C41 2.97 41 5.94 41 9 C36.71 9.66 32.42 10.32 28 11 C27.84106785 21.86994429 27.68639978 32.73994022 27.53643799 43.61001205 C27.51223022 45.36390167 27.48793882 47.11779013 27.46356201 48.8716774 C27.1386295 72.28917452 26.87188328 95.69985505 27.03710938 119.12011719 C27.04345398 120.35641624 27.04345398 120.35641624 27.04992676 121.61769104 C27.05801834 123.11815966 27.07029555 124.6186146 27.08776855 126.1190033 C27.09608593 127.74624396 27.05390236 129.37363107 27 131 C26.67 131.33 26.34 131.66 26 132 C24.24731943 131.96177039 22.49610679 131.84390261 20.75 131.6875 C19.79609375 131.60886719 18.8421875 131.53023437 17.859375 131.44921875 C11.34132528 130.42520821 8.85576697 128.06757945 5 123 C5.495 122.01 5.495 122.01 6 121 C7.0828125 122.6396875 7.0828125 122.6396875 8.1875 124.3125 C11.28450982 128.02210516 14.05835314 128.78163741 18.73828125 129.73046875 C19.91044189 129.97563232 21.08260254 130.2207959 22.2902832 130.47338867 C23.18448975 130.64717041 24.07869629 130.82095215 25 131 C24.99815641 130.41285154 24.99631283 129.82570309 24.99441338 129.22076225 C24.95021318 114.92334344 24.91713313 100.62593072 24.89637566 86.32845879 C24.88607026 79.41426004 24.87202405 72.50010694 24.84912109 65.5859375 C24.82703114 58.91401669 24.81543254 52.24215312 24.81024551 45.57019424 C24.80654874 43.02409239 24.79932996 40.47799314 24.78853989 37.93191147 C24.77403288 34.36714812 24.77202176 30.80258106 24.77294922 27.23779297 C24.76575867 26.18402969 24.75856812 25.13026642 24.75115967 24.04457092 C24.76538155 18.99650606 24.86345134 14.68342548 27 10 C30.40955768 7.11498966 34.77016783 7.85900559 39 8 C39 6.02 39 4.04 39 2 C26.79 2 14.58 2 2 2 C2 3.98 2 5.96 2 8 C3.0725 7.95875 4.145 7.9175 5.25 7.875 C8.65747485 7.9885825 10.20739631 8.21273364 13 10 C11.7625 10.020625 10.525 10.04125 9.25 10.0625 C8.55390625 10.07410156 7.8578125 10.08570313 7.140625 10.09765625 C5 10 5 10 1 9 C0.67 6.03 0.34 3.06 0 0 Z " fill="#242222" transform="translate(444,501)"/>
<path d="M0 0 C1.00305176 0.00012085 1.00305176 0.00012085 2.02636719 0.00024414 C4.04123712 -0.00192187 6.05554107 -0.02001321 8.0703125 -0.0390625 C9.35164062 -0.04099609 10.63296875 -0.04292969 11.953125 -0.04492188 C13.71100342 -0.05108521 13.71100342 -0.05108521 15.50439453 -0.05737305 C19.29531848 0.21025639 22.33968213 1.02534204 25.9453125 2.18554688 C22.26743132 3.41150727 21.16081637 3.02864765 16.9453125 2.18554688 C8.3653125 2.18554688 -0.2146875 2.18554688 -9.0546875 2.18554688 C-9.0546875 36.50554688 -9.0546875 70.82554687 -9.0546875 106.18554688 C12.35214092 106.79349745 12.35214092 106.79349745 30.9453125 100.18554688 C31.9353125 100.18554688 32.9253125 100.18554688 33.9453125 100.18554688 C26.88234336 106.58636265 18.53678297 108.30738055 9.1796875 108.31835938 C8.12523437 108.31964844 7.07078125 108.3209375 5.984375 108.32226562 C4.35628906 108.31646484 4.35628906 108.31646484 2.6953125 108.31054688 C1.59445312 108.31441406 0.49359375 108.31828125 -0.640625 108.32226562 C-1.68992187 108.32097656 -2.73921875 108.3196875 -3.8203125 108.31835938 C-4.77711914 108.31723145 -5.73392578 108.31610352 -6.71972656 108.31494141 C-9.0546875 108.18554688 -9.0546875 108.18554688 -11.0546875 107.18554688 C-11.07801808 93.382138 -11.09560104 79.57873218 -11.10649967 65.77530766 C-11.11172916 59.36655559 -11.118828 52.95781673 -11.13012695 46.54907227 C-11.14095349 40.36995246 -11.14696384 34.19084539 -11.14956474 28.01171684 C-11.15141942 25.64849077 -11.15504082 23.28526544 -11.16041756 20.92204475 C-11.16762488 17.62452791 -11.16867857 14.3270644 -11.16821289 11.02954102 C-11.17180817 10.04195801 -11.17540344 9.054375 -11.17910767 8.03686523 C-11.177733 7.14359024 -11.17635834 6.25031525 -11.17494202 5.32997131 C-11.17586381 4.54921266 -11.1767856 3.768454 -11.17773533 2.96403599 C-10.84143794 -1.89668569 -3.59274037 0.0163637 0 0 Z " fill="#272626" transform="translate(794.0546875,511.814453125)"/>
<path d="M0 0 C2.29247133 2.81315755 3.64768323 5.31879288 4.796875 8.75390625 C5.11269531 9.68243408 5.42851562 10.61096191 5.75390625 11.56762695 C6.08261719 12.55593506 6.41132813 13.54424316 6.75 14.5625 C7.45151532 16.63075501 8.15466895 18.69845498 8.859375 20.765625 C9.21322266 21.80525391 9.56707031 22.84488281 9.93164062 23.91601562 C11.82853727 29.39170082 13.86529938 34.81533151 15.91699219 40.23461914 C18 45.79195212 18 45.79195212 18 48 C6.45 48 -5.1 48 -17 48 C-13.62382075 36.74606918 -13.62382075 36.74606918 -12.1328125 32.484375 C-11.80676025 31.54932129 -11.48070801 30.61426758 -11.14477539 29.65087891 C-10.80824951 28.69358887 -10.47172363 27.73629883 -10.125 26.75 C-9.77493896 25.7501709 -9.42487793 24.7503418 -9.06420898 23.72021484 C-8.3670653 21.73135686 -7.66877486 19.74290041 -6.96923828 17.75488281 C-6.11054621 15.31420743 -5.25593922 12.87214829 -4.40234375 10.4296875 C-3.9561342 9.16131577 -3.50955551 7.89307381 -3.0625 6.625 C-2.68222656 5.54476562 -2.30195313 4.46453125 -1.91015625 3.3515625 C-1 1 -1 1 0 0 Z M0 3 C-2.13843426 8.96234666 -4.27442725 14.92556366 -6.40869141 20.8894043 C-7.13566232 22.91988124 -7.86320056 24.95015515 -8.59130859 26.98022461 C-9.63526775 29.89123725 -10.67721212 32.80296406 -11.71875 35.71484375 C-12.04685669 36.6283812 -12.37496338 37.54191864 -12.7130127 38.48313904 C-13.01332397 39.32393509 -13.31363525 40.16473114 -13.62304688 41.03100586 C-13.88952026 41.77491074 -14.15599365 42.51881561 -14.43054199 43.28526306 C-15.05252851 44.8570355 -15.05252851 44.8570355 -15 46 C-4.77 46 5.46 46 16 46 C11.24338327 31.56325097 6.36626025 17.22058967 1 3 C0.67 3 0.34 3 0 3 Z " fill="#242222" transform="translate(284,533)"/>
<path d="M0 0 C0.66 0 1.32 0 2 0 C3.24259915 3.72779745 3.37049015 7.31103493 3.55859375 11.203125 C3.60084579 12.06834778 3.64309784 12.93357056 3.68663025 13.82501221 C4.24114254 26.75801367 4.11082333 39.70858763 4.06866455 52.65057373 C4.05824814 56.1980325 4.0538286 59.74549894 4.04882812 63.29296875 C4.0382531 70.19533058 4.02129397 77.09766309 4 84 C0.67364118 82.47427344 -0.95563002 81.06655496 -3 78 C-2.505 77.01 -2.505 77.01 -2 76 C-1.01 76.99 -0.02 77.98 1 79 C1.02324682 70.02857424 1.0409777 61.05715897 1.05181217 52.08570957 C1.05701412 47.91918938 1.06406255 43.75268991 1.07543945 39.58618164 C1.08636436 35.55966426 1.09229706 31.53316673 1.09487724 27.50663567 C1.09671427 25.97618231 1.1003013 24.44572994 1.10573006 22.91528511 C1.13194524 15.21331345 1.08182588 7.64016131 0 0 Z " fill="#1F1D1D" transform="translate(457,511)"/>
</svg>
