<?xml version="1.0" encoding="UTF-8"?>
<svg version="1.1" xmlns="http://www.w3.org/2000/svg" width="625" height="625">
<path d="M0 0 C206.25 0 412.5 0 625 0 C625 51.81 625 103.62 625 157 C418.75 157 212.5 157 0 157 C0 105.19 0 53.38 0 0 Z " fill="#0D0D0E" transform="translate(0,234)"/>
<path d="M0 0 C5.28 0 10.56 0 16 0 C22.92618251 6.92618251 24.13318888 12.33806877 24.375 22 C24.27599617 27.35203037 23.50101729 31.83516899 21.55859375 36.81640625 C20.85541837 39.56518272 21.19784888 41.29547956 22 44 C22.66 44.99 23.32 45.98 24 47 C26.15215245 58.10346167 27.23061053 73.57287054 21 83.5 C19 86 19 86 17 87 C11.39 87 5.78 87 0 87 C0 58.29 0 29.58 0 0 Z " fill="#EAE9E9" transform="translate(291,288)"/>
<path d="M0 0 C1.32 0 2.64 0 4 0 C3.2800949 6.8390984 2.36592549 13.63287025 1.375 20.4375 C-0.70756259 34.86929335 -2.73101035 49.30919243 -4.75 63.75 C-4.91042786 64.89709442 -5.07085571 66.04418884 -5.23614502 67.2260437 C-6.15795386 73.81728931 -7.07927964 80.40860226 -8 87 C-9.65614657 87.38218767 -11.32457024 87.71395102 -13 88 C-14.84069675 86.15930325 -14.58877955 83.20294846 -14.90234375 80.71875 C-14.98438049 80.07739105 -15.06641724 79.4360321 -15.15093994 78.77523804 C-15.41727977 76.68399467 -15.67744747 74.59203368 -15.9375 72.5 C-16.11792988 71.07434154 -16.29867529 69.64872297 -16.47973633 68.22314453 C-17.57976881 59.52789881 -18.636585 50.82808626 -19.60546875 42.1171875 C-19.94397697 39.09769782 -19.94397697 39.09769782 -20.51953125 36.546875 C-21.39922067 31.88380586 -21.45849291 27.12953965 -21.71875 22.3984375 C-21.86374331 19.0139265 -21.86374331 19.0139265 -23 16 C-24.4785375 22.26019067 -25.53848909 28.43070412 -26.3125 34.8125 C-27.57105824 44.7971185 -28.90701801 54.76960478 -30.28646851 64.73812866 C-30.51154227 66.36660115 -30.73568888 67.99520206 -30.95889282 69.62393188 C-31.27508807 71.93058666 -31.59417798 74.23682307 -31.9140625 76.54296875 C-32.0087532 77.23683685 -32.10344391 77.93070496 -32.20100403 78.64559937 C-32.64417998 81.81565326 -33.13127305 84.91626472 -34 88 C-35.65 87.67 -37.3 87.34 -39 87 C-40.18100969 80.47931886 -41.14748578 73.96575619 -41.87890625 67.37890625 C-42.63119349 60.79471763 -43.51070365 54.23641484 -44.47265625 47.6796875 C-44.60176392 46.79725876 -44.73087158 45.91483002 -44.8638916 45.00566101 C-45.39549807 41.38385632 -45.92985996 37.76249109 -46.47094727 34.14208984 C-48.11742604 23.09494001 -49.49389784 12.16420706 -50 1 C-48.68 1 -47.36 1 -46 1 C-42.52373651 25.64907673 -39.10512954 50.30111954 -36 75 C-34.82788651 71.48365953 -34.50132903 68.05139389 -34.1328125 64.38671875 C-33.96928841 62.82283004 -33.80571214 61.25894679 -33.64208984 59.69506836 C-33.51553009 58.46770462 -33.51553009 58.46770462 -33.38641357 57.21554565 C-31.44140063 38.40595809 -29.33939934 19.6220622 -26 1 C-24.35 1 -22.7 1 -21 1 C-18.41691856 17.633479 -16.16300499 34.30708716 -14 51 C-13.87705566 51.94262695 -13.75411133 52.88525391 -13.62744141 53.85644531 C-12.62754015 61.58961286 -11.71593383 69.18818035 -12 77 C-11.34 77 -10.68 77 -10 77 C-10.03013184 75.92959473 -10.06026367 74.85918945 -10.09130859 73.75634766 C-10.08679674 68.07654554 -9.29219075 62.51949831 -8.5390625 56.8984375 C-8.31311905 55.16734238 -8.31311905 55.16734238 -8.08261108 53.40127563 C-7.60152905 49.72520329 -7.11327937 46.0501225 -6.625 42.375 C-6.30423588 39.92844459 -5.98391912 37.48183047 -5.6640625 35.03515625 C-4.91602625 29.32761938 -4.15813258 23.62147992 -3.39172363 17.91638184 C-3.14756158 16.09859577 -2.90445576 14.28066713 -2.66296387 12.46252441 C-2.39170502 10.42494426 -2.11420024 8.38819798 -1.8359375 6.3515625 C-1.62396729 4.79042725 -1.62396729 4.79042725 -1.40771484 3.19775391 C-1 1 -1 1 0 0 Z " fill="#E9E8E7" transform="translate(98,287)"/>
<path d="M0 0 C4.77541648 3.25049357 7.7408776 7.56128827 8.859375 13.265625 C9.15904728 19.45501012 7.6325109 23.848984 3.65625 28.6015625 C-0.9961615 32.91010011 -6.77963192 33.85194715 -12.96875 33.6171875 C-17.81391211 32.83289867 -21.08994183 30.37310186 -24.453125 26.828125 C-27.79120632 21.7591867 -28.88487198 17.35164465 -28.140625 11.265625 C-25.99326011 4.94984591 -21.36246362 1.03763624 -15.640625 -2.109375 C-9.69522212 -3.59572572 -5.27663861 -2.90419644 0 0 Z " fill="#0D0D0D" transform="translate(609.140625,253.734375)"/>
<path d="M0 0 C0.71929687 -0.00563965 1.43859375 -0.0112793 2.1796875 -0.01708984 C2.96859375 -0.02353516 3.7575 -0.02998047 4.5703125 -0.03662109 C5.39015625 -0.01728516 6.21 0.00205078 7.0546875 0.02197266 C8.28445312 -0.00703125 8.28445312 -0.00703125 9.5390625 -0.03662109 C15.34254608 0.01079299 15.34254608 0.01079299 18.10546875 2.47900391 C19.55183352 7.30617193 19.36711012 11.95295856 19.2421875 16.95947266 C19.22188477 18.49958008 19.22188477 18.49958008 19.20117188 20.07080078 C19.16592633 22.59673175 19.1166545 25.12157926 19.0546875 27.64697266 C17.7346875 27.64697266 16.4146875 27.64697266 15.0546875 27.64697266 C15.0546875 20.38697266 15.0546875 13.12697266 15.0546875 5.64697266 C10.1046875 5.64697266 5.1546875 5.64697266 0.0546875 5.64697266 C0.0546875 17.19697266 0.0546875 28.74697266 0.0546875 40.64697266 C5.6646875 40.64697266 11.2746875 40.64697266 17.0546875 40.64697266 C19.57132988 44.42193622 19.36061269 47.44855369 19.35546875 51.82275391 C19.35975388 52.62553268 19.364039 53.42831146 19.36845398 54.25541687 C19.37419574 55.95420388 19.37469867 57.65301547 19.37036133 59.35180664 C19.36721174 61.93956002 19.39062514 64.52615837 19.41601562 67.11376953 C19.41828981 68.76676289 19.41899156 70.4197593 19.41796875 72.07275391 C19.4271785 72.84170486 19.43638824 73.61065582 19.44587708 74.40290833 C19.40347685 79.37641692 18.7774295 83.92423066 15.0546875 87.64697266 C12.24581187 87.85394244 9.49181184 87.97142794 6.6796875 88.02197266 C5.50792969 88.07804687 5.50792969 88.07804687 4.3125 88.13525391 C-1.30372508 88.22180532 -1.30372508 88.22180532 -3.97265625 85.83056641 C-5.44915852 80.99783809 -5.2580569 76.35388279 -5.1328125 71.33447266 C-5.11927734 70.30773437 -5.10574219 69.28099609 -5.09179688 68.22314453 C-5.05655133 65.69721357 -5.0072795 63.17236606 -4.9453125 60.64697266 C-3.9553125 60.64697266 -2.9653125 60.64697266 -1.9453125 60.64697266 C-1.89632812 61.72076172 -1.84734375 62.79455078 -1.796875 63.90087891 C-1.72177852 65.33709907 -1.64623374 66.77329585 -1.5703125 68.20947266 C-1.539375 68.91394531 -1.5084375 69.61841797 -1.4765625 70.34423828 C-1.21578692 75.05993007 -0.39873127 79.15082761 1.0546875 83.64697266 C2.4917684 83.70120212 3.92944212 83.73986989 5.3671875 83.77197266 C6.16769531 83.79517578 6.96820313 83.81837891 7.79296875 83.84228516 C10.33857326 83.80514588 10.33857326 83.80514588 13.0546875 81.64697266 C13.3214491 78.88068351 13.40272939 76.34077634 13.34765625 73.57666016 C13.34128899 72.38231857 13.34128899 72.38231857 13.33479309 71.16384888 C13.31797584 68.61621537 13.28031929 66.06936777 13.2421875 63.52197266 C13.22714455 61.79672365 13.21345546 60.07146227 13.20117188 58.34619141 C13.16806251 54.11281484 13.11626035 49.88002707 13.0546875 45.64697266 C12.00667969 45.60958984 10.95867187 45.57220703 9.87890625 45.53369141 C8.49996445 45.46802751 7.12105979 45.40158031 5.7421875 45.33447266 C5.05189453 45.31191406 4.36160156 45.28935547 3.65039062 45.26611328 C0.88352442 45.11908174 -1.43419508 44.91969623 -3.90087891 43.60351562 C-5.5918676 40.43577758 -5.37187952 37.15800605 -5.34375 33.65478516 C-5.34662018 32.87183075 -5.34949036 32.08887634 -5.35244751 31.28219604 C-5.35448817 29.62627438 -5.34895812 27.97032862 -5.33642578 26.31445312 C-5.32041421 23.78802059 -5.3362511 21.26319821 -5.35546875 18.73681641 C-5.35348547 17.12613581 -5.34964005 15.51545621 -5.34375 13.90478516 C-5.34982269 13.15254669 -5.35589539 12.40030823 -5.3621521 11.62527466 C-5.2995909 6.92359091 -5.09461571 1.69436893 0 0 Z " fill="#E7E7E6" transform="translate(168.9453125,287.35302734375)"/>
<path d="M0 0 C1.32 0 2.64 0 4 0 C4.00808685 0.9683075 4.01617371 1.93661499 4.02450562 2.93426514 C4.10197136 12.05714562 4.18971177 21.17987705 4.28752708 30.30256271 C4.33748498 34.99269398 4.38381511 39.68280277 4.421875 44.37304688 C4.45873415 48.89891243 4.50509589 53.42458979 4.55806351 57.95029449 C4.57660409 59.6774287 4.59171331 61.40460324 4.60334396 63.13179779 C4.62021218 65.54997554 4.64924834 67.96772258 4.68115234 70.38574219 C4.68331253 71.10071869 4.68547272 71.81569519 4.68769836 72.55233765 C4.74863792 76.16500605 4.89985556 78.98471433 7 82 C9.98594424 83.49297212 12.70853624 83.11755228 16 83 C16.99 82.505 16.99 82.505 18 82 C19.19339914 78.41980259 19.17584342 75.13580968 19.20532227 71.4074707 C19.22017166 70.25101547 19.22017166 70.25101547 19.23532104 69.07119751 C19.26690956 66.52275667 19.291683 63.97429718 19.31640625 61.42578125 C19.33697806 59.6588645 19.3579746 57.89195264 19.37937927 56.12504578 C19.43457645 51.47427333 19.48399612 46.82345664 19.53222656 42.17260742 C19.58245876 37.42688051 19.63813586 32.68121786 19.69335938 27.93554688 C19.80091216 18.62375281 19.90236356 9.31190295 20 0 C21.32 0 22.64 0 24 0 C24.11587092 10.60500092 24.2047038 21.20985115 24.25906086 31.81535625 C24.28515024 36.74000603 24.32053629 41.6642226 24.37719727 46.58862305 C24.43154052 51.34135505 24.4614255 56.0936705 24.47438622 60.84668922 C24.48362195 62.65962087 24.50165752 64.47252982 24.52865028 66.28528404 C24.56497241 68.82569946 24.56994419 71.36439582 24.56762695 73.9050293 C24.58560333 74.65381348 24.60357971 75.40259766 24.62210083 76.17407227 C24.5834896 80.08857206 24.12321453 81.84140175 21.69352722 84.96882629 C18.11201901 87.66962146 15.81730464 87.60514331 11.375 87.5 C9.40660156 87.48453125 9.40660156 87.48453125 7.3984375 87.46875 C4 87 4 87 2.1015625 85.65625 C-0.49078204 81.75854049 -0.13511386 77.70711338 -0.11352539 73.22387695 C-0.11367142 72.43339966 -0.11381744 71.64292236 -0.1139679 70.82849121 C-0.11327109 68.21506 -0.10548955 65.60170001 -0.09765625 62.98828125 C-0.09579124 61.17652933 -0.09436773 59.3647769 -0.09336853 57.55302429 C-0.08954985 52.78382984 -0.07972508 48.01466582 -0.06866455 43.2454834 C-0.05843649 38.37915458 -0.05386792 33.51282084 -0.04882812 28.64648438 C-0.03810226 19.09764287 -0.0210336 9.54882397 0 0 Z " fill="#EFEEEE" transform="translate(446,288)"/>
<path d="M0 0 C0.78117187 -0.020625 1.56234375 -0.04125 2.3671875 -0.0625 C8.10653839 -0.10181062 8.10653839 -0.10181062 10.35522461 1.42407227 C12.11778862 3.95862644 11.96667307 5.72459645 11.91796875 8.79296875 C11.90830078 9.86611328 11.89863281 10.93925781 11.88867188 12.04492188 C11.86353516 13.16447266 11.83839844 14.28402344 11.8125 15.4375 C11.79219727 17.13422852 11.79219727 17.13422852 11.77148438 18.86523438 C11.73609958 21.66063317 11.68672948 24.45507892 11.625 27.25 C10.635 27.25 9.645 27.25 8.625 27.25 C8.625 19.99 8.625 12.73 8.625 5.25 C3.675 5.25 -1.275 5.25 -6.375 5.25 C-6.375 16.47 -6.375 27.69 -6.375 39.25 C-1.095 39.58 4.185 39.91 9.625 40.25 C12.26771382 42.89271382 11.88483316 44.84939213 11.92854309 48.44697571 C11.92763168 49.29591904 11.92672028 50.14486237 11.92578125 51.01953125 C11.93006638 51.89268478 11.9343515 52.76583832 11.93876648 53.66545105 C11.94451618 55.51564669 11.94500535 57.36586495 11.94067383 59.21606445 C11.93752406 62.04092326 11.960929 64.86472469 11.98632812 67.68945312 C11.98860214 69.48697785 11.98930414 71.28450538 11.98828125 73.08203125 C11.997491 73.92490189 12.00670074 74.76777252 12.01618958 75.63618469 C11.97993412 80.25774375 11.80518544 83.60466389 8.625 87.25 C5.57908321 87.80017064 3.22527201 87.99616394 0.1875 87.9375 C-0.57626953 87.96521484 -1.34003906 87.99292969 -2.12695312 88.02148438 C-6.20901228 88.00372085 -7.83747349 87.75419153 -10.89453125 84.88671875 C-12.91063127 79.93424087 -12.81125667 75.6618239 -12.625 70.375 C-12.60695313 69.40046875 -12.58890625 68.4259375 -12.5703125 67.421875 C-12.52341734 65.03022193 -12.45780907 62.64063403 -12.375 60.25 C-11.055 60.25 -9.735 60.25 -8.375 60.25 C-8.36041748 60.84014893 -8.34583496 61.43029785 -8.33081055 62.03833008 C-8.25631156 64.71371229 -8.15966005 67.38784892 -8.0625 70.0625 C-8.03994141 70.99126953 -8.01738281 71.92003906 -7.99414062 72.87695312 C-7.95869141 73.76962891 -7.92324219 74.66230469 -7.88671875 75.58203125 C-7.84744263 76.81530151 -7.84744263 76.81530151 -7.80737305 78.07348633 C-7.28391645 80.70850359 -6.4746762 81.62064611 -4.375 83.25 C-2.43042688 83.7214296 -2.43042688 83.7214296 -0.375 83.625 C0.305625 83.63273437 0.98625 83.64046875 1.6875 83.6484375 C4.3444947 83.1020394 5.03866946 82.47330199 6.625 80.25 C6.88654123 77.59165372 6.97439122 75.17314896 6.91796875 72.51953125 C6.91160149 71.39390022 6.91160149 71.39390022 6.90510559 70.24552917 C6.8883245 67.85081974 6.8506749 65.45695466 6.8125 63.0625 C6.79745235 61.4381632 6.78376409 59.8138132 6.77148438 58.18945312 C6.73842305 54.20931052 6.68664594 50.22979837 6.625 46.25 C2.8368245 44.35591225 -1.91047123 45.00831497 -6.08984375 44.921875 C-9.375 44.25 -9.375 44.25 -11.05541992 42.1628418 C-12.68067245 38.57525845 -12.76300612 35.90702669 -12.7734375 31.97265625 C-12.77774277 30.93920326 -12.77774277 30.93920326 -12.78213501 29.88487244 C-12.78416863 28.43341242 -12.77868795 26.98192455 -12.76611328 25.53051758 C-12.75007227 23.32244812 -12.76597111 21.11621553 -12.78515625 18.90820312 C-12.78317321 17.4921835 -12.77932828 16.07616501 -12.7734375 14.66015625 C-12.77005371 13.38277588 -12.76666992 12.10539551 -12.76318359 10.78930664 C-11.72420783 1.31633074 -8.56162282 0.05595832 0 0 Z " fill="#EBEBEA" transform="translate(18.375,287.75)"/>
<path d="M0 0 C0.79341797 -0.00064453 1.58683594 -0.00128906 2.40429688 -0.00195312 C3.22865234 0.01802734 4.05300781 0.03800781 4.90234375 0.05859375 C5.73056641 0.05150391 6.55878906 0.04441406 7.41210938 0.03710938 C11.97797549 0.08540576 11.97797549 0.08540576 13.83984375 0.49609375 C16.10582823 3.89507048 16.07727029 5.05928548 16.03515625 9.0390625 C16.02871094 10.11220703 16.02226562 11.18535156 16.015625 12.29101562 C15.99886719 13.41056641 15.98210937 14.53011719 15.96484375 15.68359375 C15.95582031 16.81474609 15.94679687 17.94589844 15.9375 19.11132812 C15.91391237 21.90646203 15.88099675 24.7011722 15.83984375 27.49609375 C14.84984375 27.49609375 13.85984375 27.49609375 12.83984375 27.49609375 C12.83984375 20.23609375 12.83984375 12.97609375 12.83984375 5.49609375 C7.88984375 5.49609375 2.93984375 5.49609375 -2.16015625 5.49609375 C-2.16015625 16.71609375 -2.16015625 27.93609375 -2.16015625 39.49609375 C3.38926725 39.78528634 3.38926725 39.78528634 8.93920898 40.06420898 C14.72873264 40.38498264 14.72873264 40.38498264 15.83984375 41.49609375 C15.97833195 44.55181206 16.05305861 47.5832598 16.078125 50.640625 C16.08619675 51.56195724 16.09426849 52.48328949 16.10258484 53.43254089 C16.11644342 55.38705554 16.1271576 57.34159457 16.13500977 59.29614258 C16.15221251 62.28578639 16.19608109 65.27432178 16.24023438 68.26367188 C16.25036171 70.1601481 16.25887769 72.05663374 16.265625 73.953125 C16.28313309 74.84804153 16.30064117 75.74295807 16.31867981 76.66499329 C16.29710046 82.84132858 16.29710046 82.84132858 14.04980469 86.05932617 C10.76079586 88.19761792 7.56801542 88.07798045 3.77734375 87.99609375 C3.05740234 88.0115625 2.33746094 88.02703125 1.59570312 88.04296875 C-3.64754424 88.00402169 -3.64754424 88.00402169 -5.87011719 85.80175781 C-7.43588105 83.00329569 -7.50633864 81.2670372 -7.453125 78.07421875 C-7.44345703 77.04941406 -7.43378906 76.02460938 -7.42382812 74.96875 C-7.39869141 73.90527344 -7.37355469 72.84179688 -7.34765625 71.74609375 C-7.33412109 70.66714844 -7.32058594 69.58820313 -7.30664062 68.4765625 C-7.27132209 65.81589955 -7.22199824 63.15625079 -7.16015625 60.49609375 C-6.17015625 60.49609375 -5.18015625 60.49609375 -4.16015625 60.49609375 C-4.1351001 61.09147949 -4.11004395 61.68686523 -4.08422852 62.30029297 C-3.96838131 64.99078511 -3.84560429 67.68091715 -3.72265625 70.37109375 C-3.68333984 71.30824219 -3.64402344 72.24539063 -3.60351562 73.2109375 C-3.56162109 74.10683594 -3.51972656 75.00273437 -3.4765625 75.92578125 C-3.43990479 76.75319824 -3.40324707 77.58061523 -3.36547852 78.43310547 C-3.27777298 80.55788804 -3.27777298 80.55788804 -2.16015625 82.49609375 C1.79984375 82.49609375 5.75984375 82.49609375 9.83984375 82.49609375 C11.36765949 79.44046228 10.98194629 76.24985493 10.97265625 72.8984375 C10.97361298 72.14897354 10.9745697 71.39950958 10.97555542 70.62733459 C10.97623616 69.04281531 10.97438926 67.45829323 10.97021484 65.8737793 C10.96485758 63.4398782 10.97016722 61.00616102 10.9765625 58.57226562 C10.97590185 57.03515584 10.97462095 55.49804617 10.97265625 53.9609375 C10.97468048 53.2286644 10.97670471 52.4963913 10.97879028 51.7419281 C11.26803801 48.33145132 11.26803801 48.33145132 9.83984375 45.49609375 C6.65864943 45.29327853 3.48515148 45.14924474 0.29882812 45.06640625 C-1.71875 44.97265625 -1.71875 44.97265625 -5.16015625 44.49609375 C-7.68718587 40.70554932 -7.46606214 37.64306589 -7.4609375 33.25 C-7.46736519 32.03871681 -7.46736519 32.03871681 -7.47392273 30.80296326 C-7.47966324 29.09578387 -7.48016833 27.38858001 -7.47583008 25.68139648 C-7.47267208 23.07167745 -7.49612476 20.46309433 -7.52148438 17.85351562 C-7.52375763 16.19401185 -7.52446074 14.53450502 -7.5234375 12.875 C-7.53264725 12.09572647 -7.54185699 11.31645294 -7.55134583 10.51356506 C-7.52401886 7.30747323 -7.35806689 4.88678741 -5.89746094 2.00341797 C-3.77727037 0.16389344 -2.78127133 -0.00710217 0 0 Z " fill="#EAEAE9" transform="translate(221.16015625,287.50390625)"/>
<path d="M0 0 C4.29 0 8.58 0 13 0 C18.60726315 5.60726315 18.36436686 11.800188 18.375 19.3125 C18.39949219 20.21162109 18.42398437 21.11074219 18.44921875 22.03710938 C18.47702323 28.44604171 17.27887784 33.45316855 14 39 C13.34 39.66 12.68 40.32 12 41 C8.04 41 4.08 41 0 41 C0 27.47 0 13.94 0 0 Z " fill="#0F0E0F" transform="translate(294,331)"/>
<path d="M0 0 C1.67542976 0.28604898 3.34385343 0.61781233 5 1 C6.83541879 9.96881947 8.30742925 18.91608882 9.4375 28 C10.46198827 36.22337234 11.67251137 44.3928627 13.0625 52.5625 C13.23354248 53.57062744 13.40458496 54.57875488 13.58081055 55.61743164 C13.90751335 57.54216152 14.23425308 59.46688514 14.56103516 61.39160156 C16.00276197 69.95857003 17.30039413 78.28857032 17 87 C15.68 87 14.36 87 13 87 C11.6363243 84.27264861 11.52437463 81.75124167 11.16796875 78.71875 C11.01110596 77.41429932 10.85424316 76.10984863 10.69262695 74.76586914 C10.61033844 74.07042999 10.52804993 73.37499084 10.44326782 72.65847778 C9.11166612 61.42081437 7.62635092 50.23434443 5.8125 39.0625 C4.24990546 29.37218687 3.27326839 19.81033511 3 10 C2.34 10 1.68 10 1 10 C1.04024292 10.99700928 1.04024292 10.99700928 1.08129883 12.01416016 C1.28407879 21.31385267 0.04659665 30.20708165 -1.3125 39.375 C-1.54350964 40.97603083 -1.77364586 42.57718791 -2.00292969 44.1784668 C-2.45568562 47.3357994 -2.91210578 50.49256448 -3.37158203 53.64892578 C-4.20097797 59.36515939 -4.97953783 65.08806159 -5.75 70.8125 C-6.48071074 76.21127118 -7.2224798 81.60775341 -8 87 C-9.32 87 -10.64 87 -12 87 C-11.34743441 79.00332338 -10.39948866 71.07329465 -9.3125 63.125 C-8.95797383 60.50916261 -8.60382227 57.89327628 -8.25 55.27734375 C-8.15419144 54.57094254 -8.05838287 53.86454132 -7.95967102 53.13673401 C-7.240003 47.81741559 -6.53851277 42.49585101 -5.84333801 37.17327881 C-5.3033737 33.03960905 -4.76018161 28.90636571 -4.21688843 24.77313232 C-3.94710699 22.71460078 -3.67873726 20.65588374 -3.41177368 18.59698486 C-3.03491548 15.6930374 -2.65279664 12.78982651 -2.26953125 9.88671875 C-2.15613403 9.00270889 -2.04273682 8.11869904 -1.92590332 7.207901 C-1.11388056 1.11388056 -1.11388056 1.11388056 0 0 Z " fill="#EAE9E9" transform="translate(404,288)"/>
<path d="M0 0 C0.99 0.33 1.98 0.66 3 1 C11.54856774 26.64570323 6.4120755 61.70160961 3 88 C1.68 88 0.36 88 -1 88 C-2.96536952 73.99674214 -3.19873846 60.05145064 -3.1875 45.9375 C-3.1882251 45.05555969 -3.1889502 44.17361938 -3.18969727 43.26495361 C-3.18879248 33.50482546 -3.02780536 23.75570766 -2.61328125 14.00390625 C-2.58316452 13.17277817 -2.55304779 12.34165009 -2.52201843 11.4853363 C-2.31670671 7.25868252 -1.91634037 3.86041149 0 0 Z " fill="#EFEFEE" transform="translate(132,287)"/>
<path d="M0 0 C7.59 0 15.18 0 23 0 C23 1.32 23 2.64 23 4 C16.73 4 10.46 4 4 4 C4 15.88 4 27.76 4 40 C9.94 40 15.88 40 22 40 C22 41.32 22 42.64 22 44 C16.06 44 10.12 44 4 44 C4 56.87 4 69.74 4 83 C10.6 83 17.2 83 24 83 C24 84.32 24 85.64 24 87 C16.08 87 8.16 87 0 87 C0 58.29 0 29.58 0 0 Z " fill="#E7E7E6" transform="translate(342,288)"/>
<path d="M0 0 C10 0 10 0 12.5 1.625 C15.98970233 7.15036202 16.36440647 12.52947436 16.375 18.875 C16.39949219 19.63941406 16.42398437 20.40382813 16.44921875 21.19140625 C16.47753983 26.75177789 15.41406496 31.48592764 12 36 C9 37 9 37 0 37 C0 24.79 0 12.58 0 0 Z " fill="#0A0A0A" transform="translate(295,291)"/>
<path d="M0 0 C1.32 0 2.64 0 4 0 C4.33 12.87 4.66 25.74 5 39 C9.62 39 14.24 39 19 39 C19.33 26.13 19.66 13.26 20 0 C20.99 0 21.98 0 23 0 C23 14.19 23 28.38 23 43 C21 44 21 44 13 44 C13 58.19 13 72.38 13 87 C11.68 87 10.36 87 9 87 C9 72.81 9 58.62 9 44 C6.69 44 4.38 44 2 44 C-0.04514127 40.93228809 -0.24827274 40.34431952 -0.22705078 36.89575195 C-0.22689972 36.07512772 -0.22674866 35.25450348 -0.22659302 34.40901184 C-0.21627045 33.52767075 -0.20594788 32.64632965 -0.1953125 31.73828125 C-0.1924826 30.83248825 -0.18965271 29.92669525 -0.18673706 28.99345398 C-0.17553964 26.09966842 -0.15043589 23.20619206 -0.125 20.3125 C-0.11496963 18.35091593 -0.10584388 16.389327 -0.09765625 14.42773438 C-0.07560173 9.6183704 -0.04107489 4.80923763 0 0 Z " fill="#ECEBEB" transform="translate(546,288)"/>
<path d="M0 0 C7.92 0 15.84 0 24 0 C24 1.32 24 2.64 24 4 C20.7 4 17.4 4 14 4 C14 31.39 14 58.78 14 87 C12.68 87 11.36 87 10 87 C10 59.61 10 32.22 10 4 C6.7 4 3.4 4 0 4 C0 2.68 0 1.36 0 0 Z " fill="#E2E2E1" transform="translate(496,288)"/>
<path d="M0 0 C3.3 0 6.6 0 10 0 C10.33 0.66 10.66 1.32 11 2 C8.69 2 6.38 2 4 2 C4 14.54 4 27.08 4 40 C7.63 40 11.26 40 15 40 C15.99 40.33 16.98 40.66 18 41 C18.33 41.99 18.66 42.98 19 44 C13.65626015 44 8.32799978 43.40984614 3 43 C3 57.19 3 71.38 3 86 C2.01 86 1.02 86 0 86 C0 57.62 0 29.24 0 0 Z M17 38 C17.66 38 18.32 38 19 38 C18.67 38.99 18.34 39.98 18 41 C17.67 40.01 17.34 39.02 17 38 Z " fill="#F0F0EF" transform="translate(291,288)"/>
<path d="M0 0 C4.77541648 3.25049357 7.7408776 7.56128827 8.859375 13.265625 C9.15904728 19.45501012 7.6325109 23.848984 3.65625 28.6015625 C-0.9961615 32.91010011 -6.77963192 33.85194715 -12.96875 33.6171875 C-17.81391211 32.83289867 -21.08994183 30.37310186 -24.453125 26.828125 C-27.79120632 21.7591867 -28.88487198 17.35164465 -28.140625 11.265625 C-25.99326011 4.94984591 -21.36246362 1.03763624 -15.640625 -2.109375 C-9.69522212 -3.59572572 -5.27663861 -2.90419644 0 0 Z M-23.140625 7.265625 C-25.35436981 11.07445867 -25.51544935 13.84269768 -25.140625 18.265625 C-23.628165 23.42578264 -21.6386876 26.52635713 -17.1640625 29.38671875 C-12.11517834 31.57976689 -7.44825072 30.65148177 -2.328125 29.140625 C1.60667865 26.82603462 3.01568466 25.46923898 4.859375 21.265625 C5.57218154 15.84241645 5.85195462 11.06697321 3.171875 6.203125 C-2.24521614 1.66448107 -6.17981913 0.61337092 -13.1875 0.77734375 C-17.72205781 1.52710529 -20.38407402 3.66725307 -23.140625 7.265625 Z " fill="#D3D2D1" transform="translate(609.140625,253.734375)"/>
<path d="M0 0 C0.33 0 0.66 0 1 0 C1.07421905 5.19609458 1.12863446 10.39187983 1.16479492 15.58837891 C1.17987102 17.35568619 1.20033522 19.12295614 1.22631836 20.89013672 C1.26275402 23.43205995 1.27973794 25.97348806 1.29296875 28.515625 C1.30845261 29.30430969 1.32393646 30.09299438 1.33988953 30.90557861 C1.34088211 34.14915076 1.21434282 36.58030862 -0.27416992 39.49487305 C-3.2234315 42.06697626 -6.78396017 41.61523178 -10.5 41.5625 C-11.27214844 41.58634766 -12.04429687 41.61019531 -12.83984375 41.63476562 C-16.2722699 41.62584251 -18.42609147 41.51951487 -21.01953125 39.171875 C-22.51134491 34.34576865 -22.31267935 29.70430313 -22.1875 24.6875 C-22.17396484 23.66076172 -22.16042969 22.63402344 -22.14648438 21.57617188 C-22.11123883 19.05024091 -22.061967 16.5253934 -22 14 C-21.01 14 -20.02 14 -19 14 C-18.95101562 15.07378906 -18.90203125 16.14757812 -18.8515625 17.25390625 C-18.77646602 18.69012642 -18.70092124 20.12632319 -18.625 21.5625 C-18.5940625 22.26697266 -18.563125 22.97144531 -18.53125 23.69726562 C-18.27047442 28.41295741 -17.45341877 32.50385496 -16 37 C-14.5629191 37.05422947 -13.12524538 37.09289723 -11.6875 37.125 C-10.88699219 37.14820313 -10.08648437 37.17140625 -9.26171875 37.1953125 C-6.71611424 37.15817322 -6.71611424 37.15817322 -4 35 C-2.88283257 31.64849772 -2.82550365 28.99992398 -2.75390625 25.46875 C-2.72103516 24.18355469 -2.68816406 22.89835937 -2.65429688 21.57421875 C-2.60683059 19.53341422 -2.5623588 17.49264156 -2.52319336 15.45166016 C-2.48347287 13.47800377 -2.43135762 11.50460909 -2.37890625 9.53125 C-2.3538501 8.35111328 -2.32879395 7.17097656 -2.30297852 5.95507812 C-2 3 -2 3 0 0 Z " fill="#F7F6F6" transform="translate(186,334)"/>
<path d="M0 0 C0.33 0 0.66 0 1 0 C1.33 6.6 1.66 13.2 2 20 C2.66 20.33 3.32 20.66 4 21 C4.495 16.545 4.495 16.545 5 12 C7.1875 12.0625 7.1875 12.0625 10 13 C11.44811519 14.71831744 12.61848332 16.48932839 13.7890625 18.40625 C15.00237373 20.31416029 15.00237373 20.31416029 18 21 C17.67 21.99 17.34 22.98 17 24 C12.85962838 25.52113653 8.32325829 25.74294946 4 25 C-0.33953199 22.86350129 -3.29501499 20.38059565 -5.5 16.0625 C-6.08201413 12.49766343 -6.45843431 9.60198383 -6 6 C-3.5625 3.125 -3.5625 3.125 -1 1 C-0.67 0.67 -0.34 0.34 0 0 Z " fill="#0A0A0B" transform="translate(590,259)"/>
<path d="M0 0 C0.66 0.33 1.32 0.66 2 1 C2.4468842 11.48609866 1.06234738 21.58517659 -0.375 31.9375 C-0.59965515 33.60342181 -0.82361729 35.26943722 -1.046875 36.93554688 C-2.26570825 45.97293743 -3.56955575 54.99346172 -5 64 C-6.32 64 -7.64 64 -9 64 C-8.31669093 55.50120701 -7.27282629 47.07239425 -6.125 38.625 C-5.94864014 37.31821289 -5.77228027 36.01142578 -5.59057617 34.66503906 C-5.06465637 30.77610622 -4.5326671 26.88801455 -4 23 C-3.84708496 21.87754883 -3.69416992 20.75509766 -3.53662109 19.59863281 C-3.13323932 16.64841821 -2.72437124 13.69903994 -2.3125 10.75 C-2.19342285 9.88197754 -2.0743457 9.01395508 -1.95166016 8.11962891 C-1.11659246 2.23318493 -1.11659246 2.23318493 0 0 Z " fill="#EBEAEA" transform="translate(401,311)"/>
<path d="M0 0 C1.7133635 2.94136306 2.21930458 4.6805539 1.71484375 8.04296875 C1.6051123 8.83106934 1.49538086 9.61916992 1.38232422 10.43115234 C1.25615723 11.27887207 1.12999023 12.1265918 1 13 C0.76925023 14.82906541 0.54149581 16.65851066 0.31640625 18.48828125 C0.06659546 20.42987996 -0.18474482 22.3712824 -0.4375 24.3125 C-0.56874268 25.32127197 -0.69998535 26.33004395 -0.83520508 27.36938477 C-1.74517595 34.27458883 -2.74739469 41.14751214 -4 48 C-5.485 48.495 -5.485 48.495 -7 49 C-7.3578702 39.89314515 -6.17588156 31.07104462 -4.97363281 22.06518555 C-4.62187735 19.41396423 -4.28704238 16.76094219 -3.953125 14.10742188 C-3.73278283 12.42434637 -3.51146486 10.74139826 -3.2890625 9.05859375 C-3.19001617 8.26392197 -3.09096985 7.46925018 -2.98892212 6.65049744 C-2.7289843 4.7561204 -2.37364372 2.87526595 -2 1 C-1.34 0.67 -0.68 0.34 0 0 Z " fill="#DCDBDA" transform="translate(72,299)"/>
<path d="M0 0 C3.92690197 2.18839003 6.46752271 4.50844557 8.875 8.375 C9.53377573 11.37882069 9.79993455 14.30414053 9.875 17.375 C9.215 17.375 8.555 17.375 7.875 17.375 C7.483125 16.158125 7.09125 14.94125 6.6875 13.6875 C4.95939372 9.04630027 2.39709191 5.63604596 -2.125 3.375 C-9.32093052 2.58926379 -9.32093052 2.58926379 -16.1796875 4.3515625 C-21.49577459 8.6626182 -22.36773622 12.81204727 -23.125 19.375 C-23.785 19.375 -24.445 19.375 -25.125 19.375 C-25.70503442 9.5144148 -25.70503442 9.5144148 -22.125 5.375 C-15.2848352 -0.45339043 -8.94087915 -4.07325496 0 0 Z " fill="#DDDCDC" transform="translate(607.125,252.625)"/>
<path d="M0 0 C1.67542976 0.28604898 3.34385343 0.61781233 5 1 C5.50567729 3.56149628 6.00470132 6.12399465 6.5 8.6875 C6.64308594 9.40873047 6.78617187 10.12996094 6.93359375 10.87304688 C7.65571887 14.63841359 8.1824976 18.14473813 8 22 C7.67 20.68 7.34 19.36 7 18 C5.68 17.67 4.36 17.34 3 17 C3 14.69 3 12.38 3 10 C2.34 10 1.68 10 1 10 C1.01160156 10.76183594 1.02320313 11.52367187 1.03515625 12.30859375 C1.09047294 18.63840322 0.8365926 24.72555549 0 31 C-0.33 31 -0.66 31 -1 31 C-1.144375 29.865625 -1.28875 28.73125 -1.4375 27.5625 C-1.61171478 24.19222799 -1.61171478 24.19222799 -3 23 C-3.43559844 15.59482652 -2.35242196 8.27543787 -1 1 C-0.67 0.67 -0.34 0.34 0 0 Z " fill="#E7E7E6" transform="translate(404,288)"/>
<path d="M0 0 C0.99 0.495 0.99 0.495 2 1 C2 2.98 2 4.96 2 7 C4.64 6.67 7.28 6.34 10 6 C10 4.02 10 2.04 10 0 C11.32 0.66 12.64 1.32 14 2 C14.125 4.375 14.125 4.375 14 7 C13.34 7.66 12.68 8.32 12 9 C12.38878188 12.01305957 13.26456874 13.39685311 15 16 C15 16.99 15 17.98 15 19 C11.77642693 17.8487239 10.94738085 16.9168278 9.0625 13.9375 C7.29366751 10.78774356 7.29366751 10.78774356 4.25 10.125 C3.5075 10.08375 2.765 10.0425 2 10 C2 11.65 2 13.3 2 15 C1.34 14.67 0.68 14.34 0 14 C0 9.38 0 4.76 0 0 Z " fill="#CECDCC" transform="translate(592,261)"/>
<path d="M0 0 C3.96 0 7.92 0 12 0 C12.04241723 2.33294775 12.04092937 4.66702567 12 7 C11 8 11 8 9.15234375 8.09765625 C7.1015625 8.06510417 5.05078125 8.03255208 3 8 C2.67 6.02 2.34 4.04 2 2 C2 6.29 2 10.58 2 15 C2.66 13.68 3.32 12.36 4 11 C4.125 17.75 4.125 17.75 3 20 C2.01 19.67 1.02 19.34 0 19 C0 12.73 0 6.46 0 0 Z " fill="#AEADAC" transform="translate(591,260)"/>
<path d="M0 0 C1.485 0.99 1.485 0.99 3 2 C3.29296875 4.3828125 3.29296875 4.3828125 3.1875 7.125 C3.16042969 8.03507812 3.13335937 8.94515625 3.10546875 9.8828125 C3.07066406 10.58148438 3.03585938 11.28015625 3 12 C3.99 12 4.98 12 6 12 C6 15.3 6 18.6 6 22 C4.35 21.67 2.7 21.34 1 21 C0.06145994 13.96094956 -0.10808032 7.09727428 0 0 Z " fill="#F0F0EF" transform="translate(83,353)"/>
<path d="M0 0 C0.33 0 0.66 0 1 0 C2.60881575 7.42640842 3.26442904 14.40501039 3 22 C2.67 22 2.34 22 2 22 C1.67 23.98 1.34 25.96 1 28 C0.67 28 0.34 28 0 28 C-0.33931227 25.33397504 -0.67157176 22.66736986 -1 20 C-1.09539062 19.25621094 -1.19078125 18.51242187 -1.2890625 17.74609375 C-2.91681985 4.37522978 -2.91681985 4.37522978 0 0 Z " fill="#DCDBDB" transform="translate(82,332)"/>
<path d="M0 0 C0.33 0 0.66 0 1 0 C1.144375 1.134375 1.28875 2.26875 1.4375 3.4375 C1.61171478 6.80777201 1.61171478 6.80777201 3 8 C2.93545826 10.29416553 2.79816087 12.5864685 2.625 14.875 C2.53476563 16.13054687 2.44453125 17.38609375 2.3515625 18.6796875 C2 22 2 22 1 25 C0.01 25.33 -0.98 25.66 -2 26 C-2.38064163 17.20294908 -1.20731692 8.68836995 0 0 Z " fill="#E4E3E3" transform="translate(67,322)"/>
<path d="M0 0 C2 1 2 1 3.125 4.0625 C4.72275452 10.86543918 4.15157333 18.06130965 4 25 C0.15858058 21.15858058 0.05044891 15.49612545 -0.125 10.29296875 C-0.125 6.85964554 -0.08787788 3.43211947 0 0 Z " fill="#EEEEED" transform="translate(78,312)"/>
<path d="M0 0 C0.33 1.32 0.66 2.64 1 4 C1.66 4 2.32 4 3 4 C3.33 3.01 3.66 2.02 4 1 C3.97026682 7.42236674 2.59010264 11.38711638 -1.33203125 16.46875 C-3.24234422 18.22247994 -4.43982502 18.70637832 -7 19 C-9.25 18.0625 -9.25 18.0625 -11 17 C-9.906875 16.608125 -8.81375 16.21625 -7.6875 15.8125 C-4.01731471 14.20355009 -2.50259079 12.83995424 -1 9 C-0.49187013 6.00656168 -0.19138642 3.02918502 0 0 Z " fill="#E0DFDF" transform="translate(614,266)"/>
<path d="M0 0 C0.99 0 1.98 0 3 0 C3 6.93 3 13.86 3 21 C2.34 21.33 1.68 21.66 1 22 C0.18565857 19.14839609 -0.11881242 16.63373869 -0.09765625 13.671875 C-0.09282227 12.47304688 -0.09282227 12.47304688 -0.08789062 11.25 C-0.07951172 10.425 -0.07113281 9.6 -0.0625 8.75 C-0.05798828 7.90953125 -0.05347656 7.0690625 -0.04882812 6.203125 C-0.03707961 4.13538599 -0.01914522 2.06768376 0 0 Z " fill="#F2F2F1" transform="translate(214,348)"/>
<path d="M0 0 C0.66 0.33 1.32 0.66 2 1 C2.02686553 2.97909398 2.04633375 4.95828971 2.0625 6.9375 C2.07410156 8.03964844 2.08570313 9.14179688 2.09765625 10.27734375 C2 13 2 13 1 14 C0.63239269 16.32817964 0.29758419 18.6618385 0 21 C-0.99 21.33 -1.98 21.66 -3 22 C-2.51172287 14.52165033 -1.66594452 7.31074682 0 0 Z " fill="#F3F3F2" transform="translate(401,311)"/>
<path d="M0 0 C0.99 0 1.98 0 3 0 C2.36188709 3.69070713 0.74379833 6.19249355 -1.375 9.25 C-1.98085938 10.14203125 -2.58671875 11.0340625 -3.2109375 11.953125 C-3.80132812 12.62859375 -4.39171875 13.3040625 -5 14 C-5.99 14 -6.98 14 -8 14 C-7.45648168 9.86485386 -6.19213905 7.45329082 -3.625 4.1875 C-3.01914062 3.39730469 -2.41328125 2.60710937 -1.7890625 1.79296875 C-1.19867188 1.20128906 -0.60828125 0.60960937 0 0 Z " fill="#E8E7E6" transform="translate(413,267)"/>
<path d="M0 0 C-0.4859793 7.3620694 -0.97674072 14.69100518 -2 22 C-2.33 22 -2.66 22 -3 22 C-3 19.03 -3 16.06 -3 13 C-3.99 12.67 -4.98 12.34 -6 12 C-5.34 12 -4.68 12 -4 12 C-4.061875 10.7625 -4.12375 9.525 -4.1875 8.25 C-4.19809406 5.26247642 -4.0926753 4.16117444 -2.5625 1.5 C-1 0 -1 0 0 0 Z " fill="#DDDCDC" transform="translate(92,352)"/>
<path d="M0 0 C0.99 0.495 0.99 0.495 2 1 C2.625 4.0625 2.625 4.0625 3 7 C5.97 7.495 5.97 7.495 9 8 C9 8.66 9 9.32 9 10 C6.69 10 4.38 10 2 10 C2 11.65 2 13.3 2 15 C1.34 14.67 0.68 14.34 0 14 C0 9.38 0 4.76 0 0 Z " fill="#FAF9F8" transform="translate(592,261)"/>
<path d="M0 0 C0.33 0 0.66 0 1 0 C1.02725341 1.7290774 1.04650987 3.45828176 1.0625 5.1875 C1.07410156 6.15042969 1.08570312 7.11335938 1.09765625 8.10546875 C1.00486622 10.85576513 0.62111685 13.32479591 0 16 C-0.66 15.67 -1.32 15.34 -2 15 C-2.05386629 12.87527424 -2.09273071 10.75016348 -2.125 8.625 C-2.14820312 7.44164062 -2.17140625 6.25828125 -2.1953125 5.0390625 C-2 2 -2 2 0 0 Z " fill="#F4F4F3" transform="translate(70,314)"/>
<path d="M0 0 C2.31 0 4.62 0 7 0 C7.5625 1.9375 7.5625 1.9375 8 4 C7 5 7 5 3.4375 5.0625 C2.303125 5.041875 1.16875 5.02125 0 5 C0 3.35 0 1.7 0 0 Z " fill="#050505" transform="translate(595,263)"/>
<path d="M0 0 C4.62 0 9.24 0 14 0 C14 0.66 14 1.32 14 2 C11.00519083 2.8723412 8.36424089 3.10829766 5.25 3.0625 C4.45078125 3.05347656 3.6515625 3.04445313 2.828125 3.03515625 C2.22484375 3.02355469 1.6215625 3.01195312 1 3 C0.67 2.01 0.34 1.02 0 0 Z " fill="#EFEEEE" transform="translate(593,284)"/>
<path d="M0 0 C3.63 0 7.26 0 11 0 C10.67 0.99 10.34 1.98 10 3 C7.69 3 5.38 3 3 3 C3 4.65 3 6.3 3 8 C2.67 8 2.34 8 2 8 C1.34 5.36 0.68 2.72 0 0 Z " fill="#C4C3C3" transform="translate(592,260)"/>
<path d="M0 0 C2.78637633 4.1795645 1.79562512 6.14668677 1 11 C0.67 9.68 0.34 8.36 0 7 C-0.66 7 -1.32 7 -2 7 C-1.67 7.99 -1.34 8.98 -1 10 C-1.99 10 -2.98 10 -4 10 C-4.66 9.34 -5.32 8.68 -6 8 C-5.01 8 -4.02 8 -3 8 C-1.92474806 5.34771188 -0.90543849 2.71631546 0 0 Z " fill="#DEDDDD" transform="translate(310,319)"/>
<path d="M0 0 C0.33 1.32 0.66 2.64 1 4 C1.66 4 2.32 4 3 4 C3.33 3.01 3.66 2.02 4 1 C3.88590407 2.45922693 3.75834456 3.91740598 3.625 5.375 C3.55539062 6.18710937 3.48578125 6.99921875 3.4140625 7.8359375 C3 10 3 10 1 12 C1 11.34 1 10.68 1 10 C0.34 9.67 -0.32 9.34 -1 9 C-0.67 6.03 -0.34 3.06 0 0 Z " fill="#BAB9B9" transform="translate(614,266)"/>
<path d="M0 0 C3.87132028 0.57352893 6.08172796 2.48704352 9 5 C8.67 5.66 8.34 6.32 8 7 C4.66272214 5.82744291 2.22562513 4.81131596 0 2 C0 1.34 0 0.68 0 0 Z " fill="#E0DFDF" transform="translate(585,279)"/>
<path d="M0 0 C1.98 0.99 1.98 0.99 4 2 C4 3.65 4 5.3 4 7 C2.02 7.99 2.02 7.99 0 9 C0 6.03 0 3.06 0 0 Z " fill="#F0EFEE" transform="translate(602,261)"/>
<path d="M0 0 C0.33 0 0.66 0 1 0 C1.144375 1.134375 1.28875 2.26875 1.4375 3.4375 C1.61171478 6.80777201 1.61171478 6.80777201 3 8 C3.04063832 9.66617115 3.042721 11.33388095 3 13 C2.34 12.01 1.68 11.02 1 10 C0.67 11.98 0.34 13.96 0 16 C-0.33 16 -0.66 16 -1 16 C-0.67 10.72 -0.34 5.44 0 0 Z " fill="#BCBABA" transform="translate(67,322)"/>
<path d="M0 0 C0.33 0 0.66 0 1 0 C1 1.98 1 3.96 1 6 C1.66 6 2.32 6 3 6 C3.33 5.01 3.66 4.02 4 3 C3.67 7.29 3.34 11.58 3 16 C2.67 16 2.34 16 2 16 C1.855625 14.865625 1.71125 13.73125 1.5625 12.5625 C1.38828522 9.19222799 1.38828522 9.19222799 0 8 C-0.14115161 5.32941149 -0.04247107 2.67567762 0 0 Z " fill="#ADACAB" transform="translate(401,303)"/>
<path d="M0 0 C1.37432457 3.81756824 0.67975039 7.07255329 0 11 C-0.66 11 -1.32 11 -2 11 C-2.05399736 9.54207116 -2.09279177 8.08357288 -2.125 6.625 C-2.15980469 5.40683594 -2.15980469 5.40683594 -2.1953125 4.1640625 C-2 2 -2 2 0 0 Z " fill="#F0F0EF" transform="translate(584,261)"/>
<path d="M0 0 C0.66 0.33 1.32 0.66 2 1 C2.4140625 3.06640625 2.4140625 3.06640625 2.625 5.5625 C2.69976563 6.38878906 2.77453125 7.21507812 2.8515625 8.06640625 C2.92503906 9.02353516 2.92503906 9.02353516 3 10 C2.34 10 1.68 10 1 10 C0.63883954 8.5225254 0.28624952 7.04295325 -0.0625 5.5625 C-0.25972656 4.73878906 -0.45695313 3.91507812 -0.66015625 3.06640625 C-0.82837891 2.04353516 -0.82837891 2.04353516 -1 1 C-0.67 0.67 -0.34 0.34 0 0 Z " fill="#F1F0F0" transform="translate(614,260)"/>
<path d="M0 0 C0 0.99 0 1.98 0 3 C-2.64 3 -5.28 3 -8 3 C-8 2.34 -8 1.68 -8 1 C-5.07175348 0.02391783 -3.04386724 -0.08226668 0 0 Z " fill="#FAF9F8" transform="translate(365,288)"/>
<path d="M0 0 C0.99 0 1.98 0 3 0 C5 3 5 3 5 6 C3.0625 5.25 3.0625 5.25 1 4 C0.25 1.875 0.25 1.875 0 0 Z " fill="#DBDADA" transform="translate(602,274)"/>
</svg>
