<?xml version="1.0" standalone="no"?>
<!DOCTYPE svg PUBLIC "-//W3C//DTD SVG 20010904//EN"
 "http://www.w3.org/TR/2001/REC-SVG-20010904/DTD/svg10.dtd">
<svg version="1.0" xmlns="http://www.w3.org/2000/svg"
 width="500.000000pt" height="500.000000pt" viewBox="0 0 500.000000 500.000000"
 preserveAspectRatio="xMidYMid meet">

<g transform="translate(0.000000,500.000000) scale(0.100000,-0.100000)"
fill="#000000" stroke="none">
<path d="M1704 3350 c-39 -15 -64 -59 -64 -109 1 -137 195 -163 230 -31 26 97
-70 179 -166 140z"/>
<path d="M500 2713 c0 -722 4 -763 87 -890 78 -119 217 -183 395 -183 285 0
468 174 468 446 l0 55 -72 -3 -73 -3 -6 -75 c-11 -133 -71 -217 -186 -260 -48
-18 -73 -21 -148 -18 -143 7 -219 53 -274 168 l-26 55 -3 373 -3 372 363 0
363 0 0 68 -1 67 -362 3 -362 2 0 215 0 215 -80 0 -80 0 0 -607z"/>
<path d="M2430 2904 c-132 -28 -255 -117 -309 -222 -52 -101 -54 -128 -59
-584 l-4 -428 76 0 76 0 0 378 c0 208 5 405 10 440 22 132 97 232 205 269 77
27 233 25 306 -5 118 -47 199 -177 199 -319 l0 -43 76 0 77 0 -7 74 c-18 200
-100 331 -251 402 -112 53 -260 67 -395 38z"/>
<path d="M3680 2906 c-360 -77 -582 -436 -489 -792 31 -119 72 -187 169 -284
131 -131 275 -193 450 -193 164 -1 325 61 441 171 36 34 69 62 73 62 3 0 6
-45 6 -100 l0 -100 70 0 70 0 0 283 c-1 451 -16 550 -105 687 -79 122 -185
196 -360 251 -80 26 -240 33 -325 15z m255 -140 c135 -36 272 -141 328 -251
83 -165 74 -369 -23 -510 -68 -99 -187 -185 -300 -215 -62 -17 -201 -14 -269
5 -160 46 -294 178 -342 337 -17 56 -21 88 -17 171 3 93 7 109 41 181 63 133
193 244 328 280 69 19 189 20 254 2z"/>
<path d="M1680 2280 l0 -610 75 0 75 0 0 610 0 610 -75 0 -75 0 0 -610z"/>
</g>
</svg>
