<?xml version="1.0" encoding="UTF-8"?>
<svg version="1.1" xmlns="http://www.w3.org/2000/svg" width="1000" height="600">
<path d="M0 0 C0.79959137 -0.01658157 1.59918274 -0.03316315 2.42300415 -0.05024719 C4.99834474 -0.09222067 7.57278077 -0.11121731 10.1484375 -0.12109375 C11.02415405 -0.12538391 11.89987061 -0.12967407 12.80212402 -0.13409424 C26.78930272 -0.14018817 38.79935531 1.23390208 51.5234375 7.44140625 C52.62558594 7.93125 53.72773438 8.42109375 54.86328125 8.92578125 C66.07485107 14.40084141 75.96522107 23.74838158 80.5234375 35.44140625 C76.54528472 35.6760789 72.56893113 35.81658944 68.5859375 35.94140625 C67.46896484 36.0084375 66.35199219 36.07546875 65.20117188 36.14453125 C58.91742794 36.29195046 55.28489749 35.90966407 50.54296875 31.5859375 C49.20193455 30.20558262 47.86192734 28.82422846 46.5234375 27.44140625 C30.5368323 17.68138987 10.42848902 16.42602798 -7.4765625 20.44140625 C-19.51086488 23.44500899 -30.42927157 29.60630206 -37.23046875 40.1640625 C-44.21401441 52.93637853 -44.96983829 67.53332469 -41.7578125 81.5859375 C-38.45631019 91.7608261 -31.38552121 100.59822954 -22.01171875 105.8125 C-3.77194127 114.6314455 16.55743671 115.51917205 35.7734375 109.31640625 C46.43854406 105.22187496 55.21672483 98.72153604 60.7109375 88.62890625 C62.96883368 83.7736215 62.96883368 83.7736215 64.5234375 75.44140625 C36.4734375 75.11140625 8.4234375 74.78140625 -20.4765625 74.44140625 C-23.4765625 58.44140625 -23.4765625 58.44140625 -22.4765625 56.44140625 C-8.28200208 56.41807596 5.91255537 56.40049285 20.107131 56.38959408 C26.69748535 56.38436453 33.28782687 56.37726558 39.87817383 56.3659668 C46.23235768 56.35514047 52.58652915 56.34912996 58.94072151 56.34652901 C61.37093361 56.3446743 63.80114499 56.34105282 66.23135185 56.33567619 C69.62226731 56.32846914 73.01313091 56.32741517 76.40405273 56.32788086 C77.41968796 56.32428558 78.43532318 56.32069031 79.48173523 56.31698608 C80.40025269 56.31836075 81.31877014 56.31973541 82.26512146 56.32115173 C83.06800315 56.32022994 83.87088484 56.31930815 84.69809628 56.31835842 C86.5234375 56.44140625 86.5234375 56.44140625 87.5234375 57.44140625 C89.35538078 75.44082866 86.45475853 90.73165035 75.5234375 105.44140625 C75.01296875 106.14652344 74.5025 106.85164063 73.9765625 107.578125 C65.14268444 118.70793672 52.73766957 124.33370759 39.5234375 128.44140625 C38.74887207 128.70848389 37.97430664 128.97556152 37.17626953 129.25073242 C28.74578907 131.91813326 20.39931775 132.03546665 11.6484375 132.00390625 C10.87741699 132.00408752 10.10639648 132.0042688 9.31201172 132.00445557 C-11.96788699 131.93330932 -31.29089267 127.02110495 -47.4765625 112.44140625 C-49.16297371 110.62109544 -50.75088286 108.77375132 -52.28515625 106.82421875 C-53.44772429 105.295116 -53.44772429 105.295116 -55.4765625 104.44140625 C-56.705243 102.31268028 -57.82703576 100.20334677 -58.9140625 98.00390625 C-59.51089844 96.82957031 -60.10773437 95.65523438 -60.72265625 94.4453125 C-65.03309862 84.99471821 -65.97326653 76.48961083 -65.9140625 66.12890625 C-65.93404297 64.89978516 -65.95402344 63.67066406 -65.97460938 62.40429688 C-65.96579267 45.69664244 -60.14220517 32.83259358 -48.828125 20.76171875 C-39.17639753 11.23825344 -28.32928874 6.32948328 -15.4765625 2.44140625 C-14.43540283 2.10206055 -13.39424316 1.76271484 -12.3215332 1.41308594 C-8.10781535 0.34821851 -4.32204546 0.06882534 0 0 Z " fill="#000000" transform="translate(90.4765625,233.55859375)"/>
<path d="M0 0 C0.86572632 -0.0017926 1.73145264 -0.00358521 2.62341309 -0.00543213 C16.50570176 0.02059114 28.50408603 1.45298671 41.125 7.625 C42.23875 8.12644531 43.3525 8.62789062 44.5 9.14453125 C58.67615162 16.13630168 68.82337718 28.5979348 74.15234375 43.32421875 C76.38734397 50.90885804 77.40970031 57.77004999 77.25 65.6875 C77.24097656 66.55310547 77.23195313 67.41871094 77.22265625 68.31054688 C77.19939723 70.41548779 77.16354008 72.52028342 77.125 74.625 C63.06082343 74.64833039 48.99664985 74.66591345 34.93245792 74.67681217 C28.40263767 74.6820417 21.87283037 74.68914061 15.34301758 74.70043945 C9.04718841 74.71126585 2.75137174 74.71727631 -3.54446602 74.71987724 C-5.95234944 74.72173194 -8.36023214 74.7253534 -10.76811028 74.73073006 C-14.12789286 74.7379372 -17.4876231 74.73899108 -20.84741211 74.73852539 C-21.85369659 74.74212067 -22.85998108 74.74571594 -23.89675903 74.74942017 C-24.80686234 74.7480455 -25.71696564 74.74667084 -26.65464783 74.74525452 C-27.45015517 74.74617631 -28.24566252 74.7470981 -29.06527615 74.74804783 C-30.875 74.625 -30.875 74.625 -31.875 73.625 C-32.30220026 70.9564614 -32.67294829 68.30590273 -33 65.625 C-33.09925781 64.87476563 -33.19851563 64.12453125 -33.30078125 63.3515625 C-33.5378869 61.44784469 -33.71152086 59.53644844 -33.875 57.625 C-32.07511601 55.82511601 -29.62500124 56.50506996 -27.22944641 56.50057983 C-26.41952744 56.50417511 -25.60960846 56.50777039 -24.77514648 56.51147461 C-23.92643982 56.51132858 -23.07773315 56.51118256 -22.20330811 56.5110321 C-19.38421109 56.51173152 -16.56517929 56.51952522 -13.74609375 56.52734375 C-11.79696183 56.52920783 -9.84782945 56.53063178 -7.8986969 56.53163147 C-2.75793168 56.53545745 2.38280547 56.54528841 7.52355957 56.55633545 C12.76505148 56.56654785 18.0065479 56.57112872 23.24804688 56.57617188 C33.54037694 56.58691061 43.83268614 56.60398799 54.125 56.625 C53.54014534 54.57128733 52.94257321 52.52119424 52.33984375 50.47265625 C52.00847412 49.33062744 51.67710449 48.18859863 51.33569336 47.01196289 C48.83828864 40.02537373 44.38302353 33.69999206 38.125 29.625 C37.45210937 29.15578125 36.77921875 28.6865625 36.0859375 28.203125 C21.24746631 18.43970096 2.53795765 16.67865971 -14.625 19.875 C-27.43719967 22.74715633 -39.14295068 27.57038283 -46.8125 38.8125 C-53.89482493 51.22359345 -55.83352112 64.32625975 -53.1796875 78.28125 C-49.84774194 90.26505421 -43.15879959 99.83631705 -32.2734375 106.12890625 C-14.13375169 114.88509464 6.30472873 115.65572551 25.375 109.5 C32.90909842 106.63190571 39.42154674 102.32845326 45.125 96.625 C47.55517578 96.39794922 47.55517578 96.39794922 50.5703125 96.4296875 C51.64667969 96.43613281 52.72304688 96.44257813 53.83203125 96.44921875 C54.95996094 96.46597656 56.08789062 96.48273438 57.25 96.5 C58.38566406 96.50902344 59.52132812 96.51804687 60.69140625 96.52734375 C63.50281299 96.55096902 66.31380298 96.58390987 69.125 96.625 C68.3682424 101.51406591 66.36916777 104.07294537 63 107.5625 C62.24577759 108.35744873 62.24577759 108.35744873 61.47631836 109.16845703 C60.03939687 110.66795377 58.58658959 112.14958672 57.125 113.625 C56.51011719 114.25277344 55.89523437 114.88054687 55.26171875 115.52734375 C50.13937771 120.31921118 42.24066591 125.625 35.125 125.625 C34.795 126.285 34.465 126.945 34.125 127.625 C23.84321824 131.25693602 13.62427749 132.27033738 2.78833008 132.14648438 C0.55895791 132.12496581 -1.66720624 132.14646734 -3.89648438 132.171875 C-20.71155371 132.20426016 -37.5532795 127.61770822 -51.875 118.625 C-51.875 117.965 -51.875 117.305 -51.875 116.625 C-52.4628125 116.35042969 -53.050625 116.07585937 -53.65625 115.79296875 C-59.12803447 112.91257516 -63.09576316 108.9852338 -65.9140625 103.45703125 C-66.93776431 101.50533959 -68.13222699 99.75646777 -69.375 97.9375 C-77.83751699 84.56463365 -78.78812476 66.55566142 -76.25 51.25 C-73.45794619 40.27567738 -68.5133926 30.92885862 -60.875 22.625 C-60.235625 21.90570313 -59.59625 21.18640625 -58.9375 20.4453125 C-50.86504966 11.81950871 -40.97572426 7.28471304 -29.875 3.625 C-29.15022461 3.36460937 -28.42544922 3.10421875 -27.67871094 2.8359375 C-18.59739203 -0.089682 -9.44677532 -0.01052578 0 0 Z " fill="#000000" transform="translate(749.875,233.375)"/>
<path d="M0 0 C4.2864503 -0.198996 8.57040251 -0.34347584 12.86010742 -0.43945312 C14.31631327 -0.47948628 15.77220151 -0.53393633 17.22729492 -0.60351562 C29.23386504 -1.16291732 29.23386504 -1.16291732 33.3581543 1.55273438 C35.17469098 3.60090997 36.58194289 5.66142271 38 8 C38.95064694 9.248496 39.91262754 10.4884581 40.88671875 11.71875 C41.82356834 12.97674853 42.75707328 14.23724366 43.6875 15.5 C44.73431725 16.90759504 45.78119392 18.31514588 46.828125 19.72265625 C47.35470703 20.43309082 47.88128906 21.14352539 48.42382812 21.87548828 C50.91795751 25.2373089 53.42663934 28.58816531 55.9375 31.9375 C56.43241943 32.59790283 56.92733887 33.25830566 57.43725586 33.9387207 C62.6493975 40.88291265 67.93182768 47.7728506 73.21240234 54.66503906 C81.40953196 65.3721338 89.5899339 76.09233684 97.6875 86.875 C98.15615479 87.49834229 98.62480957 88.12168457 99.10766602 88.76391602 C102.13368735 92.80320018 105.06485678 96.89079949 108 101 C108.33 67.67 108.66 34.34 109 0 C116.26 0 123.52 0 131 0 C131 41.25 131 82.5 131 125 C120.44 125 109.88 125 99 125 C97.68 123.02 96.36 121.04 95 119 C92.66249788 115.70162877 90.26768752 112.44599507 87.875 109.1875 C87.24207031 108.31673828 86.60914063 107.44597656 85.95703125 106.54882812 C85.34988281 105.72189453 84.74273438 104.89496094 84.1171875 104.04296875 C83.56659668 103.29039795 83.01600586 102.53782715 82.44873047 101.76245117 C81.10344859 99.88215218 81.10344859 99.88215218 79 99 C78.67 98.01 78.34 97.02 78 96 C77.34 95.67 76.68 95.34 76 95 C75.484375 94.05125 74.96875 93.1025 74.4375 92.125 C72.63265008 88.85658087 70.52492514 86.10853793 68.125 83.25 C63.90964869 78.2096046 59.99770986 72.99487761 56.125 67.6875 C51.3904941 61.20153385 46.58085336 54.80033739 41.55126953 48.53979492 C39.50592643 45.98131345 37.61810067 43.41756929 35.8203125 40.67578125 C34.27281024 37.93308069 34.27281024 37.93308069 32 37 C30.99260254 35.33779419 29.99477045 33.66979326 29 32 C27.02 29.36 25.04 26.72 23 24 C22.67 57.33 22.34 90.66 22 125 C14.74 125 7.48 125 0 125 C-0.98125467 122.056236 -1.12566899 120.16396421 -1.12698364 117.09703064 C-1.12980347 116.08609848 -1.13262329 115.07516632 -1.13552856 114.03359985 C-1.13350433 112.92543915 -1.1314801 111.81727844 -1.12939453 110.67553711 C-1.13114685 109.50788315 -1.13289917 108.34022919 -1.13470459 107.13719177 C-1.13911555 103.26722743 -1.13618793 99.39730858 -1.1328125 95.52734375 C-1.13348571 92.84599246 -1.13445423 90.16464257 -1.13571167 87.48329163 C-1.13753127 81.86019393 -1.13513228 76.23710937 -1.13037109 70.61401367 C-1.12492623 64.10824976 -1.1266936 57.60251717 -1.1321975 51.09675401 C-1.13673144 45.51454014 -1.13737788 39.93233572 -1.13475883 34.3501206 C-1.13319795 31.0144993 -1.13338848 27.67889599 -1.13629532 24.34327507 C-1.13882298 20.62718433 -1.13497971 16.91115454 -1.12939453 13.19506836 C-1.13243088 11.52979095 -1.13243088 11.52979095 -1.13552856 9.83087158 C-1.13270874 8.82275925 -1.12988892 7.81464691 -1.12698364 6.77598572 C-1.12660662 5.89680449 -1.12622959 5.01762327 -1.12584114 4.11180019 C-1 2 -1 2 0 0 Z " fill="#000000" transform="translate(479,237)"/>
<path d="M0 0 C15.4275 -0.0825 30.855 -0.165 46.75 -0.25 C51.60041992 -0.28641602 56.45083984 -0.32283203 61.44824219 -0.36035156 C67.42431641 -0.37841797 67.42431641 -0.37841797 70.23223877 -0.3817749 C72.17091558 -0.38787071 74.10957832 -0.40184138 76.04815674 -0.42230225 C90.6237884 -0.5682965 104.49748658 -0.27010126 116 10 C122.55448098 17.61814675 125.69920769 26.21034146 125.3359375 36.2421875 C124.17129899 45.80305711 119.05532946 52.67260136 112 59 C109.1057692 60.94551768 106.17953619 62.57183954 103 64 C103.6290625 64.55945313 104.258125 65.11890625 104.90625 65.6953125 C118.72868181 78.64343386 123.5789568 94.28943055 129 112 C129.44351807 113.41249023 129.44351807 113.41249023 129.89599609 114.85351562 C130.17137207 115.74232422 130.44674805 116.63113281 130.73046875 117.546875 C130.97563232 118.33416992 131.2207959 119.12146484 131.47338867 119.93261719 C132 122 132 122 132 125 C124.41 125 116.82 125 109 125 C108.05640625 122.03 108.05640625 122.03 107.09375 119 C100.50161637 93.01982304 100.50161637 93.01982304 84 74 C77.08728827 71.68540651 69.96247672 71.66207278 62.74609375 71.5859375 C61.22634949 71.55947144 61.22634949 71.55947144 59.67590332 71.5324707 C55.92992346 71.46991381 52.18368982 71.42337639 48.4375 71.375 C40.043125 71.25125 31.64875 71.1275 23 71 C23 88.82 23 106.64 23 125 C15.41 125 7.82 125 0 125 C0 83.75 0 42.5 0 0 Z M23 18 C23 29.55 23 41.1 23 53 C34.38181377 53.08733406 34.38181377 53.08733406 45.76367188 53.14648438 C50.40952908 53.16438127 55.05520801 53.18549761 59.70092773 53.22631836 C63.44864792 53.25904056 67.19617678 53.27687994 70.94402885 53.28463173 C72.37010139 53.29015227 73.79616407 53.30093244 75.22215462 53.31719017 C84.22422187 53.41569196 90.11889879 53.10615531 97.75 48.25 C101.46861145 44.53138855 102.78046592 40.72491067 103.4375 35.5625 C102.73499183 29.84207633 100.69318247 25.64976753 96.5625 21.625 C91.76481286 18.58256425 88.05443297 17.75122588 82.3737793 17.77294922 C81.72931351 17.77265717 81.08484772 17.77236511 80.42085266 17.77206421 C78.30516779 17.77344995 76.18984158 17.78897493 74.07421875 17.8046875 C72.60163058 17.80842033 71.12903991 17.81126603 69.65644836 17.81326294 C65.79142328 17.82087817 61.92654987 17.84050837 58.06158447 17.8626709 C53.41846602 17.88678355 48.7752967 17.89592037 44.13213348 17.90757751 C37.08798368 17.92693416 30.04416632 17.96527116 23 18 Z " fill="#000000" transform="translate(332,237)"/>
<path d="M0 0 C15.241875 -0.0825 30.48375 -0.165 46.1875 -0.25 C50.97660889 -0.28641602 55.76571777 -0.32283203 60.69995117 -0.36035156 C66.60803223 -0.37841797 66.60803223 -0.37841797 69.38545227 -0.3817749 C71.29991896 -0.38786407 73.21437159 -0.40182045 75.1287384 -0.42230225 C91.1980046 -0.58543451 104.49893395 0.02638475 116.7109375 11.625 C123.76708672 19.05977186 124.63996918 27.35188354 124.41015625 37.34375 C123.43997208 45.99224887 118.43030963 53.27994154 112 59 C109.09927122 60.90143466 106.13548774 62.5211305 103 64 C103.66 64.61875 104.32 65.2375 105 65.875 C116.59672642 77.635986 121.64678606 90.56082007 126.875 105.9375 C127.28097412 107.12335693 127.68694824 108.30921387 128.10522461 109.53100586 C128.48042236 110.66417236 128.85562012 111.79733887 129.2421875 112.96484375 C129.5810498 113.9818335 129.91991211 114.99882324 130.26904297 116.04663086 C131 119 131 119 131 125 C123.74 125 116.48 125 109 125 C107.71416016 121.16761719 107.71416016 121.16761719 106.40234375 117.2578125 C105.54884434 114.75094277 104.6898479 112.24601995 103.83032227 109.74121094 C103.24188401 108.01692756 102.65906096 106.29071618 102.08227539 104.5625 C96.56944301 86.8655687 96.56944301 86.8655687 84 74 C76.95976417 71.75613415 69.85351989 71.66171163 62.52734375 71.5859375 C60.97811218 71.55947144 60.97811218 71.55947144 59.39758301 71.5324707 C55.57770719 71.46989809 51.75758204 71.42337143 47.9375 71.375 C39.378125 71.25125 30.81875 71.1275 22 71 C22 88.82 22 106.64 22 125 C14.74 125 7.48 125 0 125 C0 83.75 0 42.5 0 0 Z M22 18 C22 29.55 22 41.1 22 53 C33.3573997 53.08735734 33.3573997 53.08735734 44.71484375 53.14648438 C49.35183093 53.16437007 53.98863922 53.18545587 58.62548828 53.22631836 C62.36672925 53.25907934 66.10777819 53.276888 69.84915161 53.28463173 C71.27160664 53.29014538 72.69405199 53.30091183 74.11642456 53.31719017 C86.40052533 53.65702492 86.40052533 53.65702492 97.05859375 48.24609375 C97.51363281 47.64925781 97.96867188 47.05242187 98.4375 46.4375 C99.14712891 45.53837891 99.14712891 45.53837891 99.87109375 44.62109375 C102.98173192 40.15426039 102.51608679 35.26263152 102 30 C100.2916675 24.6504788 96.8695593 21.63767795 92 19 C88.49605079 17.83008504 85.16266178 17.87946057 81.48730469 17.88647461 C80.84298492 17.88632858 80.19866516 17.88618256 79.53482056 17.8860321 C77.41380397 17.8867265 75.29287617 17.89449664 73.171875 17.90234375 C71.69785612 17.90420961 70.22383662 17.90563272 68.74981689 17.90663147 C64.87661008 17.91044339 61.00344097 17.92026235 57.13024902 17.93133545 C52.47962218 17.94338 47.82898271 17.94795812 43.17834473 17.95378876 C36.11887029 17.96347483 29.05947852 17.98264063 22 18 Z " fill="#000000" transform="translate(844,237)"/>
<path d="M0 0 C9.24 0 18.48 0 28 0 C34.03190929 11.32142974 39.89929961 22.70928886 45.625 34.1875 C45.95282471 34.84458954 46.28064941 35.50167908 46.6184082 36.17868042 C49.50126049 41.95941837 52.37811266 47.74311774 55.24609375 53.53125 C58.79578844 60.68243273 62.44044104 67.7773735 66.13232422 74.85620117 C66.75489772 76.04995967 67.37745626 77.24372598 68 78.4375 C68.30681702 79.02560455 68.61363403 79.61370911 68.92974854 80.21963501 C72.91429983 87.86585473 76.7664938 95.54457908 80.35742188 103.38305664 C82.89607077 108.89485396 85.75721679 114.18348496 88.75 119.4609375 C90 122 90 122 90 125 C82.41 125 74.82 125 67 125 C60.83592088 113.58129605 55.08260257 102.04015256 49.53125 90.3125 C47.09020019 85.1615943 44.54861841 80.07268623 41.92578125 75.01171875 C41 73 41 73 41 71 C23.18 71 5.36 71 -13 71 C-13.66 72.98 -14.32 74.96 -15 77 C-16.11997307 79.53016256 -17.26257041 82.03310632 -18.44921875 84.53125 C-18.78492386 85.24422241 -19.12062897 85.95719482 -19.46650696 86.69177246 C-20.17683716 88.19859016 -20.88879853 89.70463988 -21.60229492 91.20996094 C-22.67030808 93.46372099 -23.7330635 95.71989722 -24.79492188 97.9765625 C-29.07365736 107.04893151 -33.48095918 116.04483654 -38 125 C-45.92 125 -53.84 125 -62 125 C-58.41391389 116.5025351 -54.69827566 108.23966136 -50.33911133 100.11352539 C-45.22335893 90.48189387 -40.31357819 80.75652425 -35.44921875 70.99609375 C-34.5788574 69.2534969 -33.70831401 67.51099096 -32.83760071 65.76856995 C-30.57738246 61.24437145 -28.3195677 56.71897795 -26.06231689 52.19329834 C-23.7663254 47.59102034 -21.46802785 42.98989428 -19.16992188 38.38867188 C-15.46155621 30.96323546 -11.75447453 23.53716 -8.04946899 16.11004639 C-5.36953692 10.73840999 -2.68464567 5.36929134 0 0 Z M13 16 C11.22086156 19.82237976 9.44274917 23.64523472 7.66552734 27.46850586 C7.06260919 28.76518182 6.45942585 30.06173452 5.85595703 31.3581543 C4.98137305 33.23713199 4.10779001 35.11657244 3.234375 36.99609375 C2.71069336 38.12200928 2.18701172 39.2479248 1.64746094 40.40795898 C-0.2702843 44.5893143 -2.13169776 48.79631996 -4 53 C7.88 53 19.76 53 32 53 C28.03923542 43.94682381 24.06412338 34.92309791 19.6875 26.0625 C19.20023438 25.06186523 19.20023438 25.06186523 18.703125 24.04101562 C17.11449694 20.86705541 15.58147932 18.41914494 13 16 Z " fill="#000000" transform="translate(233,237)"/>
<path d="M0 0 C7.26 0 14.52 0 22 0 C22 41.25 22 82.5 22 125 C14.74 125 7.48 125 0 125 C0 83.75 0 42.5 0 0 Z " fill="#000000" transform="translate(634,237)"/>
</svg>
