<?xml version="1.0" encoding="UTF-8"?>
<svg version="1.1" xmlns="http://www.w3.org/2000/svg" width="462" height="108">
<path d="M0 0 C3.52315198 1.86942758 4.61003856 3.18293793 6.3125 6.75 C7.78714467 13.72104753 7.51658406 19.74550407 4 26 C-3.64791744 36.23971168 -14.98444168 38.87044139 -27 41 C-26.60167969 41.49628906 -26.20335937 41.99257813 -25.79296875 42.50390625 C-25.26316406 43.18324219 -24.73335938 43.86257812 -24.1875 44.5625 C-23.66542969 45.22378906 -23.14335937 45.88507812 -22.60546875 46.56640625 C-18.65279567 52.55792773 -17.46846347 57.74129341 -17.5625 64.75 C-17.57007324 65.54204834 -17.57764648 66.33409668 -17.58544922 67.15014648 C-17.90061251 78.42356041 -22.17059803 88.14943867 -30.15234375 96.16015625 C-44.31827134 108.44341599 -61.16152143 109.13540091 -79 108 C-83.39872359 107.22868073 -87.03279324 106.02447001 -91 104 C-92.32837891 103.34644531 -92.32837891 103.34644531 -93.68359375 102.6796875 C-102.15697407 98.07157874 -108.03692771 91.92185586 -111.27734375 82.76171875 C-113.99143196 72.38950056 -113.72268112 62.05464353 -108.66015625 52.4609375 C-104.17917246 45.90927905 -98.18930914 43.01030186 -91 40 C-91.42152344 39.46890625 -91.84304687 38.9378125 -92.27734375 38.390625 C-93.09912109 37.33101562 -93.09912109 37.33101562 -93.9375 36.25 C-94.48277344 35.55390625 -95.02804688 34.8578125 -95.58984375 34.140625 C-98.6059163 29.56221015 -98.57973951 24.31996257 -98 19 C-96.63915159 13.4094876 -94.4095718 9.88245492 -89.6875 6.5625 C-81.43599129 1.72679441 -72.78545549 0.69392737 -63.40234375 2.5 C-58.43801137 3.95863522 -55.34762789 5.9200785 -52 10 C-50.00997066 13.98005868 -50.48260951 18.67218069 -51 23 C-52.23802985 26.18264259 -53.12128812 26.82627878 -56 29 C-60.72994309 29.90291383 -63.97125819 29.68582787 -68 27 C-67.54552268 24.45492703 -67.16262009 23.17512933 -65.375 21.25 C-63.22104656 17.72534891 -64.26889646 14.9878375 -65 11 C-69.94090233 8.90011651 -73.880642 8.53280255 -79 10 C-82.54254148 12.23334137 -84.40928423 14.16686553 -86 18 C-86.79356609 23.66832924 -86.13589326 28.12194381 -83 33 C-81.30020776 35.09825985 -80.44593743 35.90455374 -77.7734375 36.4765625 C-76.98195312 36.52554688 -76.19046875 36.57453125 -75.375 36.625 C-71.08333333 36.91666667 -71.08333333 36.91666667 -70 38 C-69.95907063 40.33297433 -69.95758277 42.66705225 -70 45 C-71.28583984 45.14695312 -71.28583984 45.14695312 -72.59765625 45.296875 C-82.00977955 46.40658888 -82.00977955 46.40658888 -90 51 C-95.31420338 58.05389144 -96.11969634 65.40157714 -95 74 C-93.30323142 81.16635201 -89.95948973 86.62349973 -84 91 C-73.90162889 96.59504345 -62.85867561 97.49774989 -51.59765625 95.3515625 C-41.72016209 92.37687314 -34.52286993 87.00553841 -29.15234375 78.18359375 C-25.61050716 71.47211356 -24.64035516 63.87463577 -26.6875 56.53515625 C-28.7407683 51.3934302 -31.06406854 47.78207046 -36 45 C-41.20527411 44.14266073 -45.45491368 44.21230893 -50.1875 46.625 C-52.24132576 48.92762293 -52.24132576 48.92762293 -52.5 52.125 C-52.2525 53.548125 -52.2525 53.548125 -52 55 C-49.26645051 57.28368965 -49.26645051 57.28368965 -46.625 56.75 C-43.99253264 55.99786647 -41.51532871 55.07799802 -39 54 C-36.54100646 57.68849031 -36.19885467 60.71887962 -37 65 C-39.51249455 68.57840133 -41.18714765 69.75915486 -45.375 71 C-49.80185158 71 -52.20568409 70.29090772 -56 68 C-60.68321482 62.59629059 -60.5525651 57.29504614 -60.30859375 50.30859375 C-59.73485083 44.15719819 -57.96839583 40.67101725 -53.5 36.3125 C-44.48000374 29.14586933 -33.18729486 27.97971405 -22.125 26.4375 C-19.37557773 26.05305228 -16.62886198 25.65385661 -13.8828125 25.24609375 C-12.68027832 25.07779053 -11.47774414 24.9094873 -10.23876953 24.73608398 C-6.89858777 23.97695177 -4.71556769 23.07622439 -2 21 C-1.10792821 17.9042893 -1.10792821 17.9042893 -1 15 C-3.81006988 12.67648794 -3.81006988 12.67648794 -6.9375 13.25 C-9.59526679 13.90088166 -11.64517067 14.64144462 -14 16 C-16.37040308 13.62959692 -16.34465793 12.93697247 -16.4375 9.6875 C-16.32630479 6.24044836 -16.00633514 5.01070421 -14.1875 1.9375 C-9.50774258 -0.90705843 -5.34000816 -0.85921936 0 0 Z " fill="#0E0E0E" transform="translate(289,0)"/>
<path d="M0 0 C6.00663744 4.0387486 10.17545084 9.8352482 12.50390625 16.70703125 C14.23824816 26.88686417 13.1846521 36.11762468 7.578125 44.80859375 C2.89833291 50.88319852 -3.58724372 54.62438388 -11.13671875 55.81640625 C-19.13410007 56.50583567 -27.03206021 54.49295076 -33.51171875 49.56640625 C-40.93039056 41.79446435 -43.65467952 33.6719192 -43.453125 22.94921875 C-42.66327259 15.12870472 -39.82564368 8.24674368 -34.13671875 2.81640625 C-23.45037373 -5.2547151 -11.73525529 -6.50051618 0 0 Z M-29.484375 13.35546875 C-32.95194748 18.60032748 -33.75161115 24.84105537 -32.80078125 30.98828125 C-31.04623375 36.8671547 -26.97286991 40.27400253 -22.13671875 43.81640625 C-18.41713091 45.67620017 -14.19579726 45.25456765 -10.13671875 44.81640625 C-5.29238678 43.13776768 -1.89278327 40.10361773 0.86328125 35.81640625 C3.26419776 30.41434411 3.84267173 25.14410801 2.17578125 19.48046875 C0.0361985 14.11368203 -2.36803597 11.06316899 -7.13671875 7.81640625 C-15.68249634 4.96781372 -23.47939254 6.49760472 -29.484375 13.35546875 Z " fill="#0E0E0E" transform="translate(97.13671875,28.18359375)"/>
<path d="M0 0 C8.30552622 3.15915721 13.87109422 8.29636003 17.796875 16.28125 C21.03363189 24.91819197 20.40095333 32.91854011 16.796875 41.28125 C13.15865398 48.01869634 7.58879921 53.61624506 0.296875 56.21875 C-6.62797768 57.97160333 -14.11955722 57.91844009 -21.203125 57.28125 C-23.203125 55.28125 -23.203125 55.28125 -23.44363403 52.95272827 C-23.43919281 51.9801004 -23.43475159 51.00747253 -23.43017578 50.00537109 C-23.43002472 48.9043808 -23.42987366 47.8033905 -23.42971802 46.66903687 C-23.41939545 45.47630157 -23.40907288 44.28356628 -23.3984375 43.0546875 C-23.3956076 41.83673492 -23.39277771 40.61878235 -23.38986206 39.36392212 C-23.37863756 35.46126617 -23.35352872 31.55883697 -23.328125 27.65625 C-23.31809814 25.01562831 -23.30897178 22.37500303 -23.30078125 19.734375 C-23.27869081 13.2499222 -23.24519092 6.7656023 -23.203125 0.28125 C-17.24732238 -2.69665131 -6.40348995 -1.43688067 0 0 Z M-14.203125 9.28125 C-14.203125 21.82125 -14.203125 34.36125 -14.203125 47.28125 C-6.62309127 47.28125 -2.16237776 46.78017455 3.609375 41.90625 C8.06279775 36.5621427 9.96071297 32.27947169 9.796875 25.28125 C8.80885729 19.50029532 6.14784528 15.99616055 1.546875 12.46875 C-4.08171113 8.64935227 -6.70704596 9.28125 -14.203125 9.28125 Z " fill="#0E0E0E" transform="translate(23.203125,26.71875)"/>
<path d="M0 0 C1.98 0.66 3.96 1.32 6 2 C6.33 9.92 6.66 17.84 7 26 C9.63742187 23.31037109 9.63742187 23.31037109 12.328125 20.56640625 C14.03740862 18.83372214 15.74928113 17.10363579 17.46142578 15.3737793 C18.64938098 14.17074358 19.83462895 12.96502827 21.01708984 11.7565918 C22.71787064 10.01939629 24.42817535 8.29209066 26.140625 6.56640625 C26.66682434 6.02472305 27.19302368 5.48303986 27.73516846 4.92494202 C32.49646721 0.16148645 32.49646721 0.16148645 36 0 C38.25 1.125 38.25 1.125 40 3 C40.35546875 5.34057617 40.35546875 5.34057617 40 8 C38.34765625 10.2199707 38.34765625 10.2199707 36.0625 12.42578125 C35.25039063 13.22177734 34.43828125 14.01777344 33.6015625 14.83789062 C32.74304688 15.65451172 31.88453125 16.47113281 31 17.3125 C30.14148438 18.14845703 29.28296875 18.98441406 28.3984375 19.84570312 C26.27639854 21.90879656 24.14358973 23.95934566 22 26 C24.86966976 30.4931714 27.77211527 34.86161444 31.24609375 38.9140625 C31.77267578 39.53023437 32.29925781 40.14640625 32.84179688 40.78125 C33.92122293 42.02846934 35.01279718 43.26526089 36.11523438 44.4921875 C39.07097387 47.99637679 40.03117535 49.18944086 39.84765625 53.9609375 C39.56792969 54.96382812 39.28820312 55.96671875 39 57 C36.3125 57.8125 36.3125 57.8125 33 58 C27.61722259 53.44392902 23.71189346 47.44439035 19.55273438 41.79882812 C18.99521484 41.05439453 18.43769531 40.30996094 17.86328125 39.54296875 C17.36094971 38.86258545 16.85861816 38.18220215 16.34106445 37.48120117 C15.89851318 36.99240479 15.45596191 36.5036084 15 36 C12.65260656 35.80997282 12.65260656 35.80997282 9.9375 38.125 C5.77951693 42.29305082 6.27385295 47.36561714 6.203125 52.953125 C6 56 6 56 4 58 C1.5625 58.375 1.5625 58.375 -1 58 C-3.79261641 55.07542208 -4.37919839 53.00919748 -4.40405273 49.01953125 C-4.41673691 48.03170654 -4.42942108 47.04388184 -4.44248962 46.02612305 C-4.43955399 44.96562744 -4.43661835 43.90513184 -4.43359375 42.8125 C-4.4388356 41.71784424 -4.44407745 40.62318848 -4.44947815 39.49536133 C-4.4558985 37.18213753 -4.45456121 34.86888109 -4.44604492 32.55566406 C-4.43753144 29.0130821 -4.46630385 25.4721103 -4.49804688 21.9296875 C-4.49965885 19.68229215 -4.49908143 17.43489394 -4.49609375 15.1875 C-4.50732773 14.12700439 -4.51856171 13.06650879 -4.53013611 11.97387695 C-4.46022003 4.61163513 -4.46022003 4.61163513 -1.96899414 1.30078125 C-1.31922607 0.87152344 -0.66945801 0.44226563 0 0 Z " fill="#0E0E0E" transform="translate(315,25)"/>
<path d="M0 0 C1.08003296 0.00326294 1.08003296 0.00326294 2.18188477 0.0065918 C4.37697108 0.0097488 6.57070573 -0.01369198 8.765625 -0.0390625 C10.15950351 -0.04133581 11.55338564 -0.04203884 12.94726562 -0.04101562 C14.85270142 -0.04548706 14.85270142 -0.04548706 16.79663086 -0.05004883 C19.95117188 0.32226562 19.95117188 0.32226562 21.90063477 1.6496582 C22.95117188 3.32226562 22.95117188 3.32226562 22.76367188 6.44726562 C22.49554688 7.39601563 22.22742188 8.34476563 21.95117188 9.32226562 C19.39393958 10.60088177 17.58380085 10.43563172 14.72460938 10.41992188 C13.69335938 10.41669922 12.66210938 10.41347656 11.59960938 10.41015625 C9.97925781 10.39758789 9.97925781 10.39758789 8.32617188 10.38476562 C6.69421875 10.37799805 6.69421875 10.37799805 5.02929688 10.37109375 C2.33656525 10.35928352 -0.35613821 10.34134768 -3.04882812 10.32226562 C-3.04882812 14.94226563 -3.04882812 19.56226563 -3.04882812 24.32226562 C-0.93541016 24.27005859 -0.93541016 24.27005859 1.22070312 24.21679688 C3.06834747 24.18866016 4.91600469 24.16135988 6.76367188 24.13476562 C7.69244141 24.10962891 8.62121094 24.08449219 9.578125 24.05859375 C10.47080078 24.04892578 11.36347656 24.03925781 12.28320312 24.02929688 C13.1053833 24.01358643 13.92756348 23.99787598 14.7746582 23.98168945 C16.95117188 24.32226562 16.95117188 24.32226562 18.75463867 25.64526367 C19.95117188 27.32226562 19.95117188 27.32226562 19.76367188 30.44726562 C19.49554688 31.39601563 19.22742188 32.34476563 18.95117188 33.32226562 C16.55057371 34.52256471 15.05756538 34.43686305 12.38085938 34.41992188 C11.48496094 34.41669922 10.5890625 34.41347656 9.66601562 34.41015625 C8.26029297 34.39758789 8.26029297 34.39758789 6.82617188 34.38476562 C5.40884766 34.37799805 5.40884766 34.37799805 3.96289062 34.37109375 C1.62562418 34.35928937 -0.71160982 34.34135361 -3.04882812 34.32226562 C-3.04882812 38.94226562 -3.04882812 43.56226563 -3.04882812 48.32226562 C-1.42332031 48.28746094 0.2021875 48.25265625 1.87695312 48.21679688 C4.00584906 48.18866169 6.13475615 48.16136124 8.26367188 48.13476562 C9.33552734 48.10962891 10.40738281 48.08449219 11.51171875 48.05859375 C12.53974609 48.04892578 13.56777344 48.03925781 14.62695312 48.02929688 C16.04874878 48.0057312 16.04874878 48.0057312 17.49926758 47.98168945 C19.95117188 48.32226562 19.95117188 48.32226562 21.7956543 49.64526367 C22.95117188 51.32226562 22.95117188 51.32226562 22.76367188 54.44726562 C22.49554688 55.39601562 22.22742188 56.34476563 21.95117188 57.32226562 C17.54545485 59.52512414 11.56538379 58.5081151 6.66552734 58.50756836 C4.45976537 58.5097571 2.25450172 58.52792422 0.04882812 58.546875 C-1.34830558 58.54980856 -2.74544166 58.55179361 -4.14257812 58.55273438 C-5.41810547 58.55684326 -6.69363281 58.56095215 -8.0078125 58.56518555 C-11.04882812 58.32226562 -11.04882812 58.32226562 -13.04882812 56.32226562 C-13.30279541 54.04516602 -13.30279541 54.04516602 -13.30761719 51.16992188 C-13.31392151 50.09540771 -13.32022583 49.02089355 -13.32672119 47.91381836 C-13.32267273 46.74923096 -13.31862427 45.58464355 -13.31445312 44.38476562 C-13.31636658 43.19375244 -13.31828003 42.00273926 -13.32025146 40.77563477 C-13.32161443 38.25374134 -13.31791029 35.73184094 -13.30957031 33.20996094 C-13.29887266 29.33838214 -13.30946218 25.4672674 -13.32226562 21.59570312 C-13.32094405 19.1503896 -13.3183817 16.70507636 -13.31445312 14.25976562 C-13.31850159 13.09517822 -13.32255005 11.93059082 -13.32672119 10.73071289 C-13.32041687 9.65619873 -13.31411255 8.58168457 -13.30761719 7.47460938 C-13.306026 6.52577881 -13.30443481 5.57694824 -13.30279541 4.59936523 C-12.57499659 -1.92616188 -4.98523118 0.0199597 0 0 Z " fill="#0E0E0E" transform="translate(382.048828125,24.677734375)"/>
<path d="M0 0 C5.07818352 0.95860573 6.76554342 4.38846301 9.58203125 8.4921875 C10.11892578 9.23855469 10.65582031 9.98492187 11.20898438 10.75390625 C14.97042411 16.01897321 14.97042411 16.01897321 16.26953125 18.6171875 C19.65431984 17.48892464 20.01794751 16.91939518 21.8984375 14.0546875 C22.37603516 13.34054688 22.85363281 12.62640625 23.34570312 11.890625 C23.83619141 11.14039063 24.32667969 10.39015625 24.83203125 9.6171875 C25.80846339 8.13535307 26.78875159 6.65605014 27.7734375 5.1796875 C28.20470947 4.52097656 28.63598145 3.86226562 29.08032227 3.18359375 C30.26953125 1.6171875 30.26953125 1.6171875 32.26953125 0.6171875 C35.33203125 0.4921875 35.33203125 0.4921875 38.26953125 0.6171875 C39.26953125 1.6171875 39.26953125 1.6171875 39.76171875 4.5703125 C39.67821911 10.20797816 35.73555714 14.13696489 32.39453125 18.3671875 C31.10540651 20.04943147 29.81634145 21.73172118 28.52734375 23.4140625 C27.66326904 24.51766113 27.66326904 24.51766113 26.78173828 25.64355469 C23.84502652 29.47635705 23.0136968 31.51605935 22.92578125 36.30859375 C22.88130859 37.97245117 22.88130859 37.97245117 22.8359375 39.66992188 C22.79159279 42.01367048 22.7473222 44.35742049 22.703125 46.70117188 C22.65865234 48.3630957 22.65865234 48.3630957 22.61328125 50.05859375 C22.59458984 51.07638916 22.57589844 52.09418457 22.55664062 53.14282227 C22.26953125 55.6171875 22.26953125 55.6171875 20.26953125 57.6171875 C16.70703125 57.3671875 16.70703125 57.3671875 13.26953125 56.6171875 C12.01839056 54.11490612 12.26311491 52.62874489 12.41015625 49.83984375 C12.80841715 34.41167307 9.71660349 25.25875179 -0.21240234 13.43457031 C-4.67375612 8.09357361 -4.67375612 8.09357361 -5.04296875 4.9921875 C-4.57586994 1.44223651 -3.41709779 0.7723912 0 0 Z " fill="#0E0E0E" transform="translate(422.73046875,25.3828125)"/>
<path d="M0 0 C0.88026855 -0.00570007 1.76053711 -0.01140015 2.66748047 -0.01727295 C4.53026119 -0.02672555 6.39305865 -0.03325796 8.25585938 -0.03710938 C11.11357491 -0.04683611 13.97057771 -0.07786517 16.828125 -0.109375 C18.63541238 -0.11590283 20.44270492 -0.12115416 22.25 -0.125 C23.10835449 -0.1373468 23.96670898 -0.1496936 24.85107422 -0.16241455 C27.2578125 -0.15332031 27.2578125 -0.15332031 31.125 0.203125 C33.125 3.203125 33.125 3.203125 32.875 6.328125 C32.6275 7.276875 32.38 8.225625 32.125 9.203125 C29.12186252 10.70469374 26.33432478 10.29593704 23 10.265625 C21.71867187 10.25660156 20.43734375 10.24757813 19.1171875 10.23828125 C18.12976563 10.22667969 17.14234375 10.21507812 16.125 10.203125 C16.14071045 11.51506836 16.1564209 12.82701172 16.17260742 14.17871094 C16.22691032 19.04648702 16.26135154 23.91423632 16.28979492 28.78222656 C16.30488069 30.8890432 16.32535193 32.99582844 16.35131836 35.10253906 C16.38771053 38.1309382 16.4047285 41.15892209 16.41796875 44.1875 C16.43345261 45.12930115 16.44893646 46.07110229 16.46488953 47.04144287 C16.46511612 47.92205383 16.46534271 48.80266479 16.46557617 49.70996094 C16.47223801 50.48273376 16.47889984 51.25550659 16.48576355 52.05169678 C16.0335421 54.74853796 14.88721857 56.15434066 13.125 58.203125 C7.25 57.328125 7.25 57.328125 6.125 56.203125 C6.03204185 54.76022713 6.00753487 53.31282715 6.01147461 51.86694336 C6.01155014 50.9460643 6.01162567 50.02518524 6.01170349 49.07640076 C6.01686478 48.07536819 6.02202606 47.07433563 6.02734375 46.04296875 C6.0287587 45.02336563 6.03017365 44.00376251 6.03163147 42.95326233 C6.03724903 39.68235393 6.0498045 36.41151287 6.0625 33.140625 C6.06751274 30.92903744 6.07207604 28.71744882 6.07617188 26.50585938 C6.08722416 21.07159143 6.10397937 15.63736303 6.125 10.203125 C4.55298828 10.27273437 4.55298828 10.27273437 2.94921875 10.34375 C1.57034099 10.38127048 0.19143242 10.41767036 -1.1875 10.453125 C-1.87779297 10.48664062 -2.56808594 10.52015625 -3.27929688 10.5546875 C-8.38946521 10.65343471 -8.38946521 10.65343471 -10.8671875 8.35546875 C-12.18247744 5.54645807 -11.89050027 4.093395 -10.875 1.203125 C-7.50889741 -0.4799263 -3.70313694 0.01833494 0 0 Z " fill="#0E0E0E" transform="translate(127.875,25.796875)"/>
</svg>
