<?xml version="1.0" encoding="UTF-8"?>
<svg version="1.1" xmlns="http://www.w3.org/2000/svg" width="1080" height="163">
<path d="M0 0 C3.7530595 1.58751975 5.87332097 4.36047845 8.0625 7.66796875 C8.80078125 9.76171875 8.80078125 9.76171875 8.04296875 11.83203125 C7.36621094 12.84910156 7.36621094 12.84910156 6.67578125 13.88671875 C6.24007812 14.56992187 5.804375 15.253125 5.35546875 15.95703125 C3.65743526 17.92811535 2.18357504 18.76974022 -0.19921875 19.76171875 C-0.78703125 18.55515625 -0.78703125 18.55515625 -1.38671875 17.32421875 C-2.96870066 14.53107137 -2.96870066 14.53107137 -5.88671875 13.94921875 C-6.64984375 13.88734375 -7.41296875 13.82546875 -8.19921875 13.76171875 C-8.19921875 13.10171875 -8.19921875 12.44171875 -8.19921875 11.76171875 C-8.98296875 11.78234375 -9.76671875 11.80296875 -10.57421875 11.82421875 C-13.19921875 11.76171875 -13.19921875 11.76171875 -15.19921875 10.76171875 C-17.53926045 11.04413758 -19.87426598 11.37422662 -22.19921875 11.76171875 C-22.19921875 12.42171875 -22.19921875 13.08171875 -22.19921875 13.76171875 C-23.84255379 14.79961456 -25.51165742 15.79739799 -27.19921875 16.76171875 C-29.42282555 18.68718315 -29.42282555 18.68718315 -30.19921875 21.76171875 C-29.0282666 21.7867749 -27.85731445 21.81183105 -26.65087891 21.83764648 C-22.31596497 21.93165578 -17.98121371 22.03189216 -13.64648438 22.1340332 C-11.76859333 22.17740664 -9.89066223 22.21907993 -8.01269531 22.2590332 C-5.31693435 22.31667751 -2.62137548 22.38038856 0.07421875 22.4453125 C0.91697357 22.46202499 1.75972839 22.47873749 2.62802124 22.49595642 C8.57303784 22.64784704 8.57303784 22.64784704 10.80078125 23.76171875 C10.80078125 24.42171875 10.80078125 25.08171875 10.80078125 25.76171875 C10.14078125 25.76171875 9.48078125 25.76171875 8.80078125 25.76171875 C8.80078125 36.65171875 8.80078125 47.54171875 8.80078125 58.76171875 C-2.04495855 61.65391603 -9.47523978 63.29495527 -20.19921875 62.76171875 C-21.18921875 62.76171875 -22.17921875 62.76171875 -23.19921875 62.76171875 C-25.22339009 61.81159751 -27.22505607 60.81180528 -29.19921875 59.76171875 C-29.85921875 59.43171875 -30.51921875 59.10171875 -31.19921875 58.76171875 C-32.68421875 59.25671875 -32.68421875 59.25671875 -34.19921875 59.76171875 C-35.5535455 58.44971471 -36.88655357 57.11540471 -38.19921875 55.76171875 C-38.19921875 55.43171875 -38.19921875 55.10171875 -38.19921875 54.76171875 C-38.85921875 54.76171875 -39.51921875 54.76171875 -40.19921875 54.76171875 C-43.00753265 49.73287758 -44.69744905 45.58224723 -45.19921875 39.76171875 C-45.31265625 39.01148438 -45.42609375 38.26125 -45.54296875 37.48828125 C-46.84340725 28.119213 -45.1434079 18.38515048 -41.19921875 9.76171875 C-39.07421875 7.26171875 -39.07421875 7.26171875 -37.19921875 5.76171875 C-36.86921875 5.43171875 -36.53921875 5.10171875 -36.19921875 4.76171875 C-34.19921875 4.09505208 -32.19921875 3.42838542 -30.19921875 2.76171875 C-28.22881687 1.83447081 -26.37518353 0.87216034 -24.53125 -0.28515625 C-17.74512561 -3.05871463 -7.00014712 -1.85879613 0 0 Z M-38.19921875 7.76171875 C-37.19921875 9.76171875 -37.19921875 9.76171875 -37.19921875 9.76171875 Z M-40.19921875 9.76171875 C-39.19921875 11.76171875 -39.19921875 11.76171875 -39.19921875 11.76171875 Z M-33.19921875 22.76171875 C-34.43240331 31.91112413 -34.43240331 31.91112413 -32.19921875 40.76171875 C-30.2209439 43.16081038 -30.2209439 43.16081038 -28.19921875 44.76171875 C-28.65856683 42.61809439 -29.11677594 40.90118967 -30.23828125 39.00390625 C-31.48983887 36.08360514 -31.32349916 33.79810165 -31.19921875 30.63671875 C-31.03190757 27.52702826 -31.03190757 27.52702826 -31.19921875 24.76171875 C-31.85921875 24.10171875 -32.51921875 23.44171875 -33.19921875 22.76171875 Z M-3.19921875 37.76171875 C-3.19921875 40.40171875 -3.19921875 43.04171875 -3.19921875 45.76171875 C-2.86921875 45.76171875 -2.53921875 45.76171875 -2.19921875 45.76171875 C-2.19921875 43.12171875 -2.19921875 40.48171875 -2.19921875 37.76171875 C-2.52921875 37.76171875 -2.85921875 37.76171875 -3.19921875 37.76171875 Z M-6.19921875 45.76171875 C-6.52921875 46.42171875 -6.85921875 47.08171875 -7.19921875 47.76171875 C-6.53921875 47.76171875 -5.87921875 47.76171875 -5.19921875 47.76171875 C-5.52921875 47.10171875 -5.85921875 46.44171875 -6.19921875 45.76171875 Z M-23.19921875 46.76171875 C-23.52921875 47.42171875 -23.85921875 48.08171875 -24.19921875 48.76171875 C-22.35196823 49.45331276 -22.35196823 49.45331276 -20.19921875 49.76171875 C-19.20921875 49.10171875 -18.21921875 48.44171875 -17.19921875 47.76171875 C-20.16921875 47.26671875 -20.16921875 47.26671875 -23.19921875 46.76171875 Z M-42.19921875 47.76171875 C-42.19921875 48.42171875 -42.19921875 49.08171875 -42.19921875 49.76171875 C-41.53921875 49.43171875 -40.87921875 49.10171875 -40.19921875 48.76171875 C-40.85921875 48.43171875 -41.51921875 48.10171875 -42.19921875 47.76171875 Z M-34.19921875 55.76171875 C-33.19921875 57.76171875 -33.19921875 57.76171875 -33.19921875 57.76171875 Z " fill="#000000" transform="translate(311.19921875,49.23828125)"/>
<path d="M0 0 C2.31 0 4.62 0 7 0 C7 8.25 7 16.5 7 25 C6.34 25 5.68 25 5 25 C5.78668518 26.62741744 6.5795241 28.25186131 7.375 29.875 C7.81585938 30.77992187 8.25671875 31.68484375 8.7109375 32.6171875 C9.90502699 35.09534472 9.90502699 35.09534472 12 37 C12 38.32 12 39.64 12 41 C12.33 40.67 12.66 40.34 13 40 C16.3 40 19.6 40 23 40 C23 47.92 23 55.84 23 64 C18.42941932 64.91411614 16.37688499 64.93125213 12 64 C11.278125 63.855625 10.55625 63.71125 9.8125 63.5625 C8 63 8 63 5 61 C4.8125 57.875 4.8125 57.875 5 55 C4.01 54.505 4.01 54.505 3 54 C2.67 53.01 2.34 52.02 2 51 C-1.77057547 50.88402347 -5.54069393 50.81282604 -9.3125 50.75 C-10.38435547 50.71648437 -11.45621094 50.68296875 -12.56054688 50.6484375 C-13.58857422 50.63554688 -14.61660156 50.62265625 -15.67578125 50.609375 C-16.62364502 50.58842773 -17.57150879 50.56748047 -18.5480957 50.54589844 C-21.57003893 50.81927561 -21.57003893 50.81927561 -24 55 C-16.41 55.33 -8.82 55.66 -1 56 C2 62 2 62 2 64 C-6.91 64 -15.82 64 -25 64 C-25.33 62.02 -25.66 60.04 -26 58 C-26.495 60.475 -26.495 60.475 -27 63 C-29.64 62.67 -32.28 62.34 -35 62 C-35.33 63.32 -35.66 64.64 -36 66 C-36.33 64.68 -36.66 63.36 -37 62 C-37.66 62 -38.32 62 -39 62 C-39.33 62.99 -39.66 63.98 -40 65 C-41.42372774 59.83898696 -40.9945832 56.86179656 -39 52 C-38.01 52 -37.02 52 -36 52 C-36.3403125 50.63875 -36.3403125 50.63875 -36.6875 49.25 C-37 46 -37 46 -35.5625 43.625 C-35.046875 43.08875 -34.53125 42.5525 -34 42 C-33.67 42.33 -33.34 42.66 -33 43 C-32.34 40.03 -31.68 37.06 -31 34 C-30.34 34 -29.68 34 -29 34 C-27.35 30.37 -25.7 26.74 -24 23 C-24.66 22.67 -25.32 22.34 -26 22 C-25.53916016 21.5862915 -25.07832031 21.17258301 -24.60351562 20.74633789 C-22.8834069 18.87302216 -22.20975922 17.4325667 -21.34375 15.05859375 C-16.53196546 2.84638976 -16.53196546 2.84638976 -12.171875 0.4375 C-8.05176947 -0.2675448 -4.16689992 0 0 0 Z M-4 3 C-4 3.66 -4 4.32 -4 5 C-3.01 5.33 -2.02 5.66 -1 6 C-1 5.01 -1 4.02 -1 3 C-1.99 3 -2.98 3 -4 3 Z M-2 8 C-1.67 8.99 -1.34 9.98 -1 11 C-0.67 10.01 -0.34 9.02 0 8 C-0.66 8 -1.32 8 -2 8 Z M0 13 C0 13.66 0 14.32 0 15 C0.66 14.67 1.32 14.34 2 14 C1.34 13.67 0.68 13.34 0 13 Z M2 18 C2.66 18.66 3.32 19.32 4 20 C4 19.34 4 18.68 4 18 C3.34 18 2.68 18 2 18 Z M-11 20 C-11.33 21.98 -11.66 23.96 -12 26 C-11.01 24.68 -10.02 23.36 -9 22 C-9.66 21.34 -10.32 20.68 -11 20 Z M-9 23 C-8 25 -8 25 -8 25 Z M-8 25 C-7 27 -7 27 -7 27 Z M-14 27 C-13.814375 27.763125 -13.62875 28.52625 -13.4375 29.3125 C-13 32 -13 32 -14 35 C-11.525 35.495 -11.525 35.495 -9 36 C-8.74467249 32.93606987 -8.78138667 31.36766788 -10.375 28.6875 C-10.91125 28.130625 -11.4475 27.57375 -12 27 C-12.66 27 -13.32 27 -14 27 Z M-4 35 C-3 38 -3 38 -3 38 Z M14 41 C13.67 42.32 13.34 43.64 13 45 C13.99 45.495 13.99 45.495 15 46 C15 44.35 15 42.7 15 41 C14.67 41 14.34 41 14 41 Z M-35 45 C-34 48 -34 48 -34 48 Z M19 52 C17.56911472 54.86177057 18.40008303 56.93375773 19 60 C19.33 60 19.66 60 20 60 C20 57.36 20 54.72 20 52 C19.67 52 19.34 52 19 52 Z " fill="#000000" transform="translate(153,48)"/>
<path d="M0 0 C0 0.66 0 1.32 0 2 C1.051875 2.061875 2.10375 2.12375 3.1875 2.1875 C7.69782593 3.148717 8.96971347 4.64211492 12 8 C13.31836295 8.69580267 14.64791086 9.37224433 16 10 C16.495 10.99 16.495 10.99 17 12 C17.66 12 18.32 12 19 12 C23.05152672 18.26145038 23.05152672 18.26145038 22.8125 21.6875 C22.544375 22.450625 22.27625 23.21375 22 24 C21.23652471 26.44312092 20.90273979 27.63309426 21.56640625 30.13671875 C22.13525953 33.89320035 21.38378066 37.16042218 20.5625 40.8125 C20.41490234 41.50537109 20.26730469 42.19824219 20.11523438 42.91210938 C19.75224388 44.60996815 19.37731777 46.30526763 19 48 C18.01 48.33 17.02 48.66 16 49 C16 49.66 16 50.32 16 51 C15.34 51 14.68 51 14 51 C14 51.99 14 52.98 14 54 C13.34 54 12.68 54 12 54 C12 54.66 12 55.32 12 56 C11.175 56.45375 10.35 56.9075 9.5 57.375 C8.675 57.91125 7.85 58.4475 7 59 C7 60.32 7 61.64 7 63 C3.52213922 65.1897642 1.91751422 64.79840361 -2 64 C-4.15656503 63.93149956 -6.31511904 63.91517905 -8.47265625 63.9375 C-9.70177734 63.94523437 -10.93089844 63.95296875 -12.19726562 63.9609375 C-14.11055664 63.98027344 -14.11055664 63.98027344 -16.0625 64 C-18.59500923 64.02551647 -21.12756872 64.04654669 -23.66015625 64.0625 C-25.34057007 64.07990234 -25.34057007 64.07990234 -27.05493164 64.09765625 C-29.57178534 64.01419928 -31.60854484 63.73975291 -34 63 C-34 61.68 -34 60.36 -34 59 C-33.34 59 -32.68 59 -32 59 C-32.01474869 58.30286896 -32.02949738 57.60573792 -32.04469299 56.88748169 C-32.18261725 50.32480026 -32.31558795 43.76203948 -32.4429636 37.19914436 C-32.50862772 33.82491975 -32.57622188 30.4507566 -32.64819336 27.07666016 C-32.72994239 23.19962343 -32.80508895 19.32250733 -32.87890625 15.4453125 C-32.90594131 14.23070343 -32.93297638 13.01609436 -32.96083069 11.76467896 C-32.99097511 10.08316238 -32.99097511 10.08316238 -33.02172852 8.36767578 C-33.04171402 7.37728302 -33.06169952 6.38689026 -33.08229065 5.3664856 C-33 3 -33 3 -32 1 C-28.54184898 0.82940635 -25.08345693 0.66426561 -21.625 0.5 C-20.17673828 0.42845703 -20.17673828 0.42845703 -18.69921875 0.35546875 C-12.46055108 0.06237698 -6.24530778 -0.06171592 0 0 Z M-17 13 C-17 13.33 -17 13.66 -17 14 C-13.7 14 -10.4 14 -7 14 C-7 13.67 -7 13.34 -7 13 C-10.3 13 -13.6 13 -17 13 Z M-20 12 C-20.16723026 17.25087844 -20.32782815 22.50190094 -20.48217773 27.75317383 C-20.53567402 29.54099032 -20.59100904 31.32875275 -20.64819336 33.11645508 C-20.72989235 35.68038266 -20.80505945 38.24442953 -20.87890625 40.80859375 C-20.90594131 41.6127623 -20.93297638 42.41693085 -20.96083069 43.24546814 C-21.01285627 45.16298422 -21.01187441 47.08181503 -21 49 C-19.02039491 50.97960509 -15.32253166 50.229944 -12.625 50.25 C-11.93921875 50.270625 -11.2534375 50.29125 -10.546875 50.3125 C-6.49320996 50.36568556 -6.49320996 50.36568556 -3.0234375 48.484375 C-2.51683594 47.74960938 -2.51683594 47.74960938 -2 47 C-1.34 47.33 -0.68 47.66 0 48 C0.99 47.505 0.99 47.505 2 47 C2.65213292 44.97536745 2.65213292 44.97536745 3 43 C3.99 43 4.98 43 6 43 C8.25684543 37.63999211 9.36263859 33.8022175 9 28 C8.34 28 7.68 28 7 28 C7.33 27.01 7.66 26.02 8 25 C6.13519011 22.30638571 4.0646521 20.0646521 1.75 17.75 C1.1725 17.1725 0.595 16.595 0 16 C0 15.67 0 15.34 0 15 C-5.94 15 -11.88 15 -18 15 C-18 25.56 -18 36.12 -18 47 C-15.03 47 -12.06 47 -9 47 C-13.95 47.495 -13.95 47.495 -19 48 C-19 36.12 -19 24.24 -19 12 C-19.33 12 -19.66 12 -20 12 Z M2 16 C2 16.66 2 17.32 2 18 C2.66 17.67 3.32 17.34 4 17 C3.34 16.67 2.68 16.34 2 16 Z M-3 60 C-3.33 60.66 -3.66 61.32 -4 62 C-2.35 61.67 -0.7 61.34 1 61 C-0.32 60.67 -1.64 60.34 -3 60 Z " fill="#000000" transform="translate(74,49)"/>
<path d="M0 0 C-0.99 0.66 -1.98 1.32 -3 2 C-3.4779392 4.58216021 -3.4779392 4.58216021 -3.43237305 7.64306641 C-3.45216721 8.82413971 -3.47196136 10.00521301 -3.49235535 11.22207642 C-3.49874527 12.50230682 -3.50513519 13.78253723 -3.51171875 15.1015625 C-3.52966995 16.40829926 -3.54762115 17.71503601 -3.56611633 19.06137085 C-3.61369103 22.53669199 -3.6434515 26.01194789 -3.66955566 29.48748779 C-3.69932394 33.03345633 -3.74586691 36.57919984 -3.79101562 40.125 C-3.87713322 47.08320532 -3.94444062 54.04148548 -4 61 C-4.78375 61.12375 -5.5675 61.2475 -6.375 61.375 C-9.14057822 61.79117993 -9.14057822 61.79117993 -11 64 C-11.99 63.34 -12.98 62.68 -14 62 C-14 62.66 -14 63.32 -14 64 C-14.66 64 -15.32 64 -16 64 C-16 58.39 -16 52.78 -16 47 C-21.28 47 -26.56 47 -32 47 C-32 52.28 -32 57.56 -32 63 C-34.64 63.33 -37.28 63.66 -40 64 C-40 63.34 -40 62.68 -40 62 C-44.95 62.495 -44.95 62.495 -50 63 C-50 62.34 -50 61.68 -50 61 C-50.66 61 -51.32 61 -52 61 C-52 41.2 -52 21.4 -52 1 C-48.04 1 -44.08 1 -40 1 C-40 8.92 -40 16.84 -40 25 C-38.68 25 -37.36 25 -36 25 C-36 24.34 -36 23.68 -36 23 C-29.4 23 -22.8 23 -16 23 C-16 15.74 -16 8.48 -16 1 C-13.916875 0.649375 -11.83375 0.29875 -9.6875 -0.0625 C-8.51574219 -0.25972656 -7.34398437 -0.45695312 -6.13671875 -0.66015625 C-3 -1 -3 -1 0 0 Z M-40 35 C-40 35.33 -40 35.66 -40 36 C-32.08 36 -24.16 36 -16 36 C-16 35.67 -16 35.34 -16 35 C-23.92 35 -31.84 35 -40 35 Z " fill="#000000" transform="translate(400,49)"/>
<path d="M0 0 C1.90749023 0.04060547 1.90749023 0.04060547 3.85351562 0.08203125 C5.08392578 0.12199219 6.31433594 0.16195312 7.58203125 0.203125 C8.70456299 0.23567383 9.82709473 0.26822266 10.98364258 0.30175781 C14.57613382 0.80437261 17.03650963 1.99159587 20.1875 3.75 C20.950625 4.059375 21.71375 4.36875 22.5 4.6875 C24.1875 5.75 24.1875 5.75 24.625 7.5625 C25.07173147 10.06877109 25.07173147 10.06877109 27.75 12.3125 C28.554375 13.116875 29.35875 13.92125 30.1875 14.75 C30.1875 15.74 30.1875 16.73 30.1875 17.75 C28.8675 17.75 27.5475 17.75 26.1875 17.75 C26.249375 18.9875 26.31125 20.225 26.375 21.5 C26.4020835 25.35939829 25.52546846 26.70047592 23.1875 29.75 C23.41323891 32.94235272 23.41323891 32.94235272 24.1875 35.75 C20.7225 36.245 20.7225 36.245 17.1875 36.75 C17.1875 35.76 17.1875 34.77 17.1875 33.75 C15.82968259 36.67063285 15.82968259 36.67063285 17.26171875 39.01953125 C17.79410156 39.85871094 18.32648437 40.69789062 18.875 41.5625 C19.70837891 42.88507813 19.70837891 42.88507813 20.55859375 44.234375 C21.09613281 45.06453125 21.63367188 45.8946875 22.1875 46.75 C22.59097656 47.39453125 22.99445312 48.0390625 23.41015625 48.703125 C25.30069436 51.74498971 25.30069436 51.74498971 28.1875 53.75 C28.59479228 56.07156597 28.93188677 58.4068787 29.1875 60.75 C28.5275 60.75 27.8675 60.75 27.1875 60.75 C27.1875 61.41 27.1875 62.07 27.1875 62.75 C24.84812093 63.91968953 23.41380632 63.88364221 20.8125 63.875 C19.65621094 63.87886719 19.65621094 63.87886719 18.4765625 63.8828125 C16.2546811 63.75389788 14.32131492 63.36383717 12.1875 62.75 C12.1875 61.43 12.1875 60.11 12.1875 58.75 C11.37936389 56.93793692 11.37936389 56.93793692 10.25 55.25 C9.00407004 53.21830933 8.20818161 51.84306723 7.6875 49.5 C7.31570319 47.53136777 7.31570319 47.53136777 5.1875 46.25 C3.1875 44.75 3.1875 44.75 2.4375 42.5625 C2.355 41.964375 2.2725 41.36625 2.1875 40.75 C1.1975 41.245 1.1975 41.245 0.1875 41.75 C-1.05009823 45.46279469 -1.16858897 49.06306346 -1.375 52.9375 C-1.41818359 53.68708984 -1.46136719 54.43667969 -1.50585938 55.20898438 C-1.61172685 57.05578375 -1.7125976 58.90286834 -1.8125 60.75 C-2.1425 60.75 -2.4725 60.75 -2.8125 60.75 C-2.8125 53.16 -2.8125 45.57 -2.8125 37.75 C-0.8325 37.255 -0.8325 37.255 1.1875 36.75 C-0.1325 36.75 -1.4525 36.75 -2.8125 36.75 C-2.83755615 37.46655762 -2.8626123 38.18311523 -2.88842773 38.92138672 C-3.00419751 42.15611514 -3.12700969 45.39053841 -3.25 48.625 C-3.30897461 50.31689453 -3.30897461 50.31689453 -3.36914062 52.04296875 C-3.41103516 53.11933594 -3.45292969 54.19570312 -3.49609375 55.3046875 C-3.55108032 56.79718018 -3.55108032 56.79718018 -3.60717773 58.31982422 C-3.8125 60.75 -3.8125 60.75 -4.8125 62.75 C-7.31640625 63.1640625 -7.31640625 63.1640625 -10.375 63.375 C-11.38691406 63.44976562 -12.39882813 63.52453125 -13.44140625 63.6015625 C-14.22386719 63.65054688 -15.00632812 63.69953125 -15.8125 63.75 C-15.8125 63.09 -15.8125 62.43 -15.8125 61.75 C-17.27083358 60.12485532 -17.27083358 60.12485532 -18.8125 58.75 C-17.4925 58.75 -16.1725 58.75 -14.8125 58.75 C-15.1425 40.27 -15.4725 21.79 -15.8125 2.75 C-16.4725 2.75 -17.1325 2.75 -17.8125 2.75 C-15.16134693 -2.55230615 -4.99385417 -0.16554213 0 0 Z M-2.8125 11.75 C-3.1425 12.41 -3.4725 13.07 -3.8125 13.75 C-0.5125 14.08 2.7875 14.41 6.1875 14.75 C1.7325 15.245 1.7325 15.245 -2.8125 15.75 C-2.8125 18.06 -2.8125 20.37 -2.8125 22.75 C-1.37592755 23.08730842 0.06180093 23.41969591 1.5 23.75 C2.30050781 23.935625 3.10101562 24.12125 3.92578125 24.3125 C6.29445938 24.84495823 6.29445938 24.84495823 9.1875 24.75 C9.1875 23.76 9.1875 22.77 9.1875 21.75 C9.8475 21.75 10.5075 21.75 11.1875 21.75 C11.5175 22.41 11.8475 23.07 12.1875 23.75 C14.47763653 20.3147952 14.36592973 18.764669 14.1875 14.75 C12.8675 14.75 11.5475 14.75 10.1875 14.75 C9.5275 13.76 8.8675 12.77 8.1875 11.75 C5.52096095 11.38539547 5.52096095 11.38539547 2.5625 11.5625 C1.55960938 11.58957031 0.55671875 11.61664063 -0.4765625 11.64453125 C-1.63285156 11.69673828 -1.63285156 11.69673828 -2.8125 11.75 Z M10.1875 51.75 C11.1875 53.75 11.1875 53.75 11.1875 53.75 Z " fill="#000000" transform="translate(569.8125,49.25)"/>
<path d="M0 0 C0.66 0 1.32 0 2 0 C2 4.62 2 9.24 2 14 C-11.365 14.495 -11.365 14.495 -25 15 C-25 17.31 -25 19.62 -25 22 C-24.34 22 -23.68 22 -23 22 C-23 22.66 -23 23.32 -23 24 C-17.72 24 -12.44 24 -7 24 C-7 23.34 -7 22.68 -7 22 C-4.07120629 22.62759865 -1.63904371 23.58622659 1 25 C0.505 25.495 0.505 25.495 0 26 C-0.07325436 28.6986905 -0.09222351 31.36502556 -0.0625 34.0625 C-0.041875 36.681875 -0.02125 39.30125 0 42 C-7.26 42 -14.52 42 -22 42 C-22 44.31 -22 46.62 -22 49 C-23.98 49.495 -23.98 49.495 -26 50 C-16.76 50 -7.52 50 2 50 C3 52 3 52 3 62 C-10.53 62.33 -24.06 62.66 -38 63 C-39.03639691 59.89080928 -39.13283313 57.7195008 -39.14526367 54.45874023 C-39.15164352 53.32423935 -39.15802338 52.18973846 -39.16459656 51.02085876 C-39.16570938 49.79581131 -39.1668222 48.57076385 -39.16796875 47.30859375 C-39.17129715 46.05240738 -39.17462555 44.79622101 -39.17805481 43.50196838 C-39.18312079 40.84478208 -39.18589537 38.18769808 -39.18530273 35.53051758 C-39.18520089 32.12174544 -39.19887866 28.71318058 -39.21607494 25.30445766 C-39.22984493 22.05584397 -39.22928283 18.8072327 -39.23046875 15.55859375 C-39.24124702 13.71798622 -39.24124702 13.71798622 -39.25224304 11.8401947 C-39.24916641 10.70884598 -39.24608978 9.57749725 -39.24291992 8.41186523 C-39.24505745 6.91320168 -39.24505745 6.91320168 -39.24723816 5.38426208 C-39 3 -39 3 -37 1 C-34.66845703 0.75708008 -34.66845703 0.75708008 -31.7578125 0.76953125 C-30.69046875 0.77146484 -29.623125 0.77339844 -28.5234375 0.77539062 C-26.84121094 0.79375977 -26.84121094 0.79375977 -25.125 0.8125 C-23.50078125 0.8134668 -23.50078125 0.8134668 -21.84375 0.81445312 C-14.52038153 0.85377909 -7.28750685 1.28539343 0 2 C0 1.34 0 0.68 0 0 Z " fill="#000000" transform="translate(527,48)"/>
<path d="M0 0 C0.12375 1.0725 0.2475 2.145 0.375 3.25 C0.89643936 6.37863615 1.40088254 8.33480424 3 11 C3.66 11 4.32 11 5 11 C4.9071875 12.6396875 4.9071875 12.6396875 4.8125 14.3125 C5.02291076 18.45057834 5.21331091 18.42767161 8 21 C8.72870472 23.31470912 9.39239518 25.6505947 10 28 C10.37125 28.886875 10.7425 29.77375 11.125 30.6875 C12 33 12 33 12 37 C12.66 37 13.32 37 14 37 C15.31626692 40.61973402 16 43.09567131 16 47 C17.175625 47.0928125 17.175625 47.0928125 18.375 47.1875 C21 48 21 48 22.3125 50.375 C23 53 23 53 23 56 C25.97 56 28.94 56 32 56 C32 58.64 32 61.28 32 64 C30.87980469 63.98839844 29.75960937 63.97679687 28.60546875 63.96484375 C27.13281417 63.95546378 25.66015778 63.9463638 24.1875 63.9375 C23.08051758 63.92493164 23.08051758 63.92493164 21.95117188 63.91210938 C18.70077932 63.89740172 16.10595105 63.96468298 13 65 C12.16209211 63.21046815 11.32980604 61.41830305 10.5 59.625 C10.0359375 58.62726563 9.571875 57.62953125 9.09375 56.6015625 C8 54 8 54 8 52 C7.01 51.505 7.01 51.505 6 51 C6.99 50.34 7.98 49.68 9 49 C0.75 48.67 -7.5 48.34 -16 48 C-16 50.64 -16 53.28 -16 56 C-15.34 56 -14.68 56 -14 56 C-14 58.64 -14 61.28 -14 64 C-14.99 64 -15.98 64 -17 64 C-17 64.66 -17 65.32 -17 66 C-23.41481258 66.42765417 -28.88595404 64.85743168 -35 63 C-34.1904896 58.68502047 -32.96579845 54.93159689 -31 51 C-31.33 50.67 -31.66 50.34 -32 50 C-31.38029401 45.11120832 -29.27697107 41.10814942 -27.15625 36.71875 C-26.05264007 34.12377531 -25.44255109 31.77600227 -25 29 C-24.01 29.66 -23.02 30.32 -22 31 C-21.8453125 29.453125 -21.8453125 29.453125 -21.6875 27.875 C-20.83747382 23.08394337 -19.46508655 19.46508655 -16 16 C-15.61866701 14.0085944 -15.28674418 12.00720923 -15 10 C-14.67 9.01 -14.34 8.02 -14 7 C-13.34 7 -12.68 7 -12 7 C-11.71125 6.030625 -11.4225 5.06125 -11.125 4.0625 C-9.10033971 -1.44907525 -5.19850406 -0.08384684 0 0 Z M-3 23 C-2 25 -2 25 -2 25 Z M-20 25 C-20.33 25.66 -20.66 26.32 -21 27 C-20.34 27 -19.68 27 -19 27 C-19.33 26.34 -19.66 25.68 -20 25 Z M0 26 C1 28 1 28 1 28 Z M-13 27 C-13.33 28.32 -13.66 29.64 -14 31 C-11.50907189 32.24546405 -10.58919267 31.7767578 -8 31 C-8 30.01 -8 29.02 -8 28 C-9.65 27.67 -11.3 27.34 -13 27 Z M1 29 C1.33 30.65 1.66 32.3 2 34 C2.66 33.67 3.32 33.34 4 33 C3.01 31.68 2.02 30.36 1 29 Z M-12 33 C-12.33 34.32 -12.66 35.64 -13 37 C-12.34 36.67 -11.68 36.34 -11 36 C-11.33 35.01 -11.66 34.02 -12 33 Z M3 35 C3.99 36.485 3.99 36.485 5 38 C5 37.01 5 36.02 5 35 C4.34 35 3.68 35 3 35 Z M-14 37 C-15.32 37.99 -16.64 38.98 -18 40 C-17.00516798 41.21643292 -17.00516798 41.21643292 -15.05053711 41.11352539 C-13.8015564 41.10567017 -13.8015564 41.10567017 -12.52734375 41.09765625 C-11.17866211 41.09282227 -11.17866211 41.09282227 -9.80273438 41.08789062 C-8.38444336 41.07532227 -8.38444336 41.07532227 -6.9375 41.0625 C-5.98810547 41.05798828 -5.03871094 41.05347656 -4.06054688 41.04882812 C-1.70696935 41.0370011 0.64648477 41.02052025 3 41 C3 40.67 3 40.34 3 40 C1.28490234 39.92652344 1.28490234 39.92652344 -0.46484375 39.8515625 C-1.95575473 39.77654811 -3.44663892 39.70099972 -4.9375 39.625 C-5.69224609 39.5940625 -6.44699219 39.563125 -7.22460938 39.53125 C-9.15507395 39.4273685 -11.07942081 39.22104386 -13 39 C-13.33 38.34 -13.66 37.68 -14 37 Z M-26 38 C-25 41 -25 41 -25 41 Z M-27 41 C-26 43 -26 43 -26 43 Z M-28 43 C-27 45 -27 45 -27 45 Z M-29 45 C-28 47 -28 47 -28 47 Z M11 53 C12 55 12 55 12 55 Z M-25 55 C-24 57 -24 57 -24 57 Z M12 55 C13 57 13 57 13 57 Z M-26 57 C-25 59 -25 59 -25 59 Z M13 57 C14 59 14 59 14 59 Z M-27 59 C-26 61 -26 61 -26 61 Z " fill="#000000" transform="translate(752,48)"/>
<path d="M0 0 C0.66 0 1.32 0 2 0 C2 0.66 2 1.32 2 2 C2.66 2 3.32 2 4 2 C4.66 3.65 5.32 5.3 6 7 C5.01 7 4.02 7 3 7 C2.95043165 11.75055432 2.91420091 16.50095688 2.89013672 21.25170898 C2.88010104 22.86664453 2.86646949 24.481562 2.84912109 26.09643555 C2.82476535 28.42240875 2.81349253 30.74814095 2.8046875 33.07421875 C2.79436493 33.79212082 2.78404236 34.51002289 2.77340698 35.24967957 C2.77250043 39.33244108 3.38300387 42.27834901 5 46 C4.67 46.66 4.34 47.32 4 48 C4.763125 47.814375 5.52625 47.62875 6.3125 47.4375 C11.30269322 46.84544318 16.02603203 47.42471901 21 48 C21 48.66 21 49.32 21 50 C21.66 50 22.32 50 23 50 C24.68384461 44.15575115 25.26428081 39.03884763 25.16015625 32.9765625 C25.15495468 32.14917572 25.14975311 31.32178894 25.14439392 30.46932983 C25.12673464 27.85436555 25.09555307 25.23981126 25.0625 22.625 C25.03486444 19.98880788 25.01019308 17.35266989 24.99131775 14.71640015 C24.97907216 13.08258067 24.9614797 11.4487907 24.93800354 9.81509399 C24.88830546 4.22338909 24.88830546 4.22338909 26 2 C29.63 2 33.26 2 37 2 C37.07437011 8.42290742 37.12870662 14.84556201 37.16479492 21.26879883 C37.17984555 23.4521115 37.20029074 25.63539411 37.22631836 27.81860352 C37.26286518 30.96378006 37.27976398 34.10855549 37.29296875 37.25390625 C37.30845261 38.2239711 37.32393646 39.19403595 37.33988953 40.1934967 C37.34131014 45.96406117 36.58718962 49.84309888 34 55 C34 55.66 34 56.32 34 57 C30.53846154 60 30.53846154 60 28 60 C28 60.66 28 61.32 28 62 C23.5029301 63.7301704 19.74785648 64.27093735 14.9375 64.25 C13.75027344 64.25515625 12.56304687 64.2603125 11.33984375 64.265625 C8.12511887 64.00995097 5.8912914 63.37732596 3 62 C3 62.66 3 63.32 3 64 C0.53199953 62.84826645 -1.04783565 61.95216435 -3 60 C-3.144375 59.360625 -3.28875 58.72125 -3.4375 58.0625 C-3.82223599 55.92725169 -3.82223599 55.92725169 -5.4375 54.6875 C-7.78369155 52.15361313 -8.17454212 49.30183154 -9 46 C-9.495 44.515 -9.495 44.515 -10 43 C-10.06147513 40.15783032 -10.06763398 37.34086045 -10.02734375 34.5 C-10.01470039 32.79166867 -10.00233922 31.08333523 -9.99023438 29.375 C-9.96538329 26.68222498 -9.93737081 23.98955908 -9.90405273 21.296875 C-9.87389296 18.69790947 -9.85609117 16.09908444 -9.83984375 13.5 C-9.82638412 12.69369141 -9.8129245 11.88738281 -9.79905701 11.05664062 C-9.78155167 7.1663347 -9.79029823 5.31455266 -12 2 C-9.11788698 1.03929566 -7.30149956 0.89418117 -4.3125 0.9375 C-3.10013672 0.95103516 -3.10013672 0.95103516 -1.86328125 0.96484375 C-0.94095703 0.98224609 -0.94095703 0.98224609 0 1 C0 0.67 0 0.34 0 0 Z M7 49 C7 49.66 7 50.32 7 51 C7.66 51 8.32 51 9 51 C9 50.34 9 49.68 9 49 C8.34 49 7.68 49 7 49 Z M12 53 C15.465 52.505 15.465 52.505 19 52 C15.51418144 50.7979936 15.32007656 50.78661563 12 53 Z " fill="#000000" transform="translate(203,48)"/>
<path d="M0 0 C4.29129925 -0.14677671 8.58194224 -0.23456586 12.875 -0.3125 C14.07898438 -0.35439453 15.28296875 -0.39628906 16.5234375 -0.43945312 C24.08872347 -0.54224234 30.96665886 -0.03869054 37 5 C38.16079026 7.92649938 38.10910161 9.78150249 38 13 C38.66 13 39.32 13 40 13 C40.32712342 19.13053511 40.39366878 23.62669111 37 29 C39.31 29.33 41.62 29.66 44 30 C44 40.56 44 51.12 44 62 C40.37108628 62.90722843 38.79888105 62.85951255 35.28125 62.2578125 C30.22058114 61.68588759 25.08566098 61.93117151 20 62 C20 59.36 20 56.72 20 54 C22.31 53.34 24.62 52.68 27 52 C26.195625 51.278125 25.39125 50.55625 24.5625 49.8125 C21.90494781 46.89567442 21.38928032 45.79548316 21 42 C20.70194993 39.80252869 20.70194993 39.80252869 20 38 C18.515 37.505 18.515 37.505 17 37 C17 35.68 17 34.36 17 33 C13.7 33 10.4 33 7 33 C7 42.57 7 52.14 7 62 C5.02 62 3.04 62 1 62 C0 61 0 61 -0.12025452 58.56394958 C-0.11803391 57.48251175 -0.11581329 56.40107391 -0.11352539 55.28686523 C-0.11344986 54.0656749 -0.11337433 52.84448456 -0.11329651 51.58628845 C-0.10818911 50.24372314 -0.10297311 48.90115825 -0.09765625 47.55859375 C-0.09579199 46.19238842 -0.09436813 44.82618243 -0.09336853 43.4599762 C-0.08954394 39.85798305 -0.07971417 36.25603 -0.06866455 32.65405273 C-0.05844916 28.98096255 -0.05387064 25.30786591 -0.04882812 21.63476562 C-0.03809184 14.42315877 -0.02101614 7.211585 0 0 Z M7 6 C7 12.6 7 19.2 7 26 C18.43686057 27.54461609 18.43686057 27.54461609 29 24 C28.34 23.34 27.68 22.68 27 22 C26.76953125 19.9765625 26.76953125 19.9765625 26.8125 17.625 C26.81894531 16.85414062 26.82539062 16.08328125 26.83203125 15.2890625 C26.99404849 13.08110656 27.39365106 11.12464668 28 9 C23.18856169 5.79237446 18.87584248 5.880042 13.1875 5.9375 C10.1246875 5.9684375 10.1246875 5.9684375 7 6 Z M29 11 C29 11.66 29 12.32 29 13 C29.66 12.67 30.32 12.34 31 12 C30.34 11.67 29.68 11.34 29 11 Z M31 16 C32 18 32 18 32 18 Z M37 23 C38 25 38 25 38 25 Z M36 25 C35.67 25.66 35.34 26.32 35 27 C35.66 27 36.32 27 37 27 C36.67 26.34 36.34 25.68 36 25 Z M33 28 C33 28.99 33 29.98 33 31 C32.01 30.67 31.02 30.34 30 30 C26.84979639 30.88319294 26.84979639 30.88319294 24 32 C25.63709315 33.68864588 25.63709315 33.68864588 28 35 C31.01733125 34.7586135 33.29283042 34.35358479 36 33 C36 32.34 36 31.68 36 31 C35.34 31 34.68 31 34 31 C33.67 30.01 33.34 29.02 33 28 Z M28 36 C28 37.32 28 38.64 28 40 C28.99 40.33 29.98 40.66 31 41 C31 41.66 31 42.32 31 43 C31.66 43 32.32 43 33 43 C33 43.66 33 44.32 33 45 C33.66 44.67 34.32 44.34 35 44 C34.319375 43.236875 33.63875 42.47375 32.9375 41.6875 C32.298125 40.800625 31.65875 39.91375 31 39 C31.33 38.01 31.66 37.02 32 36 C30.68 36 29.36 36 28 36 Z M31 44 C32 46 32 46 32 46 Z M33 46 C34 48 34 48 34 48 Z M35 48 C34.67 48.99 34.34 49.98 34 51 C34.99 51.495 34.99 51.495 36 52 C35.67 50.68 35.34 49.36 35 48 Z M29 55 C29.33 56.65 29.66 58.3 30 60 C30.66 59.67 31.32 59.34 32 59 C31.01 57.68 30.02 56.36 29 55 Z M40 58 C41 61 41 61 41 61 Z " fill="#000000" transform="translate(804,50)"/>
<path d="M0 0 C2.97 0 5.94 0 9 0 C9.33 8.58 9.66 17.16 10 26 C24.85 26.495 24.85 26.495 40 27 C40 18.09 40 9.18 40 0 C42.64 0 45.28 0 48 0 C48 20.13 48 40.26 48 61 C48.99 61.495 48.99 61.495 50 62 C46.7 62 43.4 62 40 62 C40 56.72 40 51.44 40 46 C32.08 46 24.16 46 16 46 C16 51.28 16 56.56 16 62 C14.35 62 12.7 62 11 62 C11 52.76 11 43.52 11 34 C10.34 34 9.68 34 9 34 C9 43.24 9 52.48 9 62 C6 62 3 62 0 62 C0.01474869 61.28225403 0.02949738 60.56450806 0.04469299 59.82501221 C0.18281372 53.05692928 0.31577642 46.28876249 0.4429636 39.52046585 C0.5085313 36.04092391 0.57608435 32.56144426 0.64819336 29.08203125 C0.73102877 25.0808287 0.80519494 21.07950611 0.87890625 17.078125 C0.90594131 15.83009094 0.93297638 14.58205688 0.96083069 13.29620361 C0.98092697 12.13530212 1.00102325 10.97440063 1.02172852 9.77832031 C1.04171402 8.75683899 1.06169952 7.73535767 1.08229065 6.68292236 C1.08743429 3.74714559 1.08743429 3.74714559 0 0 Z M12 33 C12 33.33 12 33.66 12 34 C21.24 34 30.48 34 40 34 C40 33.67 40 33.34 40 33 C30.76 33 21.52 33 12 33 Z " fill="#000000" transform="translate(944,50)"/>
<path d="M0 0 C1.98 0.66 3.96 1.32 6 2 C6.33 1.67 6.66 1.34 7 1 C8.40105502 0.8915987 9.80745648 0.85099439 11.21264648 0.83886719 C12.55425087 0.82445587 12.55425087 0.82445587 13.92295837 0.80975342 C14.89584305 0.80550354 15.86872772 0.80125366 16.87109375 0.796875 C17.86375748 0.79117493 18.8564212 0.78547485 19.87916565 0.77960205 C21.98331633 0.77013688 24.08748194 0.76361208 26.19165039 0.75976562 C29.42034577 0.75005161 32.64840711 0.71903888 35.87695312 0.6875 C37.91666287 0.68097123 39.95637718 0.67572026 41.99609375 0.671875 C42.96695419 0.6595282 43.93781464 0.6471814 44.93809509 0.63446045 C45.83565018 0.63746155 46.73320526 0.64046265 47.65795898 0.64355469 C48.44992172 0.63990906 49.24188446 0.63626343 50.05784607 0.63250732 C50.69875687 0.75377991 51.33966766 0.87505249 52 1 C52.66 1.99 53.32 2.98 54 4 C53.01 4 52.02 4 51 4 C51 4.66 51 5.32 51 6 C51.9590625 6.2165625 51.9590625 6.2165625 52.9375 6.4375 C55 7 55 7 56 8 C56 10.97 56 13.94 56 17 C48.08 17 40.16 17 32 17 C32 32.18 32 47.36 32 63 C32.99 63.33 33.98 63.66 35 64 C28.565 64.495 28.565 64.495 22 65 C22 64.34 22 63.68 22 63 C21.34 63 20.68 63 20 63 C20 48.15 20 33.3 20 18 C13.07 17.505 13.07 17.505 6 17 C6 16.34 6 15.68 6 15 C4.35 15 2.7 15 1 15 C-0.4783226 12.04335481 -0.06032783 9.25770263 0 6 C0.33 6.99 0.66 7.98 1 9 C1.66 9 2.32 9 3 9 C3 7.68 3 6.36 3 5 C2.01 4.67 1.02 4.34 0 4 C0 2.68 0 1.36 0 0 Z " fill="#000000" transform="translate(416,47)"/>
<path d="M0 0 C9.4978125 -0.0309375 9.4978125 -0.0309375 19.1875 -0.0625 C21.1780542 -0.071604 23.1686084 -0.08070801 25.21948242 -0.09008789 C26.80647718 -0.09300995 28.39347269 -0.09555783 29.98046875 -0.09765625 C30.79696899 -0.10277222 31.61346924 -0.10788818 32.45471191 -0.11315918 C36.44104249 -0.11376806 40.10842558 0.00735657 44 1 C44 2.65 44 4.3 44 6 C41.525 5.01 41.525 5.01 39 4 C39 4.66 39 5.32 39 6 C28.77 6 18.54 6 8 6 C8 12.93 8 19.86 8 27 C17.57 26.67 27.14 26.34 37 26 C37 33 37 33 36 35 C31.38 35 26.76 35 22 35 C22 35.99 22 36.98 22 38 C21.34 38 20.68 38 20 38 C20 38.66 20 39.32 20 40 C17.69 40 15.38 40 13 40 C13 44.62 13 49.24 13 54 C26.86 54.495 26.86 54.495 41 55 C41 56.98 41 58.96 41 61 C37.66783752 62.66608124 33.93526241 62.12017692 30.2734375 62.09765625 C29.50878174 62.09664917 28.74412598 62.09564209 27.95629883 62.09460449 C25.09585066 62.08936661 22.23542385 62.07540537 19.375 62.0625 C9.784375 62.0315625 9.784375 62.0315625 0 62 C0 41.54 0 21.08 0 0 Z " fill="#000000" transform="translate(652,50)"/>
<path d="M0 0 C16.5 0 33 0 50 0 C50 1.98 50 3.96 50 6 C42.74 6 35.48 6 28 6 C28 24.15 28 42.3 28 61 C26.02 61 24.04 61 22 61 C22 61.66 22 62.32 22 63 C21.34 63 20.68 63 20 63 C20.33 44.19 20.66 25.38 21 6 C14.4 6 7.8 6 1 6 C0.67 5.67 0.34 5.34 0 5 C0 3.35 0 1.7 0 0 Z " fill="#000000" transform="translate(868,50)"/>
<path d="M0 0 C1.15113281 -0.03738281 2.30226563 -0.07476562 3.48828125 -0.11328125 C6.6875 0.3125 6.6875 0.3125 9.12109375 2.109375 C10.6875 4.3125 10.6875 4.3125 10.4375 7.875 C10.19 9.009375 9.9425 10.14375 9.6875 11.3125 C9.6875 12.3025 9.6875 13.2925 9.6875 14.3125 C8.6975 14.9725 7.7075 15.6325 6.6875 16.3125 C6.6875 17.3025 6.6875 18.2925 6.6875 19.3125 C6.09582031 19.22871094 5.50414062 19.14492188 4.89453125 19.05859375 C0.58810543 18.50360576 -3.06802644 18.08023348 -7.3125 19.3125 C-7.415625 18.631875 -7.51875 17.95125 -7.625 17.25 C-8.26339725 14.13365475 -8.26339725 14.13365475 -9.875 10.6875 C-11.3125 7.3125 -11.3125 7.3125 -11.3125 4.3125 C-10.3225 3.9825 -9.3325 3.6525 -8.3125 3.3125 C-7.9825 2.6525 -7.6525 1.9925 -7.3125 1.3125 C-5.44664046 -0.55335954 -2.50013629 0.05283937 0 0 Z M3.6875 4.3125 C3.3575 6.2925 3.0275 8.2725 2.6875 10.3125 C3.3475 10.3125 4.0075 10.3125 4.6875 10.3125 C4.6875 8.3325 4.6875 6.3525 4.6875 4.3125 C4.3575 4.3125 4.0275 4.3125 3.6875 4.3125 Z " fill="#000000" transform="translate(1030.3125,37.6875)"/>
<path d="M0 0 C0.66 0 1.32 0 2 0 C2 18.15 2 36.3 2 55 C1.34 55 0.68 55 0 55 C0 36.85 0 18.7 0 0 Z " fill="#000000" transform="translate(399,55)"/>
<path d="M0 0 C12.87 0 25.74 0 39 0 C39 0.33 39 0.66 39 1 C26.13 1 13.26 1 0 1 C0 0.67 0 0.34 0 0 Z " fill="#000000" transform="translate(491,111)"/>
<path d="M0 0 C0.33 0 0.66 0 1 0 C1 3.63 1 7.26 1 11 C-1 9 -1 9 -1.23046875 7.08984375 C-1.11111111 1.11111111 -1.11111111 1.11111111 0 0 Z " fill="#000000" transform="translate(264,68)"/>
<path d="M0 0 C0.33 0 0.66 0 1 0 C1 4.29 1 8.58 1 13 C0.67 13 0.34 13 0 13 C0 8.71 0 4.42 0 0 Z " fill="#000000" transform="translate(531,49)"/>
<path d="M0 0 C0.33 0 0.66 0 1 0 C1 3.63 1 7.26 1 11 C0.67 11 0.34 11 0 11 C0 7.37 0 3.74 0 0 Z " fill="#000000" transform="translate(534,51)"/>
<path d="M0 0 C0.33 0 0.66 0 1 0 C1 1.98 1 3.96 1 6 C0.34 5.67 -0.32 5.34 -1 5 C-0.67 3.35 -0.34 1.7 0 0 Z " fill="#000000" transform="translate(124,74)"/>
<path d="M0 0 C2.475 0.99 2.475 0.99 5 2 C4.01 2.495 4.01 2.495 3 3 C2.01 2.01 1.02 1.02 0 0 Z " fill="#000000" transform="translate(279,109)"/>
<path d="M0 0 C0.66 0 1.32 0 2 0 C2.33 0.99 2.66 1.98 3 3 C2.01 3 1.02 3 0 3 C0 2.01 0 1.02 0 0 Z " fill="#000000" transform="translate(694,106)"/>
<path d="M0 0 C1.98 0.99 1.98 0.99 4 2 C3.01 2.33 2.02 2.66 1 3 C0.67 2.01 0.34 1.02 0 0 Z " fill="#000000" transform="translate(552,47)"/>
<path d="M0 0 C0.33 0.99 0.66 1.98 1 3 C0.01 3.495 0.01 3.495 -1 4 C-0.67 2.68 -0.34 1.36 0 0 Z " fill="#000000" transform="translate(120,86)"/>
<path d="M0 0 C0.66 0 1.32 0 2 0 C1.67 0.99 1.34 1.98 1 3 C0.67 2.01 0.34 1.02 0 0 Z " fill="#000000" transform="translate(398,52)"/>
<path d="M0 0 C0.66 0 1.32 0 2 0 C2 0.66 2 1.32 2 2 C1.34 2 0.68 2 0 2 C0 1.34 0 0.68 0 0 Z " fill="#000000" transform="translate(206,47)"/>
<path d="M0 0 C0.66 0 1.32 0 2 0 C1.67 0.66 1.34 1.32 1 2 C0.67 1.34 0.34 0.68 0 0 Z " fill="#000000" transform="translate(207,111)"/>
<path d="M0 0 C0.99 0.495 0.99 0.495 2 1 C1.01 1.495 1.01 1.495 0 2 C0 1.34 0 0.68 0 0 Z " fill="#000000" transform="translate(162,111)"/>
<path d="M0 0 C0.33 0.66 0.66 1.32 1 2 C0.34 1.67 -0.32 1.34 -1 1 C-0.67 0.67 -0.34 0.34 0 0 Z " fill="#000000" transform="translate(528,95)"/>
<path d="M0 0 C0.66 0 1.32 0 2 0 C1.67 0.66 1.34 1.32 1 2 C0.67 1.34 0.34 0.68 0 0 Z " fill="#000000" transform="translate(589,89)"/>
<path d="M0 0 C0.33 0.66 0.66 1.32 1 2 C0.34 1.67 -0.32 1.34 -1 1 C-0.67 0.67 -0.34 0.34 0 0 Z " fill="#000000" transform="translate(192,53)"/>
<path d="M0 0 C2 1 2 1 2 1 Z " fill="#000000" transform="translate(435,111)"/>
<path d="M0 0 C2 1 2 1 2 1 Z " fill="#000000" transform="translate(347,111)"/>
<path d="" fill="#000000" transform="translate(0,0)"/>
<path d="" fill="#000000" transform="translate(0,0)"/>
<path d="" fill="#000000" transform="translate(0,0)"/>
<path d="" fill="#000000" transform="translate(0,0)"/>
<path d="" fill="#000000" transform="translate(0,0)"/>
<path d="M0 0 C2 1 2 1 2 1 Z " fill="#000000" transform="translate(827,58)"/>
<path d="" fill="#000000" transform="translate(0,0)"/>
<path d="M0 0 C2 1 2 1 2 1 Z " fill="#000000" transform="translate(319,55)"/>
<path d="" fill="#000000" transform="translate(0,0)"/>
<path d="M0 0 C2 1 2 1 2 1 Z " fill="#000000" transform="translate(739,50)"/>
<path d="M0 0 C2 1 2 1 2 1 Z " fill="#000000" transform="translate(39,50)"/>
<path d="" fill="#000000" transform="translate(0,0)"/>
<path d="" fill="#000000" transform="translate(0,0)"/>
<path d="" fill="#000000" transform="translate(0,0)"/>
<path d="" fill="#000000" transform="translate(0,0)"/>
<path d="" fill="#000000" transform="translate(0,0)"/>
<path d="" fill="#000000" transform="translate(0,0)"/>
<path d="" fill="#000000" transform="translate(0,0)"/>
<path d="" fill="#000000" transform="translate(0,0)"/>
<path d="" fill="#000000" transform="translate(0,0)"/>
<path d="" fill="#000000" transform="translate(0,0)"/>
<path d="" fill="#000000" transform="translate(0,0)"/>
<path d="" fill="#000000" transform="translate(0,0)"/>
</svg>
