<?xml version="1.0" encoding="UTF-8"?>
<svg version="1.1" xmlns="http://www.w3.org/2000/svg" width="4086" height="1129">
<path d="M0 0 C74.58 0 149.16 0 226 0 C241.03870073 61.77435532 241.03870073 61.77435532 245.68359375 80.8828125 C245.98994688 82.14310398 246.29630001 83.40339546 246.61193657 84.70187759 C254.25510312 116.14677505 261.86916243 147.59860676 269.43682671 179.06176186 C272.15580902 190.36573325 274.88797176 201.66640871 277.63365269 212.96392536 C289.91067719 263.48473811 301.68829275 314.03830354 312 365 C312.16554886 364.19412949 312.33109772 363.38825897 312.50166321 362.55796814 C321.93846832 316.72812442 332.17208233 271.13437463 343.3125 225.6875 C343.60094536 224.51068539 343.88939072 223.33387077 344.18657684 222.12139511 C346.79603264 211.4795453 349.41134845 200.83914066 352.0328064 190.20024109 C357.19594122 169.24277455 362.27575506 148.26574353 367.32790756 127.28128433 C368.26689795 123.3822011 369.20733211 119.48346683 370.14770508 115.5847168 C372.7666569 104.72351098 375.38318018 93.86171968 378 83 C384.6 55.61 391.2 28.22 398 0 C472.58 0 547.16 0 624 0 C624 186.45 624 372.9 624 565 C576.15 565 528.3 565 479 565 C478.505 389.275 478.505 389.275 478 210 C472.06 234.75 466.12 259.5 460 285 C456.36475166 299.08801716 452.71652372 313.15806802 448.91125107 327.19875717 C447.61883333 331.97778116 446.33899439 336.7601773 445.05786133 341.54223633 C443.41616368 347.66756277 441.77351882 353.79262743 440.12602234 359.91639709 C435.94314948 375.4646492 431.7920038 391.02118268 427.65625 406.58203125 C427.34814455 407.74124273 427.0400391 408.90045422 426.72259712 410.09479332 C425.47593028 414.78557007 424.2294102 419.47638577 422.98313236 424.16726589 C419.62674661 436.80004263 416.26455942 449.43127391 412.90234375 462.0625 C409.27058132 475.70708267 405.63997233 489.35196927 402.01361179 502.9979887 C400.08730994 510.24645798 398.15962459 517.49455822 396.2307272 524.74233723 C395.14010565 528.8405703 394.05022627 532.93899722 392.96224976 537.03793335 C391.97480406 540.75810639 390.98540804 544.47775467 389.99438286 548.19697571 C389.63792818 549.53616755 389.28222273 550.87555908 388.9273243 552.21516418 C388.4499672 554.0166135 387.96970146 555.81729133 387.48925781 557.61791992 C387.22365051 558.61707932 386.95804321 559.61623871 386.68438721 560.64567566 C386 563 386 563 385 565 C335.83 565 286.66 565 236 565 C234.20608761 559.61826282 232.50778332 554.43197917 231.06494141 548.97998047 C230.89291199 548.33315622 230.72088257 547.68633198 230.54364014 547.019907 C229.97691851 544.88637173 229.41423786 542.75179311 228.8515625 540.6171875 C228.44364522 539.07834213 228.03546549 537.5395663 227.62704468 536.00085449 C226.75085153 532.69767996 225.87643367 529.39404259 225.00341797 526.09002686 C223.59760428 520.76970328 222.18776549 515.45045121 220.77734375 510.13134766 C219.0571808 503.64312045 217.33790916 497.15465845 215.61986923 490.66586876 C211.71375375 475.91328188 207.79451639 461.16419937 203.87192535 446.41598606 C202.61096055 441.67442807 201.35139265 436.93250147 200.0929184 432.19028187 C195.33543959 414.26321567 190.55906132 396.34142864 185.74871826 378.4284668 C183.55302625 370.25104299 181.36367872 362.07192308 179.17542648 353.89250565 C177.6636856 348.24343483 176.1491049 342.59516978 174.62597656 336.94915771 C163.35348056 295.123005 153.25840353 253.11344609 143 211 C142.67 327.82 142.34 444.64 142 565 C95.14 565 48.28 565 0 565 C0 378.55 0 192.1 0 0 Z " fill="#0A1264" transform="translate(282,282)"/>
<path d="M0 0 C350.65055762 0 350.65055762 0 418 54 C418.81339844 54.61101562 419.62679687 55.22203125 420.46484375 55.8515625 C467.50323784 92.23565161 492.15435261 148.08299442 500.00488281 205.82324219 C500.39377832 208.88017778 500.72095285 211.93048132 501 215 C501.08182022 215.86252884 501.16364044 216.72505768 501.24794006 217.61372375 C502.22908185 229.31660248 502.16407267 241.01003856 502.16796875 252.74609375 C502.17119109 255.04753133 502.17455585 257.34896871 502.17805481 259.65040588 C502.18401544 264.46054559 502.18589798 269.27066741 502.18530273 274.08081055 C502.18520153 280.17868782 502.19882494 286.27644758 502.21607494 292.37429714 C502.22731612 297.12675988 502.22921823 301.87919534 502.22869301 306.63167 C502.22985608 308.87623561 502.23418101 311.12080233 502.24202538 313.36535454 C502.30229928 332.39873157 501.51613049 351.40772663 498.1875 370.1875 C498.01573242 371.17613037 497.84396484 372.16476074 497.66699219 373.18334961 C488.19850065 425.96722574 462.95617349 475.74360762 420 509 C419.44715332 509.42925781 418.89430664 509.85851562 418.32470703 510.30078125 C305.69534829 597.12641298 117.10990977 565 0 565 C0 378.55 0 192.1 0 0 Z M155 127 C155 229.3 155 331.6 155 437 C214.30907433 440.11457037 214.30907433 440.11457037 276.1875 431.375 C277.00009277 431.12411621 277.81268555 430.87323242 278.64990234 430.61474609 C291.36080118 426.47338147 303.13402428 420.0637251 313 411 C313.82757812 410.26394531 314.65515625 409.52789063 315.5078125 408.76953125 C336.79218823 388.81949712 345.24527607 358.48717083 346.28192139 330.09640503 C346.42751998 323.74011317 346.41819283 317.38490768 346.3984375 311.02734375 C346.40046627 308.68388275 346.40338432 306.34042238 346.40713501 303.9969635 C346.41151975 299.12185566 346.40525237 294.24691441 346.39111328 289.37182617 C346.37401445 283.18072477 346.38389217 276.99001355 346.40183067 270.79892635 C346.41276535 265.97108619 346.40917835 261.14333577 346.4014473 256.31549263 C346.39947243 254.03495803 346.40180684 251.75441477 346.40888596 249.4738903 C346.4920468 215.17606402 340.9335913 181.38767988 316 156 C315.26265625 155.23816406 314.5253125 154.47632813 313.765625 153.69140625 C274.41434771 115.59461599 199.44578402 127 155 127 Z " fill="#0A1264" transform="translate(2135,282)"/>
<path d="M0 0 C1.00806702 -0.00100708 2.01613403 -0.00201416 3.05474854 -0.00305176 C51.22103303 0.02929312 99.27597636 7.45038863 143.0625 28.25 C143.74119141 28.56549805 144.41988281 28.88099609 145.11914062 29.20605469 C165.03093077 38.4886042 183.1609956 51.10028593 199.0625 66.25 C199.63258789 66.79285645 200.20267578 67.33571289 200.79003906 67.89501953 C209.38732133 76.13613508 217.19976898 84.50176997 224.0625 94.25 C224.46774902 94.8162207 224.87299805 95.38244141 225.29052734 95.96582031 C246.90530914 126.35291705 259.20282205 162.4417779 264.0625 199.25 C264.2299472 200.50833649 264.39739441 201.76667297 264.56991577 203.06314087 C266.45617768 218.62887741 266.3748247 234.21843383 266.36408257 249.87037396 C266.36299596 253.0177513 266.36793886 256.16510922 266.372688 259.3124823 C266.38370371 266.75952512 266.38426678 274.20651747 266.37817383 281.65356445 C266.37215045 289.25271916 266.38442188 296.85168794 266.4057439 304.45081097 C266.42355327 311.04862096 266.42933105 317.64637285 266.42610615 324.24420589 C266.42432246 328.15218522 266.42662747 332.06003215 266.44082069 335.96798897 C266.6662423 403.93066673 249.77624048 467.03367043 201.1875 516.4375 C194.60145195 522.99539866 187.54700369 528.75466055 180.0625 534.25 C179.0621875 534.99507812 178.061875 535.74015625 177.03125 536.5078125 C131.2935887 569.39649163 72.59023425 584.24901078 16.75 584.453125 C15.50162354 584.45882507 14.25324707 584.46452515 12.96704102 584.47039795 C10.33155143 584.47979458 7.69605037 584.48636053 5.06054688 584.49023438 C1.12868249 584.49983834 -2.80263509 584.53087213 -6.734375 584.5625 C-79.70907579 584.86591898 -152.0640443 564.22363515 -204.9375 512.25 C-245.47514668 471.83556805 -264.82674666 411.16442907 -265.09524536 354.85499573 C-265.09636322 353.58470016 -265.09748108 352.3144046 -265.09863281 351.00561523 C-265.10327555 349.61909864 -265.10830209 348.23258328 -265.11367798 346.84606934 C-265.1266738 343.11161549 -265.1332229 339.37717951 -265.13768864 335.64270663 C-265.14064343 333.29394283 -265.14475268 330.94518363 -265.14919281 328.5964222 C-265.16284103 321.20299635 -265.17251777 313.80958139 -265.1763947 306.41614383 C-265.18085326 297.96629772 -265.19830928 289.51661515 -265.2273953 281.06681865 C-265.24925073 274.48191725 -265.25911167 267.897061 -265.26043582 261.31212384 C-265.26146806 257.40513052 -265.26702617 253.49829135 -265.28525543 249.5913372 C-265.5854202 181.27195559 -248.57468346 118.07189431 -199.9375 68.25 C-186.57625651 55.0069976 -171.1557747 44.63932987 -154.9375 35.25 C-154.32648438 34.8895459 -153.71546875 34.5290918 -153.0859375 34.15771484 C-107.57962338 7.48907616 -51.87331223 0.03618796 0 0 Z M-32.9375 129.25 C-33.6579248 129.41628906 -34.37834961 129.58257812 -35.12060547 129.75390625 C-59.39343845 135.60408693 -81.4739162 149.36860734 -94.86474609 170.85083008 C-103.37346594 185.13982501 -109.03476554 202.19416169 -109.07794189 218.93807983 C-109.08091302 219.58528571 -109.08388414 220.23249158 -109.0869453 220.89930975 C-109.09557313 223.05446856 -109.09713553 225.20957143 -109.09863281 227.36474609 C-109.10326544 228.91600664 -109.1082907 230.46726606 -109.11367798 232.01852417 C-109.12676725 236.22572015 -109.13324097 240.4329002 -109.13768864 244.64011335 C-109.14062697 247.27520045 -109.14473334 249.91028327 -109.14919281 252.54536819 C-109.16286299 260.80857363 -109.17253014 269.07176919 -109.1763947 277.33498514 C-109.18086452 286.8377329 -109.19836425 296.34033604 -109.2273953 305.84303987 C-109.24911028 313.20980725 -109.2591043 320.57653426 -109.26043582 327.94333327 C-109.2614775 332.33239986 -109.26724728 336.72133044 -109.28525543 341.11036301 C-109.30190518 345.24891545 -109.30381101 349.38723214 -109.29511642 353.52580643 C-109.2943548 355.03167611 -109.29857079 356.53755935 -109.30857468 358.043396 C-109.48509189 386.30803164 -100.28357291 410.2549355 -80.8125 430.8125 C-66.81323562 444.46515261 -48.82669327 452.06180261 -29.9375 456.25 C-29.00292969 456.46398437 -28.06835938 456.67796875 -27.10546875 456.8984375 C5.34472304 463.30491313 42.36870483 458.59384248 70.40136719 440.41552734 C75.42976205 436.88737375 79.75565737 432.60585365 84.0625 428.25 C84.87589844 427.44691406 85.68929687 426.64382813 86.52734375 425.81640625 C104.56749056 407.03615085 110.55286619 381.37844815 110.46655273 356.04760742 C110.47227517 354.49973565 110.47924654 352.95186809 110.48735046 351.40400696 C110.50509229 347.25085625 110.50414958 343.09791898 110.49840808 338.94474196 C110.49528785 335.45382885 110.50143993 331.96295509 110.50744683 328.47204763 C110.52142874 320.22376252 110.51998444 311.97558111 110.50854492 303.72729492 C110.49707527 295.27141707 110.51113452 286.81585684 110.5379414 278.36002082 C110.56022969 271.05073442 110.5667063 263.74154676 110.56086498 256.43222886 C110.55752473 252.08846659 110.55971166 247.74490762 110.57711601 243.40117455 C110.6928445 211.45584372 108.3728593 181.23261072 84.8046875 156.99609375 C83.89976562 156.08988281 82.99484375 155.18367188 82.0625 154.25 C80.98355469 153.15365234 80.98355469 153.15365234 79.8828125 152.03515625 C55.70846124 129.00110458 21.36549333 125.46162789 -10.39501953 126.11376953 C-18.06621439 126.40877482 -25.46800819 127.51219288 -32.9375 129.25 Z " fill="#0A1264" transform="translate(1812.9375,271.75)"/>
<path d="M0 0 C1.02786621 0.12890625 2.05573242 0.2578125 3.11474609 0.390625 C35.49596597 4.60598947 67.60978395 12.48853751 97 27 C97.7130127 27.35030273 98.42602539 27.70060547 99.16064453 28.06152344 C119.35595661 38.09830948 137.32994889 51.09458699 153.60302734 66.66601562 C154.79431246 67.80358673 155.99929764 68.92678224 157.20703125 70.046875 C171.63525798 83.79923775 182.77433166 101.47248421 192 119 C192.50829346 119.95737061 192.50829346 119.95737061 193.02685547 120.93408203 C207.06852259 147.79074063 214.69187015 178.87195481 217 209 C217.08068726 209.87480515 217.16137451 210.74961029 217.24450684 211.65092468 C218.31855325 224.87441065 218.16473823 238.12714072 218.16725707 251.38519168 C218.16797535 253.51568336 218.17012418 255.64616888 218.17275429 257.77665901 C218.18196781 265.25434899 218.18609453 272.73202133 218.18530273 280.2097168 C218.18470418 287.10612516 218.19522254 294.00245475 218.2110464 300.89884323 C218.22426369 306.87909279 218.22948073 312.85931708 218.22884732 318.83958107 C218.2285963 322.38478098 218.23122143 325.92991081 218.24202538 329.47509575 C218.30142415 350.41048012 217.90713273 371.38878325 214.25 392.0625 C214.08081055 393.03743408 213.91162109 394.01236816 213.73730469 395.0168457 C203.50953394 451.52845825 174.49861693 502.05077858 127.23925781 535.46337891 C94.27191381 558.08619434 56.84691217 571.16773459 17.625 577.8125 C16.47515625 578.00739014 15.3253125 578.20228027 14.140625 578.40307617 C-5.0957635 581.46820015 -24.15823266 582.3488491 -43.62597656 582.31567383 C-47.46708967 582.31252696 -51.30741951 582.33602595 -55.1484375 582.36132812 C-77.87009719 582.42033198 -100.52082566 580.82031224 -122.8125 576.25 C-124.09108887 575.99395996 -125.36967773 575.73791992 -126.68701172 575.47412109 C-173.25145718 565.95430783 -215.6935294 546.17858663 -250 513 C-250.79664063 512.25492188 -251.59328125 511.50984375 -252.4140625 510.7421875 C-259.01768393 504.41857828 -264.52367066 497.29447943 -270 490 C-270.62777344 489.16726563 -271.25554688 488.33453125 -271.90234375 487.4765625 C-294.85741007 455.82557694 -306.64098796 418.36054434 -311.75 379.9375 C-311.86593506 379.07785645 -311.98187012 378.21821289 -312.10131836 377.33251953 C-314.39162577 358.18324708 -314.15250973 338.71772414 -314.1328125 319.46484375 C-314.13348903 317.08419281 -314.13446194 314.70354194 -314.13571167 312.32289124 C-314.13717196 307.37402681 -314.13508834 302.42518064 -314.13037109 297.47631836 C-314.12467172 291.19815335 -314.12796492 284.92003109 -314.13394356 278.64186764 C-314.137592 273.73848663 -314.13639117 268.83511542 -314.13381577 263.93173409 C-314.13315845 261.61935992 -314.13393199 259.3069848 -314.13629532 256.99461174 C-314.16645542 219.21734933 -314.16645542 219.21734933 -311.75 201.125 C-311.61924072 200.13709473 -311.48848145 199.14918945 -311.35375977 198.13134766 C-303.60398489 142.27814987 -279.06088241 88.86983256 -234.05078125 53.3046875 C-221.89786081 44.12386412 -209.55050561 35.98239622 -196 29 C-195.32565918 28.6498584 -194.65131836 28.2997168 -193.95654297 27.93896484 C-163.04980626 12.09537905 -129.20715604 4.44165353 -95 0 C-94.00629395 -0.13277344 -93.01258789 -0.26554687 -91.98876953 -0.40234375 C-62.17959696 -4.19169045 -29.80297675 -3.78515805 0 0 Z M-81 127 C-81.7204248 127.16628906 -82.44084961 127.33257812 -83.18310547 127.50390625 C-98.69585975 131.24275352 -112.56905682 137.95198522 -125 148 C-125.76570313 148.59039062 -126.53140625 149.18078125 -127.3203125 149.7890625 C-146.69537401 165.65365991 -155.04071275 190.57972411 -157.71479034 214.65818405 C-158.68051012 225.97357145 -158.4322914 237.40068219 -158.40297651 248.75035977 C-158.395245 252.69539022 -158.40246199 256.64040243 -158.40713501 260.58543396 C-158.41255347 267.20242133 -158.40550427 273.8193074 -158.39111328 280.4362793 C-158.37478758 288.02935575 -158.3800906 295.6221904 -158.3965925 303.21526104 C-158.410312 309.79770426 -158.4120767 316.38007572 -158.40427649 322.96252865 C-158.3996577 326.86634611 -158.39881155 330.77005084 -158.40888596 334.67386055 C-158.48679071 369.73412085 -155.49311685 401.71781048 -130 428 C-107.28928286 450.54662237 -74.93231886 457.07414012 -44 457 C-11.14690125 456.06387924 17.39724194 445.65651464 40.21484375 421.671875 C57.0717168 402.04446638 62.32447522 376.98111913 62.2746582 351.76489258 C62.27901787 350.2848078 62.28420513 348.80472527 62.29014587 347.324646 C62.30341541 343.34290333 62.30412791 339.36125629 62.30158257 335.37949586 C62.30050417 332.03528082 62.30541848 328.69108445 62.310188 325.34687346 C62.32124254 317.44436922 62.32174416 309.54191251 62.31567383 301.6394043 C62.30964343 293.53523611 62.32193064 285.43124195 62.3432439 277.32710344 C62.36096454 270.32703142 62.36684473 263.32701426 62.36360615 256.32692069 C62.36180901 252.16482183 62.36426961 248.002847 62.37832069 243.84076881 C62.47942594 211.06872185 60.09992098 180.36791323 37 155 C36.41476562 154.34515625 35.82953125 153.6903125 35.2265625 153.015625 C17.55978262 134.27059095 -10.8595728 124.91593525 -36.04516602 123.87402344 C-51.24432128 123.53034308 -66.14025604 123.54282119 -81 127 Z " fill="#0A1264" transform="translate(1277,274)"/>
<path d="M0 0 C0.85980469 0.72703125 1.71960937 1.4540625 2.60546875 2.203125 C14.78806585 12.6619524 24.13103405 25.07798333 32 39 C32.36077637 39.63631348 32.72155273 40.27262695 33.09326172 40.92822266 C51.601452 74.1985933 53 109.49874566 53 147 C3.17 147 -46.66 147 -98 147 C-98.33 136.77 -98.66 126.54 -99 116 C-103.81176068 100.36177779 -107.62545932 91.78132393 -121.45703125 83.53515625 C-134.32523771 77.03186911 -150.1434238 74.88292042 -164.42578125 74.796875 C-165.59761459 74.78635353 -165.59761459 74.78635353 -166.79312134 74.77561951 C-169.29964012 74.75821205 -171.805923 74.75176796 -174.3125 74.75 C-175.59364182 74.74898788 -175.59364182 74.74898788 -176.90066528 74.74795532 C-199.45951786 74.77633457 -224.83759847 76.29980045 -242.4375 92.3515625 C-249.40490406 99.70217378 -252.07487156 108.95496714 -252.375 118.9375 C-252.03195092 129.97224531 -249.34608296 139.90442031 -241.21875 147.7109375 C-239.22221282 149.3228958 -237.19763462 150.67598338 -235 152 C-234.29101562 152.42925781 -233.58203125 152.85851562 -232.8515625 153.30078125 C-226.7566783 156.48629516 -220.37408341 157.970309 -213.70288086 159.40039062 C-212.69625113 159.6170916 -211.68962141 159.83379257 -210.65248775 160.05706024 C-200.07667891 162.27713351 -189.43232128 163.94394407 -178.74502754 165.52415466 C-175.20276584 166.04805749 -171.66206525 166.58162735 -168.12156677 167.11730957 C-160.60310993 168.25315571 -153.08292536 169.37727274 -145.5625 170.5 C-136.83182421 171.80407598 -128.10196678 173.11329697 -119.37367058 174.43321228 C-115.93421155 174.95101469 -112.49362051 175.46069956 -109.0528717 175.96984863 C-98.35076883 177.57279195 -87.71538912 179.35582304 -77.11694336 181.54882812 C-76.16955827 181.74444084 -75.22217318 181.94005356 -74.24607944 182.14159393 C-31.28541151 191.30186775 9.82813825 212.07918789 34.5625 249.5625 C52.57274735 277.97152111 59.22081714 310.9032131 59.25 344.1875 C59.25067474 344.88564819 59.25134949 345.58379639 59.25204468 346.30310059 C59.18183126 392.42872399 45.18509591 435.32760761 13 469 C12.03126953 470.06347656 12.03126953 470.06347656 11.04296875 471.1484375 C-28.10235303 512.61403648 -93.13403293 529.27768347 -148.22250366 531.10700989 C-151.65903863 531.16345636 -155.0942733 531.19079373 -158.53125 531.203125 C-159.80182251 531.20882507 -161.07239502 531.21452515 -162.38146973 531.22039795 C-165.0640823 531.22979608 -167.7465846 531.23671782 -170.42919922 531.24023438 C-174.43343435 531.24670383 -178.43729147 531.28087426 -182.44140625 531.3125 C-248.37909322 531.58235387 -317.22296819 515.96175515 -365.52001953 468.50292969 C-388.03363419 445.64020916 -401.28060854 415.24336816 -406.6875 383.9375 C-406.86671997 382.91293701 -406.86671997 382.91293701 -407.04956055 381.86767578 C-409.97698145 363.71809011 -409 345.30377193 -409 327 C-359.5 327 -310 327 -259 327 C-258.67 335.25 -258.34 343.5 -258 352 C-256.73451321 365.18215402 -253.75074995 377.43357425 -244 387 C-218.42949811 406.9958901 -179.75374807 406.19045932 -149.0234375 402.69140625 C-130.93463704 400.3617354 -112.77134127 394.98959375 -100.73046875 380.44921875 C-93.90952047 370.79519038 -93.81146025 359.40247504 -95 348 C-96.84624297 338.78853106 -100.35962319 331.38102747 -108.0625 325.875 C-117.14759807 320.32381366 -125.93052077 317.63223209 -136.30419922 315.59960938 C-137.40124617 315.3829084 -138.49829311 315.16620743 -139.62858391 314.94293976 C-150.6017713 312.8169246 -161.6251536 311.09978388 -172.68219376 309.47584534 C-176.25358741 308.95100118 -179.82365266 308.41778499 -183.39352417 307.88269043 C-192.24736188 306.55705598 -201.10296978 305.24343892 -209.95898438 303.93243408 C-217.48934368 302.81750574 -225.01872542 301.69636599 -232.5469017 300.56678772 C-236.01682968 300.04857145 -239.48797259 299.53917396 -242.95925903 299.03015137 C-261.86351648 296.21855699 -280.77189017 292.96296111 -298.875 286.6875 C-300.00719971 286.30070068 -301.13939941 285.91390137 -302.3059082 285.51538086 C-322.18285476 278.57892592 -340.12860582 268.94466954 -356 255 C-356.90105469 254.24332031 -357.80210937 253.48664063 -358.73046875 252.70703125 C-387.41917403 227.90283331 -401.78807125 190.057133 -405 153 C-405.14756482 149.81729044 -405.18677778 146.63897314 -405.203125 143.453125 C-405.20882507 142.56123474 -405.21452515 141.66934448 -405.22039795 140.75042725 C-405.22979074 138.86797243 -405.23635898 136.9855016 -405.24023438 135.10302734 C-405.24983283 132.29883917 -405.2808665 129.49541973 -405.3125 126.69140625 C-405.41002176 110.19326478 -403.89738059 93.78657232 -399.3125 77.875 C-399.05831299 76.97378418 -398.80412598 76.07256836 -398.54223633 75.14404297 C-386.2720897 33.2544014 -358.17454702 -0.75750147 -320.10644531 -21.85986328 C-290.03968823 -38.13382661 -256.86779081 -47.05315045 -223 -51 C-222.16146484 -51.10296387 -221.32292969 -51.20592773 -220.45898438 -51.31201172 C-146.84991295 -59.95984806 -57.36678033 -51.36416358 0 0 Z " fill="#0A1264" transform="translate(3745,325)"/>
<path d="M0 0 C22.5566292 -0.56191235 45.11209743 -0.98445868 67.67431736 -1.24349213 C78.15204544 -1.36699611 88.62541389 -1.5351703 99.1003418 -1.81054688 C108.23622645 -2.05060562 117.36895458 -2.20478044 126.50790542 -2.25812387 C131.34416984 -2.28929434 136.1714101 -2.36185053 141.00476265 -2.53752136 C170.34444737 -3.56339713 170.34444737 -3.56339713 178.06453705 2.34562111 C183.05232491 7.97086633 186.14774323 14.19519557 188.85187244 21.16261196 C190.40930731 25.01152843 192.45870574 28.25901755 194.7265625 31.73046875 C196.02748026 33.88194329 197.3269958 36.03426643 198.625 38.1875 C200.05986226 40.56070557 201.49641861 42.93288197 202.93359375 45.3046875 C203.28148453 45.8789296 203.62937531 46.45317169 203.98780823 47.04481506 C207.702512 53.16962687 211.47784231 59.25623556 215.25830078 65.34057617 C219.20887734 71.70498335 223.11210661 78.09713392 227 84.5 C231.46605714 91.85473567 235.9614686 99.18976208 240.5 106.5 C245.0385329 113.81024033 249.53371626 121.14540023 254 128.5 C263.48692427 144.11397851 273.03790638 159.68360283 283 175 C283.27972656 174.53029785 283.55945312 174.0605957 283.84765625 173.57666016 C290.05187147 163.17063519 296.32620134 152.81079729 302.6875 142.5 C308.30415462 133.3948947 313.88997574 124.27233539 319.4375 115.125 C319.78944427 114.54468018 320.14138855 113.96436035 320.5039978 113.36645508 C322.2894375 110.42200104 324.0742852 107.47718867 325.85888672 104.53222656 C329.75532859 98.10304198 333.65892907 91.67819984 337.56121826 85.25256348 C338.62288808 83.50434026 339.68451002 81.75608799 340.74609375 80.0078125 C341.27172913 79.14216675 341.27172913 79.14216675 341.8079834 78.2590332 C343.94455127 74.73989361 346.0794434 71.21974334 348.21307373 67.69882202 C356.85887496 53.43165029 365.55219594 39.19574716 374.30859375 24.99609375 C378.16888739 18.73352744 382.0023388 12.4546965 385.81591797 6.16357422 C388.89150259 1.10849741 388.89150259 1.10849741 390 0 C392.15159726 -0.096937 394.30644111 -0.12186783 396.46022034 -0.12025452 C397.14302801 -0.12110894 397.82583568 -0.12196337 398.52933449 -0.12284368 C400.83411691 -0.12450043 403.13882772 -0.11897397 405.44360352 -0.11352539 C407.08905028 -0.11324353 408.73449716 -0.11340122 410.37994385 -0.1139679 C414.86115759 -0.11425593 419.34234481 -0.10835821 423.82355237 -0.10139394 C428.50142105 -0.09516142 433.17929028 -0.09455668 437.85716248 -0.09336853 C446.72175168 -0.09025491 455.58632862 -0.08204111 464.45091242 -0.07201904 C474.54022202 -0.06085885 484.6295322 -0.05534769 494.71884644 -0.05032361 C515.47923782 -0.03985852 536.23961814 -0.02225849 557 0 C555.61605712 3.56720874 554.09222622 6.6200008 551.98046875 9.81640625 C551.07554687 11.1940918 551.07554687 11.1940918 550.15234375 12.59960938 C549.50394531 13.57736328 548.85554688 14.55511719 548.1875 15.5625 C546.81621555 17.64700998 545.44512507 19.73164757 544.07421875 21.81640625 C543.38634277 22.85941895 542.6984668 23.90243164 541.98974609 24.97705078 C539.14062548 29.3056166 536.31943576 33.65206601 533.5 38 C528.84182894 45.17221866 524.17320035 52.33756624 519.5 59.5 C513.187091 69.17597367 506.88649699 78.85987864 500.59277344 88.54833984 C497.89595246 92.69939383 495.19790786 96.84965238 492.5 101 C491.41666095 102.66666295 490.33332761 104.33332961 489.25 106 C487.08333333 109.33333333 484.91666667 112.66666667 482.75 116 C482.21391113 116.8247583 481.67782227 117.6495166 481.12548828 118.49926758 C480.04055022 120.16839052 478.95558923 121.83749856 477.87060547 123.5065918 C475.18663762 127.63555642 472.50304969 131.7647669 469.8203125 135.89453125 C463.42060283 145.74506476 457.0095173 155.58809791 450.59082031 165.42626953 C444.91494637 174.1272293 439.25203073 182.83656623 433.59277344 191.54833984 C430.89595246 195.69939383 428.19790786 199.84965238 425.5 204 C424.41666095 205.66666295 423.33332761 207.33332961 422.25 209 C420.08333333 212.33333333 417.91666667 215.66666667 415.75 219 C415.21391113 219.8247583 414.67782227 220.6495166 414.12548828 221.49926758 C413.04055022 223.16839052 411.95558923 224.83749856 410.87060547 226.5065918 C408.18663762 230.63555642 405.50304969 234.7647669 402.8203125 238.89453125 C396.42149011 248.74369905 390.01240705 258.58609812 383.59301758 268.421875 C380.5835596 273.03402357 377.57740545 277.64822098 374.58203125 282.26953125 C374.0303125 283.1203125 373.47859375 283.97109375 372.91015625 284.84765625 C371.91045843 286.38997734 370.91162 287.9328562 369.9140625 289.4765625 C369.44355469 290.20230469 368.97304687 290.92804688 368.48828125 291.67578125 C368.00968029 292.4393651 367.53107933 293.20294895 367.03797531 293.98967171 C365.46271956 296.316509 363.86227367 298.41594714 362.08546829 300.57879448 C352.03966422 313.33653412 351.30293055 324.15430821 351.54589844 339.99267578 C351.53940734 342.45837252 351.52763501 344.92406008 351.5110321 347.38970947 C351.48724885 352.66106718 351.49952536 357.93096986 351.5460434 363.20212173 C351.61323118 370.82276275 351.61316019 378.44228735 351.59759203 386.06315528 C351.57410936 398.43221461 351.60370512 410.80053863 351.66748047 423.16943359 C351.72925205 435.17210387 351.76539109 447.1744113 351.76806641 459.17724609 C351.7683641 460.3015738 351.7683641 460.3015738 351.76866782 461.44861519 C351.77002261 467.31212844 351.76990883 473.17564143 351.76933169 479.03915477 C351.766886 507.69332274 351.89232349 536.34562523 352 565 C303.82 565 255.64 565 206 565 C206.13664062 547.33855469 206.27328125 529.67710937 206.4140625 511.48046875 C206.4604591 500.25577218 206.50225658 489.03136633 206.5234375 477.80664062 C206.53475241 471.90404923 206.54719418 466.00146185 206.56152344 460.09887695 C206.56327198 459.35926336 206.56502052 458.61964976 206.56682205 457.85762364 C206.59654997 445.97564188 206.68967537 434.09498254 206.80694492 422.2135789 C206.9261985 409.98541246 206.97563949 397.75834162 206.96262586 385.5295952 C206.95727158 378.67459459 206.98274273 371.82276206 207.08833694 364.96849632 C208.40844035 324.81176993 208.40844035 324.81176993 189.05945969 291.25696754 C186.1908859 288.11328963 184.0960176 284.68304952 182 281 C177.54160637 273.69585743 172.76412039 266.60624164 168 259.5 C162.82495763 251.7792752 157.69604 244.04667397 152.82495117 236.12915039 C148.9314197 229.82662427 144.87357888 223.6329257 140.8125 217.4375 C140.44748383 216.88059479 140.08246765 216.32368958 139.70639038 215.74990845 C138.2267761 213.49297402 136.74674999 211.23631057 135.26609802 208.98005676 C131.58377309 203.36840847 127.91541903 197.74770019 124.25 192.125 C123.32852173 190.71178467 123.32852173 190.71178467 122.38842773 189.27001953 C116.781703 180.66920973 111.18575556 172.06141079 105.59277344 163.45166016 C102.89595246 159.30060617 100.19790786 155.15034762 97.5 151 C96.41666095 149.33333705 95.33332761 147.66667039 94.25 146 C93.71375 145.175 93.1775 144.35 92.625 143.5 C87.75 136 87.75 136 86.12548828 133.50073242 C85.04055022 131.83160948 83.95558923 130.16250144 82.87060547 128.4934082 C80.18663762 124.36444358 77.50304969 120.2352331 74.8203125 116.10546875 C69.05511648 107.2315886 63.28230152 98.36274502 57.5 89.5 C51.18711516 79.82401053 44.88649702 70.14012141 38.59277344 60.45166016 C36.4387053 57.13603289 34.28383122 53.8209298 32.12890625 50.50585938 C30.50511701 48.00787185 28.88146455 45.50979545 27.2578125 43.01171875 C25.06558485 39.63901012 22.87282092 36.26665096 20.6796875 32.89453125 C18.50802024 29.55539715 16.33752218 26.21550787 14.16796875 22.875 C12.02850087 19.58086719 9.88467171 16.2896258 7.73828125 13 C6.72128934 11.4375422 5.70435942 9.87504404 4.6875 8.3125 C4.21296387 7.58716064 3.73842773 6.86182129 3.24951172 6.11450195 C0 1.11332892 0 1.11332892 0 0 Z " fill="#0A1264" transform="translate(2589,282)"/>
<path d="M0 0 C50.82 0 101.64 0 154 0 C154.309375 23.0175 154.61875 46.035 154.9375 69.75 C155.14234009 80.59697754 155.14234009 80.59697754 155.35131836 91.66308594 C155.41906738 100.58642578 155.41906738 100.58642578 155.43165588 104.78179932 C155.4454744 107.67439155 155.50098902 110.56273399 155.58363342 113.4541626 C156.06234537 130.97713309 155.43383123 144.33172664 142.91334534 157.85797119 C142.26436342 158.52903145 141.61538151 159.20009171 140.94673347 159.89148712 C137.61631142 163.49867726 134.84334117 167.50644022 132 171.5 C130.84616875 173.07469183 129.6901993 174.64782116 128.53125 176.21875 C127.665 177.394375 127.665 177.394375 126.78125 178.59375 C123.08259059 183.59018464 119.33997492 188.55372623 115.60327148 193.52172852 C111.38655692 199.13402023 107.21363914 204.77658755 103.0625 210.4375 C98.03632609 217.29013683 92.91737026 224.06579051 87.75 230.8125 C81.80061377 238.57434832 81.80061377 238.57434832 76.04614258 246.48071289 C75.26866376 247.57229509 74.4768136 248.6537896 73.6706543 249.72436523 C71.20696559 253.04348076 69.30974063 256.35124088 67.51171875 260.078125 C64.49688997 265.75410793 61.71205735 270.73832684 56 274 C44.90268913 276.88605688 32.26199415 275.13539288 21 274 C26.23786769 257.87890817 31.87143783 241.9348847 37.78164673 226.04879761 C39.85599299 220.47239276 41.91999626 214.89216861 43.98298836 209.31155586 C44.67240425 207.44663502 45.36213367 205.5818301 46.05186462 203.71702576 C52.15777899 187.18839512 58.077742 170.59533835 64 154 C42.88 154 21.76 154 0 154 C0 103.18 0 52.36 0 0 Z " fill="#0A1264" transform="translate(3161,282)"/>
</svg>
