<?xml version="1.0" encoding="UTF-8"?>
<svg version="1.1" xmlns="http://www.w3.org/2000/svg" width="1200" height="300">
<path d="M0 0 C0.82927002 0.00829834 1.65854004 0.01659668 2.51293945 0.02514648 C12.47860416 0.29875193 19.66547655 2.88616878 27.06640625 9.65625 C28.66797819 11.48661793 29.64744817 13.21977048 30.625 15.4375 C31.08648438 15.00179687 31.54796875 14.56609375 32.0234375 14.1171875 C42.67008093 4.39633915 52.48148632 0.03635137 66.875 0.0625 C67.79869385 0.06411133 68.7223877 0.06572266 69.67407227 0.06738281 C80.87185536 0.26778177 89.78604662 3.1682006 98.1875 10.75 C107.7700889 21.31541853 110.76374649 33.60071941 110.73852539 47.74975586 C110.73867142 48.44328156 110.73881744 49.13680725 110.7389679 49.85134888 C110.7382774 52.11838023 110.73052592 54.38532695 110.72265625 56.65234375 C110.720789 58.23417618 110.71936655 59.81600919 110.71836853 61.39784241 C110.71456755 65.54226301 110.70475814 69.68664805 110.69366455 73.83105469 C110.6833982 78.06770344 110.67885976 82.30435799 110.67382812 86.54101562 C110.66313351 94.83986182 110.64555653 103.13867237 110.625 111.4375 C101.715 111.4375 92.805 111.4375 83.625 111.4375 C83.60312622 108.42616943 83.60312622 108.42616943 83.58081055 105.35400391 C83.53025931 98.68829291 83.46362932 92.02281051 83.38928509 85.3573246 C83.34473782 81.31978005 83.30544828 77.28233277 83.27856445 73.24462891 C83.25237401 69.34109786 83.21186334 65.43794433 83.16181374 61.5346489 C83.1452506 60.05252182 83.1336711 58.57032961 83.12738609 57.08812332 C83.08327557 47.63350793 82.96228543 38.6049097 77.6875 30.4375 C73.09901188 25.98805698 67.83398428 25.37377142 61.625 25.4375 C55.67369678 26.47944741 51.33394979 28.52859587 47.625 33.4375 C44.38956053 40.0171332 43.52047148 46.70770441 43.41967773 53.99365234 C43.39973251 55.27452728 43.37978729 56.55540222 43.35923767 57.87509155 C43.34225854 59.25787234 43.32537955 60.64065435 43.30859375 62.0234375 C43.28799945 63.44976368 43.26700236 64.87608409 43.24562073 66.30239868 C43.19065556 70.0407034 43.14113457 73.77906085 43.09277344 77.51745605 C43.04237076 81.33850753 42.98678305 85.15948326 42.93164062 88.98046875 C42.82437203 96.46608324 42.72333845 103.9517619 42.625 111.4375 C33.715 111.4375 24.805 111.4375 15.625 111.4375 C15.6156543 109.40489014 15.60630859 107.37228027 15.59667969 105.27807617 C15.56274869 98.52453199 15.50711156 91.7712882 15.44109726 85.01798534 C15.40176919 80.92774659 15.36950953 76.83771839 15.35400391 72.74731445 C15.33873964 68.79183265 15.30412436 64.83693029 15.25669098 60.88170815 C15.24197697 59.38087342 15.23396478 57.87995591 15.23311615 56.3790493 C15.22209226 46.64864995 15.11717818 36.55359182 8.375 28.875 C1.45245068 25.25639468 -4.81115821 24.85680077 -12.375 26.4375 C-16.56965626 28.26126359 -18.75122617 30.73220134 -21.375 34.4375 C-24.59022187 43.86930704 -24.83843122 53.71830966 -24.88671875 63.5859375 C-24.90362202 64.97841919 -24.92177951 66.37088616 -24.94111633 67.76333618 C-24.98801127 71.37658068 -25.01820731 74.98976555 -25.04455566 78.60321045 C-25.07467207 82.31111363 -25.12093912 86.01881599 -25.16601562 89.7265625 C-25.25284336 96.96355319 -25.31330534 104.20007817 -25.375 111.4375 C-34.285 111.4375 -43.195 111.4375 -52.375 111.4375 C-52.375 75.4675 -52.375 39.4975 -52.375 2.4375 C-44.125 2.4375 -35.875 2.4375 -27.375 2.4375 C-27.045 4.7475 -26.715 7.0575 -26.375 9.4375 C-25.90191406 9.03917969 -25.42882812 8.64085938 -24.94140625 8.23046875 C-24.28011719 7.70066406 -23.61882813 7.17085938 -22.9375 6.625 C-22.29941406 6.10292969 -21.66132812 5.58085938 -21.00390625 5.04296875 C-14.3952718 1.00708649 -7.64324132 -0.09932382 0 0 Z " fill="#333333" transform="translate(858.375,110.5625)"/>
<path d="M0 0 C2.8194982 2.20570295 5.56050889 4.45504014 8.09375 6.98828125 C8.42375 3.35828125 8.75375 -0.27171875 9.09375 -4.01171875 C17.34375 -4.01171875 25.59375 -4.01171875 34.09375 -4.01171875 C34.09375 31.95828125 34.09375 67.92828125 34.09375 104.98828125 C25.84375 104.98828125 17.59375 104.98828125 9.09375 104.98828125 C8.76375 101.35828125 8.43375 97.72828125 8.09375 93.98828125 C7.16755859 94.78492188 7.16755859 94.78492188 6.22265625 95.59765625 C-7.64610892 107.16551517 -20.28015951 108.17726762 -37.90625 106.98828125 C-42.25810431 106.17945176 -45.94218068 104.93195395 -49.90625 102.98828125 C-50.68484375 102.63765625 -51.4634375 102.28703125 -52.265625 101.92578125 C-66.13897549 95.03694514 -74.06302818 83.30838423 -78.90625 68.98828125 C-79.133125 68.32957031 -79.36 67.67085938 -79.59375 66.9921875 C-83.90664338 51.62750482 -81.08966428 33.67183809 -73.69921875 19.83984375 C-65.31733011 6.50917119 -53.71268536 -1.53916201 -38.64453125 -5.625 C-25.69579421 -7.45370894 -11.05586932 -7.65292029 0 0 Z M-43.93359375 25.8984375 C-51.53676584 33.95328318 -54.38406979 43.01130154 -54.15234375 53.9296875 C-53.49186533 62.13849073 -50.85146836 69.16796243 -44.90625 74.98828125 C-37.1961209 80.88889026 -28.65476822 83.96313307 -18.90625 82.98828125 C-10.51972548 81.19039987 -3.38985807 78.84603224 2.09375 71.98828125 C8.13127938 62.16783872 9.78125013 52.37203984 7.48046875 40.94140625 C4.84753386 32.72943311 -0.16284354 25.72085422 -7.84375 21.55078125 C-20.10866605 16.2529181 -33.54714499 16.98230272 -43.93359375 25.8984375 Z " fill="#333333" transform="translate(691.90625,117.01171875)"/>
<path d="M0 0 C2.05619482 1.72479345 3.97710093 3.47710093 5.875 5.375 C6.205 1.745 6.535 -1.885 6.875 -5.625 C15.125 -5.625 23.375 -5.625 31.875 -5.625 C31.875 30.345 31.875 66.315 31.875 103.375 C23.625 103.375 15.375 103.375 6.875 103.375 C6.545 99.745 6.215 96.115 5.875 92.375 C4.781875 93.426875 3.68875 94.47875 2.5625 95.5625 C-9.27232148 105.96279766 -22.47354763 106.03937258 -37.40771484 105.55419922 C-49.64473438 104.74719362 -61.91151872 97.28859091 -70.125 88.375 C-81.26149533 73.5718876 -84.93579884 57.1741651 -82.6953125 38.86328125 C-79.92895792 23.61417855 -72.54447529 10.15676807 -59.8125 1.0625 C-42.37342948 -9.72581779 -17.14252971 -12.9515327 0 0 Z M-47.94921875 26.08984375 C-53.78719168 33.04541352 -56.93215157 43.12834636 -56.44921875 52.1875 C-54.96386393 62.20917105 -51.02104668 69.2996338 -43.27734375 75.83203125 C-35.82122909 81.17715882 -27.32754145 81.74332583 -18.48046875 80.93359375 C-10.54837422 79.61311701 -4.5481323 75.89008466 0.40234375 69.58203125 C6.18739803 60.91212231 7.29136305 51.56821202 5.875 41.375 C3.45603766 31.9239215 -1.2977766 25.32937985 -9.4375 20.0625 C-22.37215131 13.24400734 -37.54035101 16.3050623 -47.94921875 26.08984375 Z " fill="#333333" transform="translate(1067.125,118.625)"/>
<path d="M0 0 C0.89976562 -0.020625 1.79953125 -0.04125 2.7265625 -0.0625 C14.01970267 -0.1274031 23.11604005 3.1858864 31.546875 10.75 C32.69166957 11.88193171 33.79031404 13.06034443 34.875 14.25 C35.205 10.29 35.535 6.33 35.875 2.25 C43.795 2.25 51.715 2.25 59.875 2.25 C59.875 38.22 59.875 74.19 59.875 111.25 C51.625 111.25 43.375 111.25 34.875 111.25 C34.545 107.62 34.215 103.99 33.875 100.25 C32.72 101.3225 31.565 102.395 30.375 103.5 C26.49034124 106.89736057 22.65783797 109.3314091 17.875 111.25 C17.03324219 111.60707031 16.19148438 111.96414062 15.32421875 112.33203125 C0.603912 116.24966668 -16.09147836 113.78469172 -29.3125 106.625 C-41.8369195 98.42424558 -50.44428332 86.13705583 -53.77636719 71.47802734 C-56.32748153 55.17447728 -55.01518551 37.55972733 -45.80859375 23.5546875 C-34.44496136 7.99890302 -19.15894526 0.10703321 0 0 Z M-19.875 34.9375 C-27.13664875 43.91070441 -28.17830034 53.15096496 -27.34814453 64.3515625 C-26.44688628 72.01916005 -21.74899368 78.19871444 -16.125 83.25 C-7.17994818 89.29104702 2.44346248 90.145502 12.875 88.25 C20.75378742 85.77887539 26.20246971 80.97799433 30.875 74.25 C35.46124612 65.34822367 35.97174044 55.19740864 33.08984375 45.6484375 C32.14261625 43.41650873 31.08722865 41.34872238 29.875 39.25 C29.53726563 38.62480469 29.19953125 37.99960938 28.8515625 37.35546875 C25.11689812 31.27670651 19.09441944 27.64314165 12.40234375 25.43359375 C-0.10635178 22.44737762 -11.00254226 25.59310302 -19.875 34.9375 Z " fill="#323232" transform="translate(304.125,110.75)"/>
<path d="M0 0 C1.31049316 0.01135986 1.31049316 0.01135986 2.64746094 0.02294922 C14.57596451 0.32546773 23.70401465 3.86082287 32.08984375 12.3671875 C43.03046358 24.99631737 42.34101267 41.88218537 42.28515625 57.62890625 C42.28328789 59.18545994 42.28186597 60.74201423 42.28086853 62.29856873 C42.27707622 66.36733667 42.26727453 70.43606811 42.25616455 74.50482178 C42.24587925 78.66792304 42.24135575 82.83103028 42.23632812 86.99414062 C42.22564886 95.14194558 42.20807921 103.28971403 42.1875 111.4375 C33.2775 111.4375 24.3675 111.4375 15.1875 111.4375 C15.15011719 107.05210937 15.11273437 102.66671875 15.07421875 98.1484375 C15.03601118 94.61293786 14.99493945 91.07749681 14.9519577 87.54205322 C14.90762035 83.83144261 14.86812255 80.12093651 14.84106445 76.41015625 C14.81471857 72.82430277 14.77410665 69.23884958 14.72431374 65.65324783 C14.69993884 63.64525774 14.68968211 61.63711178 14.67985535 59.6289978 C14.51919271 49.39996607 14.17489474 38.11778797 8.1875 29.4375 C3.83832431 25.74729033 -1.2826123 25.30927072 -6.8125 25.4375 C-13.14182663 26.46486896 -17.84663482 28.18856079 -21.8125 33.4375 C-25.87319103 40.12244713 -26.9097449 46.18120279 -27.01782227 53.99365234 C-27.03776749 55.27452728 -27.05771271 56.55540222 -27.07826233 57.87509155 C-27.09524146 59.25787234 -27.11212045 60.64065435 -27.12890625 62.0234375 C-27.14950055 63.44976368 -27.17049764 64.87608409 -27.19187927 66.30239868 C-27.24684444 70.0407034 -27.29636543 73.77906085 -27.34472656 77.51745605 C-27.39512924 81.33850753 -27.45071695 85.15948326 -27.50585938 88.98046875 C-27.61312797 96.46608324 -27.71416155 103.9517619 -27.8125 111.4375 C-36.7225 111.4375 -45.6325 111.4375 -54.8125 111.4375 C-54.8125 75.4675 -54.8125 39.4975 -54.8125 2.4375 C-46.5625 2.4375 -38.3125 2.4375 -29.8125 2.4375 C-29.4825 5.0775 -29.1525 7.7175 -28.8125 10.4375 C-28.19503906 9.96699219 -27.57757812 9.49648437 -26.94140625 9.01171875 C-26.09449219 8.38910156 -25.24757813 7.76648438 -24.375 7.125 C-23.55128906 6.51011719 -22.72757813 5.89523438 -21.87890625 5.26171875 C-14.85975545 1.08599464 -8.08640247 -0.09876761 0 0 Z " fill="#333333" transform="translate(553.8125,110.5625)"/>
<path d="M0 0 C9.64620698 6.91936401 14.70950846 15.62424003 16.91326904 27.17523193 C17.77858112 33.97509527 17.5531749 40.85253396 17.5078125 47.6953125 C17.50407544 49.36253692 17.50123175 51.02976355 17.49923706 52.69699097 C17.49165512 57.05348941 17.47205433 61.40985133 17.4498291 65.76629639 C17.42925251 70.22438715 17.42021025 74.68250029 17.41015625 79.140625 C17.38880249 87.86465251 17.35366568 96.58854346 17.3125 105.3125 C8.4025 105.3125 -0.5075 105.3125 -9.6875 105.3125 C-9.70208252 103.34047607 -9.71666504 101.36845215 -9.73168945 99.33666992 C-9.78357192 92.78272382 -9.84891847 86.22901709 -9.92321491 79.6752882 C-9.96772772 75.706154 -10.00702437 71.73711793 -10.03393555 67.76782227 C-10.06016099 63.92912281 -10.10069498 60.090805 -10.15068626 56.25234413 C-10.16722615 54.79616395 -10.17881987 53.33991796 -10.18511391 51.88365746 C-10.23099972 42.23286501 -10.62260086 32.97077534 -15.3125 24.3125 C-20.1364014 20.25026724 -25.5063299 18.9854048 -31.75 19.3125 C-38.14107706 20.22693093 -42.56296463 23.18796463 -47.0625 27.6875 C-52.94217435 37.18543549 -51.8560956 50.212438 -52.00390625 60.9765625 C-52.02468735 62.24978363 -52.04546844 63.52300476 -52.06687927 64.83480835 C-52.1208206 68.18508869 -52.17117644 71.53538226 -52.21972656 74.88574219 C-52.27037513 78.31840788 -52.32578688 81.75099666 -52.38085938 85.18359375 C-52.48816398 91.89316831 -52.58764054 98.60279406 -52.6875 105.3125 C-61.2675 105.3125 -69.8475 105.3125 -78.6875 105.3125 C-78.6875 69.3425 -78.6875 33.3725 -78.6875 -3.6875 C-70.7675 -3.6875 -62.8475 -3.6875 -54.6875 -3.6875 C-54.6875 -0.7175 -54.6875 2.2525 -54.6875 5.3125 C-54.09324219 4.85359375 -53.49898438 4.3946875 -52.88671875 3.921875 C-37.45604972 -7.50113971 -16.93105333 -10.37345003 0 0 Z " fill="#333333" transform="translate(461.6875,116.6875)"/>
<path d="M0 0 C0.33 0 0.66 0 1 0 C1.20302734 1.40185547 1.20302734 1.40185547 1.41015625 2.83203125 C3.89542278 18.49992794 9.41880403 33.08725574 17 47 C17.33 47 17.66 47 18 47 C18.81726799 62.70970701 15.02094547 77.25469373 10 92 C9.34 92 8.68 92 8 92 C5.28138519 83.05554976 2.61050105 74.22377877 1 65 C1.35023035 73.93087385 3.03128554 82.33021149 5.0625 90.99609375 C5.22379395 91.69637695 5.38508789 92.39666016 5.55126953 93.11816406 C5.91256006 94.63330412 6.32014714 96.13736483 6.7421875 97.63671875 C7.09977993 100.91464937 6.19371681 103.27203603 5.125 106.375 C-0.98346917 125.22699969 1.4915748 145.57440265 10.05078125 163.2734375 C14.74232044 172.4583815 21.41077774 184.20538887 31 189 C31 189.66 31 190.32 31 191 C19.27816544 190.31048032 9.79988471 185.50923495 1 178 C-0.3695891 177.01327914 -1.74448504 176.03387573 -3.125 175.0625 C-9.35840524 170.40607178 -13.79295509 164.46081896 -18 158 C-18.556875 157.443125 -19.11375 156.88625 -19.6875 156.3125 C-22.77250204 153.22749796 -22.47571612 148.43337246 -22.8125 144.3125 C-22.88919922 143.62994141 -22.96589844 142.94738281 -23.04492188 142.24414062 C-23.48992036 136.56638881 -21.91944223 132.82746871 -19 128 C-19.55647217 128.01047363 -20.11294434 128.02094727 -20.6862793 128.03173828 C-34.59963141 128.25649134 -48.17690431 127.583013 -62 126 C-62 125.34 -62 124.68 -62 124 C-60.35451172 123.20335937 -60.35451172 123.20335937 -58.67578125 122.390625 C-57.22119474 121.67740839 -55.7667765 120.96384852 -54.3125 120.25 C-53.59126953 119.90195313 -52.87003906 119.55390625 -52.12695312 119.1953125 C-48.94051573 117.62391871 -46.19973713 116.16350432 -43.4375 113.90234375 C-40.42135783 111.54839946 -37.28986735 110.43968215 -33.6875 109.3125 C-33.02613037 109.09827393 -32.36476074 108.88404785 -31.68334961 108.66333008 C-27.09809239 107.22350413 -22.78650846 106.29305154 -18 106 C-18.65484375 105.55011719 -19.3096875 105.10023438 -19.984375 104.63671875 C-25.42288852 100.80364213 -30.59665663 96.80031755 -35.5625 92.375 C-36.07458008 91.93244873 -36.58666016 91.48989746 -37.11425781 91.03393555 C-40.52566059 87.92593426 -41.71121787 85.36159891 -43 81 C-44.18511223 79.02214377 -45.43953522 77.08462633 -46.75 75.1875 C-47.45640625 74.15496094 -48.1628125 73.12242188 -48.890625 72.05859375 C-49.93476562 70.54458984 -49.93476562 70.54458984 -51 69 C-52.17006802 67.25227235 -53.33716964 65.50255147 -54.5 63.75 C-54.9846875 63.02296875 -55.469375 62.2959375 -55.96875 61.546875 C-56.3090625 61.03640625 -56.649375 60.5259375 -57 60 C-53.00617754 60 -51.37686303 61.54845947 -48.0625 63.75 C-41.15662109 68.18259704 -34.0756597 71.21173467 -25.90625 72.48046875 C-23.20839327 72.9627469 -21.33781337 73.60337608 -18.9375 74.875 C-18.26589844 75.22820312 -17.59429687 75.58140625 -16.90234375 75.9453125 C-14.56551767 77.24088343 -12.26583943 78.58385036 -10 80 C-10 76.64533179 -10.74304532 73.98909802 -11.57421875 70.73828125 C-13.28225605 62.9179033 -12.83669225 56.07004848 -11.8125 48.1875 C-11.60270508 46.32061523 -11.60270508 46.32061523 -11.38867188 44.41601562 C-10.61748978 37.83130701 -9.55416111 31.43953094 -8 25 C-7.67363678 23.46584626 -7.35211386 21.93065576 -7.03515625 20.39453125 C-6.7109375 18.8671875 -6.38671875 17.33984375 -6.0625 15.8125 C-5.90587891 15.04486328 -5.74925781 14.27722656 -5.58789062 13.48632812 C-3.42358079 3.42358079 -3.42358079 3.42358079 0 0 Z " fill="#4FAA50" transform="translate(126,30)"/>
<path d="M0 0 C0 8.58 0 17.16 0 26 C-3.63 26.66 -7.26 27.32 -11 28 C-16.4334668 30.66733825 -18.48205448 33.68433725 -21 39 C-22.01025746 42.92551315 -22.15200596 46.67359497 -22.20532227 50.71801758 C-22.22017166 51.69934662 -22.22017166 51.69934662 -22.23532104 52.70050049 C-22.26673914 54.84847478 -22.29161492 56.99647113 -22.31640625 59.14453125 C-22.33699282 60.63954725 -22.35798973 62.13455765 -22.37937927 63.62956238 C-22.43442415 67.55365448 -22.48391053 71.47779758 -22.53222656 75.40197754 C-22.58257044 79.41060901 -22.63818907 83.41916694 -22.69335938 87.42773438 C-22.80072571 95.28509561 -22.90173015 103.14251973 -23 111 C-31.91 111 -40.82 111 -50 111 C-50 75.03 -50 39.06 -50 2 C-41.75 2 -33.5 2 -25 2 C-24.67 4.31 -24.34 6.62 -24 9 C-23.48050781 8.51789063 -22.96101562 8.03578125 -22.42578125 7.5390625 C-21.72839844 6.90742187 -21.03101563 6.27578125 -20.3125 5.625 C-19.62800781 4.99851562 -18.94351563 4.37203125 -18.23828125 3.7265625 C-12.10060124 -1.00791318 -8.13095021 0 0 0 Z " fill="#333333" transform="translate(794,111)"/>
<path d="M0 0 C2.13923746 2.13923746 2.85019254 3.75384117 4.0625 6.5 C9.80831295 18.07514062 18.83668069 25.31360717 30.71875 30.09375 C42.37760295 33.79715035 54.6607687 33.15074861 65.58984375 27.7109375 C70.44163436 25.10779966 70.44163436 25.10779966 74.26245117 21.25170898 C77.08327329 17.57733337 78.98379946 16.15717452 83.65258789 15.43505859 C88.08680339 15.22374247 92.50474696 15.38871247 96.9375 15.5625 C98.49537274 15.59765217 100.05332167 15.62958434 101.61132812 15.65820312 C105.40944735 15.73494401 109.20387948 15.8554978 113 16 C107.5860703 32.85931999 94.91778121 44.62440376 79.6484375 52.79296875 C67.28651522 58.54765671 53.60636962 60.98596881 40 60 C38.72769531 59.96519531 38.72769531 59.96519531 37.4296875 59.9296875 C28.99020783 59.10954998 24.11381114 53.19069164 19 47 C8.05135702 33.51931159 -0.87724922 17.83740078 0 0 Z " fill="#333333" transform="translate(132,163)"/>
<path d="M0 0 C2.16305445 1.65626071 4.20328339 3.38938767 6.23828125 5.19921875 C6.82480469 5.64523438 7.41132813 6.09125 8.015625 6.55078125 C16.06788049 12.79538755 22.26985538 21.88204498 26.23828125 31.19921875 C26.23828125 31.85921875 26.23828125 32.51921875 26.23828125 33.19921875 C21.9334619 33.37307751 17.63053225 33.49965102 13.32324219 33.58374023 C11.8603148 33.61881041 10.39763049 33.66648405 8.93554688 33.72729492 C-3.25628756 34.22144625 -3.25628756 34.22144625 -6.90820312 31.74169922 C-8.37471876 29.96800801 -9.55035445 28.1518137 -10.76171875 26.19921875 C-22.63015211 16.71851755 -35.00397914 14.79592617 -49.76171875 16.19921875 C-58.83639049 17.8090866 -65.60589057 21.5193625 -72.76171875 27.19921875 C-74.0931313 28.20177468 -75.42584521 29.20261468 -76.76171875 30.19921875 C-75.90485265 22.47757481 -74.53695359 14.84953535 -73.19921875 7.19921875 C-72.96271837 5.8385716 -72.72638883 4.47789474 -72.49023438 3.1171875 C-71.91573805 -0.18909745 -71.33951749 -3.4950721 -70.76171875 -6.80078125 C-68.55461892 -7.4508175 -66.34597983 -8.0956287 -64.13671875 -8.73828125 C-62.90695313 -9.09792969 -61.6771875 -9.45757812 -60.41015625 -9.828125 C-40.206526 -15.21431765 -17.49760785 -11.40933129 0 0 Z " fill="#333333" transform="translate(218.76171875,84.80078125)"/>
</svg>
